<?xml version="1.0" encoding="utf-8"?>
<svg height="975" id="back_svg_1" version="1.1" width="847" xmlns="http://www.w3.org/2000/svg">
<path d="M0 0 C279.51 0 559.02 0 847 0 C847 321.75 847 643.5 847 975 C567.49 975 287.98 975 0 975 C0 653.25 0 331.5 0 0 Z " fill="#FEFEFE" id="back_path_1" transform="translate(0,0)"/>
<path d="M0 0 C1.73056641 0.86238281 1.73056641 0.86238281 3.49609375 1.7421875 C31.1181392 14.99953128 62.53773747 21.78109726 92.93359375 24.6171875 C93.80242187 24.70476318 94.67125 24.79233887 95.56640625 24.88256836 C107.1183165 25.88673177 118.69279501 25.80326757 130.27978516 25.80249023 C133.89758267 25.80466584 137.51506909 25.82284421 141.1328125 25.84179688 C159.3807705 25.8866448 177.51708415 25.15658813 195.49609375 21.8046875 C196.4396875 21.63291992 197.38328125 21.46115234 198.35546875 21.28417969 C220.02120593 17.24174074 242.54422927 12.28629173 261.7121582 0.9675293 C266.36624014 -1.63857466 269.89296028 -1.49343839 274.93359375 -0.3828125 C278.11121403 0.64753566 281.16746093 1.91258847 284.2421875 3.21484375 C286.02163559 3.94759644 287.80142924 4.67951042 289.58154297 5.41064453 C290.92378937 5.9664621 290.92378937 5.9664621 292.29315186 6.5335083 C296.29021664 8.17396703 300.31514105 9.73975693 304.34375 11.30078125 C305.92386112 11.91552392 307.50393878 12.53035261 309.08398438 13.14526367 C309.88296143 13.45579681 310.68193848 13.76632996 311.50512695 14.08627319 C328.8047196 20.81184378 346.07703182 27.6049862 363.33203125 34.4440918 C365.10414746 35.14637009 366.8762827 35.84860034 368.6484375 36.55078125 C369.51242157 36.89312302 370.37640564 37.23546478 371.26657104 37.58818054 C377.04633108 39.87607747 382.83344979 42.14447896 388.625 44.40234375 C390.87433439 45.28113 393.12357089 46.16016642 395.37280273 47.03921509 C396.76080584 47.58046368 398.14945292 48.12006452 399.53881836 48.6578064 C419.82647604 56.51006979 419.82647604 56.51006979 422.93359375 59.6171875 C422.65528338 66.54615604 419.61387858 72.28045203 416.74609375 78.4921875 C412.83240132 87.15709371 409.25048621 95.78051081 406.25 104.80078125 C405.30641364 107.62634968 404.23158485 110.37044023 403.09765625 113.125 C373.13704365 187.29278789 364.47864243 269.9213198 364.61614227 349.1699295 C364.62116392 352.34910881 364.62264002 355.52827557 364.62359619 358.7074585 C364.6457599 393.56725862 365.29789468 428.39786531 366.30859375 463.2421875 C366.35610086 464.88777964 366.35610086 464.88777964 366.40456772 466.56661606 C367.1721471 493.00443083 368.13586225 519.43171879 369.24157715 545.85745239 C369.80137244 559.24118233 370.29261588 572.62437863 370.71044922 586.0133667 C371.92569914 624.4456455 373.7793496 662.85277622 375.54954338 701.26254654 C376.05730632 712.28939807 376.55789772 723.31657572 377.05859375 734.34375 C377.10306641 735.32293774 377.14753906 736.30212547 377.19335938 737.31098557 C377.44022228 742.74638085 377.68696914 748.18178139 377.93359375 753.6171875 C376.65568627 754.26454057 375.37680668 754.90997487 374.09751892 755.55459595 C373.02941184 756.09404311 373.02941184 756.09404311 371.93972683 756.6443882 C369.67027663 757.7448733 367.41053636 758.58802794 365 759.328125 C364.11795898 759.60019775 363.23591797 759.87227051 362.32714844 760.15258789 C360.92577637 760.5681897 360.92577637 760.5681897 359.49609375 760.9921875 C357.98837402 761.4416272 357.98837402 761.4416272 356.45019531 761.90014648 C333.59601481 768.59750427 310.43904424 772.98923371 286.93359375 776.6171875 C286.20626038 776.73104797 285.478927 776.84490845 284.72955322 776.96221924 C261.9770353 780.51320502 239.15251732 782.40395268 216.18359375 783.8671875 C214.88191254 783.95027161 213.58023132 784.03335571 212.23910522 784.11895752 C186.28655388 785.74873588 160.37660093 786.81249753 134.37109375 786.7421875 C133.29486755 786.74030426 132.21864136 786.73842102 131.10980225 786.73648071 C97.59550952 786.66834343 64.34689712 785.21052386 30.93359375 782.6171875 C30.21703613 782.56260376 29.50047852 782.50802002 28.76220703 782.45178223 C-15.35014366 779.08379517 -59.08867613 772.34101577 -101.46875 759.51171875 C-102.36070068 759.24206299 -103.25265137 758.97240723 -104.17163086 758.69458008 C-107.95568299 757.28621185 -111.48832468 755.47946593 -115.06640625 753.6171875 C-114.97870596 751.68653814 -114.89099871 749.75588909 -114.80326843 747.82524109 C-114.71772147 745.94252135 -114.63220293 744.05980031 -114.54670715 742.17707825 C-114.29072427 736.54269605 -114.03412179 730.90834288 -113.77639484 725.27404022 C-110.29076934 649.06941118 -106.88916649 572.86112298 -104.37890625 496.6171875 C-104.3482243 495.68952827 -104.31754234 494.76186905 -104.28593063 493.80609894 C-103.88171607 481.57611701 -103.4988161 469.34564825 -103.14025116 457.11424255 C-103.0675753 454.65671893 -102.9927868 452.19926745 -102.9175415 449.74182129 C-102.04904611 421.11352021 -101.84770929 392.49111506 -101.82617188 363.85058594 C-101.82176666 358.85441877 -101.80775208 353.85842228 -101.78515625 348.86230469 C-101.50053495 284.55545541 -107.85495305 222.7005961 -125.06640625 160.6171875 C-125.39753418 159.4194873 -125.72866211 158.22178711 -126.06982422 156.98779297 C-134.07479153 128.37074631 -143.77836496 100.27963715 -156.05859375 73.20703125 C-156.34951904 72.55686035 -156.64044434 71.90668945 -156.94018555 71.23681641 C-157.68042587 69.59287436 -158.4406986 67.9579896 -159.203125 66.32421875 C-160.21683436 63.14548308 -160.14530536 61.75646937 -159.06640625 58.6171875 C-156.9765625 57.0690918 -156.9765625 57.0690918 -154.12890625 55.75390625 C-153.03707031 55.24907715 -151.94523438 54.74424805 -150.8203125 54.22412109 C-143.64138962 51.11103288 -136.35983695 48.26103321 -129.06640625 45.4296875 C-127.363069 44.76356331 -125.65994679 44.09688903 -123.95703125 43.4296875 C-120.55970987 42.09949696 -117.16128662 40.77219241 -113.76171875 39.44775391 C-107.52471598 37.01751798 -101.29565789 34.56721719 -95.06640625 32.1171875 C-92.83465341 31.24083958 -90.60288213 30.36453865 -88.37109375 29.48828125 C-64.14547681 19.97035058 -39.94086337 10.40124204 -15.78491211 0.70776367 C-14.88780518 0.34787354 -13.99069824 -0.0120166 -13.06640625 -0.3828125 C-12.17308594 -0.76381104 -11.27976562 -1.14480957 -10.359375 -1.53735352 C-6.38179158 -3.00396035 -3.74685978 -1.6896667 0 0 Z " fill="#FEFEFE" id="back_path_2" transform="translate(289.06640625,82.3828125)"/>
<path d="M0 0 C32.37267933 9.91252864 65.21888192 12.2908495 98.86791992 12.3449707 C100.51108185 12.35048447 100.51108185 12.35048447 102.18743896 12.35610962 C121.89269636 12.39064525 141.32329325 11.24563746 160.74291992 7.7824707 C162.55759766 7.46475708 162.55759766 7.46475708 164.40893555 7.140625 C182.57692061 3.93844968 182.57692061 3.93844968 199.89916992 -2.20581055 C205.2345007 -3.93979305 210.43361225 -1.68434806 215.26635742 0.63012695 C217.01178833 1.44864136 217.01178833 1.44864136 218.79248047 2.28369141 C219.72173843 2.72462631 219.72173843 2.72462631 220.66976929 3.17446899 C233.55232843 9.26148172 246.6423641 14.71103538 259.93041992 19.8449707 C260.79050659 20.17753876 261.65059326 20.51010681 262.53674316 20.85275269 C267.87688542 22.91465125 273.2217886 24.96396944 278.56842041 27.00897217 C286.50612884 30.04663694 294.43760711 33.10055916 302.36791992 36.1574707 C303.25119965 36.49788391 304.13447937 36.83829712 305.04452515 37.18902588 C320.4192907 43.11990101 335.75265113 49.15435676 351.06121826 55.25384521 C353.48977203 56.22094274 355.9189984 57.18635317 358.34893799 58.14996338 C361.76371835 59.50508571 365.17555631 60.86736759 368.58666992 62.23168945 C369.58806 62.62796036 370.58945007 63.02423126 371.6211853 63.43251038 C405.80001651 77.16883838 422.64210441 103.84159739 436.86791992 136.5949707 C458.73123271 187.95828069 474.73479238 241.92875807 488.24291992 296.0324707 C488.48268555 296.9836377 488.72245117 297.93480469 488.96948242 298.91479492 C489.69501795 301.80595855 490.40881162 304.6997383 491.11791992 307.5949707 C491.33367676 308.45880371 491.54943359 309.32263672 491.77172852 310.21264648 C493.95534304 319.30046959 493.95534304 319.30046959 493.24291992 323.0324707 C488.5431733 327.2906304 482.37461056 329.12578728 476.49291992 331.2824707 C475.43508301 331.67233154 474.37724609 332.06219238 473.28735352 332.46386719 C436.34375635 345.88480458 397.51546679 355.23932275 358.24291992 358.0324707 C357.56148926 358.0845166 356.88005859 358.1365625 356.17797852 358.19018555 C348.30385168 358.73506017 348.30385168 358.73506017 345.24291992 358.0324707 C341.4166941 353.75985187 340.48075706 347.33430988 339.05541992 341.9074707 C338.7827832 340.90586914 338.51014648 339.90426758 338.22924805 338.87231445 C336.24291992 331.45469815 336.24291992 331.45469815 336.24291992 328.0324707 C335.58291992 328.0324707 334.92291992 328.0324707 334.24291992 328.0324707 C334.75388718 427.51055917 337.98657383 526.72737701 346.8029232 736.1006639 C346.89753711 738.19553687 346.99172631 740.29042857 347.08583069 742.38532448 C347.6957929 755.94267953 348.33864099 769.49132881 349.24291992 783.0324707 C349.41787528 785.95328248 349.54028522 788.8562396 349.61791992 791.7824707 C349.6669043 793.07668945 349.71588867 794.3709082 349.76635742 795.7043457 C349.24291992 799.0324707 349.24291992 799.0324707 347.05932617 801.30981445 C316.36643715 820.08313492 275.74472027 824.23075597 240.74291992 828.7199707 C239.91074951 828.82720459 239.0785791 828.93443848 238.22119141 829.04492188 C227.59296536 830.33322227 216.91036146 831.14520455 206.24291992 832.0324707 C204.9283783 832.14448318 204.9283783 832.14448318 203.58728027 832.25875854 C169.55653071 835.13910797 135.55880101 835.30956475 101.43041992 835.2824707 C100.33161247 835.28207039 99.23280502 835.28167007 98.10070038 835.28125763 C62.9988418 835.2662364 28.01537109 834.88328369 -7.00708008 832.2824707 C-8.18066071 832.19665741 -9.35424133 832.11084412 -10.56338501 832.02243042 C-30.78026275 830.52610395 -50.75614131 828.3135976 -70.75708008 825.0324707 C-72.00328125 824.83540527 -73.24948242 824.63833984 -74.53344727 824.43530273 C-140.92017109 813.86937969 -140.92017109 813.86937969 -155.75708008 799.0324707 C-156.8253912 786.62095308 -155.34779863 773.74427547 -154.64317513 761.34052658 C-154.28551725 755.01489152 -153.94614934 748.68828445 -153.6081543 742.36157227 C-153.55489721 741.36584879 -153.55489721 741.36584879 -153.50056422 740.35000968 C-152.66456641 724.67302402 -151.96374357 708.99069314 -151.29223633 693.3059082 C-151.2623919 692.60943515 -151.23254748 691.91296209 -151.20179868 691.19538379 C-150.79836711 681.77059501 -150.40206615 672.34551289 -150.00832748 662.92031479 C-149.81664679 658.33336039 -149.62352698 653.74646709 -149.43032837 649.15957642 C-147.64262527 606.68416164 -145.96265139 564.20594608 -144.44458008 521.7199707 C-144.38328856 520.00631947 -144.38328856 520.00631947 -144.32075882 518.25804901 C-143.87532784 505.78550719 -143.44006547 493.3126894 -143.02385521 480.83913708 C-142.84321435 475.4590723 -142.64522698 470.08010407 -142.43359375 464.70117188 C-141.45812536 438.73431029 -141.64174068 412.75578674 -141.68841553 386.77471924 C-141.69881306 380.3573846 -141.70324763 373.94004578 -141.70825195 367.52270508 C-141.71884177 355.02594961 -141.73581227 342.52921226 -141.75708008 330.0324707 C-142.15213745 331.65294312 -142.15213745 331.65294312 -142.55517578 333.30615234 C-142.91008973 334.74751364 -143.2651599 336.18883647 -143.62036133 337.63012695 C-143.87903992 338.69390564 -143.87903992 338.69390564 -144.14294434 339.7791748 C-147.96787445 355.24326507 -147.96787445 355.24326507 -150.75708008 358.0324707 C-194.95171607 362.38497273 -257.78040368 344.74086019 -297.75708008 325.0324707 C-298.41708008 324.3724707 -299.07708008 323.7124707 -299.75708008 323.0324707 C-299.5007928 316.49714515 -297.57334251 310.37103627 -295.79223633 304.10668945 C-294.98578839 301.12376332 -294.41519845 298.15385092 -293.90551758 295.10668945 C-292.53621939 287.33447578 -290.40080531 279.76205378 -288.31958008 272.1574707 C-288.10088257 271.35490845 -287.88218506 270.55234619 -287.65686035 269.72546387 C-248.20593014 125.15254102 -248.20593014 125.15254102 -215.75708008 89.0324707 C-214.7902832 87.85297852 -214.7902832 87.85297852 -213.80395508 86.6496582 C-203.62839345 74.44725706 -190.19169117 68.23676278 -175.71801758 62.50512695 C-174.13638321 61.87295509 -174.13638321 61.87295509 -172.52279663 61.22801208 C-169.06097124 59.84590378 -165.59660516 58.47029619 -162.13208008 57.0949707 C-159.68830501 56.12123865 -157.24462172 55.14727622 -154.80102539 54.1730957 C-135.03442015 46.29891288 -115.22905463 38.52350914 -95.42163086 30.75268555 C-59.70508683 16.98960985 -59.70508683 16.98960985 -24.58520508 1.80200195 C-23.93616211 1.50503418 -23.28711914 1.20806641 -22.6184082 0.90209961 C-21.3816233 0.3242628 -20.15581862 -0.27770643 -18.94262695 -0.90356445 C-12.26281775 -4.17874222 -6.7009988 -2.05233038 0 0 Z M-49.37036133 17.56762695 C-50.37268799 17.97195198 -50.37268799 17.97195198 -51.39526367 18.38444519 C-52.85210677 18.97269995 -54.30801187 19.56328175 -55.76309204 20.15588379 C-58.92271833 21.44232606 -62.08709971 22.7168713 -65.25126648 23.99209595 C-66.91596748 24.66307598 -68.58044328 25.33461499 -70.2447052 26.00668335 C-78.8362137 29.47460874 -87.45031582 32.88423614 -96.06958008 36.2824707 C-97.2221077 36.73740906 -97.2221077 36.73740906 -98.3979187 37.20153809 C-108.10424822 41.0328019 -117.81948641 44.84072837 -127.54223633 48.63012695 C-151.91013097 58.08624028 -151.91013097 58.08624028 -176.13208008 67.9074707 C-177.03297363 68.28170166 -177.93386719 68.65593262 -178.86206055 69.04150391 C-181.17162079 70.01491923 -183.46518143 71.01832881 -185.75708008 72.0324707 C-186.52568359 72.35119141 -187.29428711 72.66991211 -188.08618164 72.99829102 C-188.81546875 73.32152344 -189.54475586 73.64475586 -190.29614258 73.9777832 C-190.94019043 74.25380371 -191.58423828 74.52982422 -192.24780273 74.81420898 C-193.95600566 75.98379845 -193.95600566 75.98379845 -194.61865234 78.29492188 C-194.79473809 81.77719609 -193.90621791 83.73189284 -192.43286133 86.88793945 C-191.90466797 88.05010986 -191.37647461 89.21228027 -190.83227539 90.40966797 C-190.40186951 91.33792892 -190.40186951 91.33792892 -189.96276855 92.28494263 C-169.53337232 136.54374839 -155.33895411 185.10155454 -146.75708008 233.0324707 C-146.44843018 234.69101074 -146.44843018 234.69101074 -146.13354492 236.38305664 C-143.23410713 252.02643301 -141.11218749 267.64795548 -139.50708008 283.4699707 C-139.42408661 284.28782043 -139.34109314 285.10567017 -139.25558472 285.94830322 C-139.01691299 288.32878306 -138.78381881 290.70971889 -138.55395508 293.09106445 C-138.48751297 293.77147293 -138.42107086 294.45188141 -138.35261536 295.15290833 C-138.13789789 297.44494343 -137.94576289 299.73814261 -137.75708008 302.0324707 C-137.66891022 303.02857361 -137.58074036 304.02467651 -137.48989868 305.05096436 C-136.51989927 317.35719118 -136.61204671 329.65671288 -136.62426758 341.9934082 C-136.62359135 344.42965708 -136.6226187 346.86590589 -136.62136841 349.30215454 C-136.61989914 354.40741621 -136.62201626 359.51266031 -136.62670898 364.61791992 C-136.63232795 371.03056013 -136.62906989 377.44315815 -136.62327862 383.85579681 C-136.60124662 412.41935043 -136.77671406 440.95533605 -137.67762756 469.50547028 C-137.75998159 472.12475384 -137.84011679 474.74409825 -137.9197998 477.36346436 C-138.29119379 489.53051696 -138.68815922 501.69664343 -139.09661865 513.86250305 C-139.19663038 516.84358477 -139.29612821 519.82468328 -139.39550781 522.80578613 C-139.84283799 536.21490535 -140.29695115 549.62378474 -140.75708008 563.0324707 C-140.78255165 563.77579651 -140.80802322 564.51912231 -140.83426666 565.28497314 C-141.85244917 594.9768757 -143.1314986 624.65009047 -144.5769043 654.32421875 C-145.79685494 679.43094579 -146.8734053 704.54317391 -147.93424988 729.65705872 C-147.96324057 730.34336679 -147.99223125 731.02967487 -148.02210045 731.73678017 C-148.0793525 733.09269353 -148.13656469 734.44860857 -148.19373512 735.80452538 C-148.68911826 747.54838309 -149.21219093 759.2908121 -149.75708008 771.0324707 C-107.4270375 792.99275561 -50.4443927 796.39431444 -3.75708008 800.0324707 C-2.94775024 800.09585632 -2.13842041 800.15924194 -1.30456543 800.22454834 C23.85850113 802.18122896 49.00182083 803.73342031 74.24291992 804.0324707 C75.586828 804.04890625 75.586828 804.04890625 76.95788574 804.06567383 C107.18340414 804.41559258 137.30221214 803.89055384 167.48236084 802.18743896 C170.21499513 802.0340383 172.94790318 801.88662006 175.6809082 801.73999023 C262.76837359 799.11738173 262.76837359 799.11738173 343.24291992 771.0324707 C343.54848166 767.84996228 343.54848166 767.84996228 343.26391602 764.03759766 C343.23009921 763.31108379 343.19628241 762.58456993 343.16144085 761.8360405 C343.04427092 759.39665166 342.90517122 756.95899765 342.76635742 754.52075195 C342.67912998 752.78924979 342.59334014 751.05767468 342.50889587 749.32603455 C342.32492465 745.6102818 342.13154491 741.89518277 341.93081665 738.18029785 C341.61467804 732.32480284 341.31954123 726.46837708 341.02880859 720.61157227 C340.73095231 714.62582262 340.43234135 708.64012467 340.12693787 702.65475464 C339.24456765 685.34042986 338.46372836 668.02291086 337.74053955 650.70126343 C337.59103505 647.12109093 337.43799946 643.54108133 337.28376007 639.96111012 C336.65413386 625.31024431 336.12933096 610.65930317 335.7291317 596.00039291 C335.36589711 582.84693062 334.83525143 569.70259274 334.28198242 556.5559082 C333.22341372 531.2613058 332.34651173 505.96371664 331.61791992 480.6574707 C331.58550957 479.53355801 331.55309921 478.40964531 331.51970673 477.25167465 C330.53054746 442.66388403 329.92061665 408.08631544 329.87366486 373.48400116 C329.86803056 370.40542398 329.8570249 367.32690884 329.84466553 364.24835205 C329.54887618 280.63344103 341.18214698 194.83054636 373.24291992 117.0324707 C373.62988037 116.09000488 374.01684082 115.14753906 374.41552734 114.17651367 C375.664198 111.14668386 376.9212495 108.12045064 378.18041992 105.0949707 C378.8059375 103.58386719 378.8059375 103.58386719 379.4440918 102.04223633 C381.91261347 96.10939058 384.49983487 90.27461294 387.32714844 84.50292969 C388.38258796 81.65569094 388.87190564 80.02548196 388.24291992 77.0324707 C384.23640912 73.68568352 379.68974068 71.80428803 374.85620117 69.95825195 C373.78032242 69.53712128 373.78032242 69.53712128 372.68270874 69.10748291 C370.30943773 68.18010527 367.93245154 67.26266133 365.55541992 66.3449707 C363.86151276 65.6848607 362.16791564 65.02395458 360.47460938 64.36230469 C356.89480677 62.96394918 353.31382105 61.56868226 349.73217773 60.17504883 C344.35087712 58.07809104 338.97905045 55.95771687 333.61010742 53.8293457 C332.73162643 53.48109741 331.85314545 53.13284912 330.94804382 52.77404785 C329.16804332 52.06826509 327.38807001 51.36241376 325.60812378 50.65649414 C308.41273391 43.83971741 291.19184867 37.08941577 273.95263672 30.38427734 C248.99464961 20.67300932 248.99464961 20.67300932 242.79858398 17.96362305 C238.1250749 15.98876018 235.1753957 16.011046 230.24291992 17.0324707 C227.37994048 18.33032076 227.37994048 18.33032076 224.49291992 20.0324707 C188.30687479 39.32149434 144.16430517 43.22047572 103.95166016 43.21777344 C100.34484821 43.21994694 96.73834939 43.23811918 93.1315918 43.25708008 C74.44121484 43.30303188 55.8100096 42.53982 37.36791992 39.2824707 C36.39580566 39.11473145 35.42369141 38.94699219 34.42211914 38.77416992 C9.7501763 34.36043626 -14.70820407 27.98983771 -37.02270508 16.32543945 C-41.83320962 14.05075802 -44.65368242 15.65146632 -49.37036133 17.56762695 Z " fill="#0B0B0B" id="back_path_3" transform="translate(323.757080078125,64.967529296875)"/>
<path d="M0 0 C28.78303664 62.97526123 76.54580086 176.09459124 53 246 C51.23797203 247.76202797 48.8015948 247.17813814 46.41015625 247.1953125 C38.63685458 247.12967928 31.10057183 246.09669317 23.4375 244.875 C22.37341919 244.70993454 22.37341919 244.70993454 21.2878418 244.54153442 C7.71061568 242.43121722 -5.70241864 239.73133207 -19.09716797 236.66259766 C-21.5836554 236.09503442 -24.07294124 235.547528 -26.56640625 235.01171875 C-39.90889093 232.09095197 -52.96731008 228.05800602 -66 224 C-67.70542969 223.47237061 -67.70542969 223.47237061 -69.4453125 222.93408203 C-72.68117955 221.92005815 -75.9042208 220.87335466 -79.125 219.8125 C-80.10871582 219.5040918 -81.09243164 219.19568359 -82.10595703 218.87792969 C-83.44956299 218.42208496 -83.44956299 218.42208496 -84.8203125 217.95703125 C-85.60680176 217.69897705 -86.39329102 217.44092285 -87.20361328 217.17504883 C-89 216 -89 216 -89.89233398 213.92700195 C-90.04521808 209.77070386 -89.01652875 206.19447458 -87.90234375 202.2109375 C-87.55533165 200.92408554 -87.55533165 200.92408554 -87.2013092 199.61123657 C-86.70776817 197.78923409 -86.20896948 195.96864886 -85.70532227 194.14941406 C-84.954349 191.43588142 -84.21880579 188.71857611 -83.48632812 186 C-80.90271535 176.48243207 -78.12977717 167.04604544 -75.11360168 157.65666199 C-73.64782345 153.08792786 -72.26693833 148.50905403 -70.9765625 143.88671875 C-68.69455955 135.77750024 -66.05088919 127.7984632 -63.375 119.8125 C-62.98199707 118.63772095 -62.98199707 118.63772095 -62.58105469 117.43920898 C-33.77105773 31.47080512 -33.77105773 31.47080512 -9 6 C-8.40832031 5.35804688 -7.81664063 4.71609375 -7.20703125 4.0546875 C-3.3880814 0 -3.3880814 0 0 0 Z " fill="#FEFEFE" id="back_path_4" transform="translate(125,147)"/>
<path d="M0 0 C9.53360246 1.93166965 17.44229566 14.54683924 22.6640625 22.28125 C26.29182092 27.90264142 29.18229316 33.86119271 32.01123047 39.91357422 C32.97679052 41.95102513 33.98322479 43.96234254 35.00390625 45.97265625 C48.02549402 71.99758149 57.91885452 100.21661486 66.39385986 128.01589966 C67.05181968 130.16962324 67.71387145 132.32206278 68.37646484 134.47436523 C74.44530839 154.20308018 80.39614471 173.95591508 85.8125 193.875 C86.02900208 194.66358398 86.24550415 195.45216797 86.46856689 196.26464844 C87.07621637 198.48442798 87.67464507 200.70645786 88.26953125 202.9296875 C88.60573486 204.17991699 88.94193848 205.43014648 89.28833008 206.71826172 C89.91697444 209.61714252 90.15491447 212.05207906 90 215 C83.43790888 218.51512257 76.74953297 220.98159586 69.6875 223.3125 C67.91548218 223.89898315 67.91548218 223.89898315 66.10766602 224.49731445 C54.62861301 228.22836785 43.03091749 231.34375818 31.30566406 234.19580078 C29.13659645 234.72348976 26.96919718 235.25809438 24.80371094 235.80029297 C-29.40275925 249.36449326 -29.40275925 249.36449326 -49 247 C-53.0699867 244.28667554 -53.22967419 241.21574263 -54.1875 236.6875 C-54.36474609 235.94693359 -54.54199219 235.20636719 -54.72460938 234.44335938 C-70.22360732 163.77032241 -28.1268178 62.95284265 0 0 Z " fill="#FEFEFE" id="back_path_5" transform="translate(716,147)"/>
<path d="M0 0 C5.09020498 1.51222765 10.17170204 3.04620579 15.234375 4.6484375 C28.36660361 8.7791656 41.51045305 12.25140023 55 15 C55.83692383 15.17096191 56.67384766 15.34192383 57.53613281 15.51806641 C117.71435071 27.57484163 179.38137504 30.57785544 240.6050415 30.3225708 C244.97786488 30.3091034 249.35058718 30.31442752 253.72342205 30.31942368 C290.70904958 30.35150327 327.63288739 29.51247878 364.4375 25.625 C366.61098495 25.40274072 368.78448791 25.18065749 370.95800781 24.95874023 C410.37191479 20.88176419 449.89543133 15.02599478 487.23828125 1.3203125 C491 0 491 0 493 0 C494.13793975 4.14720958 494.33214254 8.22030729 494.4375 12.5 C494.50614258 13.63888672 494.50614258 13.63888672 494.57617188 14.80078125 C494.62071686 17.01253638 494.56378036 18.8593876 494 21 C491.36328125 23.35546875 491.36328125 23.35546875 488 25 C487.02546875 25.48082031 486.0509375 25.96164062 485.046875 26.45703125 C454.45169116 39.03585683 420.6545734 44.17946761 388 48 C386.89978516 48.1350293 385.79957031 48.27005859 384.66601562 48.40917969 C348.05318791 52.87281461 310.87283874 54.58209854 274 55 C272.5773584 55.01643555 272.5773584 55.01643555 271.12597656 55.03320312 C189.36586184 55.92048174 99.65201411 56.83094085 21 30.9375 C20.03916504 30.62127686 19.07833008 30.30505371 18.08837891 29.97924805 C2.70344812 24.70344812 2.70344812 24.70344812 -1 21 C-1.3524287 13.94106052 -1.09460611 6.97811397 0 0 Z " fill="#FBFBFB" id="back_path_6" transform="translate(174,841)"/>
<path d="M0 0 C0.33 0 0.66 0 1 0 C6.31070483 38.07888354 7.4379922 75.58817565 7.26428223 113.99682617 C7.24529799 118.98562442 7.24118177 123.9743855 7.23742771 128.96321487 C7.21358598 157.98893782 6.89843282 186.98821956 6 216 C5.94587626 217.77901001 5.89182095 219.5580221 5.83782959 221.33703613 C5.46659887 233.50208161 5.06885335 245.66618343 4.66046143 257.83003235 C4.5604497 260.81111407 4.46095187 263.79221258 4.36157227 266.77331543 C3.91424209 280.18243464 3.46012893 293.59131404 3 307 C2.97452843 307.74332581 2.94905685 308.48665161 2.92281342 309.25250244 C1.90463091 338.944405 0.62558148 368.61761976 -0.81982422 398.29174805 C-2.03977486 423.39847509 -3.11632522 448.5107032 -4.1771698 473.62458801 C-4.20616049 474.31089609 -4.23515118 474.99720417 -4.26502037 475.70430946 C-4.32227243 477.06022282 -4.37948462 478.41613787 -4.43665504 479.77205467 C-4.93203818 491.51591239 -5.45511085 503.2583414 -6 515 C9.20137158 521.32593624 25.03399242 525.15470696 41 529 C42.00998047 529.24637207 43.01996094 529.49274414 44.06054688 529.74658203 C74.96810991 537.15719921 107.36094242 540.5344943 139 543 C140.21399475 543.09507843 140.21399475 543.09507843 141.45251465 543.19207764 C166.61558121 545.14875826 191.75890091 546.70094961 217 547 C218.34390808 547.01643555 218.34390808 547.01643555 219.71496582 547.03320312 C249.94048422 547.38312187 280.05929222 546.85808313 310.23944092 545.15496826 C312.9720752 545.0015676 315.70498326 544.85414936 318.43798828 544.70751953 C361.67646842 542.34771688 405.35850024 537.60513137 447.36450195 526.79101562 C448.82762817 526.41879883 448.82762817 526.41879883 450.3203125 526.0390625 C451.17898926 525.81428223 452.03766602 525.58950195 452.92236328 525.35791016 C455 525 455 525 457 526 C456.67 527.32 456.34 528.64 456 530 C445.04615329 533.11522141 434.07751752 535.48215171 422.875 537.5 C422.04519623 537.65062897 421.21539246 537.80125793 420.36044312 537.95645142 C399.00674803 541.82084659 377.62724253 544.75781407 356.03134155 546.8656311 C354.34064983 547.0307126 352.65020675 547.19837603 350.96011353 547.36947632 C315.2486872 550.94084915 279.29860444 551.35672638 243.44140625 551.31567383 C239.0744393 551.31104858 234.70775141 551.31797283 230.34082031 551.33618164 C153.11897418 551.65461018 65.48246593 549.8990172 -7 520 C-7 526.93 -7 533.86 -7 541 C50.49084001 571.04729591 127.44344671 571.5902896 190.78352356 573.17727661 C192.81434444 573.22854311 194.84504296 573.28458851 196.87573242 573.34082031 C199.24534872 573.40295978 201.61537785 573.45161747 203.9855957 573.48339844 C205.00226318 573.50821289 206.01893066 573.53302734 207.06640625 573.55859375 C207.93209229 573.57204834 208.79777832 573.58550293 209.68969727 573.59936523 C212.47138742 574.08174435 213.89307265 575.16613092 216 577 C215.67 577.66 215.34 578.32 215 579 C167.28789196 579.51611655 119.10655739 576.72776689 72 569 C70.75379883 568.80293457 69.50759766 568.60586914 68.22363281 568.40283203 C1.83690898 557.83690898 1.83690898 557.83690898 -13 543 C-14.06831113 530.58848238 -12.59071855 517.71180477 -11.88609505 505.30805588 C-11.52843717 498.98242081 -11.18906926 492.65581375 -10.85107422 486.32910156 C-10.79781713 485.33337808 -10.79781713 485.33337808 -10.74348414 484.31753898 C-9.90748633 468.64055332 -9.20666349 452.95822244 -8.53515625 437.2734375 C-8.50531183 436.57696444 -8.4754674 435.88049139 -8.4447186 435.16291308 C-8.04128703 425.73812431 -7.64498608 416.31304219 -7.25124741 406.88784409 C-7.05956671 402.30088969 -6.8664469 397.71399639 -6.67324829 393.12710571 C-4.88554519 350.65169094 -3.20557131 308.17347538 -1.6875 265.6875 C-1.64663898 264.54506584 -1.60577797 263.40263168 -1.56367874 262.22557831 C-1.11824777 249.75303648 -0.6829854 237.2802187 -0.26677513 224.80666637 C-0.08613427 219.42660159 0.1118531 214.04763336 0.32348633 208.66870117 C1.29895472 182.70183959 1.11533939 156.72331603 1.06866455 130.74224854 C1.05826702 124.3249139 1.05383245 117.90757508 1.04882812 111.49023438 C1.03823831 98.99347891 1.02126781 86.49674155 1 74 C0.73662842 75.08031494 0.47325684 76.16062988 0.2019043 77.27368164 C-0.15300966 78.71504294 -0.50807983 80.15636577 -0.86328125 81.59765625 C-1.03573364 82.30684204 -1.20818604 83.01602783 -1.38586426 83.7467041 C-5.21079437 99.21079437 -5.21079437 99.21079437 -8 102 C-10.12308153 102.09942806 -12.24959672 102.12969184 -14.375 102.125 C-15.53773438 102.12757813 -16.70046875 102.13015625 -17.8984375 102.1328125 C-21 102 -21 102 -24 101 C-24 99.68 -24 98.36 -24 97 C-25.89492187 96.76216797 -25.89492187 96.76216797 -27.828125 96.51953125 C-66.78229968 91.50119063 -106.59129485 83.69788815 -143.0625 68.6875 C-144.25999878 68.19926758 -144.25999878 68.19926758 -145.48168945 67.70117188 C-147.36225686 66.8901864 -149.18857715 65.95549907 -151 65 C-152.32435978 61.02692066 -151.18129186 58.19025432 -150.0625 54.3125 C-149.86720703 53.61060547 -149.67191406 52.90871094 -149.47070312 52.18554688 C-148.98800864 50.45491056 -148.49499154 48.72715934 -148 47 C-144.27140673 45.61565941 -142.12736441 46.41654541 -138.4921875 47.8359375 C-137.42226562 48.24070312 -136.35234375 48.64546875 -135.25 49.0625 C-133.02299737 49.92855658 -130.79642509 50.79572071 -128.5703125 51.6640625 C-121.98830843 54.15199705 -116.05285805 55.77172005 -109 56 C-109 55.34 -109 54.68 -109 54 C-102.92314853 54.97847608 -96.96271063 56.22109984 -91 57.75 C-71.51587397 62.72711894 -51.86361265 66.86570215 -32 70 C-30.89446777 70.17789063 -30.89446777 70.17789063 -29.76660156 70.359375 C-21.1240791 71.72848747 -12.74710793 72.26551086 -4 72 C0.95726709 55.82986689 -0.72361952 39.26600514 -2.37573242 22.66503906 C-2.95082005 16.55775654 -2.90184117 11.07323809 -2 5 C-1.67 5 -1.34 5 -1 5 C-0.67 3.35 -0.34 1.7 0 0 Z " fill="#0B0B0B" id="back_path_7" transform="translate(181,321)"/>
<path d="M0 0 C0.70697021 0.16636963 1.41394043 0.33273926 2.14233398 0.50415039 C4.35802229 1.06629499 6.5522444 1.6840977 8.75 2.3125 C37.97282825 10.27186799 68.0783649 13.19547903 98.29345703 13.13037109 C101.23084738 13.12503479 104.16808316 13.1303342 107.10546875 13.13671875 C123.78280472 13.14443276 140.20986365 12.50968518 156.75 10.25 C158.03060303 10.07662109 159.31120605 9.90324219 160.63061523 9.72460938 C175.45285186 7.63053488 190.10307382 4.67583077 204.24609375 -0.30078125 C212.11620272 -2.2990075 217.42767848 0.13891927 224.4375 3.5 C225.35982422 3.92925781 226.28214844 4.35851562 227.23242188 4.80078125 C229.49411773 5.85545807 231.74935886 6.9219859 234 8 C233 11 233 11 230.46484375 12.54296875 C190.32274719 31.25816549 147.42698071 36.45194095 103.5625 36.375 C102.43579895 36.37478851 101.3090979 36.37457703 100.14825439 36.37435913 C81.12065925 36.33893068 62.7662838 35.18530582 44 32 C42.84516113 31.81276367 41.69032227 31.62552734 40.50048828 31.43261719 C16.03300981 27.40398928 -6.95819821 20.04199323 -30 11 C-30 10.01 -30 9.02 -30 8 C-26.70273195 6.44449767 -23.38539787 4.93737275 -20.0625 3.4375 C-18.67321289 2.78104492 -18.67321289 2.78104492 -17.25585938 2.11132812 C-11.01479253 -0.66977885 -6.66147819 -1.61200078 0 0 Z " fill="#FCFCFC" id="back_path_8" transform="translate(318,69)"/>
<path d="M0 0 C0.33 0.66 0.66 1.32 1 2 C-1.50486649 5.75729974 -3.2599803 6.13494707 -7.453125 7.72265625 C-8.45962097 8.10885384 -8.45962097 8.10885384 -9.4864502 8.50285339 C-10.95837817 9.06634212 -12.43201954 9.62537005 -13.90710449 10.18054199 C-16.28814662 11.07685989 -18.66456179 11.98455112 -21.04003906 12.89550781 C-24.50070675 14.222203 -27.96283694 15.54498219 -31.42578125 16.86572266 C-41.22060351 20.60862008 -50.98499921 24.43013153 -60.75 28.25 C-61.73530701 28.6352182 -62.72061401 29.0204364 -63.73577881 29.41732788 C-74.98416004 33.81786464 -86.22236145 38.23616454 -97.375 42.875 C-98.27573242 43.24915039 -99.17646484 43.62330078 -100.10449219 44.00878906 C-105.17843946 46.14739494 -110.09992106 48.48800551 -115 51 C-114.57508653 57.98636794 -111.6389214 63.54929053 -108.6875 69.8125 C-89.3474936 112.129145 -75.80524673 158.60778601 -67.48779297 204.34179688 C-67.02517145 206.86282945 -66.53474553 209.37669584 -66.03515625 211.890625 C-62.72540063 228.88973489 -62.72540063 228.88973489 -64 236 C-64.99 236.66 -65.98 237.32 -67 238 C-68.31711098 232.43393966 -69.40200649 226.85040298 -70.375 221.21484375 C-76.59972207 185.37197114 -85.43830299 150.49143313 -97 116 C-97.41217773 114.76362793 -97.82435547 113.52725586 -98.24902344 112.25341797 C-103.39235307 96.97055896 -109.32364607 82.13523994 -115.88623047 67.41674805 C-116.42135254 66.21445557 -116.95647461 65.01216309 -117.5078125 63.7734375 C-117.98879395 62.70528809 -118.46977539 61.63713867 -118.96533203 60.53662109 C-120 58 -120 58 -120 56 C-136.32323753 65.12945674 -145.47274736 83.62839309 -153 100 C-153.40831055 100.88381348 -153.81662109 101.76762695 -154.23730469 102.67822266 C-164.4521885 124.95181845 -172.96742446 147.84460799 -180.9375 171 C-181.16501953 171.66073517 -181.39253906 172.32147034 -181.62695312 173.00222778 C-184.58540414 181.61868941 -187.36788405 190.2782283 -190 199 C-190.29140869 199.95197266 -190.58281738 200.90394531 -190.88305664 201.88476562 C-195.26802619 216.23333996 -199.33435651 230.66093943 -203.24581909 245.14489746 C-203.74744614 247.00233637 -204.25063341 248.85935464 -204.75540161 250.71594238 C-205.46742052 253.33913589 -206.17234556 255.96412838 -206.875 258.58984375 C-207.09022812 259.38037643 -207.30545624 260.17090912 -207.52720642 260.98539734 C-208.45203633 264.47367924 -209 267.36470009 -209 271 C-207.91468994 271.34780518 -206.82937988 271.69561035 -205.71118164 272.05395508 C-201.69482305 273.34456207 -197.68373761 274.65091903 -193.67407227 275.9621582 C-191.93621866 276.52801256 -190.19695516 277.08955543 -188.45629883 277.64672852 C-185.95793676 278.44725752 -183.46501592 279.26303463 -180.97265625 280.08203125 C-180.19036148 280.32903275 -179.40806671 280.57603424 -178.60206604 280.83052063 C-176.70217565 281.46328644 -174.8450093 282.22159346 -173 283 C-172.505 284.485 -172.505 284.485 -172 286 C-173 287 -173 287 -174.83032227 287.03930664 C-182.380129 286.44228858 -188.90218962 284.14147745 -195.9375 281.4375 C-198.15339277 280.5987445 -200.37077558 279.76391175 -202.58984375 278.93359375 C-203.55784912 278.56290771 -204.52585449 278.19222168 -205.52319336 277.81030273 C-208.04088397 276.84453047 -208.04088397 276.84453047 -211 277 C-212.32 282.61 -213.64 288.22 -215 294 C-175.47688509 311.96505223 -128.46787879 323.48389524 -85 326 C-85.33 326.99 -85.66 327.98 -86 329 C-86.66 329 -87.32 329 -88 329 C-88 329.66 -88 330.32 -88 331 C-98.82945539 330.52567129 -109.3316824 329.38205592 -120 327.4375 C-120.72411072 327.3075061 -121.44822144 327.17751221 -122.1942749 327.0435791 C-206.11833843 311.88166157 -206.11833843 311.88166157 -221 297 C-220.74371272 290.46467445 -218.81626243 284.33856557 -217.03515625 278.07421875 C-216.22870831 275.09129262 -215.65811838 272.12138022 -215.1484375 269.07421875 C-213.77913931 261.30200508 -211.64372523 253.72958308 -209.5625 246.125 C-209.34380249 245.32243774 -209.12510498 244.51987549 -208.89978027 243.69299316 C-169.44885006 99.12007032 -169.44885006 99.12007032 -137 63 C-136.35546875 62.21367187 -135.7109375 61.42734375 -135.046875 60.6171875 C-124.8259047 48.36033287 -111.31986398 42.15922451 -96.78515625 36.40234375 C-95.18077194 35.76094955 -95.18077194 35.76094955 -93.54397583 35.1065979 C-90.05199423 33.71222099 -86.55743101 32.3244662 -83.0625 30.9375 C-80.62991171 29.96945152 -78.19737663 29.00126935 -75.76489258 28.03295898 C-70.08819066 25.77447483 -64.40906436 23.52214432 -58.72913456 21.27179241 C-54.30634515 19.51907218 -49.88557933 17.76132306 -45.46582031 16.00097656 C-39.50453706 13.62723683 -33.54010365 11.26160543 -27.57296753 8.90261841 C-25.3175283 8.00981539 -23.06306865 7.11453367 -20.80960083 6.21676636 C-17.6819278 4.97172971 -14.55055701 3.73651338 -11.41796875 2.50390625 C-10.02192917 1.94468979 -10.02192917 1.94468979 -8.59768677 1.37417603 C-7.7522934 1.04388397 -6.90690002 0.71359192 -6.03588867 0.37329102 C-5.30021164 0.08212906 -4.56453461 -0.2090329 -3.80656433 -0.50901794 C-2 -1 -2 -1 0 0 Z " fill="#0A0A0A" id="back_path_9" transform="translate(245,91)"/>
<path d="M0 0 C0.66 0.33 1.32 0.66 2 1 C2.00879936 1.86746605 2.00879936 1.86746605 2.01777649 2.75245667 C2.8664352 83.82314139 6.15794918 164.81400162 9.5 245.8125 C9.55653732 247.18376187 9.55653732 247.18376187 9.6142168 248.582726 C11.20157117 287.08053963 12.81968306 325.57695579 14.56000328 364.0681932 C14.65461719 366.16306616 14.74880639 368.25795786 14.84291077 370.35285378 C15.45287298 383.91020883 16.09572107 397.45885811 17 411 C17.17495536 413.92081178 17.2973653 416.8237689 17.375 419.75 C17.42398437 421.04421875 17.47296875 422.3384375 17.5234375 423.671875 C17 427 17 427 14.81640625 429.27734375 C-15.87648277 448.05066422 -56.49819966 452.19828526 -91.5 456.6875 C-92.74825562 456.84835083 -92.74825562 456.84835083 -94.02172852 457.01245117 C-112.22187278 459.21858162 -130.58008533 460.49767536 -148.875 461.625 C-149.94189056 461.69103424 -151.00878113 461.75706848 -152.10800171 461.82510376 C-188.01294902 463.95536471 -224.04994665 463.26696933 -260 463 C-260 462.34 -260 461.68 -260 461 C-260.66 460.34 -261.32 459.68 -262 459 C-261.40120529 458.98969254 -260.80241058 458.97938507 -260.18547058 458.96876526 C-243.86647711 458.68684737 -227.54793427 458.38484071 -211.22967529 458.06317139 C-208.42413715 458.00829598 -205.61857416 457.95519253 -202.81298828 457.90283203 C-153.29680134 456.95676831 -102.65473228 454.82694229 -54 445 C-52.92202148 444.78230957 -51.84404297 444.56461914 -50.73339844 444.34033203 C-18.55441373 438.37879188 -18.55441373 438.37879188 11 425 C11.41570008 422.77501085 11.41570008 422.77501085 11.29296875 420.2109375 C11.28330078 419.26992188 11.27363281 418.32890625 11.26367188 417.359375 C11.2259668 415.88210938 11.2259668 415.88210938 11.1875 414.375 C11.17396484 413.38242187 11.16042969 412.38984375 11.14648438 411.3671875 C11.11105743 408.91091928 11.06166196 406.45572715 11 404 C10.46109131 404.20157715 9.92218262 404.4031543 9.36694336 404.61083984 C6.89148398 405.53499011 4.4145118 406.4550192 1.9375 407.375 C1.08994141 407.69210937 0.24238281 408.00921875 -0.63085938 408.3359375 C-14.16774408 413.35347006 -14.16774408 413.35347006 -20 413 C-18.97805183 410.02310574 -18.29438362 409.14415779 -15.41796875 407.7355957 C-13.81888672 407.21098755 -13.81888672 407.21098755 -12.1875 406.67578125 C-11.02992188 406.28712891 -9.87234375 405.89847656 -8.6796875 405.49804688 C-6.85824219 404.91120117 -6.85824219 404.91120117 -5 404.3125 C-2.60393441 403.51762686 -0.20808952 402.72208801 2.1875 401.92578125 C3.25355469 401.57942627 4.31960938 401.23307129 5.41796875 400.8762207 C7.94644513 400.08347142 7.94644513 400.08347142 10 399 C9.95654953 398.08024887 9.91309906 397.16049774 9.86833191 396.21287537 C7.98379785 356.2912058 6.10432325 316.36922924 4.4058876 276.43913651 C4.31440569 274.29467204 4.22207353 272.15024585 4.12948608 270.00582886 C3.44291098 254.07501958 2.86306888 238.14539963 2.41518402 222.20632172 C2.09709907 210.89335464 1.68477491 199.5878923 1.18377686 188.28149414 C0.80951263 179.69771495 0.47589038 171.11215286 0.13861084 162.52685547 C0.04553737 160.15866633 -0.04818099 157.79050246 -0.14251709 155.42236328 C-1.56576165 119.49945364 -2.20741185 83.6133234 -2.2458725 47.66207886 C-2.24999263 44.63042143 -2.2575109 41.59878763 -2.26568604 38.56713867 C-2.2773824 33.78573363 -2.27770576 29.00445905 -2.2687645 24.22304916 C-2.26668762 22.44750932 -2.26780917 20.67196258 -2.27228165 18.89642715 C-2.27736987 16.45637437 -2.26981891 14.01668594 -2.25878906 11.57666016 C-2.26284319 10.86236092 -2.26689732 10.14806168 -2.2710743 9.412117 C-2.2399126 5.77545733 -1.99396363 3.09374237 0 0 Z " fill="#0B0B0B" id="back_path_10" transform="translate(656,437)"/>
<path d="M0 0 C0.67250524 2.58193977 1.33817901 5.16532071 2 7.75 C2.19078125 8.47960937 2.3815625 9.20921875 2.578125 9.9609375 C3.46515964 13.44571646 4 16.38123722 4 20 C-37.30271882 38.66760813 -90.3005472 53.92644063 -136 52 C-139.79590071 45.31198446 -142.29383595 37.73768014 -142 30 C-140.83210937 30.05800781 -139.66421875 30.11601562 -138.4609375 30.17578125 C-122.25162785 30.71136743 -106.87705927 28.03393931 -91 25 C-89.84226074 24.78118164 -88.68452148 24.56236328 -87.49169922 24.33691406 C-80.31055234 22.96996824 -73.15173297 21.51263834 -66 20 C-65.25637207 19.84740723 -64.51274414 19.69481445 -63.74658203 19.53759766 C-43.97189178 15.45486878 -19.31706963 0 0 0 Z " fill="#FBFBFB" id="back_path_11" transform="translate(808,366)"/>
<path d="M0 0 C4.5459134 0.40089945 8.45723874 1.83966642 12.66772461 3.47460938 C53.24182175 19.20535875 98.57388332 28.40990229 142 30 C141.47005483 35.08416152 140.68217647 39.58268923 139 44.4375 C138.649375 45.46746094 138.29875 46.49742187 137.9375 47.55859375 C137 50 137 50 136 51 C94.01028853 53.53167942 42.24514252 38.45370736 3.9375 22.6875 C3.13916748 22.36201172 2.34083496 22.03652344 1.51831055 21.70117188 C-0.36225686 20.8901864 -2.18857715 19.95549907 -4 19 C-5.31665236 15.05004292 -4.22101735 12.23646509 -3.125 8.375 C-2.93808594 7.68148438 -2.75117188 6.98796875 -2.55859375 6.2734375 C-1.14675286 1.14675286 -1.14675286 1.14675286 0 0 Z " fill="#FBFBFB" id="back_path_12" transform="translate(34,367)"/>
<path d="M0 0 C0.33 0 0.66 0 1 0 C6.42329987 38.88621394 7.41097285 77.16176527 7.20599365 116.38665771 C7.17475125 123.0188121 7.16148721 129.6509957 7.14648438 136.28320312 C7.11475388 149.18889266 7.06448779 162.0944345 7 175 C6.67 175 6.34 175 6 175 C6 171.37 6 167.74 6 164 C4.68 163.67 3.36 163.34 2 163 C1.67 133.63 1.34 104.26 1 74 C-0.32 79.28 -1.64 84.56 -3 90 C-6.60294118 100.60294118 -6.60294118 100.60294118 -8 102 C-10.12308153 102.09942806 -12.24959672 102.12969184 -14.375 102.125 C-15.53773438 102.12757813 -16.70046875 102.13015625 -17.8984375 102.1328125 C-21 102 -21 102 -24 101 C-24 99.68 -24 98.36 -24 97 C-19.71 96.67 -15.42 96.34 -11 96 C-10.18608745 93.41710408 -9.37382071 90.83371003 -8.5625 88.25 C-8.33240234 87.52039063 -8.10230469 86.79078125 -7.86523438 86.0390625 C-7.64287109 85.33007812 -7.42050781 84.62109375 -7.19140625 83.890625 C-6.98717041 83.24125977 -6.78293457 82.59189453 -6.57250977 81.92285156 C-5.98830273 79.96071312 -5.48189352 77.98950416 -5 76 C-5.95132813 76.04640625 -6.90265625 76.0928125 -7.8828125 76.140625 C-30.33945531 76.87197689 -52.43004336 72.35801013 -74.25 67.5625 C-75.52836227 67.28226486 -75.52836227 67.28226486 -76.83255005 66.99636841 C-88.66973332 64.38170659 -100.35097518 61.35247078 -112 58 C-109.94766315 55.7522025 -108.99332739 54.9977758 -106 54 C-103.34106445 54.62133789 -103.34106445 54.62133789 -100.05078125 55.66015625 C-90.86372135 58.40226345 -81.56047701 60.43799255 -72.1875 62.4375 C-71.27690826 62.6325412 -70.36631653 62.8275824 -69.4281311 63.02853394 C-56.89749136 65.69866655 -44.35203013 68.11970406 -31.6875 70.0625 C-30.38643311 70.26609131 -29.08536621 70.46968262 -27.74487305 70.67944336 C-19.77824241 71.83867122 -12.04658845 72.23549755 -4 72 C0.75303515 55.67919701 -0.70985829 39.40428251 -2.37573242 22.66503906 C-2.95082005 16.55775654 -2.90184117 11.07323809 -2 5 C-1.67 5 -1.34 5 -1 5 C-0.67 3.35 -0.34 1.7 0 0 Z " fill="#141414" id="back_path_13" transform="translate(181,321)"/>
<path d="M0 0 C-1.32 0.33 -2.64 0.66 -4 1 C-3.505 2.98 -3.505 2.98 -3 5 C-19.96353459 9.67227244 -36.99964551 13.26955525 -54.3125 16.375 C-55.77181946 16.63700195 -55.77181946 16.63700195 -57.26062012 16.90429688 C-80.93655567 21.13766957 -80.93655567 21.13766957 -87.05859375 21.09765625 C-87.93837891 21.09443359 -88.81816406 21.09121094 -89.72460938 21.08789062 C-91.06749023 21.07532227 -91.06749023 21.07532227 -92.4375 21.0625 C-93.35982422 21.05798828 -94.28214844 21.05347656 -95.23242188 21.04882812 C-97.48835048 21.03713938 -99.74413967 21.02075455 -102 21 C-102 20.01 -102 19.02 -102 18 C-101.11030518 17.89977539 -100.22061035 17.79955078 -99.30395508 17.69628906 C-82.06688421 15.73472574 -64.96726029 13.69000258 -48 10 C-46.59280402 9.69696079 -45.18557482 9.39407587 -43.77832031 9.09130859 C-38.95396847 8.05097233 -34.13271579 6.99681913 -29.3125 5.9375 C-28.13631607 5.67978821 -28.13631607 5.67978821 -26.93637085 5.41687012 C-15.24173986 2.84873434 -15.24173986 2.84873434 -3.77416992 -0.57983398 C-2 -1 -2 -1 0 0 Z " fill="#0E0D0E" id="back_path_14" transform="translate(769,376)"/>
<path d="M0 0 C1.55460937 0.16822266 1.55460937 0.16822266 3.140625 0.33984375 C4.40003906 0.46746094 5.65945313 0.59507812 6.95703125 0.7265625 C12.99352518 1.45754956 19.02287526 2.251499 25.05175781 3.04248047 C40.1104675 4.96026921 55.26232563 6.06055898 70.390625 7.27734375 C69.75125 7.38046875 69.111875 7.48359375 68.453125 7.58984375 C67.7725 7.81671875 67.091875 8.04359375 66.390625 8.27734375 C66.060625 9.26734375 65.730625 10.25734375 65.390625 11.27734375 C54.58436999 11.5941395 44.0577242 10.61644692 33.328125 9.46484375 C31.58911572 9.28283567 29.85010202 9.10086973 28.11108398 8.91894531 C16.48724755 7.68680021 4.91396964 6.25534309 -6.609375 4.27734375 C-3.40363704 0.36176382 -3.40363704 0.36176382 0 0 Z " fill="#131313" id="back_path_15" transform="translate(264.609375,857.72265625)"/>
<path d="M0 0 C19.14 0 38.28 0 58 0 C57.67 0.99 57.34 1.98 57 3 C54.00536708 4.16999331 51.04933699 4.12140925 47.86425781 4.11352539 C46.84350159 4.11344986 45.82274536 4.11337433 44.77105713 4.11329651 C43.67613953 4.10813522 42.58122192 4.10297394 41.453125 4.09765625 C40.3267865 4.0962413 39.200448 4.09482635 38.03997803 4.09336853 C34.44329165 4.08777199 30.84666756 4.0752201 27.25 4.0625 C24.81119882 4.05748455 22.37239666 4.05292172 19.93359375 4.04882812 C13.95570792 4.0378037 7.97785841 4.02106898 2 4 C2 3.34 2 2.68 2 2 C1.34 1.34 0.68 0.68 0 0 Z " fill="#010101" id="back_path_16" transform="translate(394,896)"/>
<path d="M0 0 C4.92959122 -0.04942899 9.85903825 -0.08573318 14.78881836 -0.10986328 C16.46592725 -0.11992237 18.14301861 -0.13357122 19.82006836 -0.15087891 C22.23035002 -0.17513152 24.64039986 -0.1864839 27.05078125 -0.1953125 C28.17592888 -0.21079636 28.17592888 -0.21079636 29.32380676 -0.22659302 C33.10300779 -0.227408 34.77414399 -0.15057067 38 2 C40.32387947 2.39387788 42.65793749 2.73486085 45 3 C45 3.33 45 3.66 45 4 C35.11210073 4.88454051 25.21819286 5.15758427 15.29400635 5.23217773 C13.93372121 5.24403844 12.57347132 5.26111024 11.21331787 5.28344727 C9.27259565 5.31349105 7.33156733 5.321178 5.390625 5.328125 C3.6895459 5.34214355 3.6895459 5.34214355 1.95410156 5.35644531 C-1.28303101 4.96584915 -2.6360984 4.18505852 -5 2 C-3.35 1.67 -1.7 1.34 0 1 C0 0.67 0 0.34 0 0 Z " fill="#141415" id="back_path_17" transform="translate(448,895)"/>
<path d="M0 0 C-1.32 0.33 -2.64 0.66 -4 1 C-3.505 2.98 -3.505 2.98 -3 5 C-6.80213633 5.98806276 -10.60668829 6.96618451 -14.41357422 7.93579102 C-16.3330034 8.42675778 -18.2505128 8.92521059 -20.16796875 9.42382812 C-27.11445281 11.18772591 -33.83514107 12.59962927 -41 13 C-40.67 12.01 -40.34 11.02 -40 10 C-40.99 9.67 -41.98 9.34 -43 9 C-41.51004517 8.65219482 -41.51004517 8.65219482 -39.98999023 8.29736328 C-36.27897171 7.43060619 -32.5684874 6.56158059 -28.8581543 5.69189453 C-27.25706056 5.3169334 -25.65582563 4.94257461 -24.05444336 4.56884766 C-21.74294591 4.02928243 -19.43197728 3.48750026 -17.12109375 2.9453125 C-16.41351425 2.78064484 -15.70593475 2.61597717 -14.97691345 2.44631958 C-11.65219862 1.66416404 -8.38192125 0.82206994 -5.11743164 -0.18408203 C-2 -1 -2 -1 0 0 Z " fill="#171717" id="back_path_18" transform="translate(769,376)"/>
<path d="M0 0 C-0.33 1.32 -0.66 2.64 -1 4 C-13.18374001 7.56782418 -25.49472434 9.86808785 -38 12 C-38.33 10.35 -38.66 8.7 -39 7 C-38.44763672 6.89977539 -37.89527344 6.79955078 -37.32617188 6.69628906 C-26.42239929 4.70434055 -15.6543929 2.55221043 -4.95703125 -0.36328125 C-2 -1 -2 -1 0 0 Z " fill="#131313" id="back_path_19" transform="translate(638,847)"/>
<path d="M0 0 C1.13566406 0.12117187 2.27132813 0.24234375 3.44140625 0.3671875 C4.66988281 0.49222656 5.89835937 0.61726562 7.1640625 0.74609375 C12.79615913 1.47374001 18.40621937 2.28444373 24.00390625 3.2421875 C23.01390625 3.7371875 23.01390625 3.7371875 22.00390625 4.2421875 C22.99390625 5.5621875 23.98390625 6.8821875 25.00390625 8.2421875 C3.47199136 6.2421875 3.47199136 6.2421875 -6.99609375 4.2421875 C-4.72756981 1.39127967 -3.70657892 0.29961916 0 0 Z " fill="#1F1F1F" id="back_path_20" transform="translate(264.99609375,857.7578125)"/>
<path d="M0 0 C7.59 0 15.18 0 23 0 C22.67 1.32 22.34 2.64 22 4 C14.41 4 6.82 4 -1 4 C-0.67 2.68 -0.34 1.36 0 0 Z " fill="#050506" id="back_path_21" transform="translate(483,894)"/>
<path d="M0 0 C-0.33 0.99 -0.66 1.98 -1 3 C-8.88602064 5.62867355 -17.77341324 5.14320944 -26 5 C-26 4.01 -26 3.02 -26 2 C-17.26047454 0.55203128 -8.86088167 -0.29211698 0 0 Z " fill="#030303" id="back_path_22" transform="translate(549,863)"/>
<path d="M0 0 C-0.99 0.495 -0.99 0.495 -2 1 C-2 1.99 -2 2.98 -2 4 C-4.58157368 4.53132389 -7.16461756 5.05034379 -9.75 5.5625 C-10.47960937 5.71396484 -11.20921875 5.86542969 -11.9609375 6.02148438 C-15.66557073 6.74557178 -18.39322322 7.09817231 -22 6 C-21.67 5.01 -21.34 4.02 -21 3 C-18.29607228 2.1750729 -15.75982288 1.52956011 -13 1 C-11.989375 0.79375 -10.97875 0.5875 -9.9375 0.375 C-6.60008604 -0.05105285 -3.36090574 -0.06721811 0 0 Z " fill="#151515" id="back_path_23" transform="translate(602,855)"/>
<path d="M0 0 C-3.52763224 2.35175482 -6.4010968 2.57831748 -10.5 2.875 C-11.51513672 2.98328125 -11.51513672 2.98328125 -12.55078125 3.09375 C-14.53125 3.2421875 -14.53125 3.2421875 -18 3 C-19.96875 1.0078125 -19.96875 1.0078125 -21 -1 C-4.62 -3.08 -4.62 -3.08 0 0 Z " fill="#0F0E0F" id="back_path_24" transform="translate(566,863)"/>
<path d="M0 0 C0.99 0 1.98 0 3 0 C4.32 4.62 5.64 9.24 7 14 C6.01 14.33 5.02 14.66 4 15 C3.34 15.66 2.68 16.32 2 17 C-0.1663492 10.91708727 -1.5197276 6.3552245 0 0 Z " fill="#181718" id="back_path_25" transform="translate(778,255)"/>
<path d="M0 0 C0 0.99 0 1.98 0 3 C-5.49906399 4.4471221 -10.65980151 3.80151274 -16 2 C-17.80078125 0.421875 -17.80078125 0.421875 -19 -1 C-13.29609632 -3.85195184 -5.84665714 -1.5158 0 0 Z " fill="#121212" id="back_path_26" transform="translate(116,385)"/>
<path d="M0 0 C-0.33 1.32 -0.66 2.64 -1 4 C-2.7907985 4.50310058 -4.58266911 5.00238628 -6.375 5.5 C-7.87160156 5.91765625 -7.87160156 5.91765625 -9.3984375 6.34375 C-12 7 -12 7 -14 7 C-13.67 6.01 -13.34 5.02 -13 4 C-13.66 3.34 -14.32 2.68 -15 2 C-12.87707704 1.47076428 -10.75157949 0.95184623 -8.625 0.4375 C-7.44164062 0.14746094 -6.25828125 -0.14257812 -5.0390625 -0.44140625 C-2 -1 -2 -1 0 0 Z " fill="#1B1B1B" id="back_path_27" transform="translate(638,847)"/>
<path d="M0 0 C-1.32 0.33 -2.64 0.66 -4 1 C-3.67 2.32 -3.34 3.64 -3 5 C-7.29 5.99 -11.58 6.98 -16 8 C-16.33 7.01 -16.66 6.02 -17 5 C-3.95734003 -1.97867001 -3.95734003 -1.97867001 0 0 Z " fill="#111111" id="back_path_28" transform="translate(769,376)"/>
<path d="M0 0 C4.09619961 0.4109674 7.30794484 1.11247863 10.9375 3.11328125 C4.78557897 6.40895323 1.5358758 5.98282106 -5.0625 4.11328125 C-3.85333675 1.45312211 -3.02219093 0.16599155 0 0 Z " fill="#242424" id="back_path_29" transform="translate(92.0625,379.88671875)"/>
<path d="M0 0 C2.1640625 0.0234375 2.1640625 0.0234375 4.625 0.375 C5.85089844 0.54128906 5.85089844 0.54128906 7.1015625 0.7109375 C7.72804687 0.80632813 8.35453125 0.90171875 9 1 C9.33 1.99 9.66 2.98 10 4 C3.72307692 5.35384615 3.72307692 5.35384615 0.0625 3.5625 C-0.618125 3.046875 -1.29875 2.53125 -2 2 C-1.34 1.34 -0.68 0.68 0 0 Z " fill="#080909" id="back_path_30" transform="translate(222,851)"/>
<path d="M0 0 C2.97 0.33 5.94 0.66 9 1 C8.01 1.495 8.01 1.495 7 2 C7.99 3.32 8.98 4.64 10 6 C6.04 5.67 2.08 5.34 -2 5 C-1.01 4.01 -0.02 3.02 1 2 C0.67 1.34 0.34 0.68 0 0 Z " fill="#232324" id="back_path_31" transform="translate(280,860)"/>
<path d="M0 0 C0.33 0.99 0.66 1.98 1 3 C-2.3 3.33 -5.6 3.66 -9 4 C-8.67 3.01 -8.34 2.02 -8 1 C-8.99 0.67 -9.98 0.34 -11 0 C-7.01803543 -1.05404945 -4.01804691 -0.84098656 0 0 Z " fill="#202020" id="back_path_32" transform="translate(737,385)"/>
<path d="M0 0 C1.62418745 -0.08090971 3.24951745 -0.13914995 4.875 -0.1875 C5.77992188 -0.22230469 6.68484375 -0.25710938 7.6171875 -0.29296875 C8.79667969 -0.14794922 8.79667969 -0.14794922 10 0 C10.66 0.99 11.32 1.98 12 3 C9.15916359 4.42041821 7.14522722 4.31452272 4 4 C1.625 2 1.625 2 0 0 Z " fill="#040404" id="back_path_33" transform="translate(270,860)"/>
<path d="M0 0 C-0.99 0.495 -0.99 0.495 -2 1 C-2 1.99 -2 2.98 -2 4 C-6.455 4.495 -6.455 4.495 -11 5 C-8.05790162 -0.88419676 -6.23816446 -0.11552156 0 0 Z " fill="#080808" id="back_path_34" transform="translate(602,855)"/>
<path d="M0 0 C2.33944736 0.28730055 4.6739143 0.61936779 7 1 C7 2.32 7 3.64 7 5 C4.69 4.67 2.38 4.34 0 4 C-0.33 3.01 -0.66 2.02 -1 1 C-0.67 0.67 -0.34 0.34 0 0 Z " fill="#090909" id="back_path_35" transform="translate(82,378)"/>
<path d="M0 0 C1.32 0 2.64 0 4 0 C4.1875 3.375 4.1875 3.375 4 7 C3.01 7.66 2.02 8.32 1 9 C-0.4783226 6.04335481 -0.06032783 3.25770263 0 0 Z " fill="#010101" id="back_path_36" transform="translate(177,320)"/>
<path d="M0 0 C-0.99 0 -1.98 0 -3 0 C-3 0.66 -3 1.32 -3 2 C-2.34 2.33 -1.68 2.66 -1 3 C-3.31 3.66 -5.62 4.32 -8 5 C-8.33 3.35 -8.66 1.7 -9 0 C-5.62182575 -0.84454356 -3.32534757 -1.10844919 0 0 Z " fill="#212121" id="back_path_37" transform="translate(608,854)"/>
<path d="M0 0 C0 0.99 0 1.98 0 3 C-5.625 4.125 -5.625 4.125 -9 3 C-9 2.34 -9 1.68 -9 1 C-6.04335481 -0.4783226 -3.25770263 -0.06032783 0 0 Z " fill="#0C0C0C" id="back_path_38" transform="translate(116,385)"/>
<path d="M0 0 C0.33 0.66 0.66 1.32 1 2 C0.34 2 -0.32 2 -1 2 C-1 2.66 -1 3.32 -1 4 C-3.97 3.505 -3.97 3.505 -7 3 C-7 2.34 -7 1.68 -7 1 C-4.53721199 -0.231394 -2.7204945 -0.07159196 0 0 Z M-10 4 C-8 5 -8 5 -8 5 Z " fill="#040404" id="back_path_39" transform="translate(625,850)"/>
<path d="M0 0 C2.31 0 4.62 0 7 0 C6.67 0.66 6.34 1.32 6 2 C6.33 2.99 6.66 3.98 7 5 C4.36 4.67 1.72 4.34 -1 4 C-0.67 2.68 -0.34 1.36 0 0 Z " fill="#1B1A1A" id="back_path_40" transform="translate(230,853)"/>
<path d="M0 0 C-1.32 0.33 -2.64 0.66 -4 1 C-3.67 2.32 -3.34 3.64 -3 5 C-4.65 5 -6.3 5 -8 5 C-8.33 3.68 -8.66 2.36 -9 1 C-2.25 -1.125 -2.25 -1.125 0 0 Z " fill="#1B1C1B" id="back_path_41" transform="translate(769,376)"/>
<path d="M0 0 C2.31 0 4.62 0 7 0 C6.34 1.32 5.68 2.64 5 4 C3.0625 3.6875 3.0625 3.6875 1 3 C0.67 2.01 0.34 1.02 0 0 Z " fill="#131313" id="back_path_42" transform="translate(735,383)"/>
<path d="M0 0 C-0.75 1.9375 -0.75 1.9375 -2 4 C-4.125 4.75 -4.125 4.75 -6 5 C-5.67 3.68 -5.34 2.36 -5 1 C-5.66 0.67 -6.32 0.34 -7 0 C-3.98968256 -0.93423645 -3.13349732 -1.04449911 0 0 Z " fill="#232324" id="back_path_43" transform="translate(755,380)"/>
<path d="M0 0 C1.65 0 3.3 0 5 0 C5 0.66 5 1.32 5 2 C4.34 2.66 3.68 3.32 3 4 C0.875 3.625 0.875 3.625 -1 3 C-0.67 2.01 -0.34 1.02 0 0 Z " fill="#060605" id="back_path_44" transform="translate(581,858)"/>
<path d="M0 0 C2.31 0.33 4.62 0.66 7 1 C6.01 2.485 6.01 2.485 5 4 C3.0625 3.6875 3.0625 3.6875 1 3 C0.67 2.01 0.34 1.02 0 0 Z " fill="#030304" id="back_path_45" transform="translate(235,854)"/>
</svg>