<?xml version="1.0" encoding="utf-8"?>
<svg height="1015" id="right_svg_1" version="1.1" width="580" xmlns="http://www.w3.org/2000/svg">
<path d="M0 0 C191.4 0 382.8 0 580 0 C580 334.95 580 669.9 580 1015 C388.6 1015 197.2 1015 0 1015 C0 680.05 0 345.1 0 0 Z " fill="#FEFEFE" id="right_path_1" transform="translate(0,0)"/>
<path d="M0 0 C191.4 0 382.8 0 580 0 C580 334.95 580 669.9 580 1015 C388.6 1015 197.2 1015 0 1015 C0 680.05 0 345.1 0 0 Z M204.0625 39.875 C203.48346924 40.3709668 202.90443848 40.86693359 202.30786133 41.37792969 C197.62228997 45.41153414 193.03966603 49.55039678 188.484375 53.73046875 C186.32487151 55.70322273 184.14406116 57.64279179 181.9375 59.5625 C180.62497919 60.7083095 179.31247984 61.85414358 178 63 C177.278125 63.62777344 176.55625 64.25554687 175.8125 64.90234375 C164.28155819 75.08674466 153.46109647 85.85982077 144 98 C143.00806641 99.19109375 143.00806641 99.19109375 141.99609375 100.40625 C114.45275142 133.60918322 97.9940907 177.61430509 91.1875 219.75 C90.89516479 221.55778931 90.89516479 221.55778931 90.59692383 223.40209961 C90.01027835 227.26196315 89.48702984 231.12660766 89 235 C88.90743927 235.71121002 88.81487854 236.42242004 88.71951294 237.15518188 C86.58150173 254.12750001 86.56408914 271.17303489 86.56273651 288.25094604 C86.56257795 289.88443044 86.56126832 291.5179151 86.55884552 293.15139771 C86.52038451 319.67599661 87.48715081 346.04373468 89.375 372.5 C89.43058704 373.28053616 89.48617409 374.06107231 89.54344559 374.86526108 C90.60667041 389.69750767 91.79107973 404.51239097 93.34994507 419.30178833 C94.13055519 426.87517933 94.53573952 434.45619784 94.89111328 442.05978394 C95.39184241 452.7065932 95.93743038 463.33007944 97 473.9375 C100.30486588 507.55190187 100.31945669 541.25071914 100.26074219 574.99389648 C100.24935446 581.60660952 100.25613644 588.21916156 100.26760101 594.83186913 C100.32212579 631.63596974 99.70250746 668.1008274 95.75830078 704.71044922 C94.93662189 712.40222242 94.29443132 720.1056864 93.68359375 727.81640625 C93.57971344 729.11701996 93.47583313 730.41763367 93.36880493 731.75765991 C92.94900918 737.03984692 92.5340948 742.32240738 92.12231445 747.60522461 C91.8143906 751.55101875 91.49884335 755.49619065 91.18359375 759.44140625 C91.09395859 760.61449844 91.00432343 761.78759064 90.91197205 762.99623108 C90.36870706 769.7574512 89.51679048 776.3969479 88.43632507 783.09257507 C87.89555403 786.69596923 87.64605041 790.21170962 87.48046875 793.8515625 C87.10147959 801.03087783 86.39490555 808.14179732 85.55697632 815.28347778 C85.11203737 819.08998024 84.68551727 822.89856003 84.2578125 826.70703125 C84.16241684 827.55541061 84.06702118 828.40378998 83.96873474 829.27787781 C82.63320076 841.20790095 81.36124114 853.14474585 80.10702515 865.08355713 C79.82814859 867.73557079 79.54537899 870.38708528 79.26089478 873.03851318 C78.859122 876.78676884 78.46565122 880.53580854 78.07421875 884.28515625 C77.95049896 885.42417892 77.82677917 886.5632016 77.6993103 887.73674011 C77.59188507 888.78275894 77.48445984 889.82877777 77.3737793 890.90649414 C77.27703415 891.8216127 77.180289 892.73673126 77.08061218 893.67958069 C76.85933065 896.15961668 76.85933065 896.15961668 78 899 C81.18872299 901.23579992 84.72741564 902.90854418 88.1875 904.6875 C89.21891113 905.22060791 90.25032227 905.75371582 91.31298828 906.30297852 C101.57069608 911.48181668 112.08237883 915.46130369 123 919 C123.71752441 919.2376709 124.43504883 919.4753418 125.17431641 919.72021484 C147.13418916 926.9206055 170.13915528 930.96912783 193 934 C194.05026367 934.14034668 195.10052734 934.28069336 196.18261719 934.42529297 C209.53531082 936.1634771 222.91765448 937.30915414 236.359375 938.0703125 C237.12489307 938.11374535 237.89041115 938.15717819 238.67912674 938.20192719 C256.19618485 939.16960714 273.69544063 939.30775469 291.23535156 939.26074219 C295.5120906 939.24936707 299.78857996 939.25613682 304.06531048 939.26761913 C334.57170126 939.33696246 365.08288794 938.40855181 395.4375 935.1875 C396.65376068 935.0625264 396.65376068 935.0625264 397.89459229 934.93502808 C414.05082521 933.26658805 430.01254564 930.87028707 446 928 C447.66361572 927.71237793 447.66361572 927.71237793 449.36083984 927.41894531 C462.37401107 925.16506173 475.17694612 922.32788237 487.9375 918.9375 C489.1757251 918.60903076 490.4139502 918.28056152 491.68969727 917.94213867 C498.9424974 915.96643544 505.95551709 913.61638635 513 911 C513.02377434 903.05095982 513.04123057 895.10193584 513.05181217 887.15286827 C513.05690537 883.45687939 513.06373532 879.76091574 513.07543945 876.06494141 C513.12341431 860.5693554 513.05084556 845.09325374 512.56976957 829.60424455 C511.97508034 810.0658084 511.87096031 790.54368017 511.91325247 770.99771857 C511.92190419 766.43437545 511.92431511 761.87102785 511.92750549 757.30767822 C511.9337259 749.4399622 511.94341464 741.57225712 511.95540047 733.70454788 C511.97261967 722.27773197 511.98200028 710.85091856 511.9892792 699.42409246 C512.00115729 680.80339574 512.01607373 662.18270318 512.03442383 643.56201172 C512.03551395 642.45367683 512.03660407 641.34534195 512.03772723 640.20342116 C512.05331534 624.49931156 512.07192092 608.79520695 512.0917251 593.09110217 C512.09311842 591.98579919 512.09451173 590.88049622 512.09594727 589.74169922 C512.0973408 588.63778975 512.09873433 587.53388029 512.10017008 586.39651902 C512.12338111 567.84480369 512.13858224 549.29309153 512.14750665 530.74136388 C512.15277338 520.38036159 512.16186559 510.01939223 512.18089485 499.6584053 C512.34658551 407.66216177 509.85145326 326.49747789 469.43115234 241.99316406 C468.08389313 239.17545714 466.75281716 236.3507117 465.42578125 233.5234375 C455.11426539 211.68559824 444.20531513 190.11337805 433.27807617 168.57835388 C432.39410464 166.7950553 431.5437008 164.99486688 430.72094727 163.18251038 C430.30393555 162.2813298 429.88692383 161.38014923 429.45727539 160.45166016 C429.09493301 159.64032623 428.73259064 158.82899231 428.35926819 157.99307251 C426.6440466 155.47807141 425.25597171 154.99877173 422.3671875 154.17578125 C420.54279312 153.85026551 418.71100345 153.56442596 416.875 153.3125 C414.87707356 152.94471596 412.88096611 152.56692469 410.88671875 152.1796875 C409.39277588 151.89689941 409.39277588 151.89689941 407.86865234 151.60839844 C367.35399904 143.01584388 328.61626821 113.80381423 295 91 C294.28408691 90.5157959 293.56817383 90.0315918 292.83056641 89.53271484 C284.37505644 83.80556417 276.05464347 77.90744695 267.78710938 71.91259766 C252.10235894 60.54014211 236.36134242 49.26453196 219.6875 39.375 C218.95144531 38.93655762 218.21539062 38.49811523 217.45703125 38.04638672 C210.79404945 34.15074241 209.59869897 35.07669556 204.0625 39.875 Z " fill="#FEFEFE" id="right_path_2" transform="translate(0,0)"/>
<path d="M0 0 C28.8901867 26.95473302 41.72052865 65.66527294 43.83984375 104.34277344 C44.91144097 135.47267272 38.72287286 164.72913299 31.3359375 194.7890625 C29.31860362 203.01784366 27.47247795 211.2806458 25.6875 219.5625 C24.511875 219.170625 23.33625 218.77875 22.125 218.375 C21.29484375 218.10171875 20.4646875 217.8284375 19.609375 217.546875 C17.54885263 216.85268832 15.49739598 216.13130289 13.453125 215.390625 C-2.93289083 209.594698 -19.64233144 207.04200981 -36.93017578 205.74169922 C-39.04698072 205.58247245 -41.16231399 205.40394452 -43.27734375 205.22265625 C-81.62313527 202.28536057 -120.72857202 205.29361545 -156.75 219.27734375 C-160.3125 220.5625 -160.3125 220.5625 -163.3125 220.5625 C-163.48471069 219.68573608 -163.48471069 219.68573608 -163.66040039 218.79125977 C-167.61610555 198.70740841 -171.83742495 178.68304328 -176.15087891 158.67333984 C-176.41562012 157.44437988 -176.68036133 156.21541992 -176.953125 154.94921875 C-177.18805664 153.86213623 -177.42298828 152.77505371 -177.66503906 151.6550293 C-179.68952693 141.98527521 -180.88922966 132.43552682 -181.3125 122.5625 C-181.34649902 121.85689941 -181.38049805 121.15129883 -181.41552734 120.42431641 C-183.15633238 79.73189406 -170.66703092 34.88325432 -142.88671875 4.31640625 C-142.03722656 3.40761719 -141.18773437 2.49882812 -140.3125 1.5625 C-139.57644531 0.74652344 -138.84039062 -0.06945312 -138.08203125 -0.91015625 C-99.51488588 -41.86579514 -39.50814782 -33.99397382 0 0 Z " fill="#FEFEFE" id="right_path_3" transform="translate(306.3125,167.4375)"/>
<path d="M0 0 C13.86992038 3.69527076 27.46168512 15.15326353 38.91162109 23.48828125 C42.39377238 26.00891263 45.91865151 28.46850954 49.4375 30.9375 C53.72440034 33.95358977 57.99626772 36.98690787 62.2265625 40.08203125 C130.3166479 92.80402048 130.3166479 92.80402048 209.859375 119.1171875 C212.7893709 119.26812668 214.41070182 119.59775709 217 121 C218.3467618 123.12536452 219.37133004 125.06817648 220.3984375 127.34375 C221.09572413 128.80964575 221.7946703 130.27475274 222.49487305 131.73925781 C222.88645599 132.56800415 223.27803894 133.39675049 223.68148804 134.25061035 C226.26114678 139.62977052 228.97917743 144.94044206 231.66796875 150.265625 C232.90583229 152.72839699 234.14145675 155.19228979 235.37695312 157.65625 C237.27175588 161.43416156 239.16750239 165.21158128 241.06860352 168.98632812 C252.628073 191.94348536 264.10328981 215.00856572 273.6875 238.875 C273.94870636 239.52268341 274.20991272 240.17036682 274.47903442 240.837677 C298.73850918 301.17204209 302.20881573 360.92827889 302.10140657 425.22034693 C302.09490891 429.80954465 302.09445387 434.39874394 302.0932312 438.98794556 C302.0903709 446.91038982 302.08397529 454.8328245 302.07516479 462.75526428 C302.06247815 474.25053449 302.05650342 485.74580129 302.05223143 497.24107736 C302.04519375 515.95531736 302.03441854 534.66955297 302.02050781 553.38378906 C302.01926609 555.05701206 302.01926609 555.05701206 302.01799929 556.76403755 C302.01125986 565.80680376 302.00433656 574.84956983 301.99739647 583.89233589 C301.99134437 591.78597126 301.98536291 599.67960668 301.97949219 607.57324219 C301.97866406 608.68490747 301.97783593 609.79657276 301.97698271 610.94192487 C301.96321911 629.58600143 301.95350198 648.23007806 301.94658184 666.87415838 C301.94214365 678.3168579 301.93419492 689.7595441 301.92143703 701.20223743 C301.91290528 709.06455912 301.9080966 716.92687781 301.90601182 724.78920382 C301.90468907 729.29832093 301.90183114 733.80742084 301.89425278 738.31653214 C301.86255228 757.84743457 302.03468514 777.35238338 302.64065456 796.87499285 C303.11538734 812.31824668 303.11758788 827.75515044 303.06866455 843.2043457 C303.05807138 846.93440116 303.0537935 850.66446481 303.04882812 854.39453125 C303.03838831 861.59637441 303.02153952 868.79818051 303 876 C280.34819098 883.75308624 280.34819098 883.75308624 270.0625 886 C269.02456299 886.23364258 267.98662598 886.46728516 266.91723633 886.70800781 C241.22932591 892.34785405 215.18699411 897.10899951 189.0168457 899.75 C186.65145062 899.99093948 184.28775406 900.24511318 181.92382812 900.5 C151.87738598 903.6260917 121.69025866 904.34175328 91.50390625 904.26074219 C87.22487821 904.24933063 82.94609868 904.2561614 78.66707897 904.26761913 C49.72915517 904.33324781 20.69212852 903.7143919 -8.0625 900.1875 C-9.11784943 900.06202789 -9.11784943 900.06202789 -10.19451904 899.934021 C-24.25011644 898.25720058 -38.15354479 895.95473655 -52 893 C-53.0533252 892.77586426 -54.10665039 892.55172852 -55.19189453 892.32080078 C-79.63971206 887.01322342 -103.65842939 879.71690477 -125.46875 867.27734375 C-126.19803711 866.86415894 -126.92732422 866.45097412 -127.67871094 866.02526855 C-129.45378307 865.01915185 -131.22708092 864.00990585 -133 863 C-130.92970514 841.52266625 -128.82272076 820.04913228 -126.64413452 798.58248901 C-126.42360461 796.40801574 -126.20373224 794.23347568 -125.98452759 792.05886841 C-125.67525774 788.99346795 -125.36339568 785.9283422 -125.05078125 782.86328125 C-124.91349609 781.4970462 -124.91349609 781.4970462 -124.7734375 780.10321045 C-124.32132329 775.70073267 -123.75171358 771.36336675 -123 767 C-122.74146545 763.18764136 -122.55955908 759.37536534 -122.37890625 755.55859375 C-122.15260215 752.13230447 -121.65603772 748.81216047 -121.08203125 745.42749023 C-119.69357435 736.52451912 -119.02544876 727.57797324 -118.30859375 718.6015625 C-118.15736989 716.75357324 -118.00567354 714.90562259 -117.85353088 713.05770874 C-117.45710575 708.23084331 -117.06581093 703.4035775 -116.67602539 698.57617188 C-116.0500108 690.83076311 -115.41724398 683.08590759 -114.78227425 675.34122849 C-114.56254024 672.64989965 -114.3457263 669.9583473 -114.1292572 667.26675415 C-113.99438464 665.61093412 -113.85942527 663.95512116 -113.72436523 662.29931641 C-113.66564743 661.55944489 -113.60692963 660.81957336 -113.5464325 660.05728149 C-113.28083776 656.82838036 -112.9475617 653.63441348 -112.48748779 650.42689514 C-108.11078094 619.6599392 -109.65452136 587.50584784 -109.68432617 556.53491211 C-109.68894495 551.32290996 -109.68206292 546.1111419 -109.66381836 540.89916992 C-109.54723792 507.28715234 -110.34381965 473.91591747 -112.82336807 440.39091873 C-112.99093772 438.12266853 -113.15475937 435.85418736 -113.31686401 433.58554077 C-113.70894876 428.1104348 -114.11191689 422.63654886 -114.5390625 417.1640625 C-115.07485075 410.17620821 -115.50234405 403.18221259 -115.9375 396.1875 C-116.60550799 385.53070585 -117.38467185 374.88860563 -118.24694824 364.24594116 C-118.44059384 361.83650492 -118.62976697 359.42675861 -118.81738281 357.0168457 C-118.88076843 356.20302933 -118.94415405 355.38921295 -119.00946045 354.55073547 C-119.13921212 352.88366369 -119.26880859 351.21657982 -119.39825439 349.54948425 C-119.72211402 345.41261553 -120.05946126 341.27769834 -120.42773438 337.14453125 C-122.71233517 311.44446515 -123.29514281 285.83410617 -123.31052017 260.04715729 C-123.31247698 257.52961865 -123.31759358 255.01210098 -123.3230896 252.49456787 C-123.35147314 234.91863181 -123.3195233 217.45568449 -121 200 C-120.91330048 199.31454102 -120.82660095 198.62908203 -120.73727417 197.92285156 C-116.45824891 164.35310336 -107.46220932 130.75047082 -91 101 C-90.34692871 99.79102051 -90.34692871 99.79102051 -89.68066406 98.55761719 C-81.38832103 83.24210923 -72.15160495 69.16020011 -60.23046875 56.40625 C-58.35065026 54.37828469 -56.53986114 52.3160808 -54.734375 50.22265625 C-51.01079438 45.95334845 -47.07867433 41.93043707 -43.0625 37.9375 C-42.39798828 37.26912109 -41.73347656 36.60074219 -41.04882812 35.91210938 C-36.53114703 31.40319197 -31.85226879 27.14512026 -27 23 C-26.41259033 22.49621826 -25.82518066 21.99243652 -25.2199707 21.47338867 C-23.5237441 20.02144966 -21.82458643 18.57300372 -20.125 17.125 C-14.99778841 12.74880296 -9.9552742 8.30013397 -4.98828125 3.7421875 C-3 2 -3 2 0 0 Z M-25.27734375 29.5703125 C-26.15519531 30.41335937 -27.03304687 31.25640625 -27.9375 32.125 C-28.43548096 32.60001953 -28.93346191 33.07503906 -29.4465332 33.56445312 C-31.31360605 35.36052732 -33.15636761 37.17987001 -35 39 C-36.22106445 40.19254395 -36.22106445 40.19254395 -37.46679688 41.40917969 C-40.21601711 44.09714995 -42.95377591 46.79627464 -45.6875 49.5 C-47.00512329 50.79768311 -47.00512329 50.79768311 -48.34936523 52.12158203 C-61.74224696 65.50062944 -72.51448953 80.65629332 -82 97 C-82.35030273 97.60199219 -82.70060547 98.20398438 -83.06152344 98.82421875 C-96.55362969 122.34145696 -105.38539013 148.54679788 -111 175 C-111.26554687 176.21042969 -111.53109375 177.42085937 -111.8046875 178.66796875 C-116.88445124 203.5169161 -117.5081268 228.3578243 -117.38652039 253.60652542 C-117.37483089 256.22538775 -117.36829856 258.84422188 -117.36291504 261.46310425 C-117.29587308 289.40153039 -116.43164919 317.15777092 -114 345 C-113.83240086 346.94823198 -113.66492301 348.8964744 -113.49755859 350.84472656 C-112.81760974 358.71904053 -112.12793528 366.59242022 -111.41552734 374.46386719 C-110.00585869 390.15456106 -109.07974941 405.84312488 -108.32368469 421.57704163 C-108.02618273 427.69042614 -107.64835956 433.79633915 -107.25390625 439.90429688 C-106.85272891 446.17809335 -106.4898443 452.45392028 -106.13146973 458.73028564 C-105.99766329 461.04034126 -105.85797871 463.34999264 -105.71777344 465.65966797 C-102.4809451 519.92035078 -102.81263198 574.65399649 -105.375 628.9375 C-105.40667141 629.61522587 -105.43834282 630.29295174 -105.47097397 630.99121475 C-106.18240628 646.11228555 -107.18798795 661.16184542 -108.72570801 676.2203064 C-109.25705217 681.60498404 -109.71500105 686.9962851 -110.18359375 692.38671875 C-110.39116117 694.75196321 -110.59884455 697.11719749 -110.80664062 699.48242188 C-111.12188797 703.07692424 -111.4361151 706.6715022 -111.74731445 710.26635742 C-113.13858129 726.31259448 -114.77874918 742.30739101 -116.68240356 758.30081177 C-117.34160967 763.90327192 -117.92750398 769.51306106 -118.5 775.125 C-118.61964111 776.29530762 -118.73928223 777.46561523 -118.86254883 778.67138672 C-119.24560697 782.44721001 -119.62358197 786.22350919 -120 790 C-120.0689447 790.68755371 -120.1378894 791.37510742 -120.20892334 792.08349609 C-120.64133807 796.39755003 -121.06690638 800.712197 -121.48388672 805.027771 C-121.61741719 806.40314286 -121.75261327 807.77835425 -121.88964844 809.15338135 C-122.68194106 817.12927488 -123.19641625 824.9833072 -123 833 C-102.56563329 841.73128596 -102.56563329 841.73128596 -81.39697266 848.38134766 C-78.60350223 849.10233503 -75.82464443 849.87150751 -73.04296875 850.63671875 C-44.67551935 858.2587601 -15.27106436 862.74345334 14 865 C14.65214478 865.05113953 15.30428955 865.10227905 15.97619629 865.15496826 C67.36768805 869.11799375 121.4928673 870.18060181 172.74938965 864.25970459 C175.15671107 863.98191665 177.56506585 863.71451566 179.97363281 863.44775391 C190.91887183 862.22294387 201.83685716 860.83517665 212.74468994 859.31384277 C214.8896394 859.01535748 217.03529221 858.7225179 219.18115234 858.43066406 C234.68474767 856.2833941 249.82573215 853.2866942 265 849.5 C265.74568237 849.31449585 266.49136475 849.1289917 267.25964355 848.93786621 C277.34181412 846.40795456 287.18342712 843.42222592 297 840 C297.12475946 816.979 296.99746095 793.97002301 296.60488492 770.95193064 C295.92954294 731.09491138 295.89370069 691.24601147 295.95998553 651.38438052 C295.9754211 641.83117349 295.98269379 632.27796415 295.9892792 622.72474754 C296.00105901 605.66626693 296.01594401 588.60779107 296.03442383 571.54931641 C296.03551395 570.54108381 296.03660407 569.53285122 296.03772723 568.49406612 C296.05004664 557.20175087 296.06363135 545.90943793 296.07904053 534.61712646 C296.08043498 533.5948525 296.08182943 532.57257853 296.08326614 531.51932657 C296.08608539 529.4554979 296.08890504 527.39166923 296.0917251 525.32784057 C296.09311842 524.30748033 296.09451173 523.28712009 296.09594727 522.23583984 C296.0973408 521.21678314 296.09873433 520.19772645 296.10017008 519.14778924 C296.12330208 502.07998431 296.13854752 485.01218275 296.14750665 467.94436455 C296.15329678 457.50623995 296.16548398 447.06816424 296.18647944 436.63005894 C296.2003172 429.49376519 296.20668737 422.35748821 296.20748956 415.22118121 C296.20818367 411.12995925 296.21194015 407.03880992 296.2249527 402.94760704 C296.41266205 341.33878228 287.36737452 285.71716484 263 229 C262.62746094 228.12794922 262.25492187 227.25589844 261.87109375 226.35742188 C260.86143404 224.00465396 259.84129854 221.65695613 258.8125 219.3125 C258.54026611 218.69125244 258.26803223 218.07000488 257.98754883 217.42993164 C255.56462925 212.02905937 252.88972669 206.75441753 250.23170471 201.46676636 C247.73188511 196.48614725 245.27970438 191.48454273 242.859375 186.46484375 C242.52024582 185.7620076 242.18111664 185.05917145 241.83171082 184.33503723 C240.45202348 181.4736829 239.07385893 178.61160469 237.69824219 175.74829102 C236.67084342 173.61106265 235.64031193 171.47536717 234.609375 169.33984375 C234.30513611 168.7043309 234.00089722 168.06881805 233.68743896 167.41404724 C232.81044106 165.60014697 231.90541853 163.79988244 231 162 C230.51858803 161.01649567 230.51858803 161.01649567 230.02745056 160.01312256 C228.25922476 156.38056548 228.25922476 156.38056548 225.04321289 154.19287109 C224.3599292 154.21945801 223.67664551 154.24604492 222.97265625 154.2734375 C221.80186523 154.27935913 221.80186523 154.27935913 220.60742188 154.28540039 C219.34768555 154.3297522 219.34768555 154.3297522 218.0625 154.375 C185.00314213 154.01187524 152.02850033 137.81911597 123.43847656 122.32080078 C120.97162683 120.98463167 118.49776846 119.6620976 116.0234375 118.33984375 C104.35026712 112.05708506 93.1051237 105.23564055 82 98 C80.92492187 97.30261719 79.84984375 96.60523438 78.7421875 95.88671875 C72.41986863 91.72639175 66.23850478 87.37266626 60.06567383 82.99536133 C52.80687455 77.84960981 45.5020618 72.7708964 38.1940918 67.6953125 C21.89997295 56.37816603 21.89997295 56.37816603 16.078125 52.18359375 C7.9299015 46.32425634 -0.36210082 40.72790646 -8.8125 35.3125 C-9.76157227 34.70011475 -10.71064453 34.08772949 -11.68847656 33.45678711 C-12.58147461 32.88968018 -13.47447266 32.32257324 -14.39453125 31.73828125 C-15.18706299 31.23337158 -15.97959473 30.72846191 -16.79614258 30.20825195 C-21.07325546 27.79432373 -21.07325546 27.79432373 -25.27734375 29.5703125 Z " fill="#0D0D0D" id="right_path_4" transform="translate(210,35)"/>
<path d="M0 0 C11.71122192 9.58174409 21.37839038 20.53039467 29.79638672 33.07202148 C30.37904297 33.93182617 30.96169922 34.79163086 31.56201172 35.67749023 C41.56227851 51.3884357 45.80089446 68.85315032 49.48388672 86.88452148 C49.69867676 87.93438232 49.9134668 88.98424316 50.13476562 90.06591797 C52.3243715 101.13559211 52.95996122 111.84177466 52.92675781 123.1015625 C52.9214396 125.23827351 52.92671036 127.3747703 52.93310547 129.51147461 C52.94210317 142.65266915 52.49644965 155.5790238 49.60888672 168.44702148 C49.39184082 169.45015381 49.17479492 170.45328613 48.95117188 171.48681641 C46.01537589 184.89735793 42.97960866 198.32792861 39.27294922 211.54858398 C37.67373883 217.36139764 36.43813589 223.21648536 35.29638672 229.13452148 C35.07917969 230.2427124 34.86197266 231.35090332 34.63818359 232.49267578 C32.87475456 241.84477162 31.75682033 251.21715825 31.04833984 260.70703125 C30.35561099 268.29778682 30.35561099 268.29778682 27.58154297 272.13842773 C17.0477835 279.45148655 3.15813255 281.57438995 -9.26611328 283.69702148 C-9.98565186 283.82028809 -10.70519043 283.94355469 -11.4465332 284.07055664 C-22.17125609 285.81753752 -32.79756833 286.23062395 -43.65283203 286.23999023 C-45.03693167 286.24321855 -46.421031 286.24658368 -47.80513 286.25007629 C-50.69878933 286.25602831 -53.59241899 286.25792067 -56.48608398 286.25732422 C-59.39955946 286.25724359 -62.3128756 286.26409015 -65.22631836 286.27783203 C-87.27767248 286.38015691 -109.22428968 285.99919979 -131.01611328 282.19702148 C-131.96035156 282.0487793 -132.90458984 281.90053711 -133.87744141 281.74780273 C-142.8142306 280.23891451 -152.43353849 278.59648206 -158.20361328 271.07202148 C-159.30202651 267.67335938 -159.78038392 264.24066621 -160.26611328 260.70874023 C-160.50406616 259.17332329 -160.50406616 259.17332329 -160.74682617 257.60688782 C-161.2518283 254.32703137 -161.72906473 251.04390967 -162.20361328 247.75952148 C-162.83990471 243.49112048 -163.48769454 239.22455099 -164.14111328 234.95874023 C-164.30289063 233.89718719 -164.46466797 232.83563416 -164.63134766 231.74191284 C-166.87992862 217.30344745 -169.84288931 202.97217295 -173.51953125 188.82885742 C-174.96705145 182.99538201 -176.09396666 177.09073059 -177.26611328 171.19702148 C-177.52199219 169.93760742 -177.77787109 168.67819336 -178.04150391 167.38061523 C-180.86431253 153.25931555 -182.61932684 139.59054335 -182.57861328 125.19702148 C-182.57773712 124.43400726 -182.57686096 123.67099304 -182.57595825 122.88485718 C-182.41272477 79.5138908 -167.62460232 36.53482521 -137.20361328 5.07202148 C-136.49205078 4.33467773 -135.78048828 3.59733398 -135.04736328 2.83764648 C-123.32039139 -8.48771678 -107.55556948 -17.64795231 -91.57861328 -21.11547852 C-90.86705078 -21.27983398 -90.15548828 -21.44418945 -89.42236328 -21.61352539 C-57.59785788 -28.81192542 -25.44650434 -19.9959308 0 0 Z M-135.20361328 11.07202148 C-135.98220703 11.83901367 -136.76080078 12.60600586 -137.56298828 13.39624023 C-165.08520699 42.13841545 -177.95467618 87.02653593 -177.41870117 126.05151367 C-177.36284198 128.39250051 -177.28722703 130.73188178 -177.20361328 133.07202148 C-177.17267578 134.24506836 -177.14173828 135.41811523 -177.10986328 136.62670898 C-176.31682193 153.16162108 -172.4714493 169.47997464 -168.49487305 185.48950195 C-165.83065148 196.32001355 -163.76852392 207.24775623 -161.74072266 218.2121582 C-160.9341714 222.50667701 -160.07388574 226.79002014 -159.20361328 231.07202148 C-155.05434553 230.28608161 -151.2031728 229.12801484 -147.20361328 227.75952148 C-145.84834487 227.30579763 -144.49287291 226.85268136 -143.13720703 226.40014648 C-140.80810841 225.61874257 -138.49086661 224.8181917 -136.17626953 223.99389648 C-88.06218867 207.71906645 -24.50399914 210.57020323 22.72998047 227.98608398 C25.09468324 228.82352013 27.36516896 229.49105005 29.79638672 230.07202148 C31.65990847 222.42363873 33.49221204 214.76800651 35.31158447 207.10900879 C35.81162223 205.00800664 36.31438396 202.90766809 36.81738281 200.80737305 C40.99689772 183.31870815 44.98777265 165.99638245 46.79638672 148.07202148 C46.92529297 146.94666992 47.05419922 145.82131836 47.18701172 144.66186523 C47.50089114 141.46112117 47.67167928 138.28591039 47.79638672 135.07202148 C47.83425293 134.32597656 47.87211914 133.57993164 47.91113281 132.8112793 C49.74638733 92.96225083 39.52230211 52.03418514 13.79638672 21.07202148 C13.00361328 20.11295898 12.21083984 19.15389648 11.39404297 18.16577148 C1.60503212 6.86953854 -10.06274822 -1.02476789 -23.20361328 -7.92797852 C-24.08146484 -8.39977539 -24.95931641 -8.87157227 -25.86376953 -9.35766602 C-63.30288531 -27.99042534 -106.54956386 -17.54109358 -135.20361328 11.07202148 Z " fill="#0D0D0D" id="right_path_5" transform="translate(302.20361328125,156.927978515625)"/>
<path d="M0 0 C5.98763297 1.90487391 11.76290713 4.09734712 17.56103516 6.51489258 C30.17226659 11.74905587 42.72141779 15.85595283 56 19 C56.89299805 19.21462891 57.78599609 19.42925781 58.70605469 19.65039062 C141.7477791 39.36126247 234.95664639 40.0424162 319.35693359 28.36181641 C321.99190427 28.00110825 324.62922382 27.67454061 327.26953125 27.35546875 C355.97444578 23.79654767 386.21525005 19.1594478 413.58203125 9.6640625 C416 9 416 9 421 9 C421 17.58 421 26.16 421 35 C406.90364323 39.69878559 393.0402653 43.56173902 378.48242188 46.49316406 C375.22774476 47.15767131 371.99031407 47.89404543 368.75 48.625 C363.59560641 49.72069196 358.43085593 50.61530728 353.2265625 51.4296875 C352.39700043 51.55976196 351.56743835 51.68983643 350.71273804 51.82385254 C342.03254691 53.170561 333.33674352 54.3768813 324.625 55.5 C323.80270905 55.60638794 322.98041809 55.71277588 322.13320923 55.8223877 C309.50772134 57.44157853 296.87624551 58.74295147 284.1875 59.75 C283.4467926 59.80889404 282.70608521 59.86778809 281.94293213 59.9284668 C265.331432 61.22980075 248.7658008 62.1595974 232.1015625 62.16796875 C230.53201267 62.17120461 228.96246311 62.17457013 227.39291382 62.17805481 C224.12065945 62.18398276 220.84843121 62.18590181 217.57617188 62.18530273 C214.30755985 62.18522232 211.03909053 62.19203993 207.77050781 62.20581055 C177.80098854 62.32982423 147.74729327 61.795506 118 57.8125 C117.19255341 57.7080658 116.38510681 57.60363159 115.55319214 57.49603271 C75.97586044 52.35244632 30.84332864 45.56221909 -3 23 C-2.41993763 15.24548194 -1.37559416 7.65257723 0 0 Z " fill="#FCFCFC" id="right_path_6" transform="translate(86,872)"/>
<path d="M0 0 C5.34419273 1.49805717 9.64255358 3.97148514 14.3125 6.875 C15.10011719 7.3611377 15.88773438 7.84727539 16.69921875 8.34814453 C25.04438125 13.55887199 33.03941953 19.22499699 41 25 C42.45432804 26.05222024 43.90875614 27.1043022 45.36328125 28.15625 C47.59526605 29.77094535 49.82723111 31.38566565 52.05859375 33.0012207 C86.3325361 57.77548037 121.95241611 82.32014607 160 101 C161.12801025 101.5576001 161.12801025 101.5576001 162.27880859 102.12646484 C176.75392107 109.19391706 192.33744968 115.61385659 208.40234375 117.70703125 C211.13807827 118.23024588 212.55104107 118.5292577 214.484375 120.55639648 C215.67509773 122.57597067 216.57616161 124.57028652 217.4375 126.75 C217.90446289 127.80574219 217.90446289 127.80574219 218.38085938 128.8828125 C218.99037976 130.26353658 219.58514822 131.65088549 220.16357422 133.04492188 C220.94063454 134.86123799 221.82781534 136.62935083 222.72265625 138.390625 C224 141 224 141 224 143 C189.01568202 145.06329529 153.58356394 128.1207978 123.890625 111.07666016 C121.42892632 109.67478888 118.93565557 108.33561028 116.4375 107 C96.6962483 96.24026434 78.11738163 83.87326033 59.71484375 70.98828125 C54.56772933 67.38676904 49.38368053 63.84266358 44.1875 60.3125 C37.95452344 56.06836734 31.79422822 51.73637877 25.6875 47.3125 C24.56021484 46.49616089 24.56021484 46.49616089 23.41015625 45.66333008 C20.09779303 43.26019309 16.79239456 40.84838559 13.5 38.41796875 C5.52393743 32.57570427 -2.75122108 27.3521683 -11.24536133 22.2890625 C-12.55863403 21.49628906 -12.55863403 21.49628906 -13.8984375 20.6875 C-14.68911621 20.21699219 -15.47979492 19.74648438 -16.29443359 19.26171875 C-17.13868896 18.63716797 -17.13868896 18.63716797 -18 18 C-18 17.34 -18 16.68 -18 16 C-16.3214487 14.50370821 -14.58041102 13.07707339 -12.8125 11.6875 C-9.7833166 9.29902741 -6.96472235 6.9640178 -4.26171875 4.20703125 C-2 2 -2 2 0 2 C0 1.34 0 0.68 0 0 Z " fill="#FCFCFC" id="right_path_7" transform="translate(210,42)"/>
<path d="M0 0 C2.71644937 0.02182085 5.43270432 0.0208395 8.14922619 0.01999569 C22.01464595 0.0209913 35.68554388 0.1687275 49.39611816 2.39123535 C50.49762207 2.56268066 51.59912598 2.73412598 52.73400879 2.9107666 C55.7798163 3.41557576 58.80546824 3.97749435 61.83361816 4.57873535 C62.88476807 4.78651611 63.93591797 4.99429687 65.0189209 5.20837402 C74.60472797 7.22226025 83.45918121 10.43067708 92.39611816 14.39123535 C91.64881936 24.42077193 90.53945086 34.40094964 89.39611816 44.39123535 C88.84866943 44.20367676 88.3012207 44.01611816 87.73718262 43.82287598 C63.67136933 35.67523468 38.72346633 33.00485978 13.39611816 32.39123535 C12.52197266 32.36932129 11.64782715 32.34740723 10.74719238 32.3248291 C-21.52609105 31.64764882 -54.76869832 32.82123293 -84.78356934 45.6920166 C-86.60388184 46.39123535 -86.60388184 46.39123535 -88.60388184 46.39123535 C-88.68952393 45.80108643 -88.77516602 45.2109375 -88.86340332 44.60290527 C-89.25323782 41.92776143 -89.64726197 39.25325106 -90.04138184 36.57873535 C-90.17608887 35.64996582 -90.3107959 34.72119629 -90.44958496 33.76428223 C-90.58171387 32.87160645 -90.71384277 31.97893066 -90.84997559 31.0592041 C-90.97042236 30.23702393 -91.09086914 29.41484375 -91.21496582 28.56774902 C-91.58006076 26.22199478 -91.58006076 26.22199478 -92.60388184 23.39123535 C-92.7316997 20.71728571 -92.64780055 18.07027678 -92.60388184 15.39123535 C-86.62211309 13.3336766 -80.62311028 11.33652398 -74.60388184 9.39123535 C-73.88313477 9.15678711 -73.1623877 8.92233887 -72.4197998 8.68078613 C-48.80547204 1.14358739 -24.62749339 -0.24957773 0 0 Z " fill="#FCFCFC" id="right_path_8" transform="translate(237.6038818359375,376.6087646484375)"/>
<path d="M0 0 C0 0.66 0 1.32 0 2 C-21.7819384 11.15420335 -45.01889519 13.0838261 -68.4453125 13.23828125 C-69.68302399 13.24798447 -70.92073547 13.25768768 -72.19595337 13.26768494 C-76.17231009 13.29246348 -80.14858141 13.30584823 -84.125 13.3125 C-84.80174271 13.31394516 -85.47848541 13.31539032 -86.17573547 13.31687927 C-103.08668432 13.34604838 -119.93262555 13.23128259 -136.75 11.25 C-137.43161194 11.17149811 -138.11322388 11.09299622 -138.81549072 11.01211548 C-146.38437615 10.10703637 -153.83084153 8.70659538 -161.265625 7.046875 C-162.35614166 6.81173187 -162.35614166 6.81173187 -163.46868896 6.57183838 C-167.08927838 5.72121862 -169.72619035 5.06887854 -172 2 C-124.54745821 -18.86201837 -47.52594937 -21.24856157 0 0 Z " fill="#FAFAFA" id="right_path_9" transform="translate(324,425)"/>
</svg>