<?xml version="1.0" encoding="utf-8"?>
<svg height="1024" id="svg_2" version="1.1" width="1024" xmlns="http://www.w3.org/2000/svg">
<path d="M0 0 C337.92 0 675.84 0 1024 0 C1024 337.92 1024 675.84 1024 1024 C686.08 1024 348.16 1024 0 1024 C0 686.08 0 348.16 0 0 Z " fill="#FEFEFE" id="path_27" transform="translate(0,0)"/>
<path d="M0 0 C0.73727325 -0.00393265 1.47454651 -0.0078653 2.23416138 -0.01191711 C7.38235427 0.01126052 7.38235427 0.01126052 8.5078125 1.13671875 C8.61587712 2.61377209 8.65465216 4.09594682 8.66603088 5.5769043 C8.67582002 6.54421856 8.68560915 7.51153282 8.69569492 8.50815964 C8.70145007 9.58570133 8.70720522 10.66324303 8.71313477 11.7734375 C8.72797991 13.47985853 8.72797991 13.47985853 8.74312496 15.22075272 C8.7696 18.40897693 8.79144314 21.5971939 8.81112289 24.78546619 C8.82883637 27.5430857 8.8499609 30.30067514 8.87103426 33.05827069 C8.9351275 41.4656769 8.98885316 49.87313231 9.04024124 58.28062439 C9.06993495 63.12219404 9.10212201 67.96374547 9.13449097 72.80529785 C9.72958563 162.58114093 9.60423723 252.3594638 9.5078125 342.13671875 C8.36188126 342.27607346 7.21595001 342.41542816 6.03529358 342.55900574 C1.72573406 343.0841218 -2.58318973 343.61430927 -6.89195251 344.1459198 C-8.74601426 344.37397797 -10.60023888 344.60071649 -12.45463562 344.82603455 C-40.66863712 348.25674066 -67.40922289 354.27075881 -92.4921875 368.13671875 C-93.55566406 368.71164062 -94.61914062 369.2865625 -95.71484375 369.87890625 C-107.08001224 376.2434006 -117.02493339 384.23417804 -126.4921875 393.13671875 C-127.37777344 393.925625 -127.37777344 393.925625 -128.28125 394.73046875 C-162.11669315 426.16054864 -171.24842137 478.1377904 -175.1171875 521.76171875 C-175.18322174 522.5019931 -175.24925598 523.24226746 -175.31729126 524.00497437 C-177.58321309 550.59204466 -176.75255923 577.47941592 -176.4921875 604.13671875 C-178.52691655 604.15079066 -180.56167451 604.16070889 -182.59643555 604.16894531 C-184.29608711 604.1779184 -184.29608711 604.1779184 -186.03007507 604.18707275 C-191.49686719 604.10756209 -196.87894298 603.52570438 -202.3046875 602.88671875 C-203.47483398 602.75104492 -204.64498047 602.61537109 -205.85058594 602.47558594 C-238.31708432 598.58943117 -270.06921776 591.04085094 -301.4921875 582.13671875 C-302.83506836 581.76063477 -302.83506836 581.76063477 -304.20507812 581.37695312 C-313.53148047 578.71333862 -322.05716835 575.08577432 -330.6796875 570.63671875 C-331.55375244 570.18578857 -332.42781738 569.7348584 -333.32836914 569.27026367 C-340.2041438 565.57950722 -346.43273161 561.46219461 -350.6796875 554.76171875 C-351.35064453 553.72917969 -351.35064453 553.72917969 -352.03515625 552.67578125 C-352.75638672 551.41894531 -352.75638672 551.41894531 -353.4921875 550.13671875 C-353.9894912 549.35132469 -353.9894912 549.35132469 -354.49684143 548.55006409 C-357.96813211 542.54406958 -358.02168101 537.25607782 -357.8515625 530.4375 C-357.83639587 529.27189041 -357.82122925 528.10628082 -357.80560303 526.90534973 C-357.53723934 511.5238633 -356.71877715 496.15602437 -355.87715912 480.79722595 C-355.74033826 478.29033614 -355.60622066 475.78331364 -355.47271729 473.27624512 C-354.16048097 448.71962091 -352.50282374 424.22289998 -350.1229248 399.74369812 C-349.5846627 394.20301539 -349.12588677 388.65978077 -348.70751953 383.10864258 C-347.72784165 370.15623468 -346.09214667 357.29547987 -344.421875 344.41796875 C-343.9067902 340.44187559 -343.40077586 336.46975842 -343 332.48046875 C-338.0846855 283.92919902 -323.84167754 235.76455282 -304.4921875 191.13671875 C-303.92250244 189.8213916 -303.92250244 189.8213916 -303.34130859 188.47949219 C-292.18749429 163.08665944 -276.72713192 139.77826498 -259.4921875 118.13671875 C-259.02651367 117.55100098 -258.56083984 116.9652832 -258.08105469 116.36181641 C-251.52440165 108.20998056 -244.29597319 100.74497346 -236.9296875 93.32421875 C-236.06730469 92.45249023 -235.20492187 91.58076172 -234.31640625 90.68261719 C-228.35100188 84.74658792 -222.08773241 79.35887305 -215.4921875 74.13671875 C-214.8943042 73.65388428 -214.2964209 73.1710498 -213.68041992 72.67358398 C-205.36520943 65.96785589 -196.59554187 60.08885533 -187.54736328 54.42431641 C-186.25851746 53.61683566 -184.97255611 52.80471247 -183.69091797 51.98583984 C-149.57747803 30.19902288 -110.88357206 16.61579907 -71.4921875 8.13671875 C-69.92791016 7.79447266 -69.92791016 7.79447266 -68.33203125 7.4453125 C-54.42032239 4.45813575 -40.52845038 2.54923426 -26.3671875 1.32421875 C-25.64823303 1.26078278 -24.92927856 1.1973468 -24.1885376 1.13198853 C-16.12446531 0.43708087 -8.09533354 0.02930655 0 0 Z " fill="#FEFEFE" id="path_28" transform="translate(481.4921875,161.86328125)"/>
<path d="M0 0 C3.61457264 -0.02292822 7.22912611 -0.03650622 10.84375 -0.04858398 C12.35727051 -0.05835392 12.35727051 -0.05835392 13.90136719 -0.06832123 C24.02135082 -0.0935755 33.95759729 0.75412473 44 1.9375 C45.39816956 2.09880402 45.39816956 2.09880402 46.82458496 2.2633667 C107.33373992 9.3767523 170.33636255 31.15548191 218 70 C218.83015625 70.65097656 219.6603125 71.30195313 220.515625 71.97265625 C223.03592366 73.9523102 225.52238283 75.9671776 228 78 C228.50047852 78.40879395 229.00095703 78.81758789 229.51660156 79.23876953 C243.63150296 90.83345741 256.79202113 103.55505973 268 118 C268.94755571 119.16127991 269.89829595 120.31996589 270.8515625 121.4765625 C277.82061869 129.96808258 284.13612786 138.71245472 290 148 C290.36657715 148.57621094 290.7331543 149.15242187 291.11083984 149.74609375 C322.60703292 199.59740338 339.55330886 256.18439644 349 314 C349.31300049 315.85359131 349.31300049 315.85359131 349.63232422 317.74462891 C353.34435768 339.82855849 355.61133759 361.95048172 357.50732422 384.25683594 C357.92159152 389.12019068 358.35608654 393.98150447 358.79676819 398.8425293 C360.72517581 420.13915117 362.38226455 441.40987956 363.34765625 462.77319336 C363.69259129 470.35499983 364.11661801 477.89472847 364.84887695 485.45141602 C365.96170757 496.98215164 366.29858692 508.50428786 366.40740967 520.08261108 C366.42724714 521.96473682 366.45525624 523.8467967 366.49200439 525.72866821 C366.84062458 544.96661314 366.84062458 544.96661314 361 553 C360.35160156 553.95132813 359.70320313 554.90265625 359.03515625 555.8828125 C346.1480685 570.53071026 326.19033683 576.71596335 307.9375 581.9375 C307.2018985 582.15032623 306.466297 582.36315247 305.70840454 582.58242798 C273.90457703 591.7738242 241.58934127 598.43659626 208.875 603.4375 C207.82231934 603.60145264 206.76963867 603.76540527 205.68505859 603.93432617 C199.08207308 604.89393146 192.66889564 605.18420102 186 605 C186.00523682 603.83992432 186.01047363 602.67984863 186.01586914 601.48461914 C187.39096285 513.83856547 187.39096285 513.83856547 162 431 C161.47019531 429.95875977 161.47019531 429.95875977 160.9296875 428.89648438 C151.42208165 410.51397305 138.48997226 394.60038841 122 382 C120.72382812 381.00033203 120.72382812 381.00033203 119.421875 379.98046875 C89.32368792 357.13648544 52.56665002 348.61834234 15.76464844 344.30615234 C15.08399826 344.22603409 14.40334808 344.14591583 13.70207214 344.06336975 C11.83178273 343.84478509 9.96094976 343.63086589 8.09008789 343.41723633 C5.63711837 343.08602633 3.38448441 342.625425 1 342 C0.03712314 295.97151694 -0.10006414 249.94292686 -0.09765625 203.90625 C-0.09762838 203.16937942 -0.09760051 202.43250884 -0.09757179 201.67330885 C-0.09662975 182.6358383 -0.08599736 163.59837703 -0.07202661 144.56091213 C-0.06400572 133.50773095 -0.05860833 122.45455064 -0.05493164 111.40136719 C-0.05466892 110.61379447 -0.05440619 109.82622176 -0.05413551 109.0147832 C-0.05282971 105.06056965 -0.05156618 101.10635609 -0.05032361 97.15214252 C-0.04009332 64.76809027 -0.02260573 32.38404607 0 0 Z " fill="#FEFEFE" id="path_29" transform="translate(534,162)"/>
<path d="M0 0 C0.92490234 -0.01611328 1.84980469 -0.03222656 2.80273438 -0.04882812 C13.04454251 -0.05600529 22.28252705 2.4257832 30.0625 9.3125 C34.70683373 14.68361877 37.19102104 19.47045311 39.0625 26.3125 C39.60611176 26.3765654 40.14972351 26.4406308 40.70980835 26.50663757 C97.3612845 33.20187901 154.08380068 42.81075221 204.0625 72.3125 C204.71138184 72.6930957 205.36026367 73.07369141 206.02880859 73.46582031 C222.11371298 82.94567037 237.90591741 93.09857254 252.0625 105.3125 C253.21390912 106.28106009 254.36631721 107.2484334 255.51953125 108.21484375 C261.66659272 113.39174892 267.57479778 118.65933978 273.1796875 124.4296875 C274.78806137 126.03806137 276.40631271 127.46683622 278.1875 128.875 C281.09035453 131.3361158 283.44953208 133.89204765 285.90625 136.78515625 C287.55094528 138.71290597 289.21546736 140.6094954 290.90625 142.49609375 C306.25435097 159.71835383 318.56076947 178.3452825 330.0625 198.3125 C330.8057251 199.59616455 330.8057251 199.59616455 331.56396484 200.90576172 C336.08812156 208.75326796 340.36429552 216.69096668 344.25 224.875 C344.53480225 225.47441406 344.81960449 226.07382812 345.11303711 226.69140625 C351.52884416 240.55951718 356.82332179 254.75715632 361.4375 269.3125 C361.85320755 270.61678452 361.85320755 270.61678452 362.27731323 271.94741821 C368.55132036 291.77288581 373.10837005 311.9108347 377.0625 332.3125 C377.23029968 333.16781311 377.39809937 334.02312622 377.57098389 334.90435791 C380.37757536 349.30941252 382.40124349 363.73408378 384.0625 378.3125 C384.18978485 379.41618927 384.3170697 380.51987854 384.44821167 381.65701294 C388.62543182 417.99127686 391.34577866 454.38773619 393.75 490.875 C393.83209654 492.1201494 393.83209654 492.1201494 393.91585159 493.39045334 C397.24242223 543.93184049 397.24242223 543.93184049 397.41259766 563.70898438 C397.42937073 565.12581562 397.4569305 566.54255543 397.49462891 567.95898438 C397.81458397 580.21187215 396.16438114 590.81844109 388 600.5 C386.38686942 602.1370485 384.73910548 603.74052287 383.0625 605.3125 C382.16402344 606.1684375 381.26554688 607.024375 380.33984375 607.90625 C341.55449205 642.56772177 258.70129591 650.18748307 208.765625 653.91796875 C205.15015572 654.19335544 201.6371521 654.69672051 198.0625 655.3125 C187.41525815 656.00096827 187.41525815 656.00096827 183.0625 653.3125 C182.27166016 652.04792969 182.27166016 652.04792969 181.46484375 650.7578125 C179.17025311 647.92801051 179.17025311 647.92801051 175.18359375 647.75390625 C173.62192122 647.76603705 172.06029362 647.8082764 170.5 647.875 C169.6644458 647.89240234 168.8288916 647.90980469 167.96801758 647.92773438 C161.23389325 648.12436954 154.56721364 648.79676607 147.88134766 649.59545898 C140.91214898 650.40938534 134.08143488 650.51860249 127.0625 650.3125 C126.92972656 651.24835937 126.79695312 652.18421875 126.66015625 653.1484375 C125.9234864 657.04845433 124.90169808 658.54610187 122.0625 661.3125 C109.94781955 668.86516689 91.58875406 668.20627023 78.0625 665.125 C73.34117678 663.6439369 68.7519739 661.67303285 65.0625 658.3125 C64.72483109 657.4684259 64.38716217 656.62435181 64.03926086 655.75469971 C62.37432673 653.19657895 62.37432673 653.19657895 60.2459774 652.85991669 C57.75552716 652.70072738 55.30836218 652.70647562 52.81323242 652.76074219 C51.8625589 652.76161835 50.91188538 652.76249451 49.93240356 652.76339722 C46.76034015 652.77203016 43.58973226 652.81600137 40.41796875 652.859375 C38.17834074 652.87127107 35.93869884 652.8807693 33.6990509 652.88800049 C27.753661 652.91285163 21.80888713 652.96663039 15.86376953 653.02746582 C6.53682775 653.11788712 -2.79051408 653.16452562 -12.11774254 653.21520805 C-14.43231364 653.22801393 -16.74688022 653.24166531 -19.06144142 653.2561512 C-42.36699388 653.39828886 -65.64297299 653.01148135 -88.9375 652.3125 C-89.63941341 652.29160057 -90.34132683 652.27070114 -91.06451035 652.2491684 C-99.0869239 652.00788796 -107.10607993 651.71169518 -115.125 651.375 C-116.1560788 651.33336731 -117.18715759 651.29173462 -118.2494812 651.24884033 C-130.35163216 650.75859907 -142.42636296 650.15842605 -154.5 649.1875 C-165.17743207 648.33048147 -165.17743207 648.33048147 -175.875 647.8125 C-177.16277344 647.7609375 -178.45054687 647.709375 -179.77734375 647.65625 C-183.22048009 648.01037112 -183.22048009 648.01037112 -185.19140625 651.28125 C-185.76761719 652.2815625 -186.34382812 653.281875 -186.9375 654.3125 C-193.98232559 656.6607752 -202.25123637 655.25249971 -209.55078125 654.5703125 C-210.45744537 654.48694641 -211.3641095 654.40358032 -212.29824829 654.31768799 C-249.9246499 650.76123023 -287.03744254 644.3999968 -323.5625 634.625 C-324.77738602 634.30109283 -324.77738602 634.30109283 -326.01681519 633.97064209 C-350.3956757 627.3956431 -380.79479633 619.08981347 -394.9375 596.3125 C-400.41919022 586.50341725 -400.68429714 577.27502132 -400.5 566.375 C-400.49229584 565.46700653 -400.48459167 564.55901306 -400.47665405 563.62350464 C-399.74105797 478.03767166 -395.28550094 388.80543986 -340.98242188 212.29638672 C-339.84523113 210.1373185 -338.74199652 207.96270152 -337.640625 205.78515625 C-326.02561918 183.00259644 -311.69503884 162.57833287 -294.9375 143.3125 C-294.31359375 142.58804688 -293.6896875 141.86359375 -293.046875 141.1171875 C-291.3586009 139.16857207 -289.65130273 137.23869709 -287.9375 135.3125 C-287.08671875 134.34570312 -286.2359375 133.37890625 -285.359375 132.3828125 C-284.44841222 131.35893388 -283.53695546 130.33549455 -282.625 129.3125 C-281.78324219 128.36375 -280.94148438 127.415 -280.07421875 126.4375 C-277.9375 124.3125 -277.9375 124.3125 -275.9375 124.3125 C-275.9375 123.6525 -275.9375 122.9925 -275.9375 122.3125 C-274.57421875 120.9375 -274.57421875 120.9375 -272.625 119.3125 C-269.32763028 116.52065037 -266.14980742 113.64465865 -263 110.6875 C-219.69336914 71.31783558 -165.19236795 49.51241099 -108.9375 36.3125 C-107.42687988 35.95043457 -107.42687988 35.95043457 -105.88574219 35.58105469 C-85.46363381 30.76328427 -62.99097038 27.3125 -41.9375 27.3125 C-41.89625 26.508125 -41.855 25.70375 -41.8125 24.875 C-39.6922613 16.24259957 -33.43517017 9.72601242 -26.03125 5.12890625 C-17.77865257 0.65874931 -9.2413525 -0.03206576 0 0 Z M-58.25 39.375 C-58.98685028 39.43707642 -59.72370056 39.49915283 -60.48287964 39.56311035 C-103.2579111 43.28748171 -146.26682889 54.70536853 -184.9375 73.3125 C-185.80793945 73.72193848 -186.67837891 74.13137695 -187.57519531 74.55322266 C-202.09682406 81.39599806 -215.622855 89.35336476 -228.9375 98.3125 C-229.98188232 99.01487793 -229.98188232 99.01487793 -231.04736328 99.73144531 C-239.82944258 105.69604292 -247.95911341 112.32230993 -255.9375 119.3125 C-256.73027344 119.993125 -257.52304687 120.67375 -258.33984375 121.375 C-270.79539451 132.27626836 -282.94600472 144.10283339 -292.9375 157.3125 C-294.07385576 158.7711162 -295.21061277 160.22941984 -296.34765625 161.6875 C-347.74419857 228.23193742 -370.50869008 312.35278736 -378.29000854 394.94425964 C-378.72025181 399.41057827 -379.27351778 403.8396021 -379.91796875 408.28125 C-381.49317791 419.69354164 -382.15986338 431.20271293 -383 442.6875 C-383.26017498 446.20336503 -383.52161783 449.71912863 -383.78477478 453.23477173 C-383.94700921 455.40615635 -384.10741361 457.57767879 -384.26564026 459.74935913 C-384.58191601 464.01491371 -384.91317583 468.26485538 -385.43310547 472.51074219 C-386.25250026 479.60044089 -386.52832711 486.74325518 -386.91015625 493.8671875 C-386.99839205 495.493582 -387.08664414 497.11997562 -387.1749115 498.74636841 C-387.35922697 502.15714399 -387.54120366 505.56803606 -387.72192383 508.97900391 C-387.90458464 512.41937088 -388.09178425 515.85943935 -388.28344727 519.29931641 C-389.20063735 535.78249996 -390.10306263 552.26600089 -390.25 568.77734375 C-390.26833389 569.85019623 -390.28666779 570.92304871 -390.30555725 572.02841187 C-390.30305475 580.6676592 -388.44351666 586.47367772 -382.9375 593.3125 C-382.4321875 594.05757812 -381.926875 594.80265625 -381.40625 595.5703125 C-376.87898941 601.64515707 -370.37560141 604.97265779 -363.77294922 608.36425781 C-362.09464352 609.23131545 -360.43850591 610.14094035 -358.78515625 611.0546875 C-340.28300866 620.60276367 -318.57670324 624.7962024 -298.4375 629.6875 C-297.76583801 629.85071747 -297.09417603 630.01393494 -296.40216064 630.18209839 C-282.59480699 633.51817878 -268.74652912 636.33770107 -254.6875 638.375 C-253.52653809 638.54418945 -252.36557617 638.71337891 -251.16943359 638.88769531 C-244.31083398 639.87060659 -237.44931938 640.80008185 -230.5625 641.5625 C-229.86995117 641.64250244 -229.17740234 641.72250488 -228.46386719 641.80493164 C-224.01901538 642.26180481 -219.62634747 642.34438447 -215.15771484 642.33105469 C-213.99154633 642.32837585 -212.82537781 642.32569702 -211.62387085 642.32293701 C-210.29411728 642.31777069 -210.29411728 642.31777069 -208.9375 642.3125 C-208.94638245 641.64821487 -208.95526489 640.98392975 -208.9644165 640.29951477 C-210.07940271 552.69538375 -210.07940271 552.69538375 -200.9375 513.3125 C-200.72899414 512.41208984 -200.52048828 511.51167969 -200.30566406 510.58398438 C-193.0092583 480.02168098 -180.09226645 452.78107334 -157.9375 430.3125 C-157.10992187 429.47203125 -156.28234375 428.6315625 -155.4296875 427.765625 C-123.71161796 397.30851847 -80.33785475 387.37961538 -38.171875 382.1953125 C-36.68601531 382.01130932 -35.20017533 381.82714686 -33.71435547 381.64282227 C-30.12229501 381.1975509 -26.52997508 380.75441528 -22.9375 380.3125 C-22.78082019 244.43181727 -22.78082019 244.43181727 -23.32705754 108.55259538 C-23.35939233 103.71468499 -23.39027757 98.87676859 -23.41984785 94.03884053 C-23.47060291 85.73494718 -23.52692066 77.43111785 -23.59037781 69.12731171 C-23.61110404 66.40224892 -23.62977045 63.67718466 -23.64659119 60.95209503 C-23.6703118 57.28441244 -23.70027099 53.61683792 -23.73217773 49.94921875 C-23.73793288 48.87167706 -23.74368803 47.79413536 -23.74961758 46.68394089 C-23.75940671 45.71662663 -23.76919584 44.74931236 -23.77928162 43.75268555 C-23.78573417 42.91287643 -23.79218672 42.07306732 -23.7988348 41.20780945 C-23.73073719 39.30138741 -23.73073719 39.30138741 -24.9375 38.3125 C-27.4632567 38.20734729 -29.95453599 38.1684752 -32.48046875 38.18359375 C-33.24594528 38.18677109 -34.01142181 38.18994843 -34.8000946 38.19322205 C-42.64194743 38.26293792 -50.43733315 38.70849218 -58.25 39.375 Z M20.0625 38.3125 C20.03934506 71.48333505 20.02185831 104.65416791 20.01143467 137.82500926 C20.01018474 141.78796191 20.00889035 145.75091455 20.00756836 149.71386719 C20.00730605 150.50244682 20.00704374 151.29102646 20.00677348 152.10350245 C20.00301187 163.13582406 19.9968618 174.16814203 19.98876567 185.20046127 C19.97482057 204.20655697 19.96556265 223.21264886 19.96484375 242.21875 C19.96480518 242.95620972 19.96476661 243.69366944 19.96472687 244.45347643 C19.96314166 289.74522357 20.1152057 335.0289111 21.0625 380.3125 C24.189968 380.78476046 27.31762464 381.25576054 30.4453125 381.7265625 C31.31647705 381.85812744 32.1876416 381.98969238 33.08520508 382.12524414 C38.34518193 382.91630961 43.60826433 383.67681353 48.8776865 384.40237236 C84.8503111 389.38184723 122.17537166 400.65505398 148.984375 426.32421875 C150.89622413 428.15341275 152.87607195 429.78249171 154.9375 431.4375 C180.11605964 453.51324724 191.9196618 488.10611078 198.53955078 519.80859375 C198.99084194 521.96939775 199.45988616 524.1252946 199.93359375 526.28125 C207.82858273 564.56990124 206.23801262 604.43240423 206.0625 643.3125 C213.84918659 643.52757543 221.24726125 642.94849404 228.9375 641.75 C230.08968018 641.57291504 231.24186035 641.39583008 232.42895508 641.21337891 C314.31677387 631.35389326 314.31677387 631.35389326 381.3359375 590.9375 C385.34309669 584.84516747 386.5170131 579.96705286 386.4609375 572.8125 C386.46494064 571.996035 386.46894379 571.17957001 386.47306824 570.33836365 C386.47893784 567.6627238 386.45984987 564.98804336 386.4375 562.3125 C386.43301346 560.92890793 386.43301346 560.92890793 386.42843628 559.5173645 C386.37124086 544.3667702 385.5966573 529.33375171 384.21826172 514.24804688 C383.44828869 505.77781823 382.92158092 497.34931443 382.640625 488.84765625 C382.13113619 474.16029183 380.90284202 459.54255453 379.64331055 444.90478516 C379.31623141 441.10232609 378.99957068 437.29908343 378.68563747 433.49551964 C376.4465421 406.45970337 373.76079389 379.43188748 369.125 352.6875 C368.93549271 351.5742334 368.93549271 351.5742334 368.74215698 350.43847656 C366.56170685 337.63936476 364.06687223 324.94583177 361.0625 312.3125 C360.81419434 311.24193359 360.56588867 310.17136719 360.31005859 309.06835938 C343.79487116 238.15911425 309.13330109 164.73367472 250.8125 118.5078125 C247.99792965 116.26095379 245.28760985 113.91669212 242.5625 111.5625 C229.47383956 100.65810502 214.91879408 91.59338954 200.0625 83.3125 C198.98959717 82.70825195 198.98959717 82.70825195 197.89501953 82.09179688 C156.63479528 59.01605879 110.85784303 45.63776325 64.0625 40.25 C63.17480927 40.14545502 62.28711853 40.04091003 61.37252808 39.93319702 C51.19465417 38.76366515 41.15321655 38.19777076 30.90625 38.26391602 C29.33182129 38.26917675 29.33182129 38.26917675 27.72558594 38.27454376 C25.17118605 38.28358999 22.61686279 38.29629698 20.0625 38.3125 Z " fill="#040405" id="path_30" transform="translate(513.9375,123.6875)"/>
<path d="M0 0 C1.13220978 0.00040787 1.13220978 0.00040787 2.28729248 0.00082397 C15.22743981 0.02210431 28.02816718 0.52695329 40.875 2.1875 C41.94862793 2.32430176 41.94862793 2.32430176 43.04394531 2.46386719 C52.72611686 3.77351071 62.16401342 6.16244187 71.625 8.5625 C72.7377832 8.84246826 73.85056641 9.12243652 74.99707031 9.41088867 C85.66850461 12.20033654 95.97367405 15.9315265 105.8125 20.9375 C106.81180542 21.44555176 106.81180542 21.44555176 107.83129883 21.96386719 C120.38233151 28.469275 130.90301033 36.15944855 140.875 46.1875 C142.00035156 47.31285156 142.00035156 47.31285156 143.1484375 48.4609375 C163.91995958 70.54607362 176.86090267 107.39247611 177 137.4375 C176.95875 138.675 176.9175 139.9125 176.875 141.1875 C166.87974084 142.62632751 156.88208354 143.56459402 146.8125 144.3125 C145.6474292 144.39999512 144.4823584 144.48749023 143.28198242 144.57763672 C140.1471587 144.8027335 137.01263732 145.00618196 133.875 145.1875 C132.74022217 145.25432983 132.74022217 145.25432983 131.58251953 145.32250977 C129.69140625 145.38671875 129.69140625 145.38671875 126.875 145.1875 C124.875 142.875 124.875 142.875 122.875 140.1875 C109.45696131 133.35649848 91.22817532 135.20080416 77.04296875 139.29296875 C71.54617459 141.29797223 67.99962433 143.05437129 63.875 147.1875 C12.46412844 164.1060495 -69.03453879 147.56170152 -122.96531677 144.69033813 C-132.29359693 144.20447128 -141.624582 143.84912928 -150.96109009 143.56321716 C-160.40947343 143.25155317 -169.74847381 142.3638486 -179.125 141.1875 C-178.87370173 128.21137095 -176.08044675 115.77463313 -173.125 103.1875 C-172.93953613 102.39375977 -172.75407227 101.60001953 -172.56298828 100.78222656 C-168.19628275 82.74179464 -159.93054587 65.52921828 -148.125 51.1875 C-147.69606445 50.66365723 -147.26712891 50.13981445 -146.82519531 49.60009766 C-121.91180685 19.70957192 -82.23489709 6.95632954 -44.78125 2.6171875 C-42.47893738 2.34661657 -40.17997071 2.04372839 -37.88818359 1.69506836 C-34.01389712 1.17251473 -30.15815087 0.85558637 -26.2578125 0.63671875 C-25.15422897 0.57396004 -25.15422897 0.57396004 -24.02835083 0.50993347 C-16.01968036 0.08542552 -8.01857245 -0.01102217 0 0 Z " fill="#FEFEFE" id="path_31" transform="translate(513.125,529.8125)"/>
<path d="M0 0 C14.68356589 0.52878662 29.3604016 1.14318738 44.03567505 1.86653137 C109.73394289 5.10322852 175.22661726 6.30347259 241 6 C241.0154612 7.11514732 241.0154612 7.11514732 241.03123474 8.25282288 C241.13001531 15.32667845 241.23262893 22.40046628 241.33933926 29.47420597 C241.39404449 33.10916174 241.44736834 36.74412587 241.49731445 40.37915039 C241.54574643 43.90000946 241.59809503 47.42079214 241.65294075 50.94155693 C241.68265153 52.91022411 241.70850774 54.87894828 241.73423767 56.84767151 C241.85971545 64.64962708 242.25587748 72.37547424 242.89002991 80.1493988 C242.92632004 81.0900972 242.96261017 82.03079559 243 83 C241.40860895 84.59139105 239.76861736 84.12599101 237.56201172 84.12698364 C236.60177597 84.12980347 235.64154022 84.13262329 234.65220642 84.13552856 C233.58877518 84.13350433 232.52534393 84.1314801 231.4296875 84.12939453 C230.31521744 84.13114685 229.20074738 84.13289917 228.05250549 84.13470459 C224.32665491 84.13914102 220.60085117 84.13617102 216.875 84.1328125 C214.26180004 84.13348691 211.64860014 84.13445809 209.03540039 84.13571167 C203.51692198 84.13753832 197.99845686 84.13512487 192.47998047 84.13037109 C186.89826577 84.12561645 181.31657785 84.12547208 175.73486328 84.13037109 C143.81213295 84.15764762 111.90838708 84.06104127 80 83 C78.83202881 82.96219421 77.66405762 82.92438843 76.46069336 82.88543701 C70.05503156 82.6733475 63.65243504 82.4180434 57.25 82.125 C56.34657867 82.08497864 55.44315735 82.04495728 54.51235962 82.00372314 C35.63129542 81.1575485 16.82357169 79.66494379 -2 78 C-2.04661014 69.60193149 -2.08201344 61.20391823 -2.10362434 52.8057518 C-2.11400333 48.90495949 -2.12805313 45.00425653 -2.15087891 41.10351562 C-2.1728196 37.32984811 -2.18461271 33.55626582 -2.18975449 29.78253937 C-2.19341256 28.35224315 -2.2005542 26.9219509 -2.21146011 25.49169159 C-2.27495569 16.8088201 -1.76838723 8.526005 0 0 Z " fill="#FEFEFE" id="path_32" transform="translate(333,682)"/>
<path d="M0 0 C5.61 0 11.22 0 17 0 C17.02278864 43.42436161 17.04049728 86.84872243 17.05106533 130.27308884 C17.05231611 135.39405468 17.05361042 140.51502051 17.05493164 145.63598633 C17.05519395 146.65552365 17.05545626 147.67506098 17.05572652 148.72549338 C17.06008362 165.25649454 17.06797138 181.78749223 17.0771528 198.31849133 C17.08648823 215.26755194 17.09205538 232.21661072 17.09408849 249.16567379 C17.09546395 259.63299641 17.09981576 270.10030926 17.10791647 280.56762887 C17.11318257 287.73521949 17.11480461 294.90280501 17.11350138 302.07039743 C17.11285778 306.21219802 17.1138779 310.35398146 17.11920547 314.49577904 C17.12403937 318.28118897 17.12433872 322.06657008 17.12089889 325.85198129 C17.12047319 327.22749527 17.12176901 328.60301099 17.12488318 329.97852152 C17.12884715 331.83615315 17.12615637 333.69379554 17.12304783 335.55142879 C17.12342755 336.58692614 17.12380727 337.62242348 17.1241985 338.68929952 C17 341 17 341 16 342 C13.46950598 342.07313567 10.96695163 342.09247527 8.4375 342.0625 C7.72658203 342.05798828 7.01566406 342.05347656 6.28320312 342.04882812 C4.52209987 342.03700864 2.76103964 342.01907263 1 342 C0.82459813 314.06255073 0.65874289 286.12504885 0.5 258.1875 C0.49107719 256.61991039 0.49107719 256.61991039 0.48197412 255.02065229 C0.12357232 191.95099949 -0.09507793 128.88320475 -0.0625 65.8125 C-0.06207577 64.96590553 -0.06165154 64.11931106 -0.06121445 63.24706221 C-0.05046439 42.16469512 -0.0306667 21.08234789 0 0 Z " fill="#FBFBFB" id="path_33" transform="translate(493,162)"/>
<path d="M0 0 C5.61 0 11.22 0 17 0 C17.77120983 20.30327649 18.14599389 40.5713216 18.11606562 60.89090407 C18.11163866 64.68521384 18.11321597 68.47952259 18.1139679 72.27383423 C18.11448558 78.80708166 18.11141914 85.3403189 18.10573006 91.87356377 C18.09751065 101.31887533 18.0949893 110.76418211 18.09374207 120.20949686 C18.0915677 135.54372008 18.08495202 150.8779379 18.07543945 166.2121582 C18.06622313 181.08455377 18.05916309 195.95694785 18.05493164 210.8293457 C18.05453756 212.2105625 18.05453756 212.2105625 18.05413551 213.61968266 C18.05283022 218.24033915 18.05156657 222.86099564 18.05032361 227.48165214 C18.04000142 265.65443854 18.0224278 303.82721891 18 342 C15.70839681 342.02692484 13.41670454 342.04636124 11.125 342.0625 C9.84882812 342.07410156 8.57265625 342.08570313 7.2578125 342.09765625 C4 342 4 342 2 341 C1.27149287 304.63557969 0.821671 268.2828274 0.69667697 231.91113424 C0.67405993 225.56860356 0.647033 219.22609124 0.62062073 212.88357544 C0.57698137 202.26386388 0.53608278 191.64414437 0.49731445 181.02441406 C0.45794025 170.24022449 0.41640992 159.45604632 0.37231445 148.671875 C0.36959018 148.00550624 0.36686591 147.33913747 0.36405908 146.65257572 C0.35308276 143.9687813 0.34210333 141.2849869 0.33111694 138.60119253 C0.2855928 127.46436641 0.24185759 116.32753316 0.1983273 105.1906991 C0.1886054 102.70900276 0.17882995 100.22730662 0.16899753 97.74561071 C0.03994014 65.16355383 -0.02513252 32.58231704 0 0 Z " fill="#FCFCFC" id="path_34" transform="translate(514,162)"/>
<path d="M0 0 C0.08082094 1.95766281 0.13910778 3.91626728 0.1875 5.875 C0.22230469 6.96554687 0.25710938 8.05609375 0.29296875 9.1796875 C0.19628906 10.11039063 0.09960938 11.04109375 0 12 C-3.09029035 14.06019357 -3.92635372 14.26554394 -7.453125 14.421875 C-8.82404297 14.50078979 -8.82404297 14.50078979 -10.22265625 14.58129883 C-11.22167969 14.63697021 -12.22070312 14.6926416 -13.25 14.75 C-33.63280034 16.17472256 -54.82084946 19.82540334 -74 27 C-74.97195313 27.35320313 -75.94390625 27.70640625 -76.9453125 28.0703125 C-111.31778694 41.46340199 -136.80238467 64.7572435 -151.9921875 98.3125 C-169.60927028 138.58011777 -170.18506671 185.0874051 -170.86376953 228.28131104 C-170.98503719 235.77520961 -171.19420918 243.26105399 -171.5 250.75 C-171.53561035 251.71292969 -171.5712207 252.67585937 -171.60791016 253.66796875 C-171.87602841 259.87602841 -171.87602841 259.87602841 -173 261 C-175.03125 260.9140625 -175.03125 260.9140625 -177.5 260.625 C-178.3146875 260.53476562 -179.129375 260.44453125 -179.96875 260.3515625 C-182 260 -182 260 -183 259 C-183.1600468 257.32854809 -183.25175872 255.6505082 -183.31640625 253.97265625 C-183.35870361 252.88919922 -183.40100098 251.80574219 -183.44458008 250.68945312 C-183.63559175 244.81436129 -183.81034096 238.93932905 -183.94995117 233.06280518 C-183.99857974 231.05853702 -184.05291505 229.05440987 -184.10742188 227.05029297 C-185.45934184 171.54570121 -180.99429421 107.00851746 -145 62 C-144.24847656 61.02160156 -143.49695313 60.04320312 -142.72265625 59.03515625 C-138.6711034 53.81136388 -138.6711034 53.81136388 -137 52 C-136.34 52 -135.68 52 -135 52 C-135 51.34 -135 50.68 -135 50 C-115.7709613 29.55099208 -87.66012076 16.2382552 -61 9 C-60.33178223 8.81244141 -59.66356445 8.62488281 -58.97509766 8.43164062 C-40.36042418 3.28181336 -19.33360786 -0.41135336 0 0 Z " fill="#FAFAFA" id="path_35" transform="translate(491,507)"/>
<path d="M0 0 C5.07857528 0.26249119 10.13689315 0.91212674 15.1875 1.5 C16.32821457 1.63237564 16.32821457 1.63237564 17.49197388 1.76742554 C63.46421019 7.22181993 110.24549016 23.01172704 140.64868164 60.00610352 C142.28496161 62.14454612 143.8721217 64.3091368 145.4375 66.5 C146.00025635 67.28608643 146.5630127 68.07217285 147.14282227 68.88208008 C164.48808809 93.54686385 171.9714875 122.23788045 177.125 151.5625 C177.28363525 152.42746094 177.44227051 153.29242187 177.60571289 154.18359375 C181.45130068 177.01058254 181.26903338 200.10287361 181.1373291 223.16595459 C181.11645625 227.22324461 181.10764909 231.28056181 181.09765625 235.33789062 C181.07653735 243.22533189 181.04264349 251.11264578 181 259 C177.20960634 261.12999997 174.34263862 261.16702456 170 261 C169.98160568 260.35553421 169.96321136 259.71106842 169.94425964 259.04707336 C170.30783706 149.56765852 170.30783706 149.56765852 120.51171875 56.40917969 C116.31685132 52.49884784 111.75212745 49.19245485 107 46 C105.99453125 45.32453125 104.9890625 44.6490625 103.953125 43.953125 C79.80208428 28.45320334 53.43877071 21.77426413 25.5 16.8125 C24.75380402 16.67980713 24.00760803 16.54711426 23.23880005 16.41040039 C15.51355144 15.04404289 7.81676652 13.73062119 0 13 C-0.19397476 11.02145742 -0.38001321 9.0421352 -0.5625 7.0625 C-0.66691406 5.96035156 -0.77132812 4.85820312 -0.87890625 3.72265625 C-0.91886719 2.82417969 -0.95882812 1.92570312 -1 1 C-0.67 0.67 -0.34 0.34 0 0 Z " fill="#FBFBFB" id="path_36" transform="translate(536,507)"/>
<path d="M0 0 C6.24181495 6.24181495 3.22686471 31.09200921 3.23318481 39.39733887 C3.22745706 41.79843173 3.21831949 44.19951883 3.20581055 46.60058594 C3.18717627 50.31452069 3.18530413 54.02821018 3.18554688 57.7421875 C3.18064364 60.10416885 3.17482062 62.4661485 3.16796875 64.828125 C3.16685593 65.93826965 3.1657431 67.04841431 3.16459656 68.19219971 C3.15821671 69.20546326 3.15183685 70.21872681 3.14526367 71.26269531 C3.13954597 72.60331024 3.13954597 72.60331024 3.13371277 73.9710083 C3 76 3 76 2 77 C-0.82182403 77.3632693 -3.62962998 77.66905132 -6.4609375 77.9375 C-7.32127594 78.02249756 -8.18161438 78.10749512 -9.06802368 78.19506836 C-11.83662619 78.46754066 -14.60578863 78.73379436 -17.375 79 C-19.20446612 79.17928962 -21.03389375 79.35897245 -22.86328125 79.5390625 C-31.5727333 80.39302068 -40.28453036 81.20768458 -49 82 C-49 55.93 -49 29.86 -49 3 C-38.77 2.34 -28.54 1.68 -18 1 C-6 0 -6 0 0 0 Z " fill="#FDFDFD" id="path_37" transform="translate(691,682)"/>
<path d="M0 0 C1.29152565 10.79850772 1.15196187 21.62157858 1.13037109 32.47924805 C1.12504161 35.66264677 1.13032491 38.84590261 1.13671875 42.02929688 C1.14013295 53.72329031 0.8728818 65.33738452 0 77 C-8.53704774 80.54383297 -16.92182262 80.18278588 -26.0625 80.1875 C-27.31611328 80.19974609 -28.56972656 80.21199219 -29.86132812 80.22460938 C-31.07369141 80.22654297 -32.28605469 80.22847656 -33.53515625 80.23046875 C-35.18076538 80.23663208 -35.18076538 80.23663208 -36.85961914 80.24291992 C-40.18750135 79.98549609 -42.88946385 79.18096816 -46 78 C-47.7734254 61.47966774 -48.25366024 45.16816792 -48.125 28.5625 C-48.11493092 26.25846752 -48.10581214 23.95443068 -48.09765625 21.65039062 C-48.07599807 16.10016258 -48.04284368 10.55010295 -48 5 C-44.21272264 3.9898783 -40.46268837 3.60706352 -36.56640625 3.28125 C-35.85145493 3.21844849 -35.1365036 3.15564697 -34.39988708 3.09094238 C-32.12101036 2.89092396 -29.84180968 2.69501857 -27.5625 2.5 C-25.2867757 2.30483466 -23.01116288 2.10867563 -20.73582458 1.90905762 C-19.32253036 1.78507938 -17.90901266 1.66361486 -16.49525452 1.54504395 C-13.75787281 1.30505012 -11.09331971 1.01957425 -8.40209961 0.45507812 C-5.56608188 -0.08220585 -2.8796167 -0.06696783 0 0 Z " fill="#FBFBFB" id="path_38" transform="translate(632,687)"/>
<path d="M0 0 C2.97331851 2.47776543 4.78317344 4.7872048 6.625 8.1875 C6.625 9.5075 6.625 10.8275 6.625 12.1875 C-1.15245911 12.40621718 -8.93025096 12.60120846 -16.70874023 12.77954102 C-19.35601324 12.84305478 -22.00316068 12.91204374 -24.65014648 12.98657227 C-28.45016267 13.09262254 -32.25019222 13.17911469 -36.05078125 13.26171875 C-37.23835526 13.29907639 -38.42592926 13.33643402 -39.64949036 13.37492371 C-40.75040512 13.39517105 -41.85131989 13.4154184 -42.9855957 13.4362793 C-43.95600296 13.46070602 -44.92641022 13.48513275 -45.92622375 13.51029968 C-48.78074697 13.1340141 -49.62897931 12.41580711 -51.375 10.1875 C-46.14531958 1.66505783 -39.5439079 -2.02319672 -29.98046875 -4.41015625 C-19.36957522 -6.04872002 -9.46375515 -5.08238703 0 0 Z " fill="#FBFBFB" id="path_39" transform="translate(534.375,138.8125)"/>
<path d="M0 0 C0.81533203 -0.00773438 1.63066406 -0.01546875 2.47070312 -0.0234375 C7.14635381 -0.00831818 10.91676582 0.4604604 15.3125 2.25 C15.3125 3.24 15.3125 4.23 15.3125 5.25 C8.03920503 7.02021994 0.80919787 8.03613829 -6.625 8.875 C-7.74068359 9.0090625 -8.85636719 9.143125 -10.00585938 9.28125 C-16.59973016 10.03836697 -23.05111062 10.43562016 -29.6875 10.25 C-28.11056939 6.81757528 -27.15087174 5.60499554 -23.625 4.125 C-22.55572266 3.65707031 -22.55572266 3.65707031 -21.46484375 3.1796875 C-14.30182481 0.78193995 -7.53464213 -0.07250658 0 0 Z " fill="#F9F9F9" id="path_40" transform="translate(614.6875,675.75)"/>
<path d="M0 0 C1.25490234 0.10828125 1.25490234 0.10828125 2.53515625 0.21875 C16.76411396 1.35328483 30.78241101 1.0462352 45 0 C44.25 4.75 44.25 4.75 42 7 C30.83426158 10.46522916 14.80357334 11.032826 3.99609375 6.08203125 C2.3125 5.0625 2.3125 5.0625 0 3 C0 2.01 0 1.02 0 0 Z " fill="#F7F7F7" id="path_41" transform="translate(586,771)"/>
<path d="M0 0 C4.95 0 9.9 0 15 0 C16.15866723 4.63466892 15.70010994 7.33260039 15 12 C10.05 12 5.1 12 0 12 C0 8.04 0 4.08 0 0 Z " fill="#FAFAFA" id="path_42" transform="translate(516,507)"/>
<path d="M0 0 C5.28 0 10.56 0 16 0 C16.09765625 8.49609375 16.09765625 8.49609375 16 11 C15 12 15 12 12.05859375 12.09765625 C10.26615234 12.08025391 10.26615234 12.08025391 8.4375 12.0625 C6.64119141 12.04896484 6.64119141 12.04896484 4.80859375 12.03515625 C3.88175781 12.02355469 2.95492188 12.01195312 2 12 C0.64851459 7.69214025 0 4.58042408 0 0 Z " fill="#F9F9F9" id="path_43" transform="translate(494,507)"/>
<path d="M0 0 C0.66 0.33 1.32 0.66 2 1 C1.525625 1.4125 1.05125 1.825 0.5625 2.25 C-1.15290139 3.87962522 -1.15290139 3.87962522 -1.4375 6.0625 C-2 8 -2 8 -4.0625 9.25 C-4.701875 9.4975 -5.34125 9.745 -6 10 C-6 10.66 -6 11.32 -6 12 C-6.66 12 -7.32 12 -8 12 C-8.226875 12.639375 -8.45375 13.27875 -8.6875 13.9375 C-10 16 -10 16 -12.625 16.75 C-13.40875 16.8325 -14.1925 16.915 -15 17 C-13.67879172 14.06769807 -12.25361803 12.01335101 -9.9609375 9.765625 C-9.38085938 9.19199219 -8.80078125 8.61835937 -8.203125 8.02734375 C-7.59984375 7.44082031 -6.9965625 6.85429688 -6.375 6.25 C-5.76398438 5.64800781 -5.15296875 5.04601562 -4.5234375 4.42578125 C-3.02011376 2.94594695 -1.51065144 1.47235324 0 0 Z " fill="#111011" id="path_44" transform="translate(362,547)"/>
</svg>