<?xml version="1.0" encoding="utf-8"?>
<svg height="1024" id="svg_1" version="1.1" width="1024" xmlns="http://www.w3.org/2000/svg">
<path d="M0 0 C337.92 0 675.84 0 1024 0 C1024 337.92 1024 675.84 1024 1024 C686.08 1024 348.16 1024 0 1024 C0 686.08 0 348.16 0 0 Z " fill="#FEFEFE" id="path_1" transform="translate(0,0)"/>
<path d="M0 0 C0 3.63 0 7.26 0 11 C1.32 11 2.64 11 4 11 C4 7.37 4 3.74 4 0 C60.62214112 -0.46838168 116.16626777 11.19176654 168 34 C168.90250488 34.39558105 169.80500977 34.79116211 170.73486328 35.19873047 C191.08916824 44.22378794 209.96685145 55.984852 228 69 C228.98274902 69.70672852 228.98274902 69.70672852 229.98535156 70.42773438 C242.12062174 79.20544308 254.80245693 88.39060117 264.3359375 100.05078125 C266.40389471 102.47310672 268.65651817 104.65259323 270.9375 106.875 C275.73138122 111.62549768 279.8979799 116.65021714 284 122 C284.78117188 122.98742187 285.56234375 123.97484375 286.3671875 124.9921875 C334.51498835 186.05261131 348.67702782 261.7527456 357 337 C357.16371626 338.46679919 357.32745358 339.93359603 357.49121094 341.40039062 C361.08213253 373.71319896 364.26759753 406.10810417 366.25 438.5625 C366.33008301 439.86227783 366.41016602 441.16205566 366.49267578 442.5012207 C367.48638204 459.92566401 367.48638204 459.92566401 367 465 C366.34 465.66 365.68 466.32 365 467 C360.88702557 466.64253768 357.44169361 465.52177372 353.67578125 463.8828125 C352.66249756 463.44678711 351.64921387 463.01076172 350.60522461 462.56152344 C349.51862549 462.0874707 348.43202637 461.61341797 347.3125 461.125 C344.94584242 460.11074178 342.57863894 459.09775653 340.2109375 458.0859375 C339.00405273 457.56870117 337.79716797 457.05146484 336.55371094 456.51855469 C289.78387398 436.53309262 241.39457674 419.23457648 192 407 C190.64925397 406.65997778 189.29867271 406.31930048 187.94824219 405.97802734 C170.72745228 401.63180285 153.48256089 397.61785858 135.984375 394.52929688 C133.18375746 394.03259049 130.38914019 393.50953237 127.59375 392.984375 C38.19038861 376.86349886 -56.69406434 379.49901751 -185 405 C-186.24426758 405.31582031 -187.48853516 405.63164063 -188.77050781 405.95703125 C-243.10922908 419.86375471 -295.01565732 439.84801822 -346.25314331 462.487854 C-356.60986177 467.05418587 -356.60986177 467.05418587 -359.25 466.6875 C-361 466 -361 466 -362 465 C-362.05015113 463.5386752 -362.02634509 462.07475122 -361.97338867 460.61352539 C-361.93909256 459.66287704 -361.90479645 458.7122287 -361.86946106 457.73277283 C-361.8235936 456.67755936 -361.77772614 455.62234589 -361.73046875 454.53515625 C-361.68351364 453.42479507 -361.63655853 452.3144339 -361.58818054 451.17042542 C-360.93108633 436.99274953 -359.73110801 422.85736673 -358.50960159 408.71955872 C-358.30932431 406.40073164 -358.11048856 404.08178406 -357.91183472 401.76281738 C-354.12189416 357.62498894 -350.00969468 313.60595397 -342 270 C-341.7745752 268.76475586 -341.54915039 267.52951172 -341.31689453 266.25683594 C-338.45999775 250.91746351 -334.48484825 235.93872125 -330 221 C-329.74025391 220.11812012 -329.48050781 219.23624023 -329.21289062 218.32763672 C-320.38672753 188.70099799 -306.39858734 158.8604704 -288 134 C-287.48679199 133.29891113 -286.97358398 132.59782227 -286.44482422 131.87548828 C-279.58543573 122.54112725 -272.3444299 113.80578261 -264.34619141 105.43164062 C-262.319057 103.27583429 -260.38497996 101.04016802 -258.4375 98.8125 C-234.78652826 72.53364251 -201.82700502 52.1650081 -169.83935547 37.8515625 C-166.98297657 36.52915082 -164.22021543 35.03236169 -161.4375 33.5625 C-128.00407406 16.84578703 -88.2661555 7.17334633 -51.26220703 3.33984375 C-47.66078842 2.96466229 -44.06314922 2.56015535 -40.46484375 2.15625 C-26.93725764 0.67876538 -13.61162313 -0.49798621 0 0 Z " fill="#FEFEFE" id="path_2" transform="translate(509,160)"/>
<path d="M0 0 C1.12148438 -0.020625 2.24296875 -0.04125 3.3984375 -0.0625 C16.14336143 -0.12136801 26.72407918 2.13912504 36.28125 10.87890625 C39.23269737 13.99673423 40.88080333 16.87929251 42.1640625 20.98046875 C42.54618896 22.18352661 42.54618896 22.18352661 42.93603516 23.41088867 C43.12214355 24.01779541 43.30825195 24.62470215 43.5 25.25 C44.10134766 25.31993164 44.70269531 25.38986328 45.32226562 25.46191406 C114.17516374 33.55460163 183.76030477 53.87297059 238.79296875 97.89599609 C240.5088554 99.25702404 242.24817306 100.58017116 244 101.89453125 C249.99783276 106.40297505 255.73510775 111.09227057 261.24609375 116.1875 C263.2401769 118.0122416 265.28723501 119.7227033 267.375 121.4375 C271.70031684 125.1849405 275.29791984 129.52562431 278.93701172 133.92456055 C281.63554885 137.16692851 284.42168583 140.19255981 287.44921875 143.1328125 C291.54346967 147.1750467 294.95153869 151.52777587 298.3125 156.1875 C299.21415894 157.42802124 299.21415894 157.42802124 300.1340332 158.69360352 C305.89772101 166.69036713 311.38867564 174.8207652 316.5 183.25 C316.93876465 183.97106934 317.3775293 184.69213867 317.82958984 185.43505859 C350.67233496 240.22888326 360.92534903 304.22181496 368.19464111 366.64300537 C368.49897114 369.24121615 368.80894412 371.83869435 369.12060547 374.43603516 C378.87835664 455.95898052 378.87835664 455.95898052 379 493.0625 C379.00620361 494.25149902 379.01240723 495.44049805 379.01879883 496.66552734 C378.91390824 503.43276103 378.51638923 509.23361077 373.5 514.25 C373.32091961 521.87882464 375.20863564 529.66338357 376.625 537.125 C379.31122558 551.71093519 381.58178306 566.35238106 383.83129883 581.01098633 C385.50037305 591.87649172 387.22444929 602.72984358 389.02709961 613.57397461 C400.87273799 684.88579363 400.87273799 684.88579363 384.125 709.6875 C375.04872287 721.61353295 363.94425598 728.91088861 349.125 731.5 C333.8357785 733.40707774 320.00754359 731.07139923 305.5 726.25 C304.85949707 726.0427832 304.21899414 725.83556641 303.55908203 725.62207031 C292.34276957 721.93314977 281.85701275 716.69091691 271.26171875 711.53125 C233.13594582 692.97067573 194.05136703 675.99044487 153.02148438 664.93359375 C150.68938551 664.30134387 148.36791628 663.64024622 146.046875 662.96875 C101.09457749 650.22493295 53.127415 644.29917784 6.5 643.25 C5.06599854 643.20915283 5.06599854 643.20915283 3.60302734 643.16748047 C-31.316559 642.26306375 -66.08358756 645.85548437 -100.43408203 651.88867188 C-102.36384595 652.22618672 -104.29515434 652.55483753 -106.2265625 652.8828125 C-166.79256568 663.23007956 -224.46573229 686.99025121 -278.63671875 715.453125 C-296.46149043 724.77558757 -314.53801618 731.42451186 -334.8125 731.4375 C-335.80701172 731.44974609 -336.80152344 731.46199219 -337.82617188 731.47460938 C-352.49496372 731.50350391 -364.53468328 727.02193916 -375.25 716.71875 C-386.86624602 703.97314673 -390.68731643 688.563894 -390.68530273 671.78173828 C-390.68743351 669.81148102 -390.70576084 667.841262 -390.72460938 665.87109375 C-390.75290216 646.72630957 -388.00922415 628.02320542 -384.8125 609.1875 C-384.27396401 605.96661603 -383.7379628 602.74531691 -383.20219421 599.52397156 C-382.83817544 597.33577908 -382.47335784 595.14771934 -382.10774231 592.95979309 C-380.89878322 585.71067372 -379.730016 578.45616673 -378.59375 571.1953125 C-378.44363464 570.23637589 -378.29351929 569.27743927 -378.13885498 568.28944397 C-377.84213683 566.39281239 -377.54548461 564.4961705 -377.24890137 562.59951782 C-374.66191364 546.07807346 -371.87538962 529.63189096 -368.5 513.25 C-369.49 512.92 -370.48 512.59 -371.5 512.25 C-374.70581413 506.59091028 -374.96890427 501.66034758 -374.875 495.25 C-374.86774902 494.2396167 -374.86049805 493.2292334 -374.85302734 492.18823242 C-374.28196662 458.29453716 -369.86346467 424.29799187 -366.3840332 390.61352539 C-366.15965491 388.44026828 -365.93528952 386.26700983 -365.7109375 384.09375 C-365.6022081 383.04195053 -365.4934787 381.99015106 -365.38145447 380.90647888 C-364.81990839 375.45041796 -364.28221859 369.99390212 -363.7890625 364.53125 C-362.39881909 349.55387388 -360.0793395 334.77207817 -357.625 319.9375 C-357.45986908 318.93282684 -357.29473816 317.92815369 -357.12460327 316.89303589 C-353.94820616 297.68581182 -350.42901056 278.45925914 -344.75 259.8125 C-344.41057373 258.689646 -344.07114746 257.56679199 -343.72143555 256.40991211 C-329.75525286 211.04772523 -308.23498894 171.40183261 -276.91552734 135.86083984 C-275.13692621 133.83682979 -273.38273443 131.79213191 -271.625 129.75 C-241.0277828 94.94284628 -195.64345464 68.66930639 -152.92041016 52.1875 C-151.2665338 51.54690234 -149.61791844 50.89259753 -147.97412109 50.2265625 C-118.78422325 38.43657612 -86.74584962 30.8444048 -55.5 27.25 C-54.11167969 27.08298584 -54.11167969 27.08298584 -52.6953125 26.91259766 C-47.63478235 26.30601499 -42.57233298 25.74805854 -37.5 25.25 C-37.56380859 23.88875 -37.56380859 23.88875 -37.62890625 22.5 C-37.41309097 17.05883896 -34.54650807 13.46408814 -30.92578125 9.546875 C-21.80822776 1.13067178 -11.88624268 0.05318229 0 0 Z M-38.75 38 C-39.64996704 38.09058685 -40.54993408 38.18117371 -41.47717285 38.27450562 C-54.96018583 39.64010662 -68.26780317 41.26033802 -81.5 44.25 C-82.56943848 44.48557617 -83.63887695 44.72115234 -84.74072266 44.96386719 C-110.77646907 50.75766584 -136.29706284 57.93605459 -160.5 69.25 C-161.60311523 69.75660156 -162.70623047 70.26320312 -163.84277344 70.78515625 C-191.41751238 83.48770411 -217.17453618 98.68435273 -240.5 118.25 C-241.04640137 118.70761719 -241.59280273 119.16523438 -242.15576172 119.63671875 C-250.91589264 126.99475584 -259.18287127 134.42796585 -266.64453125 143.125 C-267.88494933 144.54560512 -269.15383318 145.9418315 -270.44921875 147.3125 C-300.99808623 179.83772674 -320.04882449 221.90529833 -332.5 264.25 C-332.7985791 265.23242676 -333.0971582 266.21485352 -333.40478516 267.22705078 C-339.43202605 287.16785702 -342.82292183 307.51891165 -346.14190674 328.04803467 C-346.45965315 330.00190158 -346.78562631 331.95442666 -347.11279297 333.90673828 C-352.97542431 368.91805429 -355.52442277 404.50369806 -358.54944611 439.84983826 C-358.7470591 442.1532208 -358.94643258 444.45644516 -359.1461792 446.75964355 C-360.41307194 461.41119513 -361.61479177 476.06117695 -362.296875 490.75390625 C-362.35087463 491.79876694 -362.40487427 492.84362762 -362.46051025 493.92015076 C-362.49771179 494.8650386 -362.53491333 495.80992645 -362.57324219 496.78344727 C-362.62553986 498.01358299 -362.62553986 498.01358299 -362.67889404 499.26856995 C-362.69207508 501.4850313 -362.69207508 501.4850313 -360.5 503.25 C-356.20265997 502.90270199 -352.75077643 501.65263263 -348.87109375 499.8359375 C-347.77337646 499.32998047 -346.67565918 498.82402344 -345.54467773 498.30273438 C-344.35430908 497.74908203 -343.16394043 497.19542969 -341.9375 496.625 C-312.74040094 483.26838392 -282.80664993 471.8163175 -252.5 461.25 C-251.28666992 460.82493164 -250.07333984 460.39986328 -248.82324219 459.96191406 C-184.08469495 437.40677737 -116.69635339 424.64844932 -48.3125 420.625 C-47.20394653 420.55963043 -46.09539307 420.49426086 -44.95324707 420.4269104 C17.56952546 416.81509722 80.99101495 420.18926222 142.5 432.25 C143.74362305 432.48831543 144.98724609 432.72663086 146.26855469 432.97216797 C217.48578669 446.69386951 286.67799782 470.59140382 352.82910156 500.08349609 C353.71049805 500.46844238 354.59189453 500.85338867 355.5 501.25 C356.38397461 501.63752441 357.26794922 502.02504883 358.17871094 502.42431641 C361.02329101 503.43613485 362.64526476 503.12228021 365.5 502.25 C366.71435468 501.25373222 366.71435468 501.25373222 366.64160156 499.29199219 C366.63782341 488.67159421 365.93514404 478.09378907 365.25 467.5 C365.18408661 466.46900177 365.11817322 465.43800354 365.05026245 464.37576294 C363.81344006 445.21745599 362.06681603 426.1415775 360.01171875 407.05566406 C359.49564057 402.24504326 359.0116586 397.43147999 358.53125 392.6171875 C356.40190842 371.41896039 353.81219689 350.30979745 350.78131104 329.22155762 C350.52159361 327.40133797 350.26901708 325.58010325 350.01708984 323.75878906 C342.75963956 271.50834763 326.40806356 217.53657109 295.5 174.25 C294.79488281 173.26128906 294.08976563 172.27257812 293.36328125 171.25390625 C283.92760429 158.39975853 273.83633688 146.14192518 262.33984375 135.08203125 C260.39595932 133.19821984 258.64193826 131.25798498 256.94140625 129.15234375 C253.02455288 124.49598846 248.26616167 121.0005226 243.5 117.25 C242.13294922 116.14205078 242.13294922 116.14205078 240.73828125 115.01171875 C221.3284324 99.59267994 199.96463365 86.02284404 177.62304688 75.27685547 C175.44359134 74.22271679 173.27648345 73.145672 171.109375 72.06640625 C136.12290305 54.83387144 97.14566082 44.25479727 58.5 39.25 C57.42371338 39.10570557 57.42371338 39.10570557 56.32568359 38.95849609 C38.7071629 36.6201022 21.25447868 36.10313391 3.5 36.25 C3.5 39.88 3.5 43.51 3.5 47.25 C2.18 47.25 0.86 47.25 -0.5 47.25 C-0.5 43.62 -0.5 39.99 -0.5 36.25 C-13.3658925 36.00460151 -25.95378402 36.68386108 -38.75 38 Z " fill="#030303" id="path_3" transform="translate(509.5,123.75)"/>
<path d="M0 0 C3.5418727 0.00538056 7.08361926 -0.00000284 10.62548828 -0.00634766 C30.59085806 -0.01324764 50.60647717 0.22609997 70.47314453 2.38037109 C72.3086084 2.57433472 72.3086084 2.57433472 74.18115234 2.7722168 C77.53947521 3.13441746 80.89619413 3.50732567 84.25250244 3.88751221 C86.49142692 4.13946165 88.73099035 4.38504634 90.97070312 4.62988281 C161.23039118 12.36879824 228.85490215 30.72756154 295.01324463 55.25201416 C297.33280741 56.10185321 299.66175818 56.91953478 301.99414062 57.73339844 C303.36648577 58.23301187 304.73842199 58.73375062 306.10986328 59.23583984 C307.28766357 59.65373779 308.46546387 60.07163574 309.67895508 60.50219727 C312.41064453 62.13037109 312.41064453 62.13037109 313.74194336 65.00634766 C313.96261475 66.03727539 314.18328613 67.06820312 314.41064453 68.13037109 C314.59626953 68.9419165 314.78189453 69.75346191 314.97314453 70.58959961 C315.46128001 73.28932656 315.94537796 75.98908763 316.41064453 78.69287109 C316.5850708 79.70357666 316.75949707 80.71428223 316.93920898 81.75561523 C318.49308623 91.07669933 319.50747782 100.3994134 320.23144531 109.81835938 C320.38886807 111.84941324 320.56794569 113.87876439 320.75048828 115.90771484 C321.43215381 124.50790593 321.56741319 133.12505635 321.64080811 141.74908447 C321.66007944 143.75893603 321.69263234 145.76864652 321.72558594 147.77832031 C321.76815256 160.25349283 320.46705745 173.29741513 311.77783203 182.94287109 C305.47970648 188.81735591 298.58557846 189.69737191 290.18652344 189.48461914 C277.05974155 188.25308154 263.79277726 181.74726514 251.57165527 177.05880737 C246.59553116 175.15120966 241.61236251 173.26219178 236.62939453 171.37255859 C235.16345856 170.8163105 235.16345856 170.8163105 233.66790771 170.24882507 C213.45133704 162.58878558 193.0768272 155.4859154 172.41064453 149.13037109 C171.57178711 148.86804688 170.73292969 148.60572266 169.86865234 148.33544922 C142.06878419 139.69358467 113.20426859 134.18153452 84.41064453 130.13037109 C83.32283691 129.97729492 82.2350293 129.82421875 81.11425781 129.66650391 C73.89314469 128.67609079 66.66389728 127.8465179 59.41064453 127.13037109 C58.37020996 127.02595703 57.32977539 126.92154297 56.2578125 126.81396484 C-24.89321352 119.05137237 -107.47052562 130.46755729 -184.58935547 156.13037109 C-185.5912793 156.46246582 -186.59320313 156.79456055 -187.62548828 157.13671875 C-205.17209422 162.99627115 -222.40656924 169.69471684 -239.60049438 176.50991821 C-242.35841633 177.60152029 -245.11902618 178.68623091 -247.87988281 179.77038574 C-249.20370035 180.29251204 -250.5261902 180.81802027 -251.84716797 181.34729004 C-265.27821012 186.72851584 -280.19372423 192.5952531 -294.48779297 187.16552734 C-301.15221191 183.88286746 -305.14973889 179.07650163 -307.58935547 172.13037109 C-311.77053275 159.46068305 -310.93357568 146.2924914 -310.58935547 133.13037109 C-310.57388672 132.3147168 -310.55841797 131.4990625 -310.54248047 130.65869141 C-309.42488741 77.27033979 -309.42488741 77.27033979 -300.58935547 61.13037109 C-298.29377386 59.83982405 -296.30054062 58.92761107 -293.85498047 58.03662109 C-293.16297043 57.76840546 -292.47096039 57.50018982 -291.75798035 57.22384644 C-289.45873987 56.33966117 -287.15004427 55.48415012 -284.83935547 54.63037109 C-283.20766776 54.01468249 -281.57624306 53.39829647 -279.94506836 52.78125 C-274.83940743 50.86179498 -269.71672373 48.99092883 -264.58935547 47.13037109 C-263.79785095 46.84190308 -263.00634644 46.55343506 -262.19085693 46.25622559 C-223.16237452 32.05384584 -183.29270194 21.31491253 -142.58935547 13.13037109 C-141.30609375 12.87175293 -140.02283203 12.61313477 -138.70068359 12.34667969 C-92.89447578 3.29211012 -46.63940883 -0.08384903 0 0 Z " fill="#FEFEFE" id="path_4" transform="translate(505.58935546875,553.86962890625)"/>
<path d="M0 0 C0.99 0.495 0.99 0.495 2 1 C1.74605469 2.10730469 1.49210937 3.21460938 1.23046875 4.35546875 C-3.49140533 25.86750748 -5.47277939 47.99809069 -6 70 C-6.04882324 71.71098877 -6.04882324 71.71098877 -6.09863281 73.45654297 C-6.19707893 77.28351166 -6.25944309 81.10964989 -6.3125 84.9375 C-6.34239014 86.13439453 -6.37228027 87.33128906 -6.40307617 88.56445312 C-6.47548973 99.80802112 -4.21871922 111.05410256 3 120 C9.33636938 126.33636938 16.25404125 127.33949255 24.86177063 127.36535645 C32.24954388 127.20619397 38.77726584 125.01066853 45.6875 122.5 C47.00964885 122.03756255 48.33233081 121.5766467 49.65551758 121.1171875 C58.51747492 118.0127437 67.25573286 114.61619929 75.94140625 111.05078125 C135.09361511 86.86876403 198.16816766 70.55902846 262 66 C263.17006592 65.91242432 264.34013184 65.82484863 265.5456543 65.73461914 C279.13858158 64.80367028 292.74519203 64.81254652 306.36401367 64.81469727 C309.06362676 64.81477808 311.7630685 64.80789123 314.46264648 64.79418945 C339.27311681 64.67055616 363.73214032 65.97794016 388.3125 69.375 C389.12228302 69.48493286 389.93206604 69.59486572 390.76638794 69.70812988 C403.58503502 71.45040037 416.34253466 73.30119232 429 76 C429.65192322 76.13794983 430.30384644 76.27589966 430.9755249 76.41802979 C472.51540616 85.23095112 512.18794042 98.28199947 551.81829834 113.38674927 C581.54698458 126.94116907 581.54698458 126.94116907 612.625 124.9375 C621.12800156 119.81572557 624.12297588 113.26549308 627 104 C627.33 103.01 627.66 102.02 628 101 C630.26797329 85.68418038 628.92868931 69.91859398 627.75 54.5625 C627.68475128 53.69302734 627.61950256 52.82355469 627.55227661 51.92773438 C626.24653809 34.75568812 624.38831901 17.69511588 620 1 C624.59346424 1.68061662 628.63580931 3.40221969 632.86328125 5.23828125 C633.6140947 5.56032028 634.36490814 5.88235931 635.13847351 6.2141571 C636.72375318 6.89528479 638.30802957 7.5787517 639.89135742 8.2644043 C642.29177504 9.30352831 644.69537056 10.33498712 647.09960938 11.36523438 C648.64602842 12.03079691 650.19225852 12.69679865 651.73828125 13.36328125 C652.44688797 13.66760574 653.15549469 13.97193024 653.88557434 14.28547668 C655.2526852 14.87866803 656.61513187 15.48274294 657.97232056 16.09829712 C659.36089096 16.71579015 660.76783378 17.29309928 662.18759155 17.83505249 C665.13538928 19.06336806 667.36309383 19.99834677 669.11146545 22.74798584 C669.93156012 24.8201875 670.50744294 26.8271638 671 29 C671.22798279 29.97430466 671.22798279 29.97430466 671.46057129 30.96829224 C671.88871132 33.00519605 672.24248527 35.04354343 672.578125 37.09765625 C672.71020355 37.86836456 672.8422821 38.63907288 672.97836304 39.43313599 C673.41085357 41.97488887 673.83085968 44.51851412 674.25 47.0625 C674.55369789 48.87087914 674.85757553 50.67922811 675.16162109 52.48754883 C677.80835931 68.35528085 680.1755617 84.2639747 682.50146484 100.18139648 C684.33101985 112.67956113 686.27619429 125.14645705 688.49072266 137.58276367 C692.11679707 158.39894239 696.55199014 188.0028052 685 207 C680.61515274 212.1508748 675.66985667 213.55088605 669.03515625 214.18896484 C635.88638868 216.29497599 604.01424239 196.34963961 575.44140625 181.640625 C536.51820586 161.63761071 495.28706507 146.19652863 453 135 C452.00887207 134.7313916 451.01774414 134.4627832 449.99658203 134.18603516 C399.42960068 120.5267989 347.49067111 115.2665506 295.2401123 115.97003174 C293.20080447 115.99731363 291.16143827 116.02014038 289.12207031 116.04248047 C202.06312159 117.22422103 118.84542758 144.93395924 39.44506836 184.79907227 C37.85923282 185.59525584 36.27337669 186.3913984 34.6875 187.1875 C33.90682159 187.5794455 33.12614319 187.97139099 32.32180786 188.37521362 C-18.95379165 214.09616083 -18.95379165 214.09616083 -41.75 214.375 C-42.53028564 214.38901855 -43.31057129 214.40303711 -44.11450195 214.41748047 C-49.73471942 214.37109628 -54.95175584 213.59445365 -60 211 C-71.10171876 198.46378949 -69.52256065 176.59171694 -68.59448242 161.19042969 C-67.37368277 143.79233725 -64.63065869 126.73399981 -61.75390625 109.54736328 C-61.07921829 105.50315564 -60.43895746 101.45433543 -59.8125 97.40234375 C-57.41730361 81.97195174 -54.72034178 66.60209895 -51.92471313 51.23965454 C-51.51868058 49.0081453 -51.11418419 46.77635597 -50.71127319 44.54428101 C-50.14262226 41.40084698 -49.56661824 38.25885214 -48.98828125 35.1171875 C-48.73227646 33.69583748 -48.73227646 33.69583748 -48.47109985 32.24577332 C-46.70734725 22.76748397 -46.70734725 22.76748397 -45 20 C-42.14941406 18.24243164 -42.14941406 18.24243164 -38.515625 16.66015625 C-37.86358093 16.3707164 -37.21153687 16.08127655 -36.53973389 15.7830658 C-34.44984909 14.8599779 -32.35051356 13.96109864 -30.25 13.0625 C-28.88342998 12.46314708 -27.51753657 11.86224892 -26.15234375 11.25976562 C-23.44774319 10.0698563 -20.73761284 8.89430454 -18.02148438 7.73095703 C-15.31469786 6.57145754 -12.61982183 5.38899976 -9.93164062 4.18701172 C-9.2876532 3.90216415 -8.64366577 3.61731659 -7.98016357 3.32383728 C-6.21375235 2.54227624 -4.45004854 1.75460443 -2.68652344 0.96655273 C-1.7999707 0.64759033 -0.91341797 0.32862793 0 0 Z " fill="#FDFDFD" id="path_5" transform="translate(200,617)"/>
<path d="M0 0 C2.05767608 0.30742222 4.11710301 0.5981908 6.17785645 0.88421631 C58.9772678 8.22984689 110.16976705 22.98441766 159.01281738 44.30072021 C160.13236816 44.78718018 161.25191895 45.27364014 162.40539551 45.77484131 C174.30760444 50.9602392 186.13680497 56.22812186 197.70812988 62.11712646 C242.64630686 85.57971289 242.64630686 85.57971289 292.01281738 92.30072021 C290.72006107 94.88623284 289.90337325 94.98840837 287.20031738 95.92572021 C259.94095884 103.45893326 231.71160871 89.36944421 208.05212402 77.28900146 C153.72808865 49.78876146 96.68871943 30.81398592 37.01281738 19.30072021 C35.84927734 19.07610107 34.6857373 18.85148193 33.48693848 18.62005615 C-19.53471181 8.60702042 -74.39413022 6.39603374 -127.98718262 12.30072021 C-129.27576172 12.43993896 -130.56434082 12.57915771 -131.89196777 12.72259521 C-199.16701728 20.18704144 -262.4828794 39.12081461 -323.21032715 68.94476318 C-329.06523559 71.80375399 -334.96043977 74.57956682 -340.84533691 77.37615967 C-345.04589316 79.38119241 -349.22887262 81.40267711 -353.35437012 83.55853271 C-368.1603425 91.29066042 -384.38287244 97.72811108 -401.29968262 97.61322021 C-402.53210693 97.60911133 -402.53210693 97.60911133 -403.78942871 97.60491943 C-410.37239791 97.49264374 -416.8456289 96.84607898 -422.98718262 94.30072021 C-423.31718262 93.64072021 -423.64718262 92.98072021 -423.98718262 92.30072021 C-423.00620605 92.3355249 -422.02522949 92.37032959 -421.01452637 92.40618896 C-388.43655379 93.21269541 -358.75041735 76.77468112 -330.21647644 62.84724426 C-322.22762893 58.94967996 -314.19881052 55.13692139 -306.16394043 51.33538818 C-304.23319276 50.41765505 -302.30840936 49.48887838 -300.38562012 48.55462646 C-278.91210531 38.26214868 -256.6414198 29.60041886 -233.98718262 22.30072021 C-233.36134277 22.09898193 -232.73550293 21.89724365 -232.09069824 21.68939209 C-202.26658169 12.10412876 -172.08831292 4.45309537 -140.98718262 0.30072021 C-140.25636475 0.20255005 -139.52554687 0.10437988 -138.77258301 0.00323486 C-93.38084708 -5.99341355 -45.33020016 -6.86564985 0 0 Z " fill="#FAFAFA" id="path_6" transform="translate(575.9871826171875,745.6992797851563)"/>
<path d="M0 0 C0.66 0 1.32 0 2 0 C1.28504591 8.93339841 0.17068129 17.80490288 -1 26.6875 C-1.17988815 28.06312482 -1.35957666 29.43877576 -1.5390625 30.81445312 C-1.66987465 31.81637947 -1.66987465 31.81637947 -1.80332947 32.83854675 C-2.05589589 34.77362044 -2.30834503 36.70870943 -2.56079102 38.64379883 C-2.81368713 40.57629629 -3.06833511 42.50856993 -3.32788086 44.44018555 C-8.4827785 82.26584769 -8.4827785 82.26584769 3 117 C7.90946893 122.18221721 14.74512015 124.12441893 21.75 124.375 C32.44603656 123.89484073 42.43142193 120.34302904 52.28131104 116.3894043 C54.26322166 115.59463472 56.24977049 114.81255096 58.23779297 114.03320312 C61.06646577 112.92341859 63.89361347 111.80990564 66.71923828 110.69238281 C143.57022343 80.30308795 222.52145035 60.03325699 311.4375 59.8125 C312.94509888 59.81390488 312.94509888 59.81390488 314.4831543 59.81533813 C397.64474426 59.98232598 476.54998277 80.80934384 553.58032227 110.8034668 C580.25174193 123.02689839 580.25174193 123.02689839 608.4375 122.8125 C616.77076054 118.57277095 620.03496369 113.81990874 623 105 C625.22004282 96.93679692 625.31063496 89.00651203 625.25 80.6875 C625.24689819 80.01659332 625.24379639 79.34568665 625.24060059 78.65444946 C625.11893194 55.94753776 623.23344989 33.64510204 619.33544922 11.26708984 C619 9 619 9 619 6 C619.66 6 620.32 6 621 6 C626.43238586 20.78168513 626.4974091 37.73322597 627.6875 53.3125 C627.78742752 54.59009186 627.78742752 54.59009186 627.88937378 55.89349365 C631.59161484 103.78609383 631.59161484 103.78609383 619.5 118.38671875 C614.68375318 123.56669254 609.35517843 126.58119186 602.3503418 127.45556641 C592.42715637 127.50984319 584.19325871 125.78419 574.8125 122.375 C573.39030282 121.8791315 571.96751432 121.38495626 570.54418945 120.89233398 C559.06730787 116.88389497 547.71641573 112.52460334 536.3664856 108.17251587 C511.063883 98.47413052 485.30886956 89.56018957 459 83 C458.31713928 82.82940063 457.63427856 82.65880127 456.9307251 82.48303223 C410.16710348 70.85456545 362.89086929 64.80754111 314.71142578 64.81469727 C312.00497683 64.81477801 309.29869903 64.807903 306.59228516 64.79418945 C288.29509203 64.70300263 270.22327761 65.34771876 252 67 C250.57930665 67.12215667 249.15857685 67.24389103 247.73779297 67.36499023 C185.72977279 72.90281889 125.74674178 90.66871612 68.12306213 113.5930481 C61.35730791 116.27494277 54.53814712 118.79234122 47.6875 121.25 C46.69177979 121.60868164 45.69605957 121.96736328 44.67016602 122.33691406 C33.15363133 126.43805702 21.57640245 129.67958186 9.5 125.5 C0.9448601 121.41396303 -2.68373546 114.34870809 -6.0546875 105.83203125 C-7.6305755 101.11087919 -8.12752819 96.84400841 -8.1328125 91.87109375 C-8.13498779 90.68193359 -8.13716309 89.49277344 -8.1394043 88.26757812 C-8.13465088 87.00365234 -8.12989746 85.73972656 -8.125 84.4375 C-8.12089111 83.12845703 -8.11678223 81.81941406 -8.11254883 80.47070312 C-7.95812475 53.43818785 -6.05496501 26.40210631 0 0 Z " fill="#131312" id="path_7" transform="translate(201,618)"/>
<path d="M0 0 C1.32257813 -0.01740234 1.32257813 -0.01740234 2.671875 -0.03515625 C11.30546522 0.00282142 19.88989993 1.65016494 26.625 7.375 C27.285 9.025 27.945 10.675 28.625 12.375 C15.755 11.88 15.755 11.88 2.625 11.375 C2.625 10.385 2.625 9.395 2.625 8.375 C1.305 8.375 -0.015 8.375 -1.375 8.375 C-1.375 9.365 -1.375 10.355 -1.375 11.375 C-9.73100408 12.47602642 -17.96307963 12.47594304 -26.375 12.375 C-20.34088829 1.89743067 -11.37841778 -0.14841414 0 0 Z " fill="#FAFAFA" id="path_8" transform="translate(510.375,135.625)"/>
<path d="M0 0 C0.66 0 1.32 0 2 0 C2 16.17 2 32.34 2 49 C1.01 49 0.02 49 -1 49 C-1.11077817 32.63209915 -1.06508204 16.33759779 0 0 Z " fill="#1D1D1D" id="path_9" transform="translate(194,667)"/>
<path d="M0 0 C0.66 0 1.32 0 2 0 C3.4994415 4.17701559 4.47227813 8.17475855 5.125 12.5625 C5.29257812 13.65691406 5.46015625 14.75132812 5.6328125 15.87890625 C5.95617319 18.62747213 6.07202592 21.23729169 6 24 C5.34 24.33 4.68 24.66 4 25 C3.32902306 21.39662187 2.66396043 17.79217704 2 14.1875 C1.80921875 13.16333984 1.6184375 12.13917969 1.421875 11.08398438 C1.24140625 10.10107422 1.0609375 9.11816406 0.875 8.10546875 C0.70742188 7.19949951 0.53984375 6.29353027 0.3671875 5.36010742 C0 3 0 3 0 0 Z " fill="#131313" id="path_10" transform="translate(820,624)"/>
<path d="M0 0 C4.58894201 0.67069152 8.92547207 1.76122296 13.375 3.0625 C14.62023437 3.42472656 15.86546875 3.78695312 17.1484375 4.16015625 C18.08945312 4.43730469 19.03046875 4.71445312 20 5 C20 5.66 20 6.32 20 7 C12.50559651 6.5003731 6.04349737 4.56235522 -1 2 C-0.67 1.34 -0.34 0.68 0 0 Z " fill="#161616" id="path_11" transform="translate(776,738)"/>
<path d="M0 0 C0 0.66 0 1.32 0 2 C-5.28 3.65 -10.56 5.3 -16 7 C-16.33 6.01 -16.66 5.02 -17 4 C-14.54453034 3.13670227 -12.08621957 2.28410564 -9.625 1.4375 C-8.57699219 1.0672168 -8.57699219 1.0672168 -7.5078125 0.68945312 C-2.2265625 -1.11328125 -2.2265625 -1.11328125 0 0 Z " fill="#141414" id="path_12" transform="translate(320,711)"/>
<path d="M0 0 C0.33 0 0.66 0 1 0 C1.11269443 6.1105424 0.89604368 11.95170514 0 18 C-0.66 17.67 -1.32 17.34 -2 17 C-2.11116338 11.55299453 -2.00581962 6.36437132 -1 1 C-0.67 0.67 -0.34 0.34 0 0 Z " fill="#080808" id="path_13" transform="translate(197,650)"/>
<path d="M0 0 C0.99 0 1.98 0 3 0 C2.67 4.29 2.34 8.58 2 13 C1.01 13 0.02 13 -1 13 C-0.67 8.71 -0.34 4.42 0 0 Z " fill="#282727" id="path_14" transform="translate(197,638)"/>
<path d="M0 0 C1.18414294 3.55242882 0.69535532 4.69830562 -0.4375 8.1875 C-0.72496094 9.08855469 -1.01242187 9.98960937 -1.30859375 10.91796875 C-1.53675781 11.60503906 -1.76492188 12.29210937 -2 13 C-2.99 13 -3.98 13 -5 13 C-4.74379316 11.3934324 -4.46944129 9.7897517 -4.1875 8.1875 C-4.03667969 7.29417969 -3.88585937 6.40085937 -3.73046875 5.48046875 C-2.94604607 2.81678744 -2.11372201 1.74309678 0 0 Z " fill="#1A191A" id="path_15" transform="translate(828,715)"/>
<path d="M0 0 C2.28062828 3.42094242 2.21925007 4.68187222 2.125 8.6875 C2.10695313 9.68136719 2.08890625 10.67523437 2.0703125 11.69921875 C2.03550781 12.83810547 2.03550781 12.83810547 2 14 C1.34 14 0.68 14 0 14 C-0.19393875 11.85473901 -0.37998676 9.70876323 -0.5625 7.5625 C-0.71912109 5.77005859 -0.71912109 5.77005859 -0.87890625 3.94140625 C-0.91886719 2.97074219 -0.95882812 2.00007812 -1 1 C-0.67 0.67 -0.34 0.34 0 0 Z " fill="#0D0D0D" id="path_16" transform="translate(825,648)"/>
<path d="M0 0 C-5.08940744 2.05362055 -9.54520815 3.43179252 -15 4 C-12.58859296 0.88526591 -10.76603031 -0.29074817 -6.9375 -0.8125 C-3 -1 -3 -1 0 0 Z " fill="#E1E1E1" id="path_17" transform="translate(868,839)"/>
<path d="M0 0 C-0.33 0.66 -0.66 1.32 -1 2 C-4.47325181 3.1577506 -7.36067448 3.06866652 -11 3 C-11 2.34 -11 1.68 -11 1 C-9.5437328 0.63743142 -8.08488815 0.28520207 -6.625 -0.0625 C-5.40683594 -0.35833984 -5.40683594 -0.35833984 -4.1640625 -0.66015625 C-2 -1 -2 -1 0 0 Z " fill="#202020" id="path_18" transform="translate(239,741)"/>
<path d="M0 0 C0 0.66 0 1.32 0 2 C-4.455 3.485 -4.455 3.485 -9 5 C-7 1 -7 1 -4.5 -0.3125 C-2 -1 -2 -1 0 0 Z " fill="#161615" id="path_19" transform="translate(284,724)"/>
<path d="M0 0 C4.455 0.99 4.455 0.99 9 2 C9 2.99 9 3.98 9 5 C5.7 4.01 2.4 3.02 -1 2 C-0.67 1.34 -0.34 0.68 0 0 Z " fill="#212020" id="path_20" transform="translate(209,740)"/>
<path d="M0 0 C0 0.66 0 1.32 0 2 C-4.43076923 4.09230769 -4.43076923 4.09230769 -7.3125 3.625 C-7.869375 3.41875 -8.42625 3.2125 -9 3 C-5.55930376 0.70620251 -4.27709699 0 0 0 Z " fill="#090A09" id="path_21" transform="translate(328,708)"/>
<path d="M0 0 C0.66 0 1.32 0 2 0 C2.66 2.97 3.32 5.94 4 9 C3.01 8.67 2.02 8.34 1 8 C0.67 5.36 0.34 2.72 0 0 Z " fill="#282828" id="path_22" transform="translate(820,624)"/>
<path d="M0 0 C-0.33 0.66 -0.66 1.32 -1 2 C-3.06640625 2.6328125 -3.06640625 2.6328125 -5.5625 3.125 C-6.38878906 3.29257812 -7.21507812 3.46015625 -8.06640625 3.6328125 C-8.70449219 3.75398437 -9.34257812 3.87515625 -10 4 C-7.25904945 1.09123615 -4.04082286 -2.02041143 0 0 Z " fill="#0F100F" id="path_23" transform="translate(248,738)"/>
<path d="M0 0 C0.66 0.33 1.32 0.66 2 1 C0.02579865 3.52259061 -0.96745642 3.9929808 -4.1875 4.6875 C-5.5796875 4.8421875 -5.5796875 4.8421875 -7 5 C-4.63707344 2.47411298 -3.33537489 1.11179163 0 0 Z " fill="#0F0F0F" id="path_24" transform="translate(290,720)"/>
<path d="M0 0 C0.33 0.66 0.66 1.32 1 2 C-1.64 2.66 -4.28 3.32 -7 4 C-7.33 3.01 -7.66 2.02 -8 1 C-2.25 -1.125 -2.25 -1.125 0 0 Z " fill="#151414" id="path_25" transform="translate(335,706)"/>
<path d="M0 0 C2.31 0.33 4.62 0.66 7 1 C6.67 1.99 6.34 2.98 6 4 C4.02 3.34 2.04 2.68 0 2 C0 1.34 0 0.68 0 0 Z " fill="#171616" id="path_26" transform="translate(711,714)"/>
</svg>