<?xml version="1.0" encoding="utf-8"?>
<svg height="1024" id="svg_3" version="1.1" width="1024" xmlns="http://www.w3.org/2000/svg">
<path d="M0 0 C337.92 0 675.84 0 1024 0 C1024 337.92 1024 675.84 1024 1024 C686.08 1024 348.16 1024 0 1024 C0 686.08 0 348.16 0 0 Z " fill="#FEFEFE" id="path_45" transform="translate(0,0)"/>
<path d="M0 0 C2.11124901 0.02322068 4.22261181 0.03878919 6.33398438 0.04296875 C87.3256474 0.32409219 171.36643459 25.78222838 229.26806641 83.74560547 C234.34170655 88.90230657 238.90658687 94.34847042 243.37402344 100.03710938 C244.29050052 101.143596 245.20994127 102.24763247 246.13183594 103.34960938 C258.82207644 118.6374884 269.12573819 135.4866655 278.37402344 153.03710938 C278.71208008 153.67471191 279.05013672 154.31231445 279.3984375 154.96923828 C294.87536145 184.37846765 305.48040676 215.13978571 314.37402344 247.03710938 C314.69116302 248.17218933 314.69116302 248.17218933 315.01470947 249.3302002 C318.26565323 261.05757233 320.88326185 272.80460558 322.99902344 284.78710938 C323.14743683 285.61474792 323.29585022 286.44238647 323.44876099 287.29510498 C326.5815492 304.87428682 329.58932558 323.13627422 329.37402344 341.03710938 C328.32589478 340.93317871 328.32589478 340.93317871 327.2565918 340.82714844 C306.94871202 338.95723307 286.41161452 339.0827357 266.37402344 343.03710938 C265.31006348 343.2464209 264.24610352 343.45573242 263.14990234 343.67138672 C243.79053056 347.5498487 224.67034596 352.30733499 205.58886719 357.35742188 C204.80981018 357.5635762 204.03075317 357.76973053 203.22808838 357.98213196 C202.03986481 358.2966053 202.03986481 358.2966053 200.82763672 358.61743164 C200.02360413 358.83021759 199.21957153 359.04300354 198.39117432 359.26223755 C196.75563283 359.69524916 195.12017532 360.12857809 193.48480225 360.56222534 C180.61670019 363.9714422 167.71557262 367.20521896 154.7590332 370.26123047 C148.15894164 371.82852091 141.60814727 373.50218296 135.08105469 375.34570312 C124.24059361 378.40422035 113.31802906 381.13103748 102.39651489 383.88296509 C77.82827296 390.07914041 53.33026312 396.45002738 28.97558594 403.44335938 C26.17134041 404.24699509 23.36663709 405.04900924 20.56152344 405.84960938 C19.89251007 406.04075317 19.2234967 406.23189697 18.53421021 406.42883301 C7.57872827 409.54634628 -3.39973147 412.1075985 -14.62597656 414.03710938 C-26.59069226 359.00781347 -34.54644007 303.21770501 -42.28863525 247.46557617 C-42.59056957 245.29199871 -42.89391605 243.11862449 -43.19775391 240.9453125 C-44.39827979 232.31645979 -45.5274245 223.67947437 -46.62597656 215.03710938 C-46.81416962 213.56213989 -46.81416962 213.56213989 -47.00616455 212.05737305 C-57.84216856 127.06251616 -57.84216856 127.06251616 -57.87597656 87.16210938 C-57.87698364 86.3218219 -57.87799072 85.48153442 -57.87902832 84.61578369 C-57.85691713 57.0619897 -55.35831383 29.00330429 -45.62597656 3.03710938 C-43.85614723 2.71897251 -42.08503029 2.40799929 -40.31347656 2.09960938 C-39.32734375 1.92558594 -38.34121094 1.7515625 -37.32519531 1.57226562 C-24.89022968 -0.22666816 -12.53704134 -0.14590073 0 0 Z " fill="#FEFEFE" id="path_46" transform="translate(395.6259765625,205.962890625)"/>
<path d="M0 0 C-0.43557916 1.47973345 -0.87360096 2.95874785 -1.3125 4.4375 C-1.55613281 5.26121094 -1.79976562 6.08492187 -2.05078125 6.93359375 C-2.58138344 8.64767902 -3.12611669 10.35809808 -3.72216797 12.05053711 C-5.5401691 17.240891 -6.74345098 22.24459795 -7.5 27.6875 C-7.61964111 28.53143311 -7.73928223 29.37536621 -7.86254883 30.24487305 C-8.26137348 33.16103538 -8.63458825 36.07946383 -9 39 C-9.13970215 40.10633789 -9.2794043 41.21267578 -9.42333984 42.35253906 C-14.82814863 86.50707866 -12.08443818 131.92286833 -5.45556641 175.83349609 C-4.74210648 180.79253962 -4.22251057 185.76916126 -3.6875 190.75 C0.22430283 225.75576299 5.77907678 260.54569023 11.69921875 295.25865173 C12.95248625 302.63923067 14.09419991 310.03144038 15.1875 317.4375 C16.48119742 326.1058977 18.08070898 334.67208736 19.85961914 343.25317383 C22.55946131 356.43511508 24.82462717 369.6976166 27.14550781 382.95043945 C28.96693136 393.32948448 30.863911 403.6805841 33 414 C25.33019659 417.09761092 17.39651247 419.22937337 9.4375 421.4375 C8.0591604 421.82326631 6.68090464 422.20933228 5.30273438 422.59570312 C1.20498385 423.74204378 -2.89630353 424.87513961 -7 426 C-7.97655548 426.2677121 -7.97655548 426.2677121 -8.97283936 426.54083252 C-10.8858969 427.06324277 -12.80036244 427.58048808 -14.71484375 428.09765625 C-16.3544104 428.54057007 -16.3544104 428.54057007 -18.02709961 428.99243164 C-19.35045076 429.3320077 -20.67490677 429.66728676 -22 430 C-23.39576767 430.35417999 -23.39576767 430.35417999 -24.81973267 430.71551514 C-33.16902256 432.74761069 -41.50586263 433.99467881 -50.03125 435.0078125 C-51.43890667 435.17996945 -52.84649821 435.35265969 -54.25402832 435.52584839 C-57.18138651 435.8846066 -60.10924153 436.23883779 -63.03759766 436.58935547 C-66.75291288 437.03417181 -70.4671122 437.48758831 -74.18100739 437.9440937 C-77.08069484 438.30002899 -79.98076261 438.65277929 -82.88096619 439.00448227 C-84.24909505 439.17049007 -85.61715023 439.33710653 -86.98512268 439.50439835 C-95.64562698 440.55998788 -104.29523037 441.40784895 -113 442 C-113.01981934 440.91807373 -113.03963867 439.83614746 -113.06005859 438.72143555 C-113.13761839 434.60780108 -113.22606651 430.49445363 -113.31738281 426.38110352 C-113.35506538 424.61944346 -113.3900087 422.85772213 -113.421875 421.09594727 C-112.49979911 395.38522381 -112.49979911 395.38522381 -120.50390625 372.14453125 C-126.81220228 366.20316072 -134.13266022 365.65593744 -142.4375 365.75 C-143.30842285 365.75749268 -144.1793457 365.76498535 -145.07666016 365.77270508 C-161.36070345 365.5349975 -161.36070345 365.5349975 -175 373 C-175.33 373.66 -175.66 374.32 -176 375 C-226.70694552 375.49566907 -226.70694552 375.49566907 -240 372 C-240.86685815 298.89053999 -240.86685815 298.89053999 -236 271 C-235.80212891 269.82937012 -235.60425781 268.65874023 -235.40039062 267.45263672 C-233.25234911 255.03883369 -230.40511116 242.93867182 -226.59423828 230.93457031 C-225.82377321 228.42628552 -225.16142834 225.89074954 -224.48266602 223.35644531 C-213.56437885 183.67314096 -193.85756264 145.31418204 -170 112 C-169.5865332 111.41927734 -169.17306641 110.83855469 -168.74707031 110.24023438 C-163.07068449 102.31361888 -156.81589868 94.91584659 -150.39306641 87.59277344 C-149.1730027 86.19780399 -147.966232 84.79123113 -146.76171875 83.3828125 C-142.14256696 78.07644227 -137.17781427 73.19681759 -132.0625 68.375 C-131.39887451 67.7459375 -130.73524902 67.116875 -130.05151367 66.46875 C-129.11529175 65.59863281 -129.11529175 65.59863281 -128.16015625 64.7109375 C-127.59949463 64.18806152 -127.03883301 63.66518555 -126.46118164 63.12646484 C-125 62 -125 62 -123 62 C-123 61.34 -123 60.68 -123 60 C-121.50976563 58.66235352 -121.50976563 58.66235352 -119.40625 57.12890625 C-118.63152344 56.56018799 -117.85679687 55.99146973 -117.05859375 55.40551758 C-116.21425781 54.79732178 -115.36992187 54.18912598 -114.5 53.5625 C-113.63503906 52.93432373 -112.77007812 52.30614746 -111.87890625 51.65893555 C-109.25902154 49.76351051 -106.63090698 47.8800866 -104 46 C-103.28585938 45.48630859 -102.57171875 44.97261719 -101.8359375 44.44335938 C-74.99306118 25.20596468 -34.2383823 0 0 0 Z " fill="#FEFEFE" id="path_47" transform="translate(329,211)"/>
<path d="M0 0 C6.34834703 2.97677467 12.79005661 5.71234445 19.25 8.4375 C20.37712402 8.91316406 21.50424805 9.38882813 22.66552734 9.87890625 C28.22837437 12.22280687 33.79530935 14.55656143 39.3671875 16.87890625 C65.02013332 27.60295863 90.21850253 39.32969587 115.390625 51.12890625 C121.93557912 54.19625158 128.4963133 57.22838595 135.0625 60.25 C135.0625 60.91 135.0625 61.57 135.0625 62.25 C133.804375 62.35957031 132.54625 62.46914063 131.25 62.58203125 C91.70197314 66.1663506 58.75781135 81.72911695 25.0625 102.25 C23.97485352 102.90967773 22.88720703 103.56935547 21.76660156 104.24902344 C9.84527627 111.49127156 -1.99375832 118.8482646 -13.671875 126.4765625 C-19.66944522 130.39013429 -25.72511752 134.21287266 -31.77294922 138.0480957 C-36.77764863 141.2257173 -41.75931305 144.433546 -46.71435547 147.68798828 C-74.31990205 165.77260863 -106.43888373 182.07770921 -139.125 187.9375 C-140.37667969 188.16824219 -141.62835937 188.39898438 -142.91796875 188.63671875 C-162.4904487 191.78451817 -183.34806742 191.72208583 -202.76757812 187.69873047 C-204.93931594 187.24962447 -207.11584434 186.84268865 -209.296875 186.44140625 C-240.64636691 180.46876982 -270.74325897 169.94712257 -299.9375 157.25 C-301.11747559 156.73743652 -302.29745117 156.22487305 -303.51318359 155.69677734 C-315.99758983 150.25642961 -328.43711196 144.76351583 -340.4140625 138.26293945 C-345.3706191 135.57760568 -350.37894581 133.0187328 -355.4375 130.53125 C-376.79501636 120.02313222 -397.12767811 108.56081371 -417.02734375 95.46484375 C-422.04362882 92.16722177 -427.10823144 88.94953532 -432.1875 85.75 C-433.33061646 85.02961548 -433.33061646 85.02961548 -434.49682617 84.29467773 C-435.22490479 83.83649658 -435.9529834 83.37831543 -436.703125 82.90625 C-437.75016602 82.24496094 -437.75016602 82.24496094 -438.81835938 81.5703125 C-440.28932547 80.65383961 -441.77066232 79.75388652 -443.25976562 78.8671875 C-444.36094727 78.20589844 -444.36094727 78.20589844 -445.484375 77.53125 C-446.14791992 77.14001953 -446.81146484 76.74878906 -447.49511719 76.34570312 C-447.97110352 75.98412109 -448.44708984 75.62253906 -448.9375 75.25 C-448.9375 74.59 -448.9375 73.93 -448.9375 73.25 C-433.08339357 68.20343418 -417.12721592 63.52168138 -401.13497925 58.93511963 C-398.9839755 58.31810778 -396.83335203 57.69976843 -394.68313599 57.08001709 C-384.17755353 54.05486486 -373.68911784 51.09303798 -363.02484131 48.67835999 C-357.98641363 47.52851561 -353.01544741 46.19965767 -348.04296875 44.79296875 C-339.67807379 42.42950142 -331.27142711 40.28363039 -322.83279419 38.20059204 C-318.12116385 37.03656053 -313.41226951 35.8615403 -308.703125 34.6875 C-307.65592789 34.4265303 -306.60873077 34.16556061 -305.52980042 33.89668274 C-291.40553092 30.37359545 -277.29054966 26.81373421 -263.17782593 23.24472046 C-260.10580779 22.46795791 -257.03340028 21.69276761 -253.96060181 20.9190979 C-230.3450094 14.97186706 -206.82041049 8.76896583 -183.45141602 1.90527344 C-118.52402331 -16.98442819 -62.95019733 -29.57391821 0 0 Z " fill="#FEFEFE" id="path_48" transform="translate(766.9375,575.75)"/>
<path d="M0 0 C5.85729356 -0.25466494 11.18734876 0.59508901 16.85546875 1.94921875 C17.87278076 2.18451294 17.87278076 2.18451294 18.91064453 2.42456055 C24.04579115 3.75261571 27.60523297 5.74905395 30.84375 9.98046875 C32.73899595 13.41218981 33.48046875 15.19836393 33.48046875 19.19921875 C35.08426392 19.16779785 35.08426392 19.16779785 36.72045898 19.13574219 C59.39663172 18.73201306 81.33311263 19.33934154 103.78491211 22.66943359 C107.00653558 23.13127695 110.22985766 23.5415722 113.46148682 23.9262085 C151.50594925 28.46423107 189.8940833 38.83816586 223.67382812 57.21777344 C225.58356309 58.25522405 227.5080518 59.26176222 229.43359375 60.26953125 C238.82699921 65.2765488 247.23508542 71.19318724 255.609375 77.74560547 C257.36327502 79.10817341 259.13455683 80.44203129 260.91796875 81.765625 C271.15522361 89.39907949 280.85938447 97.73986457 289.08203125 107.546875 C290.58699715 109.37140789 290.58699715 109.37140789 292.85546875 111.57421875 C306.57141137 125.29016137 317.19748193 140.85447121 327.48046875 157.19921875 C327.91810547 157.89370117 328.35574219 158.58818359 328.80664062 159.30371094 C344.04161403 183.64310444 355.73805223 210.88614741 364.48046875 238.19921875 C364.81135498 239.22063965 364.81135498 239.22063965 365.14892578 240.26269531 C366.42609657 244.21836368 367.65121787 248.1875169 368.85351562 252.16650391 C369.4905515 254.23190915 370.16222614 256.28351966 370.83984375 258.3359375 C382.38993441 294.04086852 388.55977668 332.63147804 392.18676758 369.91381836 C392.56331278 373.12386808 392.56331278 373.12386808 393.48046875 376.19921875 C395.27333344 377.49493592 395.27333344 377.49493592 397.56640625 378.3828125 C398.40937256 378.75051758 399.25233887 379.11822266 400.12084961 379.49707031 C401.02327393 379.8731543 401.92569824 380.24923828 402.85546875 380.63671875 C404.69798498 381.43213344 406.5404335 382.227705 408.3828125 383.0234375 C409.26952637 383.40032715 410.15624023 383.7772168 411.06982422 384.16552734 C413.87981555 385.37045982 416.6504557 386.65001367 419.41796875 387.94921875 C422.97748509 389.57314556 426.56711147 391.0135537 430.23046875 392.38671875 C439.30188688 395.82430878 448.14674135 399.78389652 457.02685547 403.68359375 C460.75056214 405.31774977 464.47656694 406.94657919 468.203125 408.57421875 C474.35344594 411.26082323 480.50171833 413.95207127 486.64884949 416.64596558 C490.79625966 418.46304552 494.94618782 420.27423587 499.09765625 422.08203125 C514.67328475 428.87782192 530.11096763 435.9496112 545.48046875 443.19921875 C546.08048706 443.48172485 546.68050537 443.76423096 547.29870605 444.05529785 C561.20494608 450.60526431 575.01322396 457.32937506 588.60546875 464.51171875 C589.6413916 465.04982178 590.67731445 465.5879248 591.74462891 466.14233398 C603.13768055 472.26068703 614.19962468 480.03340325 619.48046875 492.19921875 C620.11165135 494.97385017 620.43858373 497.74595358 620.73046875 500.57421875 C620.82070313 501.2909375 620.9109375 502.00765625 621.00390625 502.74609375 C622.0534578 512.12434471 620.60330485 520.56955931 614.94140625 528.30078125 C613.19943567 530.36091997 611.3840192 532.2878186 609.48046875 534.19921875 C608.90683594 534.79605469 608.33320312 535.39289062 607.7421875 536.0078125 C593.597069 549.60772301 573.19214318 553.5925348 554.26025391 553.42895508 C520.52205899 552.70442858 484.50022665 540.33906578 454.8046875 524.78515625 C454.07209717 524.40302979 453.33950684 524.02090332 452.5847168 523.62719727 C451.22582311 522.90683698 449.87607031 522.16883375 448.53833008 521.40991211 C446.53969047 520.28473096 446.53969047 520.28473096 443.48046875 519.19921875 C440.02996404 520.28551456 437.0208001 521.94271742 433.91796875 523.78125 C433.04954346 524.29437744 432.18111816 524.80750488 431.28637695 525.33618164 C430.36042725 525.88910889 429.43447754 526.44203613 428.48046875 527.01171875 C427.51004639 527.58849365 426.53962402 528.16526855 425.53979492 528.75952148 C412.94625153 536.27079799 400.49420222 544.00743603 388.11767578 551.87036133 C379.89692742 557.09219279 371.6034869 562.14740742 363.1796875 567.03515625 C360.32139062 568.69518085 357.52269908 570.42998254 354.73046875 572.19921875 C326.29679279 589.23055765 289.80483123 602.73780759 256.41796875 602.51171875 C255.03049438 602.50325928 255.03049438 602.50325928 253.61499023 602.49462891 C222.4969818 601.97526695 190.98792192 595.93384152 161.48046875 586.19921875 C160.51608887 585.88146484 159.55170898 585.56371094 158.55810547 585.23632812 C128.32230292 575.10945652 98.84785207 561.99366425 70.73828125 546.98046875 C66.90047825 544.9364054 63.03784361 542.94779919 59.16015625 540.98046875 C38.99752519 530.72709213 19.7340385 519.37066592 0.79296875 507.01171875 C-0.26374023 506.32376221 -1.32044922 505.63580566 -2.40917969 504.92700195 C-7.79367857 501.39448347 -13.11673456 497.80082271 -18.36351013 494.06626892 C-21.02396717 492.17700047 -23.70133116 490.31244654 -26.37979126 488.44882202 C-27.66388739 487.54466948 -28.93946475 486.62827408 -30.20541382 485.69888306 C-38.72392879 479.40900229 -38.72392879 479.40900229 -49.03125 478.02734375 C-51.2008132 478.37822271 -53.36414124 478.76978375 -55.51953125 479.19921875 C-57.80989718 479.49841292 -60.10163558 479.78725993 -62.39453125 480.06640625 C-64.77007135 480.39850296 -67.14506195 480.73455043 -69.51953125 481.07421875 C-70.78337646 481.25057861 -72.04722168 481.42693848 -73.34936523 481.60864258 C-79.02729252 482.40394807 -84.70095072 483.21889652 -90.3671875 484.09375 C-100.59503539 485.65889223 -110.66001835 486.63392649 -121.00390625 486.98828125 C-129.17088683 486.95637283 -129.17088683 486.95637283 -136.6484375 489.5390625 C-137.12152344 490.06628906 -137.59460938 490.59351563 -138.08203125 491.13671875 C-144.5359828 497.22562779 -152.63504149 496.57527031 -161.06640625 496.38671875 C-165.77305155 496.21847406 -170.45627091 495.8949846 -175.14453125 495.44921875 C-175.89009277 495.38766602 -176.6356543 495.32611328 -177.40380859 495.26269531 C-183.34672827 494.61359328 -187.23904574 492.47970426 -191.51953125 488.19921875 C-194.12081552 488.21791061 -196.61975921 488.35829667 -199.20703125 488.57421875 C-223.80414195 490.2187224 -247.84222906 490.22693788 -271.76953125 483.94921875 C-272.85476074 483.67392334 -273.93999023 483.39862793 -275.05810547 483.11499023 C-283.61507199 480.71815064 -283.61507199 480.71815064 -286.671875 477.55078125 C-289.05075277 473.23560763 -289.53013244 469.68931118 -289.83203125 464.82421875 C-289.90268799 463.91446289 -289.97334473 463.00470703 -290.04614258 462.06738281 C-290.80718812 451.12096463 -290.78035355 440.1633444 -290.51953125 429.19921875 C-290.50019531 428.34118652 -290.48085938 427.4831543 -290.4609375 426.59912109 C-290.06940828 412.14996563 -290.06940828 412.14996563 -286.51953125 405.19921875 C-281.55077784 402.71484204 -274.78309651 404.42718318 -269.51953125 405.19921875 C-269.53000488 404.04437988 -269.54047852 402.88954102 -269.55126953 401.69970703 C-270.28586411 312.40397384 -255.99944574 222.94063018 -203.51953125 148.19921875 C-203.03436035 147.50505859 -202.54918945 146.81089844 -202.04931641 146.09570312 C-196.23240384 137.80151181 -190.42905297 129.71381914 -183.47265625 122.33203125 C-181.61791087 120.30664929 -180.01332319 118.22733802 -178.39453125 116.01171875 C-171.33022478 106.73051049 -162.36138148 98.35239534 -153.44921875 90.85546875 C-151.02470119 88.77450631 -148.72353935 86.57396114 -146.39453125 84.38671875 C-140.66340703 79.15637237 -134.51577823 74.71231169 -128.1328125 70.31591797 C-126.69962522 69.32387823 -125.28037823 68.31176651 -123.86328125 67.296875 C-101.78886878 51.49360243 -76.7034434 39.97295935 -50.98925781 31.44311523 C-44.50946731 29.35473528 -44.50946731 29.35473528 -38.51953125 26.19921875 C-37.58894868 23.73232653 -37.58894868 23.73232653 -37.51953125 20.94921875 C-36.72002499 15.12204811 -35.16276233 11.85839057 -30.51953125 8.19921875 C-20.80823677 2.10936017 -11.17876569 0.8839024 0 0 Z M3.48046875 33.19921875 C-21.72802151 86.61909153 -8.0548203 162.58189585 -0.83984375 218.68988037 C-0.42614994 221.93077088 -0.02472518 225.17311243 0.3757019 228.41566467 C3.48001859 253.54176468 7.03823123 278.6006628 10.67675781 303.65429688 C11.26832795 307.72909456 11.85392774 311.80468815 12.43455505 315.88105774 C17.56240803 351.85750497 23.17012877 387.80207193 29.91796875 423.51171875 C30.16892807 424.85508301 30.16892807 424.85508301 30.42495728 426.22558594 C30.89224789 428.71455808 31.36965812 431.20132105 31.8515625 433.6875 C31.98764923 434.41282425 32.12373596 435.1381485 32.26394653 435.88545227 C32.92736829 439.23057037 33.55906361 441.31711104 35.48046875 444.19921875 C47.96520991 441.58677291 60.27283034 438.48707073 72.54296875 435.01171875 C90.36538021 429.97068601 108.27602078 425.27570055 126.19852829 420.60638046 C128.44312848 420.02144943 130.68754449 419.43581663 132.93191528 418.8500061 C148.99437121 414.65878817 165.06919446 410.5292308 181.17964172 406.52578735 C188.13581992 404.79471814 195.06986837 403.00545357 201.98974609 401.13427734 C206.07950289 400.0387557 210.17884366 398.98447281 214.28125 397.9375 C215.04324707 397.74295227 215.80524414 397.54840454 216.59033203 397.34796143 C218.99110446 396.73546211 221.39202005 396.12352673 223.79296875 395.51171875 C233.63678248 393.00322117 243.47812228 390.49193092 253.28125 387.828125 C273.87158367 382.24050514 294.54812451 377.34046631 315.48046875 373.19921875 C316.53008789 372.99006836 317.57970703 372.78091797 318.66113281 372.56542969 C338.21251488 368.81537654 358.73651959 369.24144217 378.48046875 371.19921875 C377.12223038 340.72140032 372.39085197 310.66561821 364.48046875 281.19921875 C364.16239258 279.98524414 363.84431641 278.77126953 363.51660156 277.52050781 C349.45563944 223.93519482 327.50054471 171.83281686 291.48046875 129.19921875 C290.60241415 128.13448588 289.72483052 127.06936449 288.84765625 126.00390625 C277.17038813 111.95307782 264.4934 98.69369496 249.48046875 88.19921875 C248.91714844 87.8021875 248.35382813 87.40515625 247.7734375 86.99609375 C195.3733857 50.28120158 129.30824879 32.61669617 65.60546875 30.57421875 C64.55593018 30.53772217 63.5063916 30.50122559 62.42504883 30.46362305 C32.63170494 28.54591699 32.63170494 28.54591699 3.48046875 33.19921875 Z M-82.453125 57.07324219 C-84.80858031 58.35672043 -87.17962328 59.60906348 -89.55078125 60.86328125 C-98.70858498 65.75315643 -107.28127088 70.85551381 -115.51953125 77.19921875 C-117.84020881 78.88376091 -120.18029621 80.54058553 -122.51953125 82.19921875 C-123.69949519 83.04258211 -124.87918576 83.8863281 -126.05859375 84.73046875 C-128.31711602 86.34496422 -130.58318647 87.9479104 -132.85546875 89.54296875 C-133.85835938 90.25453125 -134.86125 90.96609375 -135.89453125 91.69921875 C-136.78914063 92.32828125 -137.68375 92.95734375 -138.60546875 93.60546875 C-139.23710937 94.13140625 -139.86875 94.65734375 -140.51953125 95.19921875 C-140.51953125 95.85921875 -140.51953125 96.51921875 -140.51953125 97.19921875 C-141.4000415 97.59862671 -141.4000415 97.59862671 -142.29833984 98.00610352 C-144.57158185 99.22717779 -146.17858121 100.53033275 -148.05859375 102.2890625 C-148.71657959 102.90297852 -149.37456543 103.51689453 -150.05249023 104.14941406 C-150.74286377 104.80522461 -151.4332373 105.46103516 -152.14453125 106.13671875 C-152.85875244 106.81186523 -153.57297363 107.48701172 -154.30883789 108.18261719 C-166.74576203 120.04176628 -177.62593833 133.1578582 -187.51953125 147.19921875 C-187.92929199 147.77768555 -188.33905273 148.35615234 -188.76123047 148.95214844 C-199.1670796 163.68315771 -208.73775762 178.77765545 -216.49511719 195.078125 C-217.55889787 197.28072904 -218.66468783 199.45843379 -219.77734375 201.63671875 C-231.11607202 224.17553178 -239.99465981 248.48922733 -245.96826172 272.99462891 C-246.47700854 275.02916557 -247.03171248 277.0410961 -247.6171875 279.0546875 C-256.45550205 309.87116826 -258.01881398 341.86731007 -257.7255249 373.71691895 C-257.69407559 377.51304827 -257.68097679 381.309245 -257.66601562 385.10546875 C-257.63444534 392.47022537 -257.58369102 399.83466589 -257.51953125 407.19921875 C-255.46908457 407.52171486 -253.41832205 407.84220315 -251.36743164 408.16186523 C-249.65445641 408.42990211 -249.65445641 408.42990211 -247.90687561 408.70335388 C-237.0690828 410.28987126 -226.16198308 410.50334108 -215.22631836 410.60424805 C-213.45073262 410.62605147 -211.67526035 410.66040953 -209.90014648 410.70678711 C-207.30535289 410.77361297 -204.71271814 410.80118315 -202.1171875 410.8203125 C-201.32756119 410.84814316 -200.53793488 410.87597382 -199.72438049 410.90464783 C-195.50111078 410.92734883 -195.50111078 410.92734883 -191.96627808 408.86746216 C-190.74453871 407.36787938 -189.62615482 405.78565496 -188.51953125 404.19921875 C-180.36780048 400.02394201 -169.30449754 401.07685221 -160.33203125 400.94921875 C-159.50106934 400.92778809 -158.67010742 400.90635742 -157.81396484 400.88427734 C-150.72971262 400.84634857 -144.47125125 402.08168049 -138.64453125 406.26171875 C-128.90465597 419.72566398 -131.18169242 443.01059457 -130.89453125 458.88671875 C-130.85619257 460.67905209 -130.81713282 462.47137015 -130.77734375 464.26367188 C-130.68314663 468.57539128 -130.59852133 472.88719507 -130.51953125 477.19921875 C-71.86833985 472.18363242 -71.86833985 472.18363242 -14.82421875 458.55859375 C-11.25362973 457.39607639 -7.6496015 456.39164632 -4.02734375 455.40234375 C-2.88273682 455.08966553 -1.73812988 454.7769873 -0.55883789 454.45483398 C1.73193709 453.83344056 4.02439482 453.2182128 6.31860352 452.60961914 C7.36072998 452.32594482 8.40285645 452.04227051 9.4765625 451.75 C10.88699829 451.37355347 10.88699829 451.37355347 12.32592773 450.98950195 C14.65930013 450.41298626 14.65930013 450.41298626 15.48046875 448.19921875 C15.22393625 446.09245464 15.22393625 446.09245464 14.64477539 443.67895508 C14.43944687 442.73839767 14.23411835 441.79784027 14.02256775 440.82878113 C13.79340164 439.80247086 13.56423553 438.77616058 13.328125 437.71875 C11.42175005 428.88922174 9.68309049 420.05291473 8.1640625 411.1484375 C7.97808502 410.05975372 7.79210754 408.97106995 7.60049438 407.84939575 C7.03640264 404.52904317 6.47651065 401.20800911 5.91796875 397.88671875 C2.93545965 380.0281627 2.93545965 380.0281627 -0.6171875 362.27734375 C-2.46230384 353.80891553 -3.81979344 345.3123903 -5.04199219 336.73403931 C-5.66406984 332.37147207 -6.30606182 328.0118462 -6.94921875 323.65234375 C-7.07939392 322.76875687 -7.20956909 321.88516998 -7.34368896 320.97480774 C-8.50058594 313.19006073 -9.80901683 305.43538856 -11.14654541 297.68002319 C-14.38397658 278.85964014 -16.96133729 259.96960548 -19.38093567 241.02830505 C-20.13527939 235.1316815 -20.91707146 229.23956582 -21.72143555 223.3495636 C-25.71580289 194.02415942 -28.34361042 164.77589575 -29.51953125 135.19921875 C-29.55089172 134.42680847 -29.5822522 133.65439819 -29.61456299 132.85858154 C-30.25983626 116.31229473 -29.36653763 100.0891127 -27.70703125 83.63671875 C-27.62444061 82.81419617 -27.54184998 81.99167358 -27.45675659 81.14422607 C-26.13478194 68.30407722 -24.48376984 55.5744713 -19.83203125 43.44921875 C-18.14151138 39.42587177 -18.14151138 39.42587177 -17.51953125 35.19921875 C-38.53105911 35.19921875 -64.24294171 47.13616578 -82.453125 57.07324219 Z M223.77856445 405.70022583 C205.21525699 410.97587081 186.56542238 415.85232176 167.85546875 420.57421875 C167.1560957 420.75078758 166.45672264 420.92735641 165.73615646 421.10927582 C154.98820829 423.82171435 144.23520728 426.51384688 133.48046875 429.19921875 C132.37991024 429.47405342 132.37991024 429.47405342 131.25711823 429.75444031 C126.78148041 430.87204807 122.30572171 431.98917081 117.82989502 433.10602188 C115.62281076 433.65680333 113.41577144 434.20776456 111.20874023 434.75875854 C109.76172357 435.1199534 108.31470212 435.48112909 106.86767578 435.84228516 C105.80559843 436.10736405 105.80559843 436.10736405 104.72206497 436.37779808 C100.60589572 437.40469233 96.48894902 438.42839441 92.3713274 439.44944859 C78.68355168 442.84462676 65.04170822 446.32867282 51.48046875 450.19921875 C49.48218984 450.75671241 47.4835362 451.31286604 45.484375 451.8671875 C20.75753821 458.76473247 -3.96835103 465.69662206 -28.51953125 473.19921875 C-27.19309304 477.17853338 -24.80359396 478.05795346 -21.33203125 480.01171875 C-14.70956286 483.85966844 -8.22073604 487.88324085 -1.76953125 492.01171875 C-0.35861206 492.91120239 -0.35861206 492.91120239 1.08081055 493.82885742 C5.5094154 496.65353795 9.93074435 499.48872206 14.33984375 502.34375 C30.91778414 513.0271573 48.21243875 522.18279038 65.88525391 530.91455078 C70.84795998 533.36819491 75.76871718 535.86316689 80.62329102 538.52416992 C111.11881132 555.20498295 144.25403034 568.2718378 177.48046875 578.19921875 C178.93960693 578.63790283 178.93960693 578.63790283 180.42822266 579.08544922 C243.22724897 597.73285913 298.6331313 589.80752035 355.8515625 558.8125 C362.46145028 555.14155632 368.73862341 550.99821626 375.03076172 546.81396484 C379.87642999 543.61989967 384.77641003 540.50984523 389.66796875 537.38671875 C390.73813232 536.70270996 391.8082959 536.01870117 392.91088867 535.31396484 C395.06473197 533.93733502 397.21878336 532.56103073 399.37304688 531.18505859 C402.26966462 529.33393597 405.16430854 527.47976652 408.05859375 525.625 C503.37234566 464.62869716 503.37234566 464.62869716 555.48046875 462.19921875 C555.48046875 461.53921875 555.48046875 460.87921875 555.48046875 460.19921875 C554.81031738 459.88919922 554.14016602 459.57917969 553.44970703 459.25976562 C550.78635977 458.02700863 548.12343025 456.79335433 545.46078491 455.55908203 C544.21775562 454.98298871 542.97461073 454.40714477 541.73135376 453.83154297 C534.18274659 450.33584774 526.64830822 446.81329657 519.140625 443.23046875 C503.87696497 435.95687596 488.56549425 428.94571648 472.91674805 422.53515625 C467.27588851 420.22143081 461.68487929 417.86212331 456.1640625 415.2734375 C448.340365 411.61782598 440.35342736 408.38704273 432.35546875 405.13671875 C423.87874452 401.68800993 415.4355954 398.22939745 407.12646484 394.38989258 C402.10062516 392.12831109 396.97552163 390.11102811 391.85546875 388.07421875 C390.788125 387.64496094 389.72078125 387.21570313 388.62109375 386.7734375 C337.97221221 366.55121821 273.82495954 391.45181503 223.77856445 405.70022583 Z " fill="#030303" id="path_49" transform="translate(346.51953125,175.80078125)"/>
<path d="M0 0 C5.2561217 4.85431074 8.04654076 9.82442566 8.578125 17.05859375 C8.36807289 24.27775295 4.81222675 31.20161177 0.08203125 36.5625 C-12.42232797 47.50676904 -31.31073974 47.2875733 -46.97607422 46.58251953 C-77.08083481 44.46673292 -107.16931949 33.74305777 -133.984375 20.37109375 C-133.984375 19.71109375 -133.984375 19.05109375 -133.984375 18.37109375 C-130.38284427 16.47022281 -126.77767112 14.57635935 -123.171875 12.68359375 C-122.16705078 12.15314453 -121.16222656 11.62269531 -120.12695312 11.07617188 C-88.17765509 -5.66895861 -32.45165838 -26.63846761 0 0 Z " fill="#FDFDFD" id="path_50" transform="translate(939.984375,670.62890625)"/>
<path d="M0 0 C0.99 0.0309375 0.99 0.0309375 2 0.0625 C1.81244141 0.60849854 1.62488281 1.15449707 1.43164062 1.71704102 C-20.11679666 65.27000451 -9.14946003 138.56710873 0.19873047 203.47216797 C1.16176377 210.16778293 2.09760596 216.86718376 3.03515625 223.56640625 C4.18339378 231.76805761 5.33331206 239.9694501 6.4934082 248.16943359 C8.36053135 261.37088144 10.2138286 274.5735133 12.0078125 287.78515625 C16.47863646 320.58515926 21.7241691 353.19040825 27.42895508 385.79602051 C28.38902286 391.28778059 29.34243106 396.7806978 30.296875 402.2734375 C30.86443345 405.53648442 31.43218568 408.7994976 32 412.0625 C30.75336669 412.57083591 29.50250613 413.06881145 28.25 413.5625 C27.55390625 413.8409375 26.8578125 414.119375 26.140625 414.40625 C24 415.0625 24 415.0625 20 415.0625 C16.99792265 404.3124142 15.09234872 393.34590833 13.09326172 382.37573242 C12.50689476 379.16277933 11.9120925 375.95147103 11.31640625 372.74023438 C9.30599598 361.81629277 7.44653727 350.89481511 5.96386719 339.88563538 C5.32645042 335.16809978 4.5483936 330.5327401 3.5625 325.875 C1.91103989 318.00476041 0.7402542 310.07711918 -0.45336914 302.1262207 C-1.49177539 295.2498916 -2.63285257 288.40453432 -3.875 281.5625 C-6.64239272 266.10844548 -8.70122881 250.53959106 -10.87876892 234.99409485 C-11.66763566 229.37629096 -12.48177903 223.7629344 -13.3203125 218.15234375 C-18.1605933 185.65903121 -21.85706857 153.11304938 -23.8125 120.3125 C-23.90751801 118.75776978 -23.90751801 118.75776978 -24.00445557 117.17163086 C-29.56451523 24.34248706 -29.56451523 24.34248706 -11 1.0625 C-7.37579812 -0.67483843 -3.93927548 0.08206824 0 0 Z " fill="#FBFBFB" id="path_51" transform="translate(345,208.9375)"/>
<path d="M0 0 C1.27601074 0.14622803 2.55202148 0.29245605 3.86669922 0.44311523 C29.92714802 3.40543258 55.75775629 5.86151134 82 6 C81.99214478 7.92078369 81.99214478 7.92078369 81.98413086 9.88037109 C81.96591375 14.67007741 81.95450737 19.45978072 81.94506836 24.24951172 C81.94006613 26.31527218 81.93326224 28.38102915 81.92456055 30.44677734 C81.91231375 33.43067288 81.90673044 36.41452125 81.90234375 39.3984375 C81.89718246 40.30927094 81.89202118 41.22010437 81.88670349 42.15853882 C81.88618824 48.1626863 82.29264365 54.03807525 83 60 C62.27090661 64.82732312 38.21475421 62.33465531 17.625 58.0625 C16.85921631 57.90491211 16.09343262 57.74732422 15.30444336 57.58496094 C10.58351168 56.54063204 6.34093712 55.14803478 2 53 C-2.56378475 43.8724305 -0.11110418 28.82482101 -0.0625 18.75 C-0.05747327 16.92578248 -0.05291244 15.10156362 -0.04882812 13.27734375 C-0.03791939 8.85152868 -0.02071994 4.42577957 0 0 Z " fill="#FDFDFD" id="path_52" transform="translate(67,592)"/>
<path d="M0 0 C5.22515715 -0.12738424 7.7217889 0.78598871 11.80664062 4.09277344 C14.2092725 6.49540531 14.07597719 7.10083487 14.15722656 10.38720703 C14.18355164 11.27507904 14.20987671 12.16295105 14.23699951 13.07772827 C14.25482483 14.03917755 14.27265015 15.00062683 14.29101562 15.99121094 C14.31512512 16.97771637 14.33923462 17.9642218 14.36407471 18.98062134 C14.41242959 21.0703079 14.4558085 23.16011457 14.49462891 25.25 C14.55626203 28.44812833 14.63934727 31.64519801 14.72460938 34.84277344 C14.76887654 36.87139135 14.81188675 38.90003717 14.85351562 40.92871094 C14.87943787 41.88611176 14.90536011 42.84351257 14.93206787 43.82992554 C14.95264252 45.17119003 14.95264252 45.17119003 14.97363281 46.53955078 C14.99789337 47.71630875 14.99789337 47.71630875 15.02264404 48.9168396 C14.77599478 51.40148763 14.10306278 52.97070846 12.80664062 55.09277344 C9.3856414 57.5972925 5.99620111 57.32791002 1.86914062 57.28027344 C1.2161499 57.27382813 0.56315918 57.26738281 -0.10961914 57.26074219 C-6.49139993 57.16207472 -12.84021048 56.69273354 -19.19335938 56.09277344 C-19.94465774 50.0711954 -20.34226553 44.21204538 -20.32617188 38.14746094 C-20.3271286 37.33334747 -20.32808533 36.51923401 -20.32907104 35.68045044 C-20.32974613 33.97462892 -20.32793916 32.26880474 -20.32373047 30.56298828 C-20.31835858 27.96738889 -20.32370556 25.3719614 -20.33007812 22.77636719 C-20.3294175 21.10839806 -20.32813665 19.44042904 -20.32617188 17.77246094 C-20.32819611 17.00561981 -20.33022034 16.23877869 -20.33230591 15.44869995 C-20.27941196 3.17882603 -20.27941196 3.17882603 -18.19335938 1.09277344 C-15.66690171 0.85173331 -13.16329946 0.66881949 -10.63085938 0.53027344 C-9.93927734 0.48708984 -9.24769531 0.44390625 -8.53515625 0.39941406 C-5.69125139 0.23243736 -2.84615917 0.12038518 0 0 Z " fill="#FDFDFD" id="path_53" transform="translate(179.193359375,594.9072265625)"/>
<path d="M0 0 C7.6245529 6.89112897 12.79611559 13.17074069 13.44921875 23.63671875 C13.19864915 31.03991143 9.77827569 37.18409819 4.63671875 42.38671875 C3.74984375 43.17046875 2.86296875 43.95421875 1.94921875 44.76171875 C1.28921875 44.43171875 0.62921875 44.10171875 -0.05078125 43.76171875 C1.09390625 42.49328125 1.09390625 42.49328125 2.26171875 41.19921875 C7.28920451 35.04340522 8.5983187 29.7144533 8.3515625 21.828125 C7.56811879 15.85721908 5.44691542 11.04307949 0.96484375 6.94921875 C-17.01302029 -5.80103943 -41.54753188 -6.34462232 -62.671875 -3.77734375 C-66.53196598 -3.10568002 -70.26311092 -2.23930841 -74.05078125 -1.23828125 C-74.75525391 -1.07150879 -75.45972656 -0.90473633 -76.18554688 -0.73291016 C-97.00245689 4.22800281 -117.16098023 14.59467444 -135.2175293 25.91699219 C-139.7740465 28.76171875 -139.7740465 28.76171875 -143.05078125 28.76171875 C-143.05078125 28.10171875 -143.05078125 27.44171875 -143.05078125 26.76171875 C-40.5598513 -32.66178695 -40.5598513 -32.66178695 0 0 Z " fill="#F3F3F3" id="path_54" transform="translate(944.05078125,659.23828125)"/>
<path d="M0 0 C1.02351563 -0.03738281 2.04703125 -0.07476563 3.1015625 -0.11328125 C7.68873133 -0.16703713 10.48915393 -0.19954099 14.3984375 2.3359375 C19.60394785 10.33966686 19.79967863 18.31448152 19.703125 27.65234375 C19.70125183 28.90004044 19.69937866 30.14773712 19.69744873 31.4332428 C19.68905202 34.72216476 19.66715173 38.01063642 19.63928223 41.29943848 C19.62016892 43.99343409 19.61613132 46.68736099 19.6125679 49.38141537 C19.60742329 52.59675492 19.59289333 55.81203595 19.578125 59.02734375 C19.57175018 60.83971779 19.57175018 60.83971779 19.56524658 62.68870544 C19.55563904 63.80068802 19.54603149 64.91267059 19.53613281 66.05834961 C19.52930481 67.03936142 19.52247681 68.02037323 19.51544189 69.03111267 C19.375 71.375 19.375 71.375 18.375 73.375 C14.4900653 75.3724636 11.19640097 75.63196534 6.8671875 75.640625 C5.63355469 75.64320313 4.39992187 75.64578125 3.12890625 75.6484375 C1.84886719 75.64070312 0.56882813 75.63296875 -0.75 75.625 C-2.03777344 75.63273438 -3.32554687 75.64046875 -4.65234375 75.6484375 C-5.88339844 75.64585937 -7.11445313 75.64328125 -8.3828125 75.640625 C-10.07108154 75.63724121 -10.07108154 75.63724121 -11.79345703 75.63378906 C-14.625 75.375 -14.625 75.375 -17.625 73.375 C-2.28 72.88 -2.28 72.88 13.375 72.375 C14.19205039 69.10679845 14.50947475 66.81340091 14.53613281 63.52148438 C14.54574036 62.5594812 14.5553479 61.59747803 14.56524658 60.60632324 C14.56949646 59.57092407 14.57374634 58.5355249 14.578125 57.46875 C14.58667511 55.85522644 14.58667511 55.85522644 14.59539795 54.20910645 C14.60484391 51.92945334 14.61138033 49.6497866 14.61523438 47.37011719 C14.6248861 43.91576567 14.65589155 40.46202306 14.6875 37.0078125 C14.69403598 34.78646184 14.69928411 32.56510695 14.703125 30.34375 C14.7154718 29.32454468 14.7278186 28.30533936 14.74053955 27.25524902 C14.71893063 20.14692923 14.12304099 13.00315239 11.375 6.375 C4.16002713 -0.20612167 -9.40945391 2.27209688 -18.625 2.375 C-18.625 2.045 -18.625 1.715 -18.625 1.375 C-12.4187549 0.30857479 -6.29039977 0.08781015 0 0 Z " fill="#F7F7F7" id="path_55" transform="translate(184.625,585.625)"/>
<path d="M0 0 C13.89380739 -0.39009286 13.89380739 -0.39009286 20.2265625 3.15625 C21.421875 5.265625 21.421875 5.265625 22.2265625 7.15625 C14.05600666 8.43522759 6.01504962 9.35933141 -2.23828125 9.87109375 C-7.10272766 10.26347451 -11.89639885 10.9907537 -16.71484375 11.75390625 C-19.44970634 12.11366468 -22.02056495 12.23314588 -24.7734375 12.15625 C-23.11043784 5.9793941 -23.11043784 5.9793941 -19.62890625 3.8359375 C-13.09580652 1.12635697 -6.99825539 0.28978283 0 0 Z " fill="#F8F8F8" id="path_56" transform="translate(345.7734375,187.84375)"/>
<path d="M0 0 C2.98193359 3.74804688 2.98193359 3.74804688 3.14453125 6.015625 C3.03496094 6.75296875 2.92539062 7.4903125 2.8125 8.25 C2.69519531 9.13429687 2.57789063 10.01859375 2.45703125 10.9296875 C2.30621094 11.94289062 2.15539062 12.95609375 2 14 C-1.1525134 36.64765627 -1.13821175 59.18017741 -1 82 C-1.33 82 -1.66 82 -2 82 C-2.495 79.525 -2.495 79.525 -3 77 C-3.99 78.32 -4.98 79.64 -6 81 C-6.49576484 63.60818805 -5.96034727 46.55702808 -4.125 29.25 C-4.03786743 28.41910858 -3.95073486 27.58821716 -3.86096191 26.73214722 C-2.90624774 17.7546575 -1.81973373 8.85130244 0 0 Z " fill="#0F0F0F" id="path_57" transform="translate(322,230)"/>
<path d="M0 0 C0.33 0 0.66 0 1 0 C2.00041189 5.21377277 2.99723306 10.42821429 3.99072266 15.64331055 C4.32925214 17.41758803 4.66876468 19.19167823 5.00927734 20.96557617 C5.49835206 23.5143256 5.98389564 26.06372606 6.46875 28.61328125 C6.62186646 29.40712723 6.77498291 30.20097321 6.93273926 31.01887512 C7.50799046 34.05855853 8 36.89867422 8 40 C6.515 40.495 6.515 40.495 5 41 C5 40.34 5 39.68 5 39 C4.34 39 3.68 39 3 39 C2.14332688 34.19488403 1.28888392 29.38937894 0.43652344 24.58349609 C0.14612414 22.94796987 -0.1448889 21.31255251 -0.43652344 19.67724609 C-0.85512348 17.32938393 -1.27152913 14.9811417 -1.6875 12.6328125 C-1.81874268 11.89942657 -1.94998535 11.16604065 -2.08520508 10.41043091 C-3 5.22774341 -3 5.22774341 -3 3 C-2.34 3 -1.68 3 -1 3 C-0.67 2.01 -0.34 1.02 0 0 Z " fill="#0C0C0C" id="path_58" transform="translate(372,575)"/>
<path d="M0 0 C0.99 0.33 1.98 0.66 3 1 C4.25770823 4.7731247 4.36478796 8.43618638 4.5625 12.375 C4.6049585 13.17341309 4.64741699 13.97182617 4.69116211 14.79443359 C5.02637008 21.53501402 5.10731544 28.25105124 5 35 C3.046875 34.265625 3.046875 34.265625 1 33 C-2.2070497 23.37885091 -0.08685089 10.0974186 0 0 Z " fill="#151515" id="path_59" transform="translate(335,308)"/>
<path d="M0 0 C2.475 0.495 2.475 0.495 5 1 C5.50787046 3.99885414 6.00646625 6.99878126 6.5 10 C6.64308594 10.83917969 6.78617187 11.67835938 6.93359375 12.54296875 C7.78480242 17.77182201 8.14714583 22.70275027 8 28 C7.34 28 6.68 28 6 28 C5.34 28.66 4.68 29.32 4 30 C3.32840975 25.75076277 2.66357939 21.50049499 2 17.25 C1.80921875 16.0434375 1.6184375 14.836875 1.421875 13.59375 C1.24140625 12.43359375 1.0609375 11.2734375 0.875 10.078125 C0.70742188 9.00981445 0.53984375 7.94150391 0.3671875 6.84082031 C0 4 0 4 0 0 Z " fill="#141414" id="path_60" transform="translate(331,449)"/>
<path d="M0 0 C0.33 0 0.66 0 1 0 C1.08564209 0.60473145 1.17128418 1.20946289 1.25952148 1.83251953 C1.65143032 4.59678671 2.04445583 7.36089403 2.4375 10.125 C2.57220703 11.07632813 2.70691406 12.02765625 2.84570312 13.0078125 C3.51111123 17.6818987 4.1932839 22.34767608 5 27 C4.01 26.67 3.02 26.34 2 26 C1.34 26.33 0.68 26.66 0 27 C-0.69807416 23.21020032 -1.38165998 19.41793052 -2.0625 15.625 C-2.36124023 14.00464844 -2.36124023 14.00464844 -2.66601562 12.3515625 C-2.84970703 11.3203125 -3.03339844 10.2890625 -3.22265625 9.2265625 C-3.39547119 8.27346191 -3.56828613 7.32036133 -3.74633789 6.33837891 C-4 4 -4 4 -3 2 C-2.34 2.33 -1.68 2.66 -1 3 C-0.67 2.01 -0.34 1.02 0 0 Z " fill="#0D0D0D" id="path_61" transform="translate(346,518)"/>
<path d="M0 0 C1.9375 0.375 1.9375 0.375 4 1 C5.8840548 4.7681096 5.50432555 8.8966239 5 13 C2.74762676 19.64061765 -0.79202927 24.39760726 -6 29 C-6.66 28.67 -7.32 28.34 -8 28 C-7.236875 27.154375 -6.47375 26.30875 -5.6875 25.4375 C0.81308905 17.42256918 0.34232449 9.85133823 0 0 Z " fill="#EEEEEE" id="path_62" transform="translate(952,675)"/>
<path d="M0 0 C0.33 0.99 0.66 1.98 1 3 C-2.04111749 4.60520934 -5.08299233 6.20897836 -8.125 7.8125 C-8.9809375 8.26431641 -9.836875 8.71613281 -10.71875 9.18164062 C-15.12329618 11.50249765 -19.53530477 13.79692907 -24 16 C-21.95195344 11.43128075 -19.45953755 9.06398326 -15.05859375 6.73828125 C-13.93614258 6.14370117 -13.93614258 6.14370117 -12.79101562 5.53710938 C-11.62602539 4.93092773 -11.62602539 4.93092773 -10.4375 4.3125 C-9.65697266 3.89677734 -8.87644531 3.48105469 -8.07226562 3.05273438 C-2.26254618 0 -2.26254618 0 0 0 Z " fill="#100F10" id="path_63" transform="translate(831,673)"/>
<path d="M0 0 C1.125 3.75 1.125 3.75 0 6 C-3.8849347 7.9974636 -7.17859903 8.25696534 -11.5078125 8.265625 C-12.74144531 8.26820313 -13.97507813 8.27078125 -15.24609375 8.2734375 C-16.52613281 8.26570312 -17.80617187 8.25796875 -19.125 8.25 C-20.41277344 8.25773438 -21.70054687 8.26546875 -23.02734375 8.2734375 C-24.25839844 8.27085937 -25.48945313 8.26828125 -26.7578125 8.265625 C-28.44608154 8.26224121 -28.44608154 8.26224121 -30.16845703 8.25878906 C-33 8 -33 8 -36 6 C-20.655 5.505 -20.655 5.505 -5 5 C-4.34 3.68 -3.68 2.36 -3 1 C-2.01 0.67 -1.02 0.34 0 0 Z " fill="#F7F8F8" id="path_64" transform="translate(203,653)"/>
<path d="M0 0 C0.99 0 1.98 0 3 0 C3.6732656 2.89444095 4.33880404 5.79030013 5 8.6875 C5.28617187 9.91243164 5.28617187 9.91243164 5.578125 11.16210938 C6.48733916 15.17239326 7.27000098 18.85717252 7 23 C5.68 23 4.36 23 3 23 C2.49187886 20.48056604 1.99335466 17.95983127 1.5 15.4375 C1.35691406 14.73302734 1.21382813 14.02855469 1.06640625 13.30273438 C0.19125075 8.78109762 -0.14523405 4.60512972 0 0 Z " fill="#101010" id="path_65" transform="translate(355,587)"/>
<path d="M0 0 C0.66 0.33 1.32 0.66 2 1 C2 1.66 2 2.32 2 3 C1.39526855 3.31227539 0.79053711 3.62455078 0.16748047 3.94628906 C-2.59856855 5.37724147 -5.3617917 6.81357029 -8.125 8.25 C-9.07632813 8.74113281 -10.02765625 9.23226562 -11.0078125 9.73828125 C-16.89971179 12.79753152 -16.89971179 12.79753152 -22.4921875 16.359375 C-25 18 -25 18 -28 18 C-28 17.34 -28 16.68 -28 16 C-12.27734375 7.015625 -12.27734375 7.015625 -9.53857422 5.45898438 C-7.95737702 4.55022938 -6.3843638 3.62688715 -4.82470703 2.68164062 C-3.24872579 1.73204757 -1.62849336 0.85641882 0 0 Z " fill="#F5F4F5" id="path_66" transform="translate(829,670)"/>
<path d="M0 0 C3.875 0.875 3.875 0.875 5 2 C5.93119789 7.0698552 6.08997924 11.87118304 6 17 C5.01 17.33 4.02 17.66 3 18 C0.57188075 12.17251381 0.38272093 6.2242509 0 0 Z " fill="#121112" id="path_67" transform="translate(329,434)"/>
<path d="M0 0 C2.475 0.495 2.475 0.495 5 1 C5.33 4.3 5.66 7.6 6 11 C4.35 11.33 2.7 11.66 1 12 C0.67 8.04 0.34 4.08 0 0 Z " fill="#121212" id="path_68" transform="translate(319,355)"/>
<path d="M0 0 C0.33 0 0.66 0 1 0 C1.66 4.29 2.32 8.58 3 13 C1.35 12.67 -0.3 12.34 -2 12 C-2.33 9.03 -2.66 6.06 -3 3 C-2.34 3 -1.68 3 -1 3 C-0.67 2.01 -0.34 1.02 0 0 Z " fill="#191919" id="path_69" transform="translate(372,575)"/>
<path d="M0 0 C0.99 0 1.98 0 3 0 C4.29243536 4.1196377 5.26252625 7.66831683 5 12 C4.01 12.33 3.02 12.66 2 13 C-0.28571429 4.57142857 -0.28571429 4.57142857 0 0 Z " fill="#030303" id="path_70" transform="translate(347,543)"/>
<path d="M0 0 C0.99 0 1.98 0 3 0 C4.1577506 3.47325181 4.06866652 6.36067448 4 10 C3.01 10.33 2.02 10.66 1 11 C-0.17571451 7.32589215 -0.07366746 3.83070817 0 0 Z " fill="#030303" id="path_71" transform="translate(346,418)"/>
<path d="M0 0 C0.33 0 0.66 0 1 0 C1 2.64 1 5.28 1 8 C0.01 8.33 -0.98 8.66 -2 9 C-2.33 9.66 -2.66 10.32 -3 11 C-3.33 8.03 -3.66 5.06 -4 2 C-3.01 2.33 -2.02 2.66 -1 3 C-0.67 2.01 -0.34 1.02 0 0 Z " fill="#1B1B1B" id="path_72" transform="translate(346,518)"/>
<path d="M0 0 C1.98 0.99 1.98 0.99 4 2 C4 3.98 4 5.96 4 8 C3.34 8 2.68 8 2 8 C1.67 8.66 1.34 9.32 1 10 C-0.1577506 6.52674819 -0.06866652 3.63932552 0 0 Z " fill="#040404" id="path_73" transform="translate(340,501)"/>
<path d="M0 0 C0.66 0.33 1.32 0.66 2 1 C2 1.66 2 2.32 2 3 C-0.97 4.32 -3.94 5.64 -7 7 C-6 3 -6 3 -3.0625 1.1875 C-2.051875 0.795625 -1.04125 0.40375 0 0 Z " fill="#DCDDDD" id="path_74" transform="translate(829,670)"/>
<path d="M0 0 C0.33 0.66 0.66 1.32 1 2 C1.99 1.67 2.98 1.34 4 1 C5.0625 2.8125 5.0625 2.8125 6 5 C5.67 5.99 5.34 6.98 5 8 C3.66666667 8 2.33333333 8 1 8 C0.67 5.36 0.34 2.72 0 0 Z " fill="#242424" id="path_75" transform="translate(345,537)"/>
<path d="M0 0 C1.125 3.75 1.125 3.75 0 6 C-2.0625 6.625 -2.0625 6.625 -4 7 C-4.33 6.34 -4.66 5.68 -5 5 C-4.25 2.9375 -4.25 2.9375 -3 1 C-2.01 0.67 -1.02 0.34 0 0 Z " fill="#ECECEC" id="path_76" transform="translate(203,653)"/>
<path d="M0 0 C1.98 0 3.96 0 6 0 C5.67 1.32 5.34 2.64 5 4 C2.69 4 0.38 4 -2 4 C-1.34 2.68 -0.68 1.36 0 0 Z " fill="#FBFBFB" id="path_77" transform="translate(881,651)"/>
<path d="M0 0 C1.670625 0.37125 1.670625 0.37125 3.375 0.75 C3.705 1.41 4.035 2.07 4.375 2.75 C0.08200357 4.01264601 -2.50331311 3.37950412 -6.625 1.75 C-3.625 -0.25 -3.625 -0.25 0 0 Z " fill="#EBEBEC" id="path_78" transform="translate(194.625,586.25)"/>
<path d="M0 0 C1.32 0.33 2.64 0.66 4 1 C4 2.65 4 4.3 4 6 C3.01 6.33 2.02 6.66 1 7 C0.67 4.69 0.34 2.38 0 0 Z " fill="#020202" id="path_79" transform="translate(345,532)"/>
<path d="M0 0 C0.99 0 1.98 0 3 0 C3.33 2.64 3.66 5.28 4 8 C2.35 7.67 0.7 7.34 -1 7 C-0.67 4.69 -0.34 2.38 0 0 Z " fill="#1A1A1A" id="path_80" transform="translate(340,495)"/>
<path d="M0 0 C2 1.1875 2 1.1875 4 3 C4.25 5.6875 4.25 5.6875 4 8 C3.01 8.33 2.02 8.66 1 9 C0.67 6.03 0.34 3.06 0 0 Z " fill="#020202" id="path_81" transform="translate(338,489)"/>
<path d="M0 0 C1.32 0 2.64 0 4 0 C3.67 1.98 3.34 3.96 3 6 C2.01 5.67 1.02 5.34 0 5 C0 3.35 0 1.7 0 0 Z " fill="#020102" id="path_82" transform="translate(342,515)"/>
<path d="M0 0 C1.98 0.99 1.98 0.99 4 2 C4 3.65 4 5.3 4 7 C3.01 7.33 2.02 7.66 1 8 C0.67 5.36 0.34 2.72 0 0 Z " fill="#000000" id="path_83" transform="translate(331,444)"/>
<path d="M0 0 C-4.625 4 -4.625 4 -8 4 C-8 3.34 -8 2.68 -8 2 C-3.61016949 -1.20338983 -3.61016949 -1.20338983 0 0 Z " fill="#E0E0E0" id="path_84" transform="translate(809,684)"/>
</svg>