<?xml version="1.0" encoding="utf-8"?>
<svg height="1024" id="svg_4" version="1.1" width="1024" xmlns="http://www.w3.org/2000/svg">
<path d="M0 0 C337.92 0 675.84 0 1024 0 C1024 337.92 1024 675.84 1024 1024 C686.08 1024 348.16 1024 0 1024 C0 686.08 0 348.16 0 0 Z " fill="#FEFEFE" id="path_85" transform="translate(0,0)"/>
<path d="M0 0 C26.99196552 5.56443145 52.60336029 12.89974377 77 26 C78.07628662 26.56823486 78.07628662 26.56823486 79.17431641 27.14794922 C94.78805943 35.41365009 109.00033505 45.25607108 123 56 C123.845625 56.639375 124.69125 57.27875 125.5625 57.9375 C126.34625 58.535625 127.13 59.13375 127.9375 59.75 C128.60652344 60.26046875 129.27554688 60.7709375 129.96484375 61.296875 C132.46586482 63.38986001 134.70042576 65.68709489 137 68 C138.7442743 69.63092889 140.50461939 71.24351898 142.26464844 72.85742188 C153.68662776 83.35705751 163.62214509 94.65588168 173 107 C173.46051758 107.60360352 173.92103516 108.20720703 174.39550781 108.82910156 C181.51797889 118.20760412 187.91658411 127.92094633 194 138 C194.46132324 138.75692139 194.92264648 139.51384277 195.39794922 140.29370117 C203.81550074 154.18169492 212.14542432 168.40277904 217.75390625 183.68359375 C218.70990588 186.22793131 219.73820898 188.61720762 220.8828125 191.07421875 C225.73972711 201.89070498 228.64523968 213.64092492 232 225 C232.32436035 226.08603516 232.6487207 227.17207031 232.98291016 228.29101562 C237.38510362 243.25894498 240.30534498 258.3805035 242.875 273.75 C243.02656555 274.63504211 243.1781311 275.52008423 243.33428955 276.4319458 C245.68183592 290.28597511 246.70249874 303.95794053 247 318 C247.02052429 318.92240479 247.04104858 319.84480957 247.06219482 320.79516602 C247.19544316 327.32188537 247.2446998 333.84700607 247.25 340.375 C247.25133942 341.3709317 247.25267883 342.3668634 247.25405884 343.39297485 C247.24985338 358.03305699 246.76970727 372.58735822 245.6875 387.1875 C245.62864624 388.00152283 245.56979248 388.81554565 245.50915527 389.65423584 C244.82854486 398.81075505 243.82658587 407.8995468 242.51953125 416.98828125 C242.39986496 417.84447556 242.28019867 418.70066986 242.15690613 419.58280945 C242.03656509 420.37830704 241.91622406 421.17380463 241.79223633 421.9934082 C241.68776688 422.69585159 241.58329742 423.39829498 241.47566223 424.12202454 C241 426 241 426 239 429 C228.24377745 431.50364014 216.80392317 431.36660503 205.8125 431.3125 C205.00931335 431.31034485 204.20612671 431.3081897 203.37860107 431.30596924 C165.98624698 431.14866366 128.99679755 427.12520639 92 422 C90.25719757 421.75869354 90.25719757 421.75869354 88.47918701 421.51251221 C70.97546248 419.08257508 53.48064845 416.59088036 36 414 C34.9296048 413.84178772 33.85920959 413.68357544 32.75637817 413.52056885 C16.0076269 411.03290083 -0.65875944 408.18167253 -17.3125 405.125 C-18.50503387 404.90689667 -19.69756775 404.68879333 -20.92623901 404.46408081 C-34.82205367 401.92011093 -48.71630125 399.36579155 -62.5625 396.5625 C-63.68245361 396.34029785 -64.80240723 396.1180957 -65.95629883 395.88916016 C-66.96200928 395.67952637 -67.96771973 395.46989258 -69.00390625 395.25390625 C-70.25409546 394.99589233 -70.25409546 394.99589233 -71.52954102 394.73266602 C-74.55899121 393.83421953 -77.21209384 392.47460964 -80 391 C-76.69493464 370.71003184 -73.13967531 350.47708595 -69.38537598 330.26574707 C-68.86964466 327.48452258 -68.35726789 324.70268424 -67.84483337 321.92085075 C-65.2562535 307.8756134 -62.59799083 293.84915626 -59.74981689 279.85374451 C-58.41047469 273.21741476 -57.22440432 266.56788903 -56.109375 259.890625 C-53.90443275 246.81705916 -51.02425765 233.89180748 -48.17300415 220.94796753 C-43.78121979 200.99693762 -39.45434365 181.04138306 -35.8125 160.9375 C-35.66233429 160.11038513 -35.51216858 159.28327026 -35.35745239 158.43109131 C-34.74137645 155.03590336 -34.12575285 151.64063391 -33.51115417 148.24517822 C-27.97057386 117.75795278 -21.90079857 87.36161656 -15.125 57.125 C-14.9020224 56.12523132 -14.6790448 55.12546265 -14.4493103 54.09539795 C-11.65669743 41.61929916 -8.55391367 29.28098903 -5 17 C-4.71576172 16.01241699 -4.43152344 15.02483398 -4.13867188 14.00732422 C-3.49647264 11.79399935 -2.84536729 9.58370854 -2.1875 7.375 C-1.97158203 6.64539063 -1.75566406 5.91578125 -1.53320312 5.1640625 C-1.02347419 3.44231142 -0.51196874 1.7210864 0 0 Z " fill="#FEFEFE" id="path_86" transform="translate(698,210)"/>
<path d="M0 0 C2.91703934 0.01076579 5.83346673 -0.00000624 8.75048828 -0.01269531 C21.20990526 -0.02053685 33.41662921 0.77571614 45.78564453 2.26074219 C45.17192317 10.38751938 43.75589979 18.2862422 42.20361328 26.28027344 C41.94519409 27.62807407 41.68717148 28.97595078 41.42951965 30.32389832 C40.7526865 33.85926417 40.07063548 37.39360293 39.38739014 40.92773438 C38.70652216 44.45416301 38.03041364 47.98150308 37.35400391 51.50878906 C36.30891683 56.95610357 35.26123039 62.402911 34.21166992 67.84936523 C33.00135013 74.1333424 31.80039662 80.41904209 30.60595703 86.70605469 C29.05547643 94.86285366 27.48257889 103.01508162 25.89389038 111.16452026 C25.45012232 113.44136229 25.00710068 115.71834868 24.56420898 117.99536133 C23.22514698 124.87830056 21.88425426 131.76087199 20.53660583 138.64213562 C17.03258641 156.53643948 13.59400896 174.44278358 10.20327759 192.35891724 C9.76459057 194.67631648 9.32529829 196.99360124 8.88534546 199.3107605 C6.77319297 210.44164098 4.69774632 221.56904529 2.89016724 232.75370789 C1.99321657 238.21941598 0.93319501 243.64290518 -0.17529297 249.06933594 C-1.56568297 255.87790222 -2.84336812 262.69428116 -4.00341797 269.54589844 C-8.44661432 295.70649002 -13.84628876 321.5015148 -20.21435547 347.26074219 C-20.67503418 349.12883545 -20.67503418 349.12883545 -21.14501953 351.03466797 C-29.61125515 385.05454154 -29.61125515 385.05454154 -33.21435547 392.26074219 C-50.85670669 389.07846251 -68.16346833 384.61102407 -85.51873779 380.16656494 C-88.57501983 379.38515157 -91.63254997 378.60869316 -94.69013786 377.83240795 C-112.16886629 373.39378034 -129.62267643 368.86844889 -147.04190063 364.20137024 C-154.2786552 362.26705914 -161.52129275 360.42550352 -168.83935547 358.82324219 C-175.53373669 357.35440577 -182.1904237 355.78106958 -188.83154297 354.08886719 C-189.61865662 353.8884935 -190.40577026 353.68811981 -191.21673584 353.48167419 C-192.02483704 353.27591263 -192.83293823 353.07015106 -193.66552734 352.8581543 C-212.81446505 347.98262976 -232.0289986 343.57702281 -251.36083984 339.48461914 C-252.78207657 339.18229118 -252.78207657 339.18229118 -254.23202515 338.87385559 C-256.00152127 338.49810691 -257.77168362 338.12547587 -259.54263306 337.75663757 C-262.90704007 337.04310433 -266.12927382 336.28915062 -269.39575195 335.19848633 C-274.80606672 333.39848468 -280.51634628 332.94062772 -286.15185547 332.19824219 C-286.81010315 332.11014282 -287.46835083 332.02204346 -288.14654541 331.93127441 C-300.48202387 330.29432116 -312.77386293 329.50515265 -325.21435547 329.26074219 C-325.60376861 321.67193489 -324.14179568 314.61923712 -322.65185547 307.19824219 C-322.37955669 305.82486991 -322.10725853 304.45149751 -321.83496094 303.078125 C-320.98087991 298.80159544 -320.10271626 294.53027143 -319.21435547 290.26074219 C-319.07431091 289.58738831 -318.93426636 288.91403442 -318.78997803 288.22027588 C-311.61774416 253.89474183 -302.21448589 219.09116249 -287.21435547 187.26074219 C-286.67552734 186.06578125 -286.13669922 184.87082031 -285.58154297 183.63964844 C-275.82265772 162.06586867 -263.71393314 142.28205505 -250.46435547 122.69824219 C-249.86276611 121.80645264 -249.26117676 120.91466309 -248.64135742 119.99584961 C-240.16532099 107.59282622 -240.16532099 107.59282622 -235.21435547 102.26074219 C-234.55435547 102.26074219 -233.89435547 102.26074219 -233.21435547 102.26074219 C-232.97072266 101.68839844 -232.72708984 101.11605469 -232.47607422 100.52636719 C-230.98918249 97.8564068 -229.23351639 96.12245212 -227.02685547 94.01074219 C-224.04536988 91.10104196 -221.18405947 88.1667943 -218.46435547 85.01074219 C-215.82460583 81.94838762 -213.20043272 78.99086996 -210.21435547 76.26074219 C-209.55435547 76.26074219 -208.89435547 76.26074219 -208.21435547 76.26074219 C-207.71935547 74.77574219 -207.71935547 74.77574219 -207.21435547 73.26074219 C-203.77335848 70.003077 -199.94650788 67.17705212 -196.21435547 64.26074219 C-195.56241211 63.74592285 -194.91046875 63.23110352 -194.23876953 62.70068359 C-186.25618416 56.40722679 -178.29039354 50.36043659 -169.50805664 45.21679688 C-166.39103342 43.36566723 -163.34421977 41.42964096 -160.28857422 39.47949219 C-153.70310831 35.37133629 -146.84879281 32.08660878 -139.75805664 28.95043945 C-137.77682297 28.0732278 -135.80298433 27.18081978 -133.82958984 26.28613281 C-121.65121399 20.8077165 -109.35367888 16.27972474 -96.33935547 13.19824219 C-94.23509644 12.68950949 -92.13092968 12.18039498 -90.02685547 11.67089844 C-89.02396484 11.43000488 -88.02107422 11.18911133 -86.98779297 10.94091797 C-84.65693979 10.36928443 -82.34086264 9.76738124 -80.02685547 9.13183594 C-71.9430701 6.94818629 -63.857224 5.4374917 -55.58935547 4.13574219 C-54.59564941 3.97702637 -53.60194336 3.81831055 -52.578125 3.65478516 C-35.10282755 1.02893465 -17.66002875 -0.07715691 0 0 Z " fill="#FEFEFE" id="path_87" transform="translate(615.21435546875,201.7392578125)"/>
<path d="M0 0 C1.07012329 0.06760025 1.07012329 0.06760025 2.16186523 0.13656616 C13.1162708 0.84767013 23.67607215 2.2249844 34.36376953 4.76367188 C36.80638918 5.3254694 39.25435802 5.81970141 41.71484375 6.296875 C60.60990923 9.99121885 79.25790627 14.77248242 97.94326782 19.3895874 C104.8085443 21.08481269 111.68198209 22.74271204 118.5625 24.375 C142.31875734 30.04325467 166.01029288 35.98552492 189.59130859 42.34326172 C203.78197548 46.15433827 218.03868829 49.6959155 232.30419922 53.21435547 C235.18704587 53.92552608 238.0688974 54.64048614 240.94970703 55.35986328 C257.75490876 59.55525849 274.59611233 63.38847106 291.56289673 66.87612915 C302.99652216 69.2308279 314.27281524 71.89649935 325.54760742 74.93408203 C335.52293066 77.59489395 345.58047521 79.55763023 355.75 81.3125 C355.75 81.9725 355.75 82.6325 355.75 83.3125 C354.83863281 83.81136719 353.92726563 84.31023437 352.98828125 84.82421875 C345.06768964 89.19979919 337.30067897 93.7697862 329.625 98.5625 C310.07176623 110.75569787 290.2669194 122.16019128 269.60986328 132.37109375 C265.26627255 134.52532743 261.00288879 136.79490948 256.75 139.125 C247.45851597 144.15530277 237.81222014 148.41686487 228.18261719 152.75146484 C225.23173186 154.09342507 222.29285179 155.45797904 219.35920715 156.83714294 C170.10926863 179.97750662 114.74601525 199.45835441 59.75 197.3125 C58.81929688 197.28591309 57.88859375 197.25932617 56.9296875 197.23193359 C25.13846437 196.17619645 -5.09213952 184.41232329 -33.25 170.3125 C-33.98299316 169.94995117 -34.71598633 169.58740234 -35.47119141 169.21386719 C-49.18144084 162.39366337 -62.17720285 154.41622259 -75.20970154 146.40419006 C-80.36860833 143.23372274 -85.55339227 140.10816857 -90.75 137 C-91.54253174 136.52522217 -92.33506348 136.05044434 -93.15161133 135.5612793 C-95.51730864 134.14429601 -97.88357896 132.72827426 -100.25 131.3125 C-103.62560785 129.29267989 -107.00049153 127.27165622 -110.375 125.25 C-111.20290039 124.75491943 -112.03080078 124.25983887 -112.88378906 123.74975586 C-116.92412231 121.32881296 -120.94892871 118.88744963 -124.9453125 116.39453125 C-144.30126962 104.33364679 -164.12487666 95.11422169 -186.25 89.3125 C-189.15649541 88.54556632 -192.06199551 87.77528187 -194.96582031 86.99829102 C-196.96333338 86.46451721 -198.9626602 85.93747796 -200.96386719 85.41772461 C-201.87813477 85.17417236 -202.79240234 84.93062012 -203.734375 84.6796875 C-204.55647461 84.46425293 -205.37857422 84.24881836 -206.22558594 84.02685547 C-208.25 83.3125 -208.25 83.3125 -210.25 81.3125 C-174.03211719 64.02354724 -174.03211719 64.02354724 -159.09765625 57.91015625 C-154.86604269 56.17472509 -150.73657015 54.2425084 -146.6027832 52.28637695 C-123.56896317 41.42516558 -100.13346621 31.39532382 -76.72589111 21.3727417 C-75.04905012 20.65467428 -73.37242057 19.9361129 -71.69598389 19.21710205 C-66.54332279 17.00739686 -61.38729954 14.805852 -56.22653198 12.61514282 C-54.60171414 11.92451866 -52.97776019 11.23185774 -51.35476685 10.53695679 C-33.8128308 3.03309136 -19.23640418 -1.25320854 0 0 Z " fill="#FEFEFE" id="path_88" transform="translate(309.25,541.6875)"/>
<path d="M0 0 C2.83446854 2.15482831 4.70070518 4.12593724 5.6484375 7.60546875 C6.20358511 13.39181502 5.88268204 18.84140606 5.1015625 24.59765625 C6.3596875 24.80390625 7.6178125 25.01015625 8.9140625 25.22265625 C40.40180746 31.66931156 70.85995136 46.53021197 97.34521484 64.41992188 C98.93345552 65.48493063 100.54184862 66.51973443 102.15234375 67.55078125 C102.98121094 68.081875 103.81007813 68.61296875 104.6640625 69.16015625 C105.34597656 69.59457031 106.02789063 70.02898437 106.73046875 70.4765625 C107.18292969 70.84652344 107.63539063 71.21648437 108.1015625 71.59765625 C108.1015625 72.25765625 108.1015625 72.91765625 108.1015625 73.59765625 C108.61847656 73.81679687 109.13539063 74.0359375 109.66796875 74.26171875 C113.08623424 76.13819836 116.00114892 78.53976445 119.0390625 80.97265625 C119.64685547 81.45476562 120.25464844 81.936875 120.88085938 82.43359375 C122.07018523 83.37786973 123.25696085 84.32536842 124.44091797 85.27636719 C125.95663721 86.48234668 127.4985892 87.6551665 129.04296875 88.82421875 C129.72230469 89.40945313 130.40164063 89.9946875 131.1015625 90.59765625 C131.1015625 91.25765625 131.1015625 91.91765625 131.1015625 92.59765625 C131.9059375 92.91283203 131.9059375 92.91283203 132.7265625 93.234375 C136.01471363 95.12181701 138.4737537 97.72055491 141.1015625 100.41015625 C141.62234375 100.93158203 142.143125 101.45300781 142.6796875 101.99023438 C145.70343434 105.04834197 148.44636133 108.20816272 151.1015625 111.59765625 C151.8440625 112.34015625 152.5865625 113.08265625 153.3515625 113.84765625 C166.10462083 126.60071458 176.05293573 141.1814391 185.66943359 156.34716797 C186.8364467 158.1810457 188.02284797 160.00257402 189.21484375 161.8203125 C194.02213145 169.30403447 198.11378801 177.15463644 202.2265625 185.03515625 C202.81300537 186.1547876 203.39944824 187.27441895 204.00366211 188.42797852 C220.3818867 220.16093306 230.59701468 253.55853369 237.47607422 288.44970703 C237.99147306 291.04359954 238.52339978 293.63221818 239.07421875 296.21875 C243.94797338 319.3629617 244.36441232 342.7188185 244.4140625 366.28515625 C244.41668091 367.48211121 244.41929932 368.67906616 244.42199707 369.91229248 C244.42638438 388.90213557 243.70260351 407.78212231 242.3515625 426.72265625 C242.27306061 427.88074799 242.19455872 429.03883972 242.11367798 430.23202515 C239.85417972 462.76607042 239.85417972 462.76607042 233.2265625 468.84765625 C220.98463861 475.70313363 205.07753423 473.80345885 191.4140625 473.78515625 C189.95070969 473.78325287 189.95070969 473.78325287 188.45779419 473.78131104 C144.37419993 473.67266551 101.02181754 468.05155069 57.4140625 461.97265625 C56.40803986 461.83276276 55.40201721 461.69286926 54.36550903 461.54873657 C41.40188073 459.73667958 28.48590654 457.70838119 15.58178711 455.51269531 C8.56193811 454.32524513 1.52063421 453.2896059 -5.5234375 452.2578125 C-9.24432576 451.7068965 -12.94552942 451.07205107 -16.6484375 450.41015625 C-32.12498718 447.94944961 -41.8407611 455.81020238 -54.75823975 463.76159668 C-57.81539715 465.64255027 -60.88017616 467.51099168 -63.9453125 469.37890625 C-64.54886566 469.74683289 -65.15241882 470.11475952 -65.77426147 470.49383545 C-71.47642619 473.96268079 -77.23585346 477.32404637 -83.02905273 480.63793945 C-87.08283514 482.95896128 -91.10864713 485.31630893 -95.10546875 487.734375 C-106.58860181 494.66447416 -118.24478414 500.92836713 -130.2890625 506.828125 C-135.0709508 509.17163616 -139.77591069 511.62993508 -144.4609375 514.16015625 C-164.04568653 524.62945568 -184.32301936 533.30070237 -204.8984375 541.59765625 C-206.09227051 542.08540527 -207.28610352 542.5731543 -208.51611328 543.07568359 C-217.84283394 546.86024373 -227.25532946 550.32517094 -236.7734375 553.59765625 C-237.53034882 553.85844971 -238.28726013 554.11924316 -239.06710815 554.38793945 C-251.63720739 558.69616183 -264.23414491 562.25288667 -277.23974609 565.02148438 C-280.43564733 565.71407638 -283.60935454 566.48272803 -286.7824707 567.27246094 C-302.34194399 570.86533745 -318.00975712 571.9562761 -333.95068359 571.91333008 C-336.39856064 571.91015609 -338.84523798 571.93382809 -341.29296875 571.95898438 C-356.34318461 572.01980812 -371.08751325 570.09329189 -385.5859375 565.97265625 C-386.48618652 565.72032227 -387.38643555 565.46798828 -388.31396484 565.20800781 C-411.89430993 558.38500068 -433.45773571 548.06429378 -454.66650391 535.86962891 C-457.15432902 534.45182439 -459.65606402 533.06074079 -462.16015625 531.671875 C-473.50373023 525.35955922 -484.62136913 518.78184496 -495.56640625 511.79833984 C-498.32987697 510.04146621 -501.11305907 508.31951307 -503.8984375 506.59765625 C-504.82873779 505.98688232 -505.75903809 505.3761084 -506.7175293 504.74682617 C-512.76014066 500.98534153 -512.76014066 500.98534153 -519.63671875 501.078125 C-521.17721961 501.60296854 -522.70302967 502.17293273 -524.2109375 502.78515625 C-524.95021484 503.03974609 -525.68949219 503.29433594 -526.45117188 503.55664062 C-531.3609905 505.32882368 -535.85039916 507.63413004 -540.44921875 510.09375 C-548.23953764 514.14753947 -556.20265626 515.84068026 -564.7734375 517.47265625 C-566.23212737 517.76777443 -567.69046393 518.06464445 -569.1484375 518.36328125 C-591.90376192 522.95477315 -616.19218283 525.08627613 -636.9609375 512.78515625 C-638.96421417 511.42415149 -640.94509155 510.02940029 -642.8984375 508.59765625 C-643.82398438 507.94539062 -644.74953125 507.293125 -645.703125 506.62109375 C-651.45268196 502.33878278 -655.50296212 497.91260579 -658.8984375 491.59765625 C-659.32253906 490.83839844 -659.74664063 490.07914063 -660.18359375 489.296875 C-663.61039748 482.19932558 -663.41188518 475.2464577 -661.8984375 467.59765625 C-651.48219838 443.85093937 -616.58268941 433.48389879 -594.42822266 423.72363281 C-589.70979389 421.62351764 -585.02612641 419.44739993 -580.3359375 417.28515625 C-567.94247854 411.59094442 -555.4898734 406.03472048 -543.01135254 400.52978516 C-541.53234466 399.87730933 -540.05342987 399.22462247 -538.57458496 398.57177734 C-518.84753181 389.86350044 -499.11269131 381.1875283 -479.2265625 372.84765625 C-475.29736411 371.19733755 -471.39268224 369.50123925 -467.50097656 367.76464844 C-460.60535943 364.68781774 -453.63275778 361.87148263 -446.5859375 359.16015625 C-445.67094482 358.80542236 -444.75595215 358.45068848 -443.81323242 358.08520508 C-442.95834229 357.76060303 -442.10345215 357.43600098 -441.22265625 357.1015625 C-440.46041748 356.81095947 -439.69817871 356.52035645 -438.9128418 356.22094727 C-436.8984375 355.59765625 -436.8984375 355.59765625 -433.8984375 355.59765625 C-433.84292725 354.92541016 -433.78741699 354.25316406 -433.73022461 353.56054688 C-432.1008105 334.65868547 -428.30682937 316.29894429 -424.0234375 297.84765625 C-423.81687531 296.95216064 -423.61031311 296.05666504 -423.39749146 295.1340332 C-419.10589104 276.61035913 -414.23225074 258.34283114 -407.5234375 240.53515625 C-407.04210382 239.24433207 -406.56107121 237.95339559 -406.08032227 236.66235352 C-404.70049408 232.96871969 -403.30157027 229.28250436 -401.8984375 225.59765625 C-401.34470459 224.13585937 -401.34470459 224.13585937 -400.77978516 222.64453125 C-393.36768065 203.19175627 -384.36634468 184.5859383 -373.8984375 166.59765625 C-373.41584473 165.76814453 -372.93325195 164.93863281 -372.43603516 164.08398438 C-358.96798182 141.05530264 -358.96798182 141.05530264 -352.8984375 133.59765625 C-352.2384375 133.59765625 -351.5784375 133.59765625 -350.8984375 133.59765625 C-350.65867187 133.06011719 -350.41890625 132.52257812 -350.171875 131.96875 C-343.41372214 119.38531814 -331.91574586 108.58385496 -321.8984375 98.59765625 C-320.9503639 97.61729428 -320.00382443 96.63544705 -319.05859375 95.65234375 C-312.01260143 88.38420616 -304.66649564 81.92528278 -296.56982422 75.85449219 C-294.98233795 74.66074704 -293.4105969 73.44614743 -291.83984375 72.23046875 C-271.00675889 56.23907028 -247.70050272 43.74698676 -223.2109375 34.34765625 C-222.41727783 34.0427124 -221.62361816 33.73776855 -220.8059082 33.42358398 C-207.83737711 28.57723515 -194.54628095 24.7421229 -181.0859375 21.53515625 C-180.01599548 21.27893997 -180.01599548 21.27893997 -178.92443848 21.01754761 C-162.09366819 17.04113097 -145.10646015 15.08190618 -127.8984375 13.59765625 C-126.78871582 13.49453125 -125.67899414 13.39140625 -124.53564453 13.28515625 C-114.73339884 12.46165743 -104.9470815 12.44512766 -95.11767578 12.46728516 C-92.24376307 12.47271229 -89.37000214 12.46727306 -86.49609375 12.4609375 C-84.65885382 12.46159723 -82.82161399 12.46287622 -80.984375 12.46484375 C-80.13024017 12.46281952 -79.27610535 12.46079529 -78.39608765 12.45870972 C-77.60070587 12.46186188 -76.8053241 12.46501404 -75.98583984 12.46826172 C-75.29082367 12.46905731 -74.5958075 12.46985291 -73.87973022 12.47067261 C-71.78429523 12.60497178 -69.91582427 13.02880718 -67.8984375 13.59765625 C-67.8159375 12.40140625 -67.7334375 11.20515625 -67.6484375 9.97265625 C-67.08055535 5.62912522 -65.807089 2.96556851 -62.8984375 -0.40234375 C-58.10593884 -3.72022744 -53.5926243 -5.32736643 -47.8984375 -6.40234375 C-46.97804688 -6.57894531 -46.05765625 -6.75554687 -45.109375 -6.9375 C-30.12129368 -9.10730739 -13.23127205 -7.68069198 0 0 Z M-146.8984375 26.59765625 C-147.85943359 26.72624023 -148.82042969 26.85482422 -149.81054688 26.98730469 C-162.73589086 28.76465255 -175.33233142 31.82039687 -187.9609375 35.03515625 C-188.70024506 35.22225159 -189.43955261 35.40934692 -190.20126343 35.60211182 C-204.67641581 39.29037476 -218.36404522 44.09469648 -231.8984375 50.47265625 C-233.02765625 51.00076904 -234.156875 51.52888184 -235.3203125 52.07299805 C-238.51696281 53.57303909 -241.70842438 55.08356349 -244.8984375 56.59765625 C-245.68476563 56.96745605 -246.47109375 57.33725586 -247.28125 57.71826172 C-254.11629057 60.94249069 -260.41178168 64.39694398 -266.50390625 68.875 C-268.90567361 70.602862 -271.36810512 72.12813407 -273.8984375 73.66015625 C-282.35513175 78.97579263 -290.136918 85.32636302 -297.8984375 91.59765625 C-298.59259766 92.1582373 -299.28675781 92.71881836 -300.00195312 93.29638672 C-301.67494633 94.68228084 -303.29277004 96.13429001 -304.8984375 97.59765625 C-304.8984375 98.25765625 -304.8984375 98.91765625 -304.8984375 99.59765625 C-305.46949219 99.84257812 -306.04054688 100.0875 -306.62890625 100.33984375 C-313.28337198 104.0278609 -318.42843297 111.07972554 -323.32421875 116.80859375 C-324.76584931 118.4469729 -326.26098209 119.96387544 -327.8359375 121.47265625 C-330.13059596 123.34329324 -330.13059596 123.34329324 -329.8984375 125.59765625 C-331.3834375 126.09265625 -331.3834375 126.09265625 -332.8984375 126.59765625 C-334.5603066 128.50157379 -336.08120804 130.388302 -337.5859375 132.41015625 C-338.25230225 133.29356689 -338.25230225 133.29356689 -338.93212891 134.19482422 C-343.15421468 139.84396589 -347.09849788 145.65713227 -350.8984375 151.59765625 C-351.34977051 152.30196777 -351.80110352 153.0062793 -352.26611328 153.73193359 C-355.36125605 158.5732638 -358.42561198 163.43301463 -361.46728516 168.30810547 C-362.35869459 169.73417809 -363.25359155 171.15808409 -364.15380859 172.57861328 C-370.48674999 182.57673454 -375.67451437 192.97838178 -380.58935547 203.73925781 C-381.46267994 205.64617369 -382.34454536 207.5492009 -383.23486328 209.44824219 C-399.54210722 244.24878222 -409.30923373 281.1442529 -416.73295593 318.7339325 C-417.53710771 322.80391833 -418.36723288 326.86710137 -419.2265625 330.92578125 C-419.41774658 331.83924316 -419.60893066 332.75270508 -419.8059082 333.69384766 C-420.14285011 335.30142217 -420.48459259 336.90800368 -420.83276367 338.51318359 C-421.81600935 343.29365921 -422.03557879 347.71542626 -421.8984375 352.59765625 C-420.58617187 352.6234375 -419.27390625 352.64921875 -417.921875 352.67578125 C-406.32842516 352.99394577 -394.90060634 353.90968481 -383.3984375 355.41015625 C-382.18462402 355.56323242 -380.97081055 355.71630859 -379.72021484 355.87402344 C-372.18931451 356.90481478 -365.02300995 358.53837535 -357.70458984 360.57788086 C-351.90514003 362.13171677 -346.03150696 363.30712439 -340.15356445 364.5184021 C-316.77387663 369.36205332 -293.66791032 375.31579545 -270.52877808 381.1824646 C-263.57272782 382.94046704 -256.60481967 384.63685389 -249.62109375 386.28125 C-241.4836155 388.19835504 -233.40492681 390.28352862 -225.3359375 392.47265625 C-209.8679699 396.62342624 -194.34524283 400.55895884 -178.81228638 404.45806885 C-176.1438308 405.12791283 -173.47594623 405.7999579 -170.80856323 406.47406006 C-150.47961991 411.62104844 -150.47961991 411.62104844 -129.8984375 415.59765625 C-123.35166107 396.16965484 -117.91859995 376.59669152 -113.35809326 356.60760498 C-112.89474092 354.5814921 -112.42647 352.55656207 -111.95751953 350.53173828 C-106.82843253 328.30160363 -102.73177978 305.93682327 -98.95556641 283.43920898 C-97.37102288 274.0101267 -95.76752425 264.62422528 -93.68286133 255.2902832 C-92.01314851 247.43021273 -90.6552353 239.50653321 -89.22570801 231.59991455 C-86.33256519 215.61360277 -83.37894022 199.64446832 -80.1484375 183.72265625 C-77.91341771 172.70456606 -75.7662177 161.67634045 -73.74560547 150.61645508 C-71.91494684 140.61412806 -69.98617513 130.63185185 -68.04077148 120.65136719 C-66.83610111 114.46582433 -65.64725974 108.27837978 -64.49145508 102.08349609 C-63.01582332 94.19344509 -61.50160152 86.31109214 -59.98046875 78.4296875 C-59.30553699 74.91998007 -58.63189688 71.41002463 -57.9582262 67.90007496 C-57.26131309 64.27041954 -56.56267351 60.6411114 -55.8605957 57.01245117 C-55.17231017 53.45456283 -54.48852666 49.89583569 -53.80780602 46.33649254 C-53.54988252 44.99221302 -53.29033638 43.64824373 -53.02909279 42.30460548 C-52.66590997 40.43542407 -52.3090166 38.56502394 -51.95239258 36.69458008 C-51.74826248 35.63475418 -51.54413239 34.57492828 -51.33381653 33.48298645 C-50.92885601 30.79924482 -50.81424678 28.30585949 -50.8984375 25.59765625 C-65.05914025 23.91451924 -79.0170189 23.23212131 -93.2734375 23.28515625 C-94.27190704 23.28664673 -95.27037659 23.28813721 -96.29910278 23.28967285 C-113.33878357 23.33515046 -130.00890413 24.20663644 -146.8984375 26.59765625 Z M-13.8984375 31.59765625 C-26.55743171 72.55680578 -34.80652994 114.65091504 -43.0859375 156.66015625 C-43.30798733 157.78647461 -43.30798733 157.78647461 -43.53452301 158.93554688 C-47.56871962 179.40131193 -47.56871962 179.40131193 -51.44335938 199.89770508 C-51.56804061 200.57181616 -51.69272184 201.24592724 -51.8211813 201.94046593 C-51.94508267 202.61052477 -52.06898405 203.28058361 -52.19664001 203.97094727 C-55.39914902 221.28744356 -59.02350551 238.49432382 -62.79931641 255.69458008 C-65.83790691 269.56736363 -68.68373867 283.42727451 -71.01025391 297.43847656 C-71.92875931 302.91391184 -73.02778737 308.34802564 -74.1484375 313.78515625 C-76.84377367 327.05090604 -79.25648451 340.36393967 -81.6550293 353.68603516 C-82.00039214 355.60320743 -82.34585258 357.52036212 -82.69140625 359.4375 C-82.86621017 360.40737854 -83.0410141 361.37725708 -83.22111511 362.37652588 C-84.59936408 369.99912529 -86.01949559 377.61347018 -87.44921875 385.2265625 C-88.08045427 388.60327514 -88.71113828 391.98009036 -89.3416748 395.35693359 C-89.75335807 397.55290229 -90.1676505 399.74838349 -90.58459473 401.94335938 C-91.16594773 405.00529973 -91.73819395 408.06881582 -92.30859375 411.1328125 C-92.48522049 412.04946182 -92.66184723 412.96611115 -92.84382629 413.91053772 C-92.99856918 414.75096115 -93.15331207 415.59138458 -93.31274414 416.45727539 C-93.45071915 417.18838028 -93.58869415 417.91948517 -93.73085022 418.67274475 C-94.04598597 420.81720981 -94.04598597 420.81720981 -92.8984375 423.59765625 C-90.98062846 424.54160008 -90.98062846 424.54160008 -88.5859375 425.12109375 C-87.67328125 425.36956055 -86.760625 425.61802734 -85.8203125 425.87402344 C-80.86658031 427.10086687 -75.89837693 428.20044641 -70.8984375 429.22265625 C-69.69147217 429.47063965 -68.48450684 429.71862305 -67.2409668 429.97412109 C-54.43250149 432.57361521 -41.57148996 434.89770845 -28.7109375 437.22265625 C-27.15934937 437.5043869 -27.15934937 437.5043869 -25.57641602 437.79180908 C1.50013123 442.69614923 28.7165956 446.59335362 55.95996094 450.43432617 C59.38801986 450.91774323 62.81573854 451.40346999 66.24316406 451.89135742 C93.3817441 455.75374434 120.48168578 459.49690639 147.8515625 461.28515625 C148.79615326 461.34802826 149.74074402 461.41090027 150.71395874 461.47567749 C164.44753945 462.37266322 178.15104537 462.89012858 191.9140625 462.91015625 C192.67722778 462.91365082 193.44039307 462.91714539 194.22668457 462.92074585 C204.4565791 462.94705129 215.09976398 462.92569513 225.1015625 460.59765625 C226.97523824 457.78714264 227.42314037 456.75573049 227.89379883 453.59106445 C228.01413986 452.79556686 228.1344809 452.00006927 228.25846863 451.1804657 C228.37813492 450.32427139 228.49780121 449.46807709 228.62109375 448.5859375 C228.74958206 447.69248123 228.87807037 446.79902496 229.01045227 445.87849426 C230.26707539 436.87100029 231.13335745 427.85439641 231.7890625 418.78515625 C231.88386902 417.5061142 231.88386902 417.5061142 231.98059082 416.20123291 C233.04549379 401.45858093 233.37143785 386.75110085 233.3515625 371.97265625 C233.35078705 371.01757172 233.3500116 370.06248718 233.34921265 369.07846069 C233.33386096 362.58315411 233.2484019 356.09129948 233.1015625 349.59765625 C233.06950714 348.17178192 233.06950714 348.17178192 233.0368042 346.71710205 C232.68747769 333.03605457 231.49298829 319.71719282 229.2265625 306.22265625 C229.07839081 305.32043335 228.93021912 304.41821045 228.77755737 303.48864746 C223.82608908 273.67007212 217.01209269 240.52423193 203.04174805 213.47241211 C201.60346443 210.60443499 200.44031812 207.62893688 199.2265625 204.66015625 C191.84419773 187.32773939 181.841999 171.03325542 171.1015625 155.59765625 C170.16107021 154.14125087 169.22321748 152.68313454 168.2890625 151.22265625 C160.79651146 140.00511535 152.28148136 129.46426196 143.1015625 119.59765625 C141.8883656 118.20604804 140.67980036 116.81038437 139.4765625 115.41015625 C133.9098211 109.05362546 128.02860616 103.64858236 121.375 98.43359375 C118.76084589 96.3225071 116.47659177 93.97268552 114.1015625 91.59765625 C101.81325092 80.98275295 88.07289728 71.82829407 74.1015625 63.59765625 C73.01875 62.9428125 71.9359375 62.28796875 70.8203125 61.61328125 C45.14403701 46.4195219 15.51785002 36.24995358 -13.8984375 31.59765625 Z M-460.5378418 376.57330322 C-464.96046319 378.49244829 -469.39124902 380.3926574 -473.8203125 382.296875 C-482.18829993 385.89777129 -490.54980505 389.51338102 -498.90631104 393.14083862 C-503.39377939 395.08690465 -507.88561094 397.02170545 -512.38671875 398.93603516 C-521.46665991 402.79894307 -530.48597703 406.73607143 -539.40722656 410.953125 C-544.70820834 413.45014691 -550.05232227 415.84990136 -555.39627075 418.25326538 C-558.71713474 419.74706301 -562.036202 421.24484496 -565.35546875 422.7421875 C-566.04489059 423.05311844 -566.73431244 423.36404938 -567.44462585 423.68440247 C-574.89244819 427.04427508 -582.33522707 430.4152315 -589.77496338 433.79296875 C-591.22068857 434.44916612 -592.66660836 435.10493494 -594.11273193 435.76025391 C-596.13686402 436.67758876 -598.1603138 437.59641247 -600.18359375 438.515625 C-601.33738525 439.03922607 -602.49117676 439.56282715 -603.67993164 440.10229492 C-606.78361081 441.54430622 -609.84577686 443.0509633 -612.8984375 444.59765625 C-610.44586975 447.050224 -608.85589888 447.27330805 -605.5 448.078125 C-603.83626343 448.48780518 -603.83626343 448.48780518 -602.13891602 448.90576172 C-600.94580811 449.19596191 -599.7527002 449.48616211 -598.5234375 449.78515625 C-571.30309818 456.6508045 -547.45084757 466.92015162 -523.68847656 481.85742188 C-519.41995765 484.51983024 -515.0970592 487.0885904 -510.7734375 489.66015625 C-503.98043049 493.71763376 -497.24015916 497.85275173 -490.5234375 502.03515625 C-480.54304126 508.24319202 -470.45596411 514.25846952 -460.30761719 520.1875 C-458.20048681 521.42085884 -456.09935252 522.66363103 -454 523.91015625 C-445.86999023 528.67281643 -437.52379453 532.7288512 -428.96386719 536.640625 C-427.02509265 537.5389697 -425.10457583 538.46655525 -423.1875 539.41015625 C-413.05480728 544.36590169 -402.6340288 548.15829782 -391.8984375 551.59765625 C-390.92551758 551.91299316 -389.95259766 552.22833008 -388.95019531 552.55322266 C-373.60480413 557.44435071 -358.98827384 560.05842341 -342.8984375 560.59765625 C-341.97998047 560.6347168 -341.06152344 560.67177734 -340.11523438 560.70996094 C-304.2981154 562.00285909 -270.61112499 552.51447877 -236.8984375 541.59765625 C-235.64836914 541.19417969 -234.39830078 540.79070312 -233.11035156 540.375 C-214.71770925 534.34797475 -197.31274268 526.57515462 -179.81910706 518.36155701 C-175.00953515 516.10551139 -170.17253621 513.92210099 -165.30957031 511.78320312 C-156.46203747 507.89157872 -147.9186955 503.55973505 -139.40234375 498.9921875 C-135.33743812 496.81520662 -131.22459888 494.7548228 -127.0859375 492.72265625 C-109.86128978 484.18533559 -93.33430773 474.56581959 -76.9765625 464.484375 C-71.36889971 461.04719083 -65.7268903 457.66729736 -60.0859375 454.28515625 C-58.99949951 453.63248779 -57.91306152 452.97981934 -56.79370117 452.30737305 C-55.28900269 451.40498901 -55.28900269 451.40498901 -53.75390625 450.484375 C-52.86340576 449.95030029 -51.97290527 449.41622559 -51.05541992 448.8659668 C-49.69469469 448.06585728 -48.31031523 447.30359511 -46.8984375 446.59765625 C-46.8984375 445.93765625 -46.8984375 445.27765625 -46.8984375 444.59765625 C-47.81447754 444.42544556 -47.81447754 444.42544556 -48.74902344 444.24975586 C-60.78543919 441.96587163 -72.72293467 439.47568589 -84.5859375 436.41015625 C-97.28753683 433.13589704 -110.07392894 430.34538753 -122.8984375 427.59765625 C-138.83525073 424.17733341 -154.67789286 420.56606751 -170.45947266 416.48046875 C-174.31366333 415.49106413 -178.17341561 414.52582929 -182.03515625 413.56640625 C-182.73618469 413.3921109 -183.43721313 413.21781555 -184.15948486 413.03823853 C-187.53244607 412.19986824 -190.90559901 411.36227283 -194.27880859 410.52490234 C-205.34774454 407.76379614 -216.37595857 404.85633382 -227.40316772 401.93383789 C-255.25096103 394.50216501 -255.25096103 394.50216501 -283.28027344 387.80053711 C-291.53123428 385.94716536 -299.72118856 383.89049986 -307.91583252 381.80581665 C-325.1709407 377.42148744 -342.49810966 373.49579204 -359.92599487 369.86074829 C-363.810582 369.0482193 -367.68126985 368.19614884 -371.54296875 367.28125 C-404.25759163 359.70977237 -430.02230066 363.30016731 -460.5378418 376.57330322 Z " fill="#030303" id="path_89" transform="translate(711.8984375,178.40234375)"/>
<path d="M0 0 C4.83855385 -0.03998805 9.23013567 0.04602713 14 1 C13.01082296 9.38585911 11.51227158 17.58820118 9.75 25.83984375 C7.89791701 34.62204944 6.10783367 43.41384057 4.38671875 52.22265625 C4.16842911 53.33987564 3.95013947 54.45709503 3.72523499 55.60816956 C3.27613033 57.90988081 2.82739921 60.21166498 2.37902832 62.51351929 C-0.73326349 78.48605907 -3.85009365 94.45694872 -7.15405273 110.39111328 C-7.51941155 112.15656661 -7.88471931 113.9220305 -8.25 115.6875 C-8.38283827 116.32727783 -8.51567654 116.96705566 -8.65254021 117.6262207 C-10.78124467 127.88889257 -12.8115621 138.16382542 -14.7263813 148.46843147 C-18.88810555 170.81619522 -23.39711461 193.09308333 -27.91543198 215.37094116 C-28.57268141 218.61271816 -29.22905782 221.85467079 -29.88516235 225.09667969 C-37.26932979 261.58276607 -44.71410121 298.05605523 -52.27539062 334.50585938 C-52.98781322 337.94123408 -53.69912347 341.3768374 -54.41015625 344.8125 C-55.47477072 349.95495125 -56.54226292 355.09679504 -57.61270142 360.23803711 C-57.98625102 362.03297915 -58.35915122 363.82805651 -58.73129272 365.62329102 C-60.63588693 374.80329857 -62.65014087 383.92066812 -65 393 C-71.93 391.515 -71.93 391.515 -79 390 C-77.87559827 383.2535896 -77.87559827 383.2535896 -77.00366211 380.09472656 C-76.80902374 379.38269577 -76.61438538 378.67066498 -76.41384888 377.9370575 C-76.20380219 377.17923477 -75.99375549 376.42141205 -75.77734375 375.640625 C-75.32040419 373.96891751 -74.86379395 372.29711997 -74.4074707 370.62524414 C-74.16775543 369.74998077 -73.92804016 368.87471741 -73.68106079 367.97293091 C-65.62062697 338.45549984 -58.71643916 308.89025366 -53.16503906 278.7980957 C-52.99027542 277.85123775 -52.81551178 276.90437981 -52.63545227 275.92882919 C-51.39927578 269.21234455 -50.18673094 262.49186526 -48.98828125 255.76855469 C-43.74789292 226.37139984 -38.24284087 197.03168318 -32.60247803 167.70887375 C-30.52985292 156.92814375 -28.46521178 146.14588192 -26.40234375 135.36328125 C-26.17356915 134.16776705 -25.94479454 132.97225285 -25.70908737 131.74051094 C-22.50670102 114.99643093 -19.35328977 98.24391509 -16.25390625 81.48046875 C-16.06972578 80.4851199 -15.88554531 79.48977104 -15.69578362 78.4642601 C-13.96680093 69.11888926 -12.24296594 59.7726163 -10.53491879 50.42339516 C-7.44152253 33.50865805 -4.30822148 16.65837368 0 0 Z " fill="#FBFBFB" id="path_90" transform="translate(664,205)"/>
<path d="M0 0 C1.60773906 0.0644267 3.21283223 0.20168314 4.8125 0.375 C5.68519531 0.46523437 6.55789063 0.55546875 7.45703125 0.6484375 C9.70561732 0.95930193 11.80695128 1.43058091 14 2 C13.43729821 8.90013069 11.98169851 15.06957168 10 21.6875 C-0.16170392 56.8817593 -7.33556079 92.94977138 -13.88671875 128.96484375 C-14.99775477 135.04735995 -16.21497987 141.10493406 -17.45565796 147.16207886 C-18.60461475 152.84688462 -19.62810422 158.54652726 -20.61296082 164.26184082 C-23.26516498 179.57300121 -26.44181378 194.74326092 -29.78845215 209.91506958 C-39.26621589 252.9170094 -47.36629499 296.13343568 -55.06039429 339.48768616 C-57.18996725 351.48358169 -59.32373267 363.47848468 -61.55166626 375.45657349 C-61.84742687 377.05198164 -62.14043634 378.64790258 -62.43051147 380.24435425 C-62.82112915 382.3909517 -63.22151968 384.53547638 -63.625 386.6796875 C-63.84414063 387.86288574 -64.06328125 389.04608398 -64.2890625 390.26513672 C-65 393 -65 393 -67 395 C-68.81358154 394.52494322 -70.62584179 394.04483958 -72.4375 393.5625 C-73.44683594 393.29566406 -74.45617187 393.02882813 -75.49609375 392.75390625 C-78 392 -78 392 -79 391 C-78.40272503 384.17976559 -76.98567744 377.51476839 -75.625 370.8125 C-75.37169922 369.5551001 -75.11839844 368.2977002 -74.85742188 367.00219727 C-71.2421945 349.10953998 -67.50122526 331.24218729 -63.78125 313.37109375 C-58.84505804 289.65349748 -53.94949582 265.92808307 -49.125 242.1875 C-48.86510284 240.90919312 -48.60520569 239.63088623 -48.33743286 238.31384277 C-44.38490458 218.87151542 -40.4639757 199.4231829 -36.58970642 179.96511841 C-35.38852743 173.93692292 -34.17924914 167.91037762 -32.967453 161.88430786 C-31.98954223 157.02086262 -31.01319984 152.15710296 -30.03689575 147.29333496 C-29.56515276 144.9451332 -29.09275375 142.59706309 -28.61959839 140.24914551 C-25.86848147 126.5947095 -23.20551419 112.92922187 -20.71064758 99.22538757 C-19.46441038 92.39966459 -18.1231043 85.60089797 -16.6875 78.8125 C-16.46537842 77.75836914 -16.24325684 76.70423828 -16.0144043 75.61816406 C-15.82789307 74.73870117 -15.64138184 73.85923828 -15.44921875 72.953125 C-13.56945907 64.00240102 -11.78985931 55.03153384 -10 46.0625 C-9.65252921 44.32388869 -9.30503586 42.58528189 -8.95751953 40.84667969 C-7.43054649 33.20203895 -5.91020755 25.55622185 -4.41015625 17.90625 C-4.06307617 16.14462524 -4.06307617 16.14462524 -3.70898438 14.34741211 C-3.28901312 12.21345695 -2.87216731 10.07888344 -2.45898438 7.94360352 C-2.27787109 7.02506592 -2.09675781 6.10652832 -1.91015625 5.16015625 C-1.75683838 4.37261963 -1.60352051 3.58508301 -1.44555664 2.77368164 C-1 1 -1 1 0 0 Z " fill="#FBFBFB" id="path_91" transform="translate(681,207)"/>
<path d="M0 0 C6.58091546 3.48432269 13.22584084 6.70989976 20.04272461 9.70727539 C11.54450959 18.64357432 -4.8694815 19.91408113 -16.41577148 22.20239258 C-18.44994281 22.60649117 -20.47981311 23.03221743 -22.50805664 23.46508789 C-34.31877521 25.78475876 -47.30178301 25.81059534 -58.95727539 22.70727539 C-60.23731445 22.37469727 -60.23731445 22.37469727 -61.54321289 22.03540039 C-67.54456442 20.16987763 -72.61120889 17.25534188 -77.83227539 13.83227539 C-78.77828613 13.21642578 -78.77828613 13.21642578 -79.7434082 12.58813477 C-83.91427864 9.74526948 -86.99719712 6.81265497 -89.95727539 2.70727539 C-90.64851194 -1.59375203 -90.3091338 -3.62810316 -88.26977539 -7.48022461 C-65.91016531 -34.67434497 -23.89669137 -12.67279705 0 0 Z " fill="#FDFDFD" id="path_92" transform="translate(152.957275390625,666.292724609375)"/>
<path d="M0 0 C0.495 0.99 0.495 0.99 1 2 C1.99 2.495 1.99 2.495 3 3 C2.82460693 3.63574951 2.64921387 4.27149902 2.46850586 4.92651367 C-11.31215988 55.0538527 -21.09571597 105.98867927 -30.921875 157.00390625 C-31.0496785 157.66712891 -31.17748199 158.33035156 -31.30915833 159.01367188 C-32.60160544 165.72102056 -33.89176374 172.42878055 -35.17176628 179.13851643 C-37.94221832 193.65357625 -40.80677615 208.13292808 -44.07043457 222.54614258 C-47.09454018 235.92729402 -49.90479784 249.29130678 -52.125 262.83203125 C-53.02934812 268.31308609 -54.13293998 273.74643812 -55.25 279.1875 C-57.62412419 290.82483091 -59.75968116 302.5008746 -61.875 314.1875 C-62.21861254 316.08041383 -62.56228128 317.97331745 -62.90600586 319.86621094 C-64.44840548 328.37053731 -65.98158357 336.87627787 -67.48345947 345.38786316 C-68.10571512 348.90579301 -68.73567015 352.42231854 -69.36700439 355.93862915 C-69.66157594 357.59093779 -69.95245206 359.24390995 -70.23944092 360.89755249 C-70.6361331 363.18214067 -71.04518844 365.46419566 -71.45703125 367.74609375 C-71.7969812 369.67473267 -71.7969812 369.67473267 -72.14379883 371.64233398 C-72.98262534 374.93186381 -74.09068245 377.21589685 -76 380 C-77.10972694 376.67081918 -76.88359158 375.3977352 -76.22143555 372.01586914 C-76.02467728 370.98642685 -75.82791901 369.95698456 -75.62519836 368.89634705 C-75.40212509 367.76652908 -75.17905182 366.63671112 -74.94921875 365.47265625 C-74.47588603 363.00038547 -74.00377565 360.52788045 -73.53271484 358.05517578 C-73.345338 357.0782214 -73.345338 357.0782214 -73.15417576 356.08153057 C-71.84432316 349.23768801 -70.61959823 342.37929121 -69.40116119 335.51868248 C-68.75237404 331.86769021 -68.09952119 328.21742528 -67.44677734 324.56713867 C-67.31422043 323.82568887 -67.18166351 323.08423906 -67.04508972 322.32032108 C-59.63342786 280.88721574 -51.58661938 239.63720835 -42.60559082 198.51306152 C-38.73084735 180.74992623 -35.26856208 162.9426562 -32.08161926 145.04460144 C-30.29855737 135.03326348 -28.36565949 125.05162282 -26.40625 115.07348633 C-25.94346709 112.71145791 -25.48343476 110.34890059 -25.0234375 107.98632812 C-20.72549647 85.93973546 -16.33304916 63.96921845 -10.80859375 42.19189453 C-9.98531242 38.94202132 -9.17817513 35.68849006 -8.375 32.43359375 C-5.69417198 21.59207062 -2.93563369 10.77550249 0 0 Z " fill="#131313" id="path_93" transform="translate(694,213)"/>
<path d="M0 0 C3.01394389 4.52091584 2.28743988 8.80214705 1.36083984 13.97460938 C1.06773962 15.43238715 0.7673922 16.88872103 0.4609375 18.34375 C0.29963852 19.13760605 0.13833954 19.9314621 -0.02784729 20.74937439 C-0.55420446 23.33418955 -1.08969351 25.91702493 -1.625 28.5 C-2.17941618 31.21372456 -2.73135055 33.92794665 -3.28318787 36.64219666 C-3.65477906 38.4690653 -4.02714647 40.29577624 -4.40028381 42.12232971 C-6.28117573 51.33786354 -8.06496431 60.57074267 -9.83251953 69.80859375 C-11.95160475 80.8463609 -14.16494156 91.86495012 -16.37533569 102.88473511 C-17.2897358 107.44494214 -18.2015281 112.0056694 -19.11328125 116.56640625 C-19.46970857 118.34871779 -19.82615429 120.13102565 -20.18261719 121.91333008 C-20.36546265 122.82756744 -20.54830811 123.74180481 -20.73669434 124.68374634 C-21.34291473 127.71455916 -21.94928092 130.74534278 -22.55566406 133.77612305 C-24.85026829 145.24582142 -27.1433199 156.71582631 -29.43311214 168.18648624 C-30.84050707 175.23674594 -32.24858238 182.28686957 -33.65702152 189.33692074 C-34.53177816 193.71581021 -35.40617858 198.09477013 -36.2796936 202.47390747 C-40.21159857 222.18423308 -44.18677988 241.8835909 -48.28466797 261.56021118 C-49.50603646 267.4333575 -50.71724936 273.30859868 -51.9296875 279.18359375 C-52.9111534 283.93495886 -53.89303775 288.68623745 -54.875 293.4375 C-55.13157379 294.6790686 -55.38814758 295.92063721 -55.65249634 297.1998291 C-59.28616696 314.77797627 -62.94543893 332.35036206 -66.67724609 349.90795898 C-66.82981369 350.62795578 -66.98238129 351.34795258 -67.13957214 352.08976746 C-67.53955177 353.97705066 -67.94097222 355.86402836 -68.3425293 357.75097656 C-68.96472938 360.82570315 -69.50502353 363.9025002 -70 367 C-70.99 366.67 -71.98 366.34 -73 366 C-71.76229259 357.42514388 -70.24811524 348.96104457 -68.42578125 340.4921875 C-68.18108093 339.33960953 -67.93638062 338.18703156 -67.68426514 336.99952698 C-67.16436989 334.55160637 -66.64296749 332.10400543 -66.12014771 329.65670776 C-64.75426618 323.26114106 -63.40038008 316.86303937 -62.046875 310.46484375 C-61.64753502 308.57823784 -61.64753502 308.57823784 -61.24012756 306.65351868 C-58.85013491 295.33904104 -56.55205151 284.00812228 -54.31958008 272.66162109 C-52.83787419 265.13834336 -51.30165326 257.62891181 -49.72973633 250.12402344 C-47.0097652 237.09968842 -44.3610525 224.06138571 -41.7265625 211.01953125 C-41.48613598 209.83001043 -41.24570946 208.64048962 -40.99799728 207.41492271 C-39.72474818 201.11540049 -38.45233082 194.81571098 -37.18066406 188.51586914 C-36.14852581 183.40328224 -35.11496877 178.29098554 -34.08007812 173.17895508 C-28.84458485 147.31567485 -23.63966018 121.45179691 -18.78998852 95.51311207 C-17.09010956 86.42433918 -15.29234235 77.36034081 -13.39535522 68.31082153 C-12.56260347 64.33522704 -11.74231687 60.35705642 -10.921875 56.37890625 C-10.67753975 55.19478401 -10.67753975 55.19478401 -10.42826843 53.98674011 C-6.73561908 36.03522836 -3.32981989 18.02191995 0 0 Z " fill="#0C0C0C" id="path_94" transform="translate(674,223)"/>
<path d="M0 0 C0.66 0 1.32 0 2 0 C0.50548303 10.58160464 -1.47314231 21.0564275 -3.48566055 31.5492115 C-4.08667755 34.68298556 -4.68476166 37.81730805 -5.28219604 40.95176697 C-6.56055997 47.65583691 -7.84261552 54.35919816 -9.125 61.0625 C-10.79673965 69.80291507 -12.46672922 78.54366106 -14.1328125 87.28515625 C-14.33808563 88.36208992 -14.54335876 89.43902359 -14.75485229 90.54859161 C-18.65480588 111.02843176 -22.41035248 131.53302134 -26.10740662 152.05033875 C-33.51079352 193.123596 -42.03529463 233.97721796 -54 274 C-54.99 273.67 -55.98 273.34 -57 273 C-55.77053649 266.32954394 -54.18722254 259.87210739 -52.25 253.375 C-42.09030165 218.3853224 -35.08345836 182.74417455 -29.05737305 146.84277344 C-27.47271271 137.4132916 -25.86917687 128.02697254 -23.78442383 118.69262695 C-22.11471101 110.83255648 -20.7567978 102.90887696 -19.32727051 95.0022583 C-16.1794341 77.60861498 -12.92259361 60.24535062 -9.39477539 42.92480469 C-8.04597879 36.29228148 -6.73267774 29.65636439 -5.52734375 22.99609375 C-5.29950195 21.73845215 -5.07166016 20.48081055 -4.83691406 19.18505859 C-4.41769523 16.84657401 -4.00388791 14.50710982 -3.59667969 12.16650391 C-3.32259277 10.63195557 -3.32259277 10.63195557 -3.04296875 9.06640625 C-2.88852295 8.17896729 -2.73407715 7.29152832 -2.57495117 6.37719727 C-2.0025469 4.01053042 -1.1784957 2.12215405 0 0 Z " fill="#141414" id="path_95" transform="translate(641,315)"/>
<path d="M0 0 C0.9170874 0.14920898 1.8341748 0.29841797 2.77905273 0.45214844 C10.6094615 1.78084546 18.24098094 3.51922711 25.8125 5.9375 C26.58980469 6.18516113 27.36710937 6.43282227 28.16796875 6.68798828 C42.95389706 11.47622204 56.25882623 17.82044234 69.74926758 25.51538086 C75.16514656 28.6036545 80.65410133 31.53595853 86.20483398 34.37475586 C90.7038696 36.72023919 90.7038696 36.72023919 91.8125 38.9375 C84.45208738 37.62260082 78.36964155 35.11974352 71.6875 31.8125 C70.67631104 31.32112549 69.66512207 30.82975098 68.62329102 30.32348633 C62.9334789 27.53999742 57.31375178 24.6515311 51.75 21.625 C35.22687486 12.71347564 15.97854001 5.01826691 -3.1875 6.9375 C-4.38503906 7.02128906 -5.58257812 7.10507812 -6.81640625 7.19140625 C-18.28254015 8.29058155 -27.76362889 11.98162173 -36.1875 19.9375 C-34.72139685 13.42148601 -30.72389508 8.68526237 -25.5234375 4.64453125 C-17.39939026 -0.38005721 -9.28334397 -1.65292414 0 0 Z " fill="#F3F3F3" id="path_96" transform="translate(94.1875,632.0625)"/>
<path d="M0 0 C1.71875 1.7109375 1.71875 1.7109375 2.1796875 4.12109375 C2.13714844 5.43400391 2.13714844 5.43400391 2.09375 6.7734375 C2.08085938 7.65128906 2.06796875 8.52914062 2.0546875 9.43359375 C1.71875 11.7109375 1.71875 11.7109375 -0.28125 13.7109375 C-2.828125 13.3203125 -2.828125 13.3203125 -6.03125 12.4609375 C-19.90266698 9.02337019 -34.08086195 7.97527208 -48.28125 6.7109375 C-47.625 1 -47.625 1 -44.53125 -1.6015625 C-32.9994005 -7.58925358 -11.2712041 -6.36900232 0 0 Z " fill="#FBFBFB" id="path_97" transform="translate(703.28125,186.2890625)"/>
<path d="M0 0 C0.66 0 1.32 0 2 0 C0.30075423 12.12446395 -2.0533869 24.12273691 -4.3515625 36.14453125 C-4.77488791 38.36793796 -5.19801081 40.59138323 -5.62094116 42.81486511 C-6.72694844 48.62657552 -7.83568075 54.43776272 -8.94500732 60.24884033 C-10.07958781 66.19487309 -11.21155447 72.14140337 -12.34375 78.08789062 C-14.55996146 89.72574511 -16.77905593 101.36304781 -19 113 C-19.99 113 -20.98 113 -22 113 C-21.39578327 105.36543159 -20.16071152 97.94043669 -18.70703125 90.42578125 C-18.48033249 89.23528168 -18.25363373 88.0447821 -18.02006531 86.81820679 C-17.28847738 82.98214128 -16.55067221 79.14730343 -15.8125 75.3125 C-15.30783582 72.67763503 -14.80434011 70.04254711 -14.30078125 67.4074707 C-13.08526994 61.05099036 -11.86404125 54.695617 -10.6416626 48.3404541 C-9.91711167 44.5684887 -9.19666434 40.79575518 -8.47770691 37.02272034 C-7.82088387 33.5771831 -7.16048703 30.13233678 -6.5 26.6875 C-6.28190674 25.54385986 -6.06381348 24.40021973 -5.83911133 23.22192383 C-1.67529849 1.67529849 -1.67529849 1.67529849 0 0 Z " fill="#1C1C1C" id="path_98" transform="translate(641,315)"/>
<path d="M0 0 C3.01394389 4.52091584 2.28743988 8.80214705 1.36083984 13.97460938 C1.06773962 15.43238715 0.7673922 16.88872103 0.4609375 18.34375 C0.29963852 19.13760605 0.13833954 19.9314621 -0.02784729 20.74937439 C-0.55420446 23.33418955 -1.08969351 25.91702493 -1.625 28.5 C-2.17941618 31.21372456 -2.73135055 33.92794665 -3.28318787 36.64219666 C-3.65477906 38.4690653 -4.02714647 40.29577624 -4.40028381 42.12232971 C-6.0523711 50.21682263 -7.63117159 58.32413888 -9.1875 66.4375 C-9.66507415 68.91151442 -10.14293238 71.38547401 -10.62109375 73.859375 C-11.31799682 77.46652558 -12.01418303 81.07380264 -12.70751953 84.68164062 C-13.38253022 88.18475378 -14.06527179 91.68627513 -14.75 95.1875 C-14.94875732 96.22769287 -15.14751465 97.26788574 -15.35229492 98.33959961 C-15.54025635 99.29358643 -15.72821777 100.24757324 -15.921875 101.23046875 C-16.08268555 102.05957764 -16.24349609 102.88868652 -16.40917969 103.74291992 C-17.00944498 106.03608215 -17.8636411 107.92629375 -19 110 C-19.66 109.67 -20.32 109.34 -21 109 C-19.50716453 97.84145904 -17.20159179 86.86366083 -14.91751099 75.84616089 C-13.78519994 70.38204701 -12.66405699 64.91564452 -11.54296875 59.44921875 C-11.32201035 58.37255447 -11.10105194 57.2958902 -10.87339783 56.18659973 C-8.13420309 42.81300472 -5.53860906 29.41307921 -3 16 C-2.82355957 15.06833008 -2.64711914 14.13666016 -2.46533203 13.17675781 C-1.63538262 8.78600462 -0.8118826 4.39413654 0 0 Z " fill="#121212" id="path_99" transform="translate(674,223)"/>
<path d="M0 0 C0.66 0 1.32 0 2 0 C1.8258255 0.84632492 1.8258255 0.84632492 1.64813232 1.70974731 C-1.15720005 15.4013099 -3.79167096 29.1180859 -6.296875 42.8671875 C-6.43747849 43.63861336 -6.57808197 44.41003922 -6.72294617 45.20484161 C-7.73489472 50.76103004 -8.74284862 56.31794031 -9.75 61.875 C-10.77164234 67.51170038 -11.79471069 73.14813433 -12.82144928 78.78390884 C-13.22704594 81.01438323 -13.6300306 83.24531913 -14.03289795 85.47628784 C-14.27928976 86.83040681 -14.52580384 88.18450354 -14.77246094 89.53857422 C-14.98610291 90.71781464 -15.19974487 91.89705505 -15.41986084 93.11203003 C-16 96 -16 96 -17 99 C-17.66 99 -18.32 99 -19 99 C-18.41909313 91.55465015 -17.50627712 84.23540802 -16.25 76.875 C-16.0744458 75.83569336 -15.8988916 74.79638672 -15.71801758 73.72558594 C-14.31216239 65.53778686 -12.73895288 57.38969245 -11.07397461 49.25097656 C-9.73055946 42.68407416 -8.44205623 36.10923174 -7.1953125 29.5234375 C-6.88072991 27.8707464 -6.56603248 26.21807715 -6.2512207 24.56542969 C-5.78259081 22.10505458 -5.31611544 19.64437954 -4.85678101 17.18225098 C-4.42757342 14.88331281 -3.989991 12.58610752 -3.55078125 10.2890625 C-3.42385895 9.59646332 -3.29693665 8.90386414 -3.16616821 8.1902771 C-2.52405389 4.87325119 -1.90594024 2.85891036 0 0 Z " fill="#060606" id="path_100" transform="translate(660,216)"/>
<path d="M0 0 C0.99 0.33 1.98 0.66 3 1 C0.57431419 18.49047138 -3.32893404 35.73817919 -7 53 C-7.99 52.67 -8.98 52.34 -10 52 C-8.46033571 40.78923907 -6.1820723 29.76002918 -3.875 18.6875 C-3.49839697 16.8679008 -3.12209275 15.04823973 -2.74609375 13.22851562 C-1.83416743 8.8182906 -0.91821903 4.40891897 0 0 Z " fill="#1D1D1D" id="path_101" transform="translate(663,280)"/>
<path d="M0 0 C0.33 0.99 0.66 1.98 1 3 C1.66 3 2.32 3 3 3 C1.44809442 13.83523365 -0.56629301 24.56459385 -2.625 35.3125 C-2.95333412 37.03576746 -3.28146052 38.75907451 -3.609375 40.48242188 C-4.40386096 44.65540726 -5.20113881 48.82785008 -6 53 C-6.99 53 -7.98 53 -9 53 C-8.41923715 46.11785361 -7.44794495 39.39893587 -6.15234375 32.6171875 C-5.97619034 31.67690704 -5.80003693 30.73662659 -5.61854553 29.76785278 C-5.06214286 26.80280998 -4.49992779 23.83890517 -3.9375 20.875 C-3.55625362 18.84903112 -3.1753907 16.82299004 -2.79492188 14.796875 C-1.86770777 9.86373841 -0.93528394 4.9316127 0 0 Z " fill="#1C1C1D" id="path_102" transform="translate(628,375)"/>
<path d="M0 0 C0.33 0 0.66 0 1 0 C1.26310613 6.07702066 0.26427462 11.58850856 -0.96875 17.52734375 C-1.26839661 19.01071983 -1.26839661 19.01071983 -1.57409668 20.52406311 C-2.20972264 23.66320324 -2.85471415 26.80033287 -3.5 29.9375 C-3.93421475 32.07344156 -4.36781518 34.2095081 -4.80078125 36.34570312 C-5.86007939 41.5652701 -6.92706075 46.78322102 -8 52 C-8.66 52 -9.32 52 -10 52 C-10.34355223 45.45393717 -9.03984754 39.4482918 -7.6875 33.0625 C-7.22562057 30.83092391 -6.76468351 28.59915258 -6.3046875 26.3671875 C-6.08006836 25.28276367 -5.85544922 24.19833984 -5.62402344 23.08105469 C-4.54271779 17.74221384 -3.60545331 12.37872127 -2.67578125 7.01171875 C-2.07833735 4.34912195 -1.36095937 2.34548318 0 0 Z " fill="#151414" id="path_103" transform="translate(667,338)"/>
<path d="M0 0 C0.33 0 0.66 0 1 0 C0.53893979 10.63026067 -1.34385275 20.73413653 -3.5 31.125 C-3.82489402 32.72642565 -4.14911679 34.32798763 -4.47265625 35.9296875 C-4.78324965 37.45585232 -5.09442554 38.98189873 -5.40625 40.5078125 C-5.55106812 41.21712921 -5.69588623 41.92644592 -5.84509277 42.65725708 C-6.43708882 45.50618362 -7.07874013 48.23622038 -8 51 C-8.66 51 -9.32 51 -10 51 C-9.49041981 41.84915979 -7.8130595 32.98059308 -6.04370117 24.0090332 C-5.55900072 21.5447089 -5.08664252 19.07822573 -4.61523438 16.61132812 C-4.3080231 15.03371156 -4.00010599 13.45623224 -3.69140625 11.87890625 C-3.55174942 11.14660294 -3.41209259 10.41429962 -3.26820374 9.6598053 C-2.57097032 6.16799072 -1.82637217 3.07885563 0 0 Z " fill="#050505" id="path_104" transform="translate(654,331)"/>
<path d="M0 0 C0.33 0.99 0.66 1.98 1 3 C1.66 3.33 2.32 3.66 3 4 C2.07103008 9.32261261 1.12869666 14.64262192 0.17407227 19.96069336 C-0.14859609 21.76896372 -0.46764686 23.57788359 -0.78295898 25.38745117 C-1.23765483 27.99318062 -1.70544596 30.59627262 -2.17578125 33.19921875 C-2.31341385 34.00461594 -2.45104645 34.81001312 -2.59284973 35.63981628 C-3.39709654 40.01062724 -4.37302941 43.30410179 -7 47 C-8.1586663 43.52400109 -7.80132336 41.96134456 -7.109375 38.3984375 C-6.89563232 37.27542236 -6.68188965 36.15240723 -6.46166992 34.99536133 C-6.22681885 33.80064209 -5.99196777 32.60592285 -5.75 31.375 C-5.28199092 28.9284927 -4.81454315 26.48187795 -4.34765625 24.03515625 C-4.1170752 22.83777832 -3.88649414 21.64040039 -3.64892578 20.40673828 C-2.78710615 15.88234732 -1.97756815 11.34989141 -1.1875 6.8125 C-1.06407227 6.10722168 -0.94064453 5.40194336 -0.81347656 4.67529297 C-0.54119463 3.11705781 -0.2703858 1.5585653 0 0 Z " fill="#121212" id="path_105" transform="translate(625,546)"/>
<path d="M0 0 C0.33 0.66 0.66 1.32 1 2 C1.66 2.33 2.32 2.66 3 3 C0.36 16.2 -2.28 29.4 -5 43 C-5.99 42.67 -6.98 42.34 -8 42 C-6.64700941 32.47966459 -4.86381095 23.09390969 -2.875 13.6875 C-2.59473717 12.34967531 -2.31478775 11.01178492 -2.03515625 9.67382812 C-1.35983003 6.44856323 -0.68139923 3.22398629 0 0 Z " fill="#111111" id="path_106" transform="translate(609,547)"/>
<path d="M0 0 C0.66 0 1.32 0 2 0 C0.65113611 9.41030923 -1.06950984 18.69503742 -3 28 C-3.99 27.67 -4.98 27.34 -6 27 C-2.60646388 2.60646388 -2.60646388 2.60646388 0 0 Z " fill="#0F0F0F" id="path_107" transform="translate(641,315)"/>
<path d="M0 0 C0.33 0 0.66 0 1 0 C0.75519444 10.1037931 -2.13589564 19.39309643 -5 29 C-5.66 29 -6.32 29 -7 29 C-6.417978 22.4390247 -5.23307362 16.34800109 -3.5 10 C-3.16162109 8.71416016 -3.16162109 8.71416016 -2.81640625 7.40234375 C-1.13886634 1.13886634 -1.13886634 1.13886634 0 0 Z " fill="#0A0A0A" id="path_108" transform="translate(600,529)"/>
<path d="M0 0 C0.33 0 0.66 0 1 0 C0.57483041 8.95788336 -0.74175965 17.32210784 -3 26 C-3.99 25.67 -4.98 25.34 -6 25 C-5.08031672 18.75789435 -4.14476648 12.51786118 -3 6.3125 C-2.7834375 5.13107422 -2.7834375 5.13107422 -2.5625 3.92578125 C-2 2 -2 2 0 0 Z " fill="#1D1D1D" id="path_109" transform="translate(659,307)"/>
<path d="M0 0 C0.33 0 0.66 0 1 0 C0.4068511 9.46992897 -1.26427722 18.68822938 -3 28 C-3.66 28 -4.32 28 -5 28 C-5.14426782 22.20961415 -4.66963808 16.87776414 -3.625 11.1875 C-3.49867188 10.43791016 -3.37234375 9.68832031 -3.2421875 8.91601562 C-2.60783004 5.36678562 -2.02459935 3.03689903 0 0 Z " fill="#060606" id="path_110" transform="translate(631,521)"/>
<path d="M0 0 C0.33 0 0.66 0 1 0 C0.52735047 8.89884984 -0.96104717 17.33124459 -3 26 C-3.66 26 -4.32 26 -5 26 C-5.20320631 20.16601233 -4.58591957 15.24425696 -3.0625 9.625 C-2.78889648 8.55958984 -2.78889648 8.55958984 -2.50976562 7.47265625 C-1.17125496 2.34250992 -1.17125496 2.34250992 0 0 Z " fill="#070607" id="path_111" transform="translate(620,426)"/>
<path d="M0 0 C0.33 0 0.66 0 1 0 C0.55194549 9.30099365 -0.84337234 17.95301478 -3 27 C-3.66 27 -4.32 27 -5 27 C-5.24696936 21.12053577 -4.32871515 15.85582843 -3.0625 10.125 C-2.78889648 8.825625 -2.78889648 8.825625 -2.50976562 7.5 C-1.13882212 1.13882212 -1.13882212 1.13882212 0 0 Z " fill="#0B0A0B" id="path_112" transform="translate(662,363)"/>
<path d="M0 0 C0.33 0.66 0.66 1.32 1 2 C1.66 2.33 2.32 2.66 3 3 C0.03 13.89 0.03 13.89 -3 25 C-3.99 24.67 -4.98 24.34 -6 24 C-4 16 -2 8 0 0 Z " fill="#0E0E0D" id="path_113" transform="translate(694,213)"/>
<path d="M0 0 C3.01187929 4.51781894 2.29561638 8.79919652 1.34375 13.96484375 C1.06947133 15.29052398 0.7881708 16.61477008 0.5 17.9375 C0.35691406 18.62134766 0.21382812 19.30519531 0.06640625 20.00976562 C-0.28283771 21.67449514 -0.64052946 23.33744875 -1 25 C-1.99 24.34 -2.98 23.68 -4 23 C-2.68 15.41 -1.36 7.82 0 0 Z " fill="#191919" id="path_114" transform="translate(674,223)"/>
<path d="M0 0 C0.33 0.66 0.66 1.32 1 2 C1.66 2 2.32 2 3 2 C2.68839539 4.20845985 2.37567654 6.41676251 2.0625 8.625 C1.88847656 9.85476563 1.71445312 11.08453125 1.53515625 12.3515625 C1.06225699 15.57556184 0.54848998 18.78812176 0 22 C-0.99 21.34 -1.98 20.68 -3 20 C-2.68839539 17.79154015 -2.37567654 15.58323749 -2.0625 13.375 C-1.88847656 12.14523437 -1.71445312 10.91546875 -1.53515625 9.6484375 C-1.06225699 6.42443816 -0.54848998 3.21187824 0 0 Z " fill="#1A1A1A" id="path_115" transform="translate(614,450)"/>
<path d="M0 0 C0.33 0 0.66 0 1 0 C0.55761615 7.53216715 -0.13905228 14.6802723 -2 22 C-2.99 22 -3.98 22 -5 22 C-4.5496745 19.08189078 -4.09009058 16.16576016 -3.625 13.25 C-3.43550781 12.0125 -3.43550781 12.0125 -3.2421875 10.75 C-3.11328125 9.95078125 -2.984375 9.1515625 -2.8515625 8.328125 C-2.73635254 7.5949707 -2.62114258 6.86181641 -2.50244141 6.10644531 C-1.96401163 3.84912166 -1.1112302 2.02990066 0 0 Z " fill="#141414" id="path_116" transform="translate(654,331)"/>
<path d="M0 0 C0.33 0.99 0.66 1.98 1 3 C1.66 3 2.32 3 3 3 C2.6889315 5.06271639 2.37608484 7.12516466 2.0625 9.1875 C1.88847656 10.33605469 1.71445312 11.48460937 1.53515625 12.66796875 C1.08620687 15.46325212 0.57917838 18.22933586 0 21 C-0.99 20.67 -1.98 20.34 -3 20 C-2.68839539 17.79154015 -2.37567654 15.58323749 -2.0625 13.375 C-1.88847656 12.14523437 -1.71445312 10.91546875 -1.53515625 9.6484375 C-1.06225699 6.42443816 -0.54848998 3.21187824 0 0 Z " fill="#1E1E1E" id="path_117" transform="translate(628,375)"/>
<path d="M0 0 C0.66 0 1.32 0 2 0 C0.68 6.6 -0.64 13.2 -2 20 C-2.99 20 -3.98 20 -5 20 C-4.55040347 17.22748806 -4.09073921 14.45730481 -3.625 11.6875 C-3.43550781 10.50897461 -3.43550781 10.50897461 -3.2421875 9.30664062 C-3.11328125 8.54931641 -2.984375 7.79199219 -2.8515625 7.01171875 C-2.73635254 6.31522217 -2.62114258 5.61872559 -2.50244141 4.90112305 C-2 3 -2 3 0 0 Z " fill="#111110" id="path_118" transform="translate(660,216)"/>
<path d="M0 0 C0.33 0 0.66 0 1 0 C0.48446121 6.49850211 -0.46667709 12.66226532 -2 19 C-2.66 19 -3.32 19 -4 19 C-4.25296207 13.18187229 -3.65982537 7.60447207 -2 2 C-1.34 1.34 -0.68 0.68 0 0 Z " fill="#0B0B0B" id="path_119" transform="translate(647,439)"/>
<path d="M0 0 C0.33 0 0.66 0 1 0 C1.23268915 6.28260706 0.40454548 11.88019467 -1 18 C-1.99 18 -2.98 18 -4 18 C-3.7159949 15.93643105 -3.42246648 13.8741715 -3.125 11.8125 C-2.96257813 10.66394531 -2.80015625 9.51539063 -2.6328125 8.33203125 C-2.05939755 5.31275375 -1.25240957 2.79424152 0 0 Z " fill="#0E0F0F" id="path_120" transform="translate(636,341)"/>
<path d="M0 0 C0.33 0.66 0.66 1.32 1 2 C1.66 2.33 2.32 2.66 3 3 C2.01 7.95 1.02 12.9 0 18 C-0.99 17.67 -1.98 17.34 -3 17 C-2.68853528 15.10399631 -2.37578283 13.20820413 -2.0625 11.3125 C-1.88847656 10.25675781 -1.71445312 9.20101563 -1.53515625 8.11328125 C-1.06832879 5.39750396 -0.55577384 2.69875765 0 0 Z " fill="#1F1F1F" id="path_121" transform="translate(677,281)"/>
<path d="M0 0 C0.33 0 0.66 0 1 0 C0.85764543 1.72945653 0.71095618 3.45855654 0.5625 5.1875 C0.48128906 6.15042969 0.40007813 7.11335938 0.31640625 8.10546875 C0.02333849 10.78649602 -0.42703754 13.3662986 -1 16 C-1.99 16 -2.98 16 -4 16 C-3.71767279 13.89455987 -3.4238102 11.79066411 -3.125 9.6875 C-2.96257813 8.51574219 -2.80015625 7.34398437 -2.6328125 6.13671875 C-2 3 -2 3 0 0 Z " fill="#121212" id="path_122" transform="translate(650,424)"/>
<path d="M0 0 C0.33 0 0.66 0 1 0 C0.85833643 1.91697937 0.71150416 3.83357723 0.5625 5.75 C0.48128906 6.81734375 0.40007813 7.8846875 0.31640625 8.984375 C-0.20624682 13.96571041 -0.20624682 13.96571041 -1 16 C-1.99 16.33 -2.98 16.66 -4 17 C-3.52555245 14.35323911 -3.04568672 11.70766636 -2.5625 9.0625 C-2.42779297 8.30775391 -2.29308594 7.55300781 -2.15429688 6.77539062 C-1.11328125 1.11328125 -1.11328125 1.11328125 0 0 Z " fill="#050506" id="path_123" transform="translate(627,466)"/>
<path d="M0 0 C0.33 0 0.66 0 1 0 C1.22577402 5.4185766 0.46670113 9.77487721 -1 15 C-1.66 15 -2.32 15 -3 15 C-3.20749784 9.91630285 -2.63931134 5.82150395 -1 1 C-0.67 0.67 -0.34 0.34 0 0 Z " fill="#101010" id="path_124" transform="translate(626,394)"/>
<path d="M0 0 C0.33 0.66 0.66 1.32 1 2 C1.66 2 2.32 2 3 2 C2.34 5.96 1.68 9.92 1 14 C0.01 14 -0.98 14 -2 14 C-1.34 9.38 -0.68 4.76 0 0 Z " fill="#181818" id="path_125" transform="translate(634,425)"/>
<path d="M0 0 C1.13732426 3.40401948 0.83989957 5.77456664 0.0625 9.25 C-0.13214844 10.14203125 -0.32679688 11.0340625 -0.52734375 11.953125 C-0.68332031 12.62859375 -0.83929687 13.3040625 -1 14 C-1.99 14.33 -2.98 14.66 -4 15 C-3.71848084 12.87363187 -3.42446737 10.74891472 -3.125 8.625 C-2.96257813 7.44164062 -2.80015625 6.25828125 -2.6328125 5.0390625 C-2 2 -2 2 0 0 Z " fill="#101010" id="path_126" transform="translate(662,293)"/>
<path d="M0 0 C0.33 0.66 0.66 1.32 1 2 C1.66 2 2.32 2 3 2 C2.34 5.96 1.68 9.92 1 14 C0.01 13.67 -0.98 13.34 -2 13 C-1.34 8.71 -0.68 4.42 0 0 Z " fill="#262626" id="path_127" transform="translate(655,319)"/>
<path d="M0 0 C0.33 0 0.66 0 1 0 C0.88570603 1.77155654 0.75816963 3.54226229 0.625 5.3125 C0.52058594 6.79169922 0.52058594 6.79169922 0.4140625 8.30078125 C0 11 0 11 -2 14 C-2.33 13.67 -2.66 13.34 -3 13 C-2.96212481 11.1849043 -2.84507974 9.37113915 -2.6875 7.5625 C-2.60886719 6.57378906 -2.53023437 5.58507812 -2.44921875 4.56640625 C-2 2 -2 2 0 0 Z " fill="#0C0C0C" id="path_128" transform="translate(633,438)"/>
<path d="M0 0 C0.66 0 1.32 0 2 0 C1.34 4.29 0.68 8.58 0 13 C-0.99 12.67 -1.98 12.34 -3 12 C-2.14285714 3.42857143 -2.14285714 3.42857143 0 0 Z " fill="#191919" id="path_129" transform="translate(641,315)"/>
<path d="M0 0 C0.33 0.66 0.66 1.32 1 2 C1.66 2.33 2.32 2.66 3 3 C2.34 6.3 1.68 9.6 1 13 C0.01 13 -0.98 13 -2 13 C-1.48041715 8.62065881 -0.94324258 4.31196609 0 0 Z " fill="#1B1B1B" id="path_130" transform="translate(609,547)"/>
<path d="M0 0 C0.33 0 0.66 0 1 0 C1.21192221 5.19209404 0.5912689 9.126739 -1 14 C-1.66 14 -2.32 14 -3 14 C-2.88512252 12.41590006 -2.75765492 10.83271037 -2.625 9.25 C-2.55539062 8.36828125 -2.48578125 7.4865625 -2.4140625 6.578125 C-2.00149945 4.00933618 -1.28839043 2.24158985 0 0 Z " fill="#050505" id="path_131" transform="translate(607,497)"/>
<path d="M0 0 C1.15006091 3.37299744 0.85199953 5.34853215 -0.3125 8.6875 C-0.57675781 9.47511719 -0.84101562 10.26273438 -1.11328125 11.07421875 C-2 13 -2 13 -4 14 C-3.71715982 12.22773547 -3.42339502 10.457212 -3.125 8.6875 C-2.96257813 7.70136719 -2.80015625 6.71523438 -2.6328125 5.69921875 C-2 3 -2 3 0 0 Z " fill="#070707" id="path_132" transform="translate(618,513)"/>
<path d="M0 0 C2.85689594 4.28534391 2.34655647 7.96398073 1.5 12.9375 C1.335 13.618125 1.17 14.29875 1 15 C0.67 14.34 0.34 13.68 0 13 C-0.66 13 -1.32 13 -2 13 C-1.34 8.71 -0.68 4.42 0 0 Z " fill="#1C1C1D" id="path_133" transform="translate(642,455)"/>
<path d="M0 0 C0.33 0 0.66 0 1 0 C1.07654536 4.51617599 1.10228696 8.59085217 0 13 C-0.99 12.67 -1.98 12.34 -3 12 C-2.69106068 10.3743193 -2.3777305 8.74947252 -2.0625 7.125 C-1.88847656 6.22007812 -1.71445312 5.31515625 -1.53515625 4.3828125 C-1 2 -1 2 0 0 Z " fill="#111111" id="path_134" transform="translate(609,486)"/>
<path d="M0 0 C1.09898702 3.29696105 0.87124444 4.40494903 0.0625 7.6875 C-0.22947266 8.89986328 -0.22947266 8.89986328 -0.52734375 10.13671875 C-0.68332031 10.75160156 -0.83929687 11.36648438 -1 12 C-1.99 11.67 -2.98 11.34 -4 11 C-3.71758359 9.53984709 -3.42373386 8.08190207 -3.125 6.625 C-2.96257813 5.81289063 -2.80015625 5.00078125 -2.6328125 4.1640625 C-2 2 -2 2 0 0 Z " fill="#212121" id="path_135" transform="translate(653,414)"/>
<path d="M0 0 C0.33 0.66 0.66 1.32 1 2 C1.66 2 2.32 2 3 2 C2.56268919 7.68504055 2.26826873 8.73173127 -2 13 C-1.34 8.71 -0.68 4.42 0 0 Z " fill="#171717" id="path_136" transform="translate(618,503)"/>
<path d="M0 0 C0.66 0 1.32 0 2 0 C1.9129995 1.62600941 1.8048219 3.25089678 1.6875 4.875 C1.62949219 5.77992188 1.57148437 6.68484375 1.51171875 7.6171875 C1 10 1 10 -2 12 C-1.85831863 10.56208484 -1.71148957 9.1246763 -1.5625 7.6875 C-1.48128906 6.88699219 -1.40007813 6.08648437 -1.31640625 5.26171875 C-1 3 -1 3 0 0 Z " fill="#070807" id="path_137" transform="translate(640,468)"/>
<path d="M0 0 C0.33 0 0.66 0 1 0 C1.125 7.625 1.125 7.625 0 11 C-0.66 11 -1.32 11 -2 11 C-2.25 3.375 -2.25 3.375 0 0 Z " fill="#0F0F0F" id="path_138" transform="translate(631,367)"/>
<path d="M0 0 C0.33 0 0.66 0 1 0 C1.125 7.625 1.125 7.625 0 11 C-0.66 11 -1.32 11 -2 11 C-2.28571429 3.57142857 -2.28571429 3.57142857 0 0 Z " fill="#0C0C0C" id="path_139" transform="translate(671,245)"/>
<path d="M0 0 C0.33 0 0.66 0 1 0 C1.125 6.625 1.125 6.625 0 10 C-0.66 10 -1.32 10 -2 10 C-2.1953125 3.9453125 -2.1953125 3.9453125 -2 2 C-1.34 1.34 -0.68 0.68 0 0 Z " fill="#111111" id="path_140" transform="translate(617,442)"/>
<path d="M0 0 C0.99 0.33 1.98 0.66 3 1 C2.34 3.97 1.68 6.94 1 10 C0.01 9.67 -0.98 9.34 -2 9 C-1.34 6.03 -0.68 3.06 0 0 Z " fill="#282828" id="path_141" transform="translate(690,228)"/>
<path d="M0 0 C0.33 0 0.66 0 1 0 C0.91291331 1.45945288 0.80473093 2.91765868 0.6875 4.375 C0.62949219 5.18710937 0.57148437 5.99921875 0.51171875 6.8359375 C0 9 0 9 -3 11 C-2.69217504 9.35328588 -2.37860766 7.70764424 -2.0625 6.0625 C-1.88847656 5.14597656 -1.71445312 4.22945312 -1.53515625 3.28515625 C-1 1 -1 1 0 0 Z " fill="#060606" id="path_142" transform="translate(600,529)"/>
<path d="M0 0 C0.33 0 0.66 0 1 0 C1.28571429 7.42857143 1.28571429 7.42857143 -1 11 C-1.33 10.67 -1.66 10.34 -2 10 C-1.9140625 7.96875 -1.9140625 7.96875 -1.625 5.5 C-1.53476562 4.6853125 -1.44453125 3.870625 -1.3515625 3.03125 C-1 1 -1 1 0 0 Z " fill="#0A0A0B" id="path_143" transform="translate(636,493)"/>
<path d="M0 0 C0.33 0.66 0.66 1.32 1 2 C1.66 2 2.32 2 3 2 C2.67 4.97 2.34 7.94 2 11 C1.01 10.34 0.02 9.68 -1 9 C-0.67 6.03 -0.34 3.06 0 0 Z " fill="#222223" id="path_144" transform="translate(614,450)"/>
<path d="M0 0 C0.33 0 0.66 0 1 0 C0.67 2.97 0.34 5.94 0 9 C-0.99 9.33 -1.98 9.66 -3 10 C-2.69201674 8.51988629 -2.378482 7.04092675 -2.0625 5.5625 C-1.88847656 4.73878906 -1.71445312 3.91507813 -1.53515625 3.06640625 C-1 1 -1 1 0 0 Z " fill="#101010" id="path_145" transform="translate(689,236)"/>
<path d="M0 0 C1.27351308 2.54702616 0.80191925 3.4282945 0.0625 6.125 C-0.13214844 6.84945312 -0.32679688 7.57390625 -0.52734375 8.3203125 C-0.68332031 8.87460937 -0.83929687 9.42890625 -1 10 C-1.99 9.67 -2.98 9.34 -4 9 C-2.25 2.25 -2.25 2.25 0 0 Z " fill="#161617" id="path_146" transform="translate(599,538)"/>
<path d="M0 0 C1.485 0.99 1.485 0.99 3 2 C2.67 4.31 2.34 6.62 2 9 C1.01 9 0.02 9 -1 9 C-0.67 6.03 -0.34 3.06 0 0 Z " fill="#151515" id="path_147" transform="translate(633,502)"/>
<path d="M0 0 C0.33 0.66 0.66 1.32 1 2 C1.66 2 2.32 2 3 2 C2.67 4.64 2.34 7.28 2 10 C1.01 9.67 0.02 9.34 -1 9 C-0.67 6.03 -0.34 3.06 0 0 Z " fill="#242425" id="path_148" transform="translate(622,407)"/>
<path d="M0 0 C0.33 0 0.66 0 1 0 C1.14285714 7.42857143 1.14285714 7.42857143 0 11 C-0.66 11 -1.32 11 -2 11 C-1.85957123 9.35369672 -1.71250671 7.70795821 -1.5625 6.0625 C-1.48128906 5.14597656 -1.40007813 4.22945313 -1.31640625 3.28515625 C-1 1 -1 1 0 0 Z " fill="#010101" id="path_149" transform="translate(662,363)"/>
<path d="M0 0 C0.33 0 0.66 0 1 0 C1.125 6.625 1.125 6.625 0 10 C-0.66 10 -1.32 10 -2 10 C-1.85950482 8.52031676 -1.71245174 7.04125484 -1.5625 5.5625 C-1.48128906 4.73878906 -1.40007813 3.91507812 -1.31640625 3.06640625 C-1 1 -1 1 0 0 Z " fill="#060606" id="path_150" transform="translate(667,338)"/>
<path d="M0 0 C0.33 0 0.66 0 1 0 C1.125 6.625 1.125 6.625 0 10 C-0.66 10 -1.32 10 -2 10 C-1.85950482 8.52031676 -1.71245174 7.04125484 -1.5625 5.5625 C-1.48128906 4.73878906 -1.40007813 3.91507812 -1.31640625 3.06640625 C-1 1 -1 1 0 0 Z " fill="#070707" id="path_151" transform="translate(654,331)"/>
<path d="M0 0 C0.33 0 0.66 0 1 0 C1.125 6.625 1.125 6.625 0 10 C-0.66 10 -1.32 10 -2 10 C-1.85950482 8.52031676 -1.71245174 7.04125484 -1.5625 5.5625 C-1.48128906 4.73878906 -1.40007813 3.91507812 -1.31640625 3.06640625 C-1 1 -1 1 0 0 Z " fill="#0A0A09" id="path_152" transform="translate(675,297)"/>
<path d="M0 0 C0.99 0 1.98 0 3 0 C2.51171875 6.0546875 2.51171875 6.0546875 2 8 C1.01 8.66 0.02 9.32 -1 10 C-0.67 6.7 -0.34 3.4 0 0 Z " fill="#0B0B0B" id="path_153" transform="translate(651,255)"/>
<path d="M0 0 C2.4375 0.375 2.4375 0.375 5 1 C5.33 1.66 5.66 2.32 6 3 C3.69 3.33 1.38 3.66 -1 4 C-0.67 2.68 -0.34 1.36 0 0 Z " fill="#FBFBFA" id="path_154" transform="translate(105,635)"/>
<path d="M0 0 C0.33 0.99 0.66 1.98 1 3 C1.66 3.33 2.32 3.66 3 4 C2.67 5.98 2.34 7.96 2 10 C1.01 10 0.02 10 -1 10 C-0.67 6.7 -0.34 3.4 0 0 Z " fill="#1D1E1E" id="path_155" transform="translate(625,546)"/>
<path d="M0 0 C0.33 0 0.66 0 1 0 C1.28571429 7.42857143 1.28571429 7.42857143 -1 11 C-1.33 11 -1.66 11 -2 11 C-1.85892253 9.54119891 -1.71197585 8.08296449 -1.5625 6.625 C-1.48128906 5.81289063 -1.40007813 5.00078125 -1.31640625 4.1640625 C-1 2 -1 2 0 0 Z " fill="#010101" id="path_156" transform="translate(623,564)"/>
<path d="M0 0 C0.33 0 0.66 0 1 0 C1 2.31 1 4.62 1 7 C-0.32 7.33 -1.64 7.66 -3 8 C-1.125 1.125 -1.125 1.125 0 0 Z " fill="#171717" id="path_157" transform="translate(624,482)"/>
<path d="M0 0 C0.99 0 1.98 0 3 0 C2.67 2.64 2.34 5.28 2 8 C1.01 7.67 0.02 7.34 -1 7 C-0.67 4.69 -0.34 2.38 0 0 Z " fill="#161616" id="path_158" transform="translate(637,411)"/>
<path d="M0 0 C0.33 0 0.66 0 1 0 C1.125 6.75 1.125 6.75 0 9 C-0.66 9 -1.32 9 -2 9 C-1.125 1.125 -1.125 1.125 0 0 Z " fill="#060606" id="path_159" transform="translate(640,402)"/>
<path d="M0 0 C0.33 0.99 0.66 1.98 1 3 C1.66 3 2.32 3 3 3 C2.67 5.31 2.34 7.62 2 10 C1.01 9.67 0.02 9.34 -1 9 C-0.67 6.03 -0.34 3.06 0 0 Z " fill="#272828" id="path_160" transform="translate(626,386)"/>
<path d="M0 0 C0.33 0 0.66 0 1 0 C0.67 2.97 0.34 5.94 0 9 C-0.66 9 -1.32 9 -2 9 C-2.25 3.375 -2.25 3.375 0 0 Z " fill="#080808" id="path_161" transform="translate(680,274)"/>
<path d="M0 0 C0.99 0.33 1.98 0.66 3 1 C2.67 3.64 2.34 6.28 2 9 C1.01 8.34 0.02 7.68 -1 7 C-0.67 4.69 -0.34 2.38 0 0 Z " fill="#1D1D1D" id="path_162" transform="translate(643,381)"/>
<path d="M0 0 C0.33 0.66 0.66 1.32 1 2 C1.66 2 2.32 2 3 2 C2.67 4.31 2.34 6.62 2 9 C1.01 8.67 0.02 8.34 -1 8 C-0.67 5.36 -0.34 2.72 0 0 Z " fill="#242424" id="path_163" transform="translate(636,334)"/>
<path d="M0 0 C0.99 0.33 1.98 0.66 3 1 C2.44855089 5.08072342 2.08669204 5.91330796 -1 9 C-0.67 6.03 -0.34 3.06 0 0 Z " fill="#1A1A1A" id="path_164" transform="translate(618,584)"/>
<path d="M0 0 C0.99 0.33 1.98 0.66 3 1 C2.67 2.98 2.34 4.96 2 7 C1.01 7 0.02 7 -1 7 C-0.67 4.69 -0.34 2.38 0 0 Z " fill="#202020" id="path_165" transform="translate(603,510)"/>
<path d="M0 0 C0.33 0 0.66 0 1 0 C0.67 2.31 0.34 4.62 0 7 C-0.99 7.33 -1.98 7.66 -3 8 C-1.125 1.125 -1.125 1.125 0 0 Z " fill="#1D1D1D" id="path_166" transform="translate(684,257)"/>
<path d="M0 0 C2.4294516 3.6441774 2.16179575 5.71241272 2 10 C1.01 9.67 0.02 9.34 -1 9 C-0.67 6.03 -0.34 3.06 0 0 Z " fill="#262627" id="path_167" transform="translate(674,223)"/>
<path d="M0 0 C0.99 0.33 1.98 0.66 3 1 C2.67 3.31 2.34 5.62 2 8 C1.01 7.67 0.02 7.34 -1 7 C-0.67 4.69 -0.34 2.38 0 0 Z " fill="#1D1E1D" id="path_168" transform="translate(600,523)"/>
<path d="M0 0 C0.66 0.33 1.32 0.66 2 1 C1.67 3.31 1.34 5.62 1 8 C0.01 7.67 -0.98 7.34 -2 7 C-1.125 1.125 -1.125 1.125 0 0 Z " fill="#1C1C1C" id="path_169" transform="translate(630,451)"/>
<path d="M0 0 C0.99 0 1.98 0 3 0 C2.67 2.64 2.34 5.28 2 8 C1.01 7.34 0.02 6.68 -1 6 C-0.67 4.02 -0.34 2.04 0 0 Z " fill="#1F1F1F" id="path_170" transform="translate(669,322)"/>
<path d="M0 0 C0.66 0 1.32 0 2 0 C1.67 2.64 1.34 5.28 1 8 C0.01 7.34 -0.98 6.68 -2 6 C-1.34 4.02 -0.68 2.04 0 0 Z " fill="#242424" id="path_171" transform="translate(641,315)"/>
<path d="M0 0 C0.33 0.66 0.66 1.32 1 2 C1.66 2 2.32 2 3 2 C2.67 3.98 2.34 5.96 2 8 C1.34 8 0.68 8 0 8 C0 5.36 0 2.72 0 0 Z " fill="#171718" id="path_172" transform="translate(646,280)"/>
<path d="M0 0 C0.33 0 0.66 0 1 0 C0.67 2.64 0.34 5.28 0 8 C-0.66 8 -1.32 8 -2 8 C-1.125 1.125 -1.125 1.125 0 0 Z " fill="#010101" id="path_173" transform="translate(649,274)"/>
</svg>