<?xml version="1.0" encoding="utf-8"?>
<svg height="1008" id="front_svg_1" version="1.1" width="900" xmlns="http://www.w3.org/2000/svg">
<path d="M0 0 C297 0 594 0 900 0 C900 332.64 900 665.28 900 1008 C603 1008 306 1008 0 1008 C0 675.36 0 342.72 0 0 Z " fill="#FEFEFE" id="front_path_1" transform="translate(0,0)"/>
<path d="M0 0 C0.20753906 1.1859375 0.41507813 2.371875 0.62890625 3.59375 C4.43148347 24.06638314 12.48397032 41.60519285 26.95703125 56.81640625 C29 59 29 59 30.94921875 61.51171875 C34.67437818 66.03157885 39.41613481 69.39079687 44 73 C44.8971875 73.73605469 45.794375 74.47210938 46.71875 75.23046875 C71.25294082 94.69931399 101.69237635 103.18892938 132.60229492 103.18530273 C134.66671744 103.1874781 136.73059403 103.20567059 138.79492188 103.22460938 C151.73727655 103.28131783 164.31651886 101.8711382 176.8125 98.375 C177.74336426 98.11557617 178.67422852 97.85615234 179.63330078 97.58886719 C199.69158027 91.76604752 217.27477261 81.68868155 233 68 C233.70382812 67.42894531 234.40765625 66.85789062 235.1328125 66.26953125 C240.9034381 61.50593639 245.45065045 55.91745105 250 50 C250.6084375 49.21882813 251.216875 48.43765625 251.84375 47.6328125 C262.27399306 33.55198437 268.66744409 17.31002016 271 0 C275.78121598 0.70607428 279.96067314 2.48836012 284.390625 4.33203125 C285.64453033 4.8473793 285.64453033 4.8473793 286.92376709 5.37313843 C289.70088135 6.51550401 292.47539565 7.66405328 295.25 8.8125 C297.21333754 9.62134526 299.17688331 10.42968526 301.140625 11.23754883 C304.23253734 12.50960007 307.32430277 13.78199693 310.41540527 15.05601501 C319.86214577 18.94883443 329.32358505 22.80507628 338.78686523 26.6574707 C398.33245153 50.89794468 398.33245153 50.89794468 417.9375 59.6875 C418.80785889 60.07373535 419.67821777 60.4599707 420.57495117 60.85791016 C424.86120783 62.81516496 428.45151664 64.8242866 432 68 C429.72408358 77.30866791 426.53010292 86.26069919 423.3621521 95.29110718 C401.76645721 157.09888545 388.26875715 221.39854747 382.25 286.5625 C382.13430664 287.81385742 382.01861328 289.06521484 381.89941406 290.35449219 C381.5636035 294.23417596 381.26637508 298.11505119 381 302 C380.9516098 302.69024261 380.9032196 303.38048523 380.85336304 304.09164429 C379.57365021 323.25729517 379.80164441 342.48948147 379.8125 361.6875 C379.81267939 363.09220299 379.81267939 363.09220299 379.8128624 364.52528381 C379.82431372 435.87516347 381.25945054 507.21249719 384.38540077 578.49368095 C384.8029538 588.02022319 385.17096686 597.5466945 385.4609375 607.078125 C385.49515305 608.20160843 385.52936859 609.32509186 385.56462097 610.48262024 C385.63337997 612.74969304 385.70208008 615.01676763 385.77072144 617.28384399 C387.76013058 682.2182283 391.2412095 747.14565089 395 812 C390.26774329 814.16760137 385.62203654 816.29200173 380.6015625 817.7109375 C379.6427417 817.98301025 378.6839209 818.25508301 377.69604492 818.53540039 C376.6826001 818.81246826 375.66915527 819.08953613 374.625 819.375 C373.53485596 819.67462646 372.44471191 819.97425293 371.3215332 820.28295898 C347.17335028 826.8092619 322.70157567 831.21198932 298 835 C297.20429596 835.12287384 296.40859192 835.24574768 295.58877563 835.37234497 C281.08280161 837.59230315 266.54518707 839.18120299 251.9375 840.5625 C250.80780792 840.67049927 249.67811584 840.77849854 248.51419067 840.88977051 C229.94556129 842.65592448 211.39395941 844.04460776 192.75878906 844.83691406 C189.34576152 844.98499814 185.93493613 845.15660833 182.5234375 845.3359375 C85.4628135 850.09426051 -18.65152036 844.63550894 -122 813 C-122.15876814 800.46219791 -121.65890032 788.00681423 -121.01171875 775.48828125 C-120.90746101 773.41482777 -120.80356241 771.34135621 -120.69999695 769.26786804 C-120.48045063 764.88638803 -120.25848943 760.50503985 -120.03460693 756.1237793 C-119.68230345 749.22534519 -119.33704901 742.32656824 -118.99267578 735.42773438 C-118.11547255 717.88296598 -117.23625259 700.33830626 -116.30473328 682.79632568 C-114.09362677 641.14780913 -112.74364736 599.48147869 -111.49414062 557.79454041 C-111.44333116 556.11229045 -111.392387 554.43004455 -111.34130859 552.74780273 C-111.31582664 551.90721313 -111.29034468 551.06662354 -111.26409054 550.20056152 C-111.11164956 545.2798633 -110.9415224 540.36015163 -110.75648499 535.44056702 C-110.14130062 519.06705445 -109.70918663 502.6993682 -109.44921875 486.31640625 C-109.41799706 484.39713412 -109.41799706 484.39713412 -109.38614464 482.43908882 C-108.87505878 450.60907245 -108.8122626 418.77874923 -108.81488883 386.94525969 C-108.81453568 380.64818531 -108.80282824 374.35116562 -108.7889536 368.05410856 C-108.77573774 361.82149129 -108.77051849 355.58889814 -108.77115268 349.35626704 C-108.77140163 345.70207755 -108.76889364 342.04795632 -108.75797462 338.39378166 C-108.51697248 251.82588001 -126.27142892 163.37481289 -156.97387695 82.47167969 C-157.24954498 81.73381729 -157.52521301 80.9959549 -157.80923462 80.23573303 C-158.32585218 78.85356177 -158.85113701 77.47458747 -159.38656616 76.09959412 C-160.34566643 73.51653437 -161.03371095 71.43618964 -160.81958008 68.66552734 C-159.37234616 65.7244997 -156.34583905 64.75775252 -153.5 63.4375 C-152.4337439 62.92606445 -152.4337439 62.92606445 -151.34594727 62.40429688 C-148.9068426 61.24775152 -146.45578054 60.12068053 -144 59 C-143.14905762 58.6095752 -142.29811523 58.21915039 -141.42138672 57.81689453 C-123.51445617 49.65598824 -105.26236051 42.30472488 -87.04373169 34.87620544 C-79.99879025 32.00279237 -72.9655881 29.1019244 -65.9375 26.1875 C-63.66931771 25.24728273 -61.40108619 24.30718424 -59.1328125 23.3671875 C-58.53338333 23.11876099 -57.93395416 22.87033447 -57.31636047 22.61437988 C-51.23158377 20.09375907 -45.14310616 17.58212083 -39.0546875 15.0703125 C-36.93367203 14.19507588 -34.81265967 13.3198317 -32.69165039 12.44458008 C-29.51106343 11.13210776 -26.33038008 9.8198717 -23.14938354 8.50839233 C-20.1787436 7.28359799 -17.20847759 6.05790088 -14.23828125 4.83203125 C-13.33451752 4.45970367 -12.43075378 4.0873761 -11.49960327 3.70376587 C-10.25710312 3.19068375 -10.25710312 3.19068375 -8.98950195 2.66723633 C-8.26422806 2.36811844 -7.53895416 2.06900055 -6.79170227 1.76081848 C-2.64503319 0 -2.64503319 0 0 0 Z " fill="#FEFEFE" id="front_path_2" transform="translate(316,64)"/>
<path d="M0 0 C1.15822266 0.30212402 1.15822266 0.30212402 2.33984375 0.61035156 C3.21769531 0.84979492 4.09554688 1.08923828 5 1.3359375 C7.1861374 1.87019018 9.37376939 2.39834757 11.5625 2.921875 C12.75858887 3.21102783 13.95467773 3.50018066 15.18701172 3.7980957 C74.91297757 18.0966862 140.54547108 19.8356948 199.73828125 1.15625 C210.58357998 -1.57131016 218.86726295 2.67250912 228.6875 6.8359375 C230.3243945 7.51607112 231.96185759 8.19483774 233.59985352 8.87231445 C237.88540641 10.65005239 242.16231084 12.44760055 246.4362793 14.25299072 C248.9429783 15.31185084 251.45077839 16.36805502 253.95898438 17.42333984 C260.3988979 20.13346627 266.8377762 22.84599354 273.2722168 25.5690918 C282.643062 29.53091767 292.04173067 33.39902426 301.5 37.1484375 C322.0929479 45.31674107 342.55807153 53.79766853 363 62.3359375 C364.22200104 62.84595306 364.22200104 62.84595306 365.46868896 63.36627197 C369.75662185 65.15788583 374.03909642 66.96145255 378.31274414 68.78689575 C380.1076786 69.55191673 381.90630073 70.30826804 383.70507812 71.06420898 C393.66952826 75.36089533 402.92164968 80.46316015 410.5 88.3359375 C411.04132568 88.89224854 411.58265137 89.44855957 412.14038086 90.02172852 C465.94741764 146.6478666 483.44397245 247.86433188 500 321.3359375 C500.23831543 322.35961426 500.47663086 323.38329102 500.72216797 324.43798828 C500.91568848 325.31310059 501.10920898 326.18821289 501.30859375 327.08984375 C501.55113892 328.16407593 501.55113892 328.16407593 501.79858398 329.26000977 C502.05160868 331.86785099 501.78353653 333.83573659 501 336.3359375 C498.45955549 337.85635505 496.2368956 338.90643781 493.5 339.9609375 C492.67467773 340.29158203 491.84935547 340.62222656 490.99902344 340.96289062 C453.9682014 355.43653096 408.77405829 371.7772022 368.625 371.3984375 C367.37976563 371.38941406 366.13453125 371.38039063 364.8515625 371.37109375 C363.44003906 371.35369141 363.44003906 371.35369141 362 371.3359375 C359.17664435 364.316641 357.23655032 357.14652536 355.3125 349.8359375 C354.99216797 348.63195312 354.67183594 347.42796875 354.34179688 346.1875 C353.55758247 343.23791746 352.77708773 340.28740407 352 337.3359375 C351.66195945 418.2046646 352.18310856 499.04946112 355.57449341 579.8586731 C355.97149284 589.39931188 356.31491198 598.94148975 356.65234375 608.484375 C359.1264837 678.23535977 362.20390079 747.94509581 366.25998878 817.62301636 C366.42166621 820.40058409 366.58261199 823.17819344 366.74343872 825.95581055 C366.93937931 829.33961213 367.13851903 832.72320255 367.33981323 836.10668945 C367.42813978 837.62255276 367.51637173 839.13842158 367.60449219 840.65429688 C367.68125183 841.9521814 367.75801147 843.25006592 367.83709717 844.58728027 C368.32823695 855.88919968 368.32823695 855.88919968 366.77734375 858 C364.53413436 859.17161255 362.31087883 860.29991031 360 861.3359375 C359.00097656 861.79484375 358.00195312 862.25375 356.97265625 862.7265625 C329.80641522 874.33867902 300.06702269 879.5064047 271.05084229 884.01431274 C268.87235021 884.35595627 266.69581233 884.708837 264.51904297 885.0612793 C251.96031127 887.05895948 239.37551903 888.41876631 226.71484375 889.58862305 C223.42621512 889.89368662 220.13891935 890.21085573 216.8515625 890.52929688 C209.90564484 891.19078985 202.95499871 891.77864781 196 892.3359375 C194.80920837 892.43343292 193.61841675 892.53092834 192.39154053 892.63137817 C165.93682084 894.716407 139.46107494 894.67793426 112.93847656 894.65161133 C107.92113228 894.64699943 102.90403156 894.65384516 97.88671875 894.67211914 C-92.50884291 895.35905726 -92.50884291 895.35905726 -161 857.3359375 C-162 856.3359375 -162 856.3359375 -162.0584259 854.47740173 C-162.02601303 853.65075516 -161.99360016 852.82410858 -161.96020508 851.97241211 C-161.90578499 850.53316124 -161.90578499 850.53316124 -161.8502655 849.06483459 C-161.8029982 847.98769699 -161.7557309 846.91055939 -161.70703125 845.80078125 C-161.63582817 844.07927101 -161.63582817 844.07927101 -161.56318665 842.32298279 C-160.92559916 827.64096797 -160.03645041 812.97188411 -159.17764568 798.30152702 C-156.29377281 748.99969744 -154.01446377 699.68023988 -152 650.3359375 C-151.94249104 648.93180312 -151.8849759 647.52766899 -151.82745361 646.12353516 C-151.20824334 630.96203487 -150.63518678 615.79939585 -150.11395264 600.63421631 C-149.9919608 597.10324845 -149.86741317 593.57237579 -149.74267578 590.04150391 C-149.5109634 583.45525351 -149.28704143 576.86877544 -149.06768799 570.28210449 C-148.98513349 567.81940271 -148.90112237 565.35674898 -148.81512451 562.89416504 C-147.03256645 511.4914052 -146.84823386 460.06161713 -146.9279725 408.63443536 C-146.93952879 401.04199637 -146.94474025 393.44955597 -146.94967639 385.85711026 C-146.95988721 370.35004241 -146.97724908 354.84299238 -147 339.3359375 C-147.23710693 340.26978271 -147.47421387 341.20362793 -147.71850586 342.16577148 C-148.59651143 345.61995871 -149.47907241 349.07296818 -150.36303711 352.52563477 C-150.74547323 354.02206034 -151.12666193 355.51880528 -151.5065918 357.01586914 C-152.05192102 359.16376951 -152.60168016 361.31049317 -153.15234375 363.45703125 C-153.3221727 364.12995712 -153.49200165 364.802883 -153.66697693 365.49620056 C-154.88612829 370.22206579 -154.88612829 370.22206579 -156 371.3359375 C-165.31365853 371.93224138 -174.18392294 370.96544962 -183.3125 369.2109375 C-184.52252686 368.9850293 -185.73255371 368.75912109 -186.97924805 368.52636719 C-221.63561292 361.91050175 -256.83373084 352.21378106 -289.625 339.0859375 C-290.66914063 338.66828125 -291.71328125 338.250625 -292.7890625 337.8203125 C-295 336.3359375 -295 336.3359375 -295.74243164 334.29003906 C-296.10171045 330.16940062 -295.24552353 326.59652789 -294.33203125 322.5859375 C-294.14155716 321.71695831 -293.95108307 320.84797913 -293.75483704 319.95266724 C-293.11952891 317.07756245 -292.46736424 314.2066473 -291.8125 311.3359375 C-291.58858582 310.34253357 -291.36467163 309.34912964 -291.13397217 308.32562256 C-254.50253178 146.10621822 -254.50253178 146.10621822 -212 96.3359375 C-211.30132812 95.50449219 -210.60265625 94.67304688 -209.8828125 93.81640625 C-203.09750146 85.98629818 -196.30480659 80.30944715 -187.0078125 75.6875 C-186.31551041 75.34291748 -185.62320831 74.99833496 -184.90992737 74.64331055 C-175.7543948 70.15535507 -166.34350153 66.262307 -156.9375 62.3359375 C-154.94682198 61.50044415 -152.95626422 60.66466423 -150.96582031 59.82861328 C-135.23127763 53.22930706 -119.45036823 46.74416602 -103.65625 40.2890625 C-93.67509571 36.20957996 -83.71020485 32.09127163 -73.75 27.9609375 C-72.91532196 27.61495514 -72.08064392 27.26897278 -71.22067261 26.9125061 C-61.15998132 22.74102959 -51.1087928 18.54738654 -41.06640625 14.33203125 C-40.07975983 13.91808105 -39.0931134 13.50413086 -38.0765686 13.07763672 C-33.29354807 11.07064669 -28.51157574 9.06122729 -23.73144531 7.04736328 C-22.00458746 6.32186828 -20.27770095 5.59644152 -18.55078125 4.87109375 C-17.77142715 4.54169296 -16.99207306 4.21229218 -16.18910217 3.87290955 C-4.17593384 -1.16500977 -4.17593384 -1.16500977 0 0 Z M-43.234375 20.2734375 C-43.96680923 20.58478134 -44.69924347 20.89612518 -45.45387268 21.21690369 C-47.04780647 21.89488169 -48.64074895 22.57519386 -50.2328186 23.25753784 C-54.55514188 25.10928835 -58.88531821 26.94251089 -63.21484375 28.77734375 C-64.11120041 29.15766251 -65.00755707 29.53798126 -65.93107605 29.92982483 C-75.02847716 33.78406086 -84.16636116 37.53667454 -93.3125 41.2734375 C-96.54838481 42.59714889 -99.78399219 43.9215375 -103.01953125 45.24609375 C-103.8284079 45.5771814 -104.63728455 45.90826904 -105.47067261 46.24938965 C-141.42908446 60.83906065 -141.42908446 60.83906065 -177 76.3359375 C-177.81291504 76.70541504 -178.62583008 77.07489258 -179.46337891 77.45556641 C-181.77754873 78.52039129 -184.07835112 79.60890711 -186.375 80.7109375 C-187.04281494 81.0210376 -187.71062988 81.3311377 -188.39868164 81.65063477 C-191.72790514 83.20951985 -191.72790514 83.20951985 -193.78515625 86.09985352 C-194.07424815 89.10870891 -193.28533782 91.07359554 -192.2265625 93.90234375 C-191.61482178 95.56704712 -191.61482178 95.56704712 -190.99072266 97.26538086 C-190.54003418 98.46428955 -190.0893457 99.66319824 -189.625 100.8984375 C-188.92151711 102.8186912 -188.22330158 104.74081064 -187.52523804 106.66304016 C-186.80948459 108.63330055 -186.09050717 110.60236249 -185.37109375 112.57128906 C-164.63052125 169.4493184 -151.43253252 230.15359935 -145 290.3359375 C-144.90235352 291.24859375 -144.80470703 292.16125 -144.70410156 293.1015625 C-144.41851961 295.82468735 -144.14329279 298.54855746 -143.875 301.2734375 C-143.79926758 302.04099365 -143.72353516 302.8085498 -143.64550781 303.59936523 C-143.40640633 306.17673856 -143.20158066 308.7553366 -143 311.3359375 C-142.87325897 312.90611382 -142.87325897 312.90611382 -142.74395752 314.50801086 C-141.76096344 328.56858589 -141.8528157 342.63714603 -141.8656745 356.72474003 C-141.86826123 360.46775946 -141.8658413 364.21077682 -141.86428833 367.95379639 C-141.86247477 374.28137657 -141.86484116 380.60894505 -141.86962891 386.93652344 C-141.87438386 393.29069799 -141.87452071 399.64484899 -141.86962891 405.99902344 C-141.82838086 461.20286441 -142.21822913 516.37627697 -144.34277344 571.54650879 C-144.50154773 575.69817003 -144.65397822 579.85006336 -144.80664062 584.00195312 C-144.99605918 589.15336301 -145.18631579 594.30473179 -145.38134766 599.45593262 C-145.75670021 609.41639194 -146.10195466 619.37725651 -146.41601562 629.33984375 C-147.27333582 656.26247893 -148.36175694 683.16146934 -149.7265625 710.0625 C-149.76487883 710.81809621 -149.80319516 711.57369242 -149.84267259 712.35218549 C-150.38874355 723.10690616 -150.94496252 733.86109667 -151.50325775 744.6151886 C-152.07257235 755.58483242 -152.63953363 766.55459093 -153.19810998 777.52478731 C-153.38442724 781.17986763 -153.57244131 784.83484269 -153.76475906 788.48961258 C-154.89639652 809.40062404 -154.89639652 809.40062404 -155 830.3359375 C-138.30173347 836.3996568 -121.34885207 840.60472694 -104 844.3359375 C-102.948125 844.56522949 -101.89625 844.79452148 -100.8125 845.03076172 C-79.08923007 849.70140618 -57.01523225 852.44043917 -35 855.3359375 C-34.29462097 855.42941467 -33.58924194 855.52289185 -32.86248779 855.61920166 C35.57773952 864.64558364 105.16208736 865.29887993 174 861.3359375 C175.31581055 861.26117187 176.63162109 861.18640625 177.98730469 861.109375 C186.00237037 860.63544831 194.00053786 860.02253019 202 859.3359375 C203.1244754 859.24085907 203.1244754 859.24085907 204.27166748 859.14385986 C228.98665374 857.0508209 253.53276716 854.4343608 278 850.3359375 C278.75819031 850.20960938 279.51638062 850.08328125 280.29754639 849.953125 C298.00979469 846.98985215 315.60370722 843.69503568 333 839.2109375 C334.21453857 838.89858154 335.42907715 838.58622559 336.68041992 838.2644043 C342.78035689 836.63591434 348.82339212 834.84047072 354.8125 832.84375 C355.97394531 832.46105957 357.13539063 832.07836914 358.33203125 831.68408203 C361.06868778 830.66257549 361.06868778 830.66257549 361.68437195 828.7118988 C362.11931865 825.43773944 361.92652824 822.2547004 361.71801758 818.97241211 C361.67573595 818.22838072 361.63345432 817.48434933 361.58989143 816.71777153 C361.49647839 815.08810064 361.40021998 813.45859098 361.30149651 811.82923317 C361.14114585 809.18240001 360.98809579 806.53522891 360.83680725 803.88786316 C360.61637668 800.04236416 360.39289937 796.19705954 360.16717529 792.35186768 C359.55857926 781.95838557 358.97926597 771.56325013 358.40234375 761.16796875 C358.31299435 759.56021954 358.31299435 759.56021954 358.2218399 757.91999054 C356.95763843 735.1067911 355.86836877 712.28741898 354.875 689.4609375 C354.83452545 688.53288929 354.7940509 687.60484108 354.75234985 686.6486702 C353.09457438 648.55468966 351.72704971 610.45055074 350.45158386 572.34205627 C350.20418952 564.99225901 349.93587189 557.64446063 349.60769653 550.29774475 C348.65158335 528.63708469 348.34978753 506.94972414 347.9375 485.2734375 C347.90439476 483.54321665 347.90439476 483.54321665 347.87062073 481.77804184 C347.24032364 448.6600045 346.78543055 415.54572266 346.75368118 382.42134476 C346.75005805 379.69216787 346.74278381 376.96302282 346.73458862 374.2338562 C346.67697188 352.50856561 347.22965909 330.99817267 349 309.3359375 C349.11341736 307.90729874 349.11341736 307.90729874 349.22912598 306.44979858 C349.67595795 300.88454085 350.18593881 295.32798377 350.75 289.7734375 C350.87405212 288.54188934 350.87405212 288.54188934 351.00061035 287.28546143 C357.04632765 228.04334531 370.51512475 169.07556027 390.296875 112.921875 C390.71858727 111.71817513 390.71858727 111.71817513 391.14881897 110.49015808 C392.53415553 106.53705537 393.93432759 102.59076741 395.36694336 98.65454102 C395.87408192 97.22431485 396.38069999 95.79390399 396.88671875 94.36328125 C397.13093567 93.71052216 397.37515259 93.05776306 397.62677002 92.38522339 C398.5899619 89.61894473 399.15571495 87.85300416 398.29711914 85.00195312 C396.28835491 82.42190285 393.64283227 81.26391333 390.75 79.8984375 C390.05801514 79.56336182 389.36603027 79.22828613 388.65307617 78.88305664 C366.8234197 68.48545879 344.3103309 59.54631579 321.89096069 50.52032471 C311.87229328 46.48392436 301.87131727 42.4041535 291.8710022 38.32254028 C288.79873924 37.06883128 285.72593256 35.81646262 282.65307617 34.56420898 C280.68923197 33.7630012 278.72544556 32.96165173 276.76171875 32.16015625 C275.80702194 31.77093491 274.85232513 31.38171356 273.86869812 30.98069763 C268.66199571 28.85261532 263.4687285 26.69601054 258.28759766 24.50634766 C256.63676933 23.8105938 256.63676933 23.8105938 254.95259094 23.1007843 C252.83031997 22.20473518 250.70994004 21.30419047 248.59172058 20.39860535 C247.64082047 19.99740982 246.68992035 19.59621429 245.71020508 19.18286133 C244.45171501 18.64693108 244.45171501 18.64693108 243.1678009 18.10017395 C240.91154027 17.16969569 240.91154027 17.16969569 238 17.3359375 C237.85304688 18.31691406 237.70609375 19.29789063 237.5546875 20.30859375 C234.26450094 40.7021436 225.57670224 57.80557501 212 73.3359375 C211.42636719 74.04234375 210.85273437 74.74875 210.26171875 75.4765625 C205.50151547 81.24788295 199.90370705 85.77361695 194 90.3359375 C193.14535156 91.00625 192.29070312 91.6765625 191.41015625 92.3671875 C165.96592737 111.65123465 136.05237291 120.52494983 104.34277344 120.52124023 C102.2673669 120.52341927 100.19250012 120.5416223 98.1171875 120.56054688 C89.26849435 120.59811564 80.72813251 119.87106773 72 118.3359375 C71.2147998 118.20050537 70.42959961 118.06507324 69.62060547 117.92553711 C45.81855676 113.50434219 24.36658944 101.79657208 6 86.3359375 C5.15695312 85.64628906 4.31390625 84.95664063 3.4453125 84.24609375 C-2.48725396 79.22701936 -7.2838817 73.49381572 -12 67.3359375 C-12.60714844 66.55605469 -13.21429688 65.77617188 -13.83984375 64.97265625 C-24.3232974 50.82831402 -30.36020738 34.66826007 -33 17.3359375 C-36.85696674 17.3359375 -39.75740925 18.76995383 -43.234375 20.2734375 Z " fill="#090909" id="front_path_3" transform="translate(349,46.6640625)"/>
<path d="M0 0 C15.3208303 12.38705429 24.6513013 28.38352988 33.00244141 45.92382812 C34.00385568 48.00802465 35.0358931 50.07460338 36.07421875 52.140625 C58.77314991 97.87866204 72.00968061 148.6052908 84.75 197.8125 C84.96899963 198.6527774 85.18799927 199.49305481 85.41363525 200.35879517 C86.02759551 202.72313503 86.63266427 205.08954809 87.234375 207.45703125 C87.41497467 208.15086914 87.59557434 208.84470703 87.78164673 209.55957031 C88.67225339 213.11468737 89.19948018 216.33300708 89 220 C80.92061971 223.90772111 72.73149169 226.95770686 64.1875 229.6875 C63.52794312 229.89865448 62.86838623 230.10980896 62.18884277 230.32736206 C37.04613214 238.33980469 11.50749656 244.65622146 -14.3125 250.0625 C-15.23800659 250.25667511 -16.16351318 250.45085022 -17.11706543 250.65090942 C-19.76035619 251.2021311 -22.40508262 251.74562055 -25.05078125 252.28515625 C-25.82422379 252.44508057 -26.59766632 252.60500488 -27.39454651 252.76977539 C-32.58152159 253.81023099 -37.73530422 254.47519388 -43 255 C-48.70360776 238.94023087 -50.91901083 225.87309917 -49 209 C-48.81729083 207.1056075 -48.63473987 205.21119722 -48.45588684 203.31643677 C-41.78453072 133.39013923 -23.39497329 66.00907598 0 0 Z " fill="#FEFEFE" id="front_path_4" transform="translate(751,135)"/>
<path d="M0 0 C2.13250599 3.19875898 3.21710467 6.08958851 4.50390625 9.7109375 C4.86248215 10.71756187 4.86248215 10.71756187 5.228302 11.74452209 C6.01208362 13.95271041 6.7882286 16.1634601 7.5625 18.375 C7.83011139 19.13740997 8.09772278 19.89981995 8.3734436 20.68533325 C29.79949781 81.8457308 46.19221367 147.20774341 51 212 C51.06864258 212.88510254 51.13728516 213.77020508 51.20800781 214.68212891 C52.16808711 228.89291155 49.15819146 241.45638704 45 255 C35.98213638 254.26405941 27.20923356 252.31280545 18.375 250.4375 C17.11863235 250.1719783 17.11863235 250.1719783 15.83688354 249.90109253 C-0.57875257 246.41909408 -16.81785032 242.45294561 -33 238 C-33.65546814 237.82039734 -34.31093628 237.64079468 -34.98626709 237.45574951 C-72.87783492 227.06108254 -72.87783492 227.06108254 -87 220 C-86.39459344 213.12713959 -85.09279739 206.69491882 -83.375 200.01953125 C-83.11238373 198.98147842 -82.84976746 197.9434256 -82.57919312 196.87391663 C-81.72699243 193.51813604 -80.86455429 190.16511772 -80 186.8125 C-79.70554993 185.66485168 -79.41109985 184.51720337 -79.10772705 183.33477783 C-74.50278648 165.41033531 -69.66354725 147.62261517 -64 130 C-63.58125384 128.68270906 -63.16280717 127.36532289 -62.74462891 126.04785156 C-48.8146467 82.29008262 -33.07720465 33.07720465 0 0 Z " fill="#FEFEFE" id="front_path_5" transform="translate(151,135)"/>
<path d="M0 0 C5.75135332 1.20801991 11.36100714 2.6472834 16.99682617 4.30859375 C85.64954381 24.4004386 160.53946314 31.04280672 231.85546875 31.203125 C233.79729228 31.21010633 235.7391156 31.21714727 237.68093872 31.22424316 C243.8497954 31.24350865 250.01861651 31.24841889 256.1875 31.25 C257.23801418 31.25058914 258.28852837 31.25117828 259.37087631 31.25178528 C290.4691148 31.26409687 321.4114184 31.00921848 352.40802002 28.2310791 C355.0602794 27.994626 357.71330168 27.76919198 360.36669922 27.54589844 C372.26404457 26.53542734 384.13669408 25.35215918 396 24 C396.79927917 23.90889954 397.59855835 23.81779907 398.42205811 23.72393799 C436.80015218 19.30810729 476.00720666 13.65432243 512.56982422 0.7409668 C515 0 515 0 518 0 C519.03026944 6.69675136 519.10152799 13.2314676 519 20 C483.90519824 39.8361923 439.23490081 44.02688753 399.8046875 48.55908203 C396.34679663 48.9598104 392.89221114 49.38150614 389.4375 49.80859375 C374.30525264 51.61694402 359.14318804 52.66924181 343.9375 53.625 C342.95144775 53.6875296 341.96539551 53.7500592 340.94946289 53.81448364 C314.09039487 55.49834748 287.28103563 56.17978785 260.375 56.125 C258.89993293 56.12271925 257.42486579 56.12048175 255.94979858 56.11828613 C75.84574932 55.81785761 75.84574932 55.81785761 3 22 C2.19949219 21.64679687 1.39898437 21.29359375 0.57421875 20.9296875 C-2.18574886 17.54650139 -1.13344531 13.47257733 -0.75 9.3125 C-0.68425781 8.41982422 -0.61851562 7.52714844 -0.55078125 6.60742188 C-0.3857301 4.40281015 -0.20149283 2.20153098 0 0 Z " fill="#FCFCFC" id="front_path_6" transform="translate(193,881)"/>
<path d="M0 0 C0.29390625 1.65322266 0.29390625 1.65322266 0.59375 3.33984375 C5.39914415 28.42322076 18.90615512 50.00584464 39.84765625 64.91015625 C68.23404215 83.72888792 101.96101336 89.5251511 135.4765625 83.03515625 C163.6637955 76.8992843 188.01222952 61.4303214 203.79785156 36.98583984 C210.69491753 25.59251438 215.52519997 13.27320023 217 0 C225.36980236 2.19851951 233.11827559 5.49070196 241 9 C236.49570917 39.06811683 220.11303862 64.58407849 195.75 82.6875 C171.7123566 99.98954074 143.64862942 109.93882346 114 111 C112.70835937 111.05285156 111.41671875 111.10570312 110.0859375 111.16015625 C74.25944358 112.16363969 38.58267488 99.25417094 12.125 75 C10.04997489 73.03219504 8.01662682 71.02747619 6 69 C5.10539062 68.10539062 4.21078125 67.21078125 3.2890625 66.2890625 C-11.36864121 50.90974876 -23.39377969 29.68104627 -23 8 C-19.73256344 6.6582322 -16.46053092 5.32805641 -13.1875 4 C-12.25873047 3.6184375 -11.32996094 3.236875 -10.37304688 2.84375 C-9.0340332 2.30234375 -9.0340332 2.30234375 -7.66796875 1.75 C-6.84578857 1.41484375 -6.0236084 1.0796875 -5.17651367 0.734375 C-3 0 -3 0 0 0 Z " fill="#FDFDFD" id="front_path_7" transform="translate(343,53)"/>
<path d="M0 0 C5.60713178 1.1024576 11.20340333 2.24906253 16.79296875 3.4375 C44.27841538 9.26344031 70.42886644 11.26851032 98.5 11.3125 C99.18066402 11.31379787 99.86132805 11.31509575 100.56261826 11.31643295 C120.97304882 11.34591363 140.90149104 10.95681612 161 7 C162.12019531 6.78617676 163.24039063 6.57235352 164.39453125 6.35205078 C170.42734788 5.18599351 176.43137924 3.92445957 182.42431641 2.56933594 C186.60271705 1.64573117 190.80033169 0.82057931 195 0 C182.89545176 23.7047403 164.2732626 41.87223795 139 51 C125.32761555 55.3485314 112.42486755 57.23753413 98.0625 57.25 C97.36680908 57.25067474 96.67111816 57.25134949 95.9543457 57.25204468 C85.6745069 57.23618439 75.97013636 56.83229532 66 54 C64.76121094 53.6596875 63.52242188 53.319375 62.24609375 52.96875 C37.07533139 45.32716471 15.39150168 28.45570732 2.546875 5.390625 C1.65308104 3.61562574 0.81700775 1.81162589 0 0 Z " fill="#FDFDFD" id="front_path_8" transform="translate(354,77)"/>
<path d="M0 0 C6.80323443 1.16501268 13.52569724 2.54429119 20.24829102 4.10668945 C41.85921178 9.11660236 63.75437145 13.11097817 85.98828125 13.203125 C87.11707199 13.21009399 88.24586273 13.21706299 89.40885925 13.22424316 C93.04344429 13.24158599 96.67787528 13.24796561 100.3125 13.25 C102.1697168 13.25151062 102.1697168 13.25151062 104.06445312 13.25305176 C122.24592138 13.24302695 140.00701383 12.80056944 158 10 C158.98548828 9.85546387 159.97097656 9.71092773 160.98632812 9.56201172 C173.4957937 7.70288607 185.75430037 5.00564413 198.01855469 1.93041992 C199.01790039 1.6801001 200.01724609 1.42978027 201.046875 1.171875 C201.93213867 0.9459668 202.81740234 0.72005859 203.72949219 0.48730469 C206 0 206 0 209 0 C206.96267191 14.38113949 206.96267191 14.38113949 204 20 C198.02689551 23.1987117 191.51501506 24.48700516 184.9375 25.9375 C183.770979 26.19619873 182.60445801 26.45489746 181.40258789 26.72143555 C167.72096443 29.64200743 153.89874936 31.45177247 140 33 C139.25152298 33.08702682 138.50304596 33.17405365 137.73188782 33.26371765 C131.65626788 33.93061436 125.66037531 34.16045036 119.55078125 34.16796875 C118.57626511 34.17129715 117.60174896 34.17462555 116.59770203 34.17805481 C114.54129503 34.18308872 112.48487995 34.18546424 110.4284668 34.18530273 C107.36557542 34.18746257 104.30306099 34.20558254 101.24023438 34.22460938 C70.21420406 34.31298394 33.75510325 32.78740767 5 20 C3.44268911 17.40448184 2.72191314 15.82794548 2 13 C1.79761719 12.23558594 1.59523438 11.47117187 1.38671875 10.68359375 C0.48668236 6.96711697 0 3.85801516 0 0 Z " fill="#FCFCFC" id="front_path_9" transform="translate(347,52)"/>
<path d="M0 0 C1.98 9.9 1.98 9.9 4 20 C-5.30391779 24.94110504 -14.57733514 28.53967269 -24.5625 31.8125 C-25.3384552 32.06912415 -26.1144104 32.32574829 -26.91387939 32.59014893 C-58.59914976 43.03108946 -94.43380874 54.41957739 -128 54 C-130.475 44.595 -130.475 44.595 -133 35 C-125.64323766 33.2654788 -118.27976182 31.62242587 -110.87890625 30.08984375 C-57.29707489 19.33953428 -57.29707489 19.33953428 -5.87109375 1.21484375 C-3 0 -3 0 0 0 Z " fill="#FCFCFC" id="front_path_10" transform="translate(842,359)"/>
<path d="M0 0 C5.2469057 0.64043803 9.74998608 2.2978642 14.63671875 4.1953125 C24.56042982 7.94281372 34.60595031 11.00240622 44.8125 13.875 C45.70720001 14.12879425 46.60190002 14.3825885 47.52371216 14.64407349 C75.37175764 22.52644111 103.45411073 29.18785126 132 34 C131.35175144 40.94717648 129.9496833 47.30326171 128 54 C119.79095202 54.28686428 112.07876475 53.48872743 104 52.0625 C102.75379883 51.84360107 101.50759766 51.62470215 100.22363281 51.39916992 C68.92792649 45.72731658 37.38939144 36.74187307 7.625 25.5625 C6.77502441 25.24466553 5.92504883 24.92683105 5.04931641 24.59936523 C-1.86973688 21.89472374 -1.86973688 21.89472374 -4 19 C-3.97338867 16.9152832 -3.97338867 16.9152832 -3.41796875 14.55078125 C-3.22783203 13.70322266 -3.03769531 12.85566406 -2.84179688 11.98242188 C-2.51791992 10.66081055 -2.51791992 10.66081055 -2.1875 9.3125 C-1.98318359 8.41982422 -1.77886719 7.52714844 -1.56835938 6.60742188 C-1.06096897 4.40086359 -0.53772576 2.19932686 0 0 Z " fill="#FCFCFC" id="front_path_11" transform="translate(62,359)"/>
</svg>