<?xml version="1.0" encoding="utf-8"?>
<svg height="1098" id="left_svg_1" version="1.1" width="738" xmlns="http://www.w3.org/2000/svg">
<path d="M0 0 C243.54 0 487.08 0 738 0 C738 362.34 738 724.68 738 1098 C494.46 1098 250.92 1098 0 1098 C0 735.66 0 373.32 0 0 Z " fill="#FEFEFE" id="left_path_1" transform="translate(0,0)"/>
<path d="M0 0 C3.13469617 1.85611566 5.88408585 4.11962136 8.6875 6.4375 C9.48623535 7.07985596 10.2849707 7.72221191 11.10791016 8.3840332 C12.69772541 9.66563868 14.28250557 10.953519 15.86181641 12.24804688 C17.62955882 13.69647341 19.40786371 15.12791002 21.19921875 16.546875 C27.05827763 21.23412211 32.60390985 26.21265352 38.09765625 31.31640625 C40.70297872 33.72536525 43.34269014 36.08631223 46 38.4375 C54.51493704 46.10504363 62.54765042 54.067714 69.65600586 63.07299805 C71.95683131 65.94609421 74.32959756 68.74315055 76.71875 71.54296875 C81.87434558 77.67790602 86.44722029 84.13160314 90.875 90.8125 C91.25952332 91.3913797 91.64404663 91.9702594 92.04022217 92.56668091 C119.63904762 134.2722525 132.83434004 181.41254544 137.77996826 230.81896973 C137.9996829 232.99685675 138.22789757 235.17372333 138.45751953 237.35058594 C140.3921699 255.92605298 141.26986531 274.38513575 141.25 293.0625 C141.24931519 293.95666626 141.24863037 294.85083252 141.2479248 295.77209473 C141.23166326 302.1829857 141.13496292 308.59058197 141 315 C140.98162079 315.95108643 140.96324158 316.90217285 140.94430542 317.88208008 C140.43042307 341.80974232 138.52230497 365.66621409 136.80297852 389.53015137 C136.40389394 395.08107336 136.00967027 400.63233983 135.61523438 406.18359375 C135.53820471 407.26623127 135.46117504 408.34886879 135.38181114 409.46431351 C134.99877949 414.84857775 134.61676693 420.23291172 134.23648071 425.61737061 C134.09014549 427.68729918 133.94377384 429.75722519 133.79736328 431.82714844 C133.69228927 433.31387621 133.69228927 433.31387621 133.58509254 434.83063889 C133.20785108 440.14669933 132.81467743 445.4610046 132.40185547 450.77441406 C128.75816703 498.84207393 128.58907272 547.13346844 128.62380028 595.31422138 C128.62501368 597.52491903 128.62509854 599.73561402 128.62483215 601.94631195 C128.6207851 646.83170372 129.27965468 691.54215423 132.72143555 736.31469727 C133.0925501 741.22440292 133.43039019 746.13616623 133.76811218 751.04826355 C135.38636344 774.53530349 137.38336536 797.9858119 139.57470703 821.42578125 C140.68332918 833.30401016 141.6519784 845.18600158 142.53973389 857.08255005 C143.38247542 868.26815325 144.41259642 879.43147435 145.51953125 890.59375 C145.65695142 891.98454698 145.79436186 893.37534491 145.9317627 894.7661438 C146.54954837 901.0070928 147.17311916 907.24733082 147.81471634 913.4858799 C150.52528122 939.93930395 150.52528122 939.93930395 150 953 C104.05270431 977.39886693 50.46410079 986.42539427 -0.89923096 990.81707764 C-3.09619461 991.00837605 -5.29195373 991.2107708 -7.48779297 991.41455078 C-55.30634517 995.79117452 -104.12399121 995.56713211 -152 992 C-153.06154297 991.92523437 -154.12308594 991.85046875 -155.21679688 991.7734375 C-161.49583798 991.32044055 -167.74544755 990.71255741 -174 990 C-175.70567139 989.81099121 -175.70567139 989.81099121 -177.44580078 989.61816406 C-208.76552163 986.08239581 -239.69604195 980.30487255 -269.1875 968.875 C-270.00742432 968.56256348 -270.82734863 968.25012695 -271.67211914 967.92822266 C-272.43387451 967.61933105 -273.19562988 967.31043945 -273.98046875 966.9921875 C-274.96889771 966.59555908 -274.96889771 966.59555908 -275.97729492 966.19091797 C-279.00530448 964.40810196 -280.79675406 962.78775187 -283 960 C-283.74090913 956.65935183 -283.66749536 953.37801267 -283.62361908 949.96761227 C-283.63028709 948.94370055 -283.6369551 947.91978883 -283.64382517 946.86484948 C-283.66015235 943.41122145 -283.6406342 939.95871211 -283.62145996 936.50511169 C-283.6257862 934.01286859 -283.63229968 931.52062848 -283.64082003 929.02839619 C-283.65430834 923.59766181 -283.6521757 918.16727532 -283.63640213 912.73655319 C-283.61300812 904.65984651 -283.61817589 896.58333511 -283.62911103 888.50661103 C-283.64772097 874.07646086 -283.63796282 859.64643396 -283.61663339 845.21629383 C-283.59807922 832.57393071 -283.58965441 819.931609 -283.59120178 807.28923225 C-283.59129346 806.4507406 -283.59138513 805.61224895 -283.59147959 804.74834846 C-283.59187276 801.34441574 -283.59232239 797.94048304 -283.59285098 794.53655034 C-283.59772616 762.57650489 -283.57504045 730.61653276 -283.53889475 698.65651012 C-283.50696693 670.30541535 -283.49484009 641.95438334 -283.50097656 613.60327148 C-283.50136341 611.78615188 -283.50174987 609.96903228 -283.50213593 608.15191268 C-283.50232728 607.25354044 -283.50251862 606.35516819 -283.50271577 605.42957254 C-283.50367022 600.90661047 -283.50458457 596.38364839 -283.50545502 591.8606863 C-283.50562881 590.96824824 -283.5058026 590.07581018 -283.50598167 589.15632854 C-283.51034813 565.43860284 -283.50029697 541.72088384 -283.48561716 518.00316292 C-283.48509702 517.15804604 -283.48457688 516.31292915 -283.48404097 515.44220266 C-283.48352163 514.5986731 -283.48300229 513.75514354 -283.4824672 512.88605248 C-283.48194946 512.04411868 -283.48143172 511.20218489 -283.48089829 510.33473795 C-283.47985019 508.6391989 -283.47878997 506.94365985 -283.47771757 505.24812082 C-283.47036115 493.46772734 -283.46824439 481.68734345 -283.46971158 469.90694796 C-283.47156594 454.7010191 -283.46334524 439.49514923 -283.43807012 424.28923952 C-283.42500376 416.26332026 -283.41983586 408.23749494 -283.42670866 400.21156742 C-283.43091075 394.18747858 -283.41915848 388.16352418 -283.40163308 382.13945509 C-283.39694991 379.72526414 -283.39711936 377.31105698 -283.40304345 374.89686876 C-283.45139073 353.05873623 -282.08330286 331.06832036 -277.375 309.6875 C-276.99758667 307.92539185 -276.99758667 307.92539185 -276.61254883 306.12768555 C-264.30831595 250.6101951 -240.71150437 198.41050335 -217 147 C-216.47647949 145.86353027 -215.95295898 144.72706055 -215.41357422 143.55615234 C-214.03495226 140.574672 -212.64574426 137.59849631 -211.25 134.625 C-210.85594971 133.77542725 -210.46189941 132.92585449 -210.0559082 132.05053711 C-209.69198975 131.28362549 -209.32807129 130.51671387 -208.953125 129.7265625 C-208.49147949 128.74550537 -208.49147949 128.74550537 -208.02050781 127.74462891 C-206.03380732 124.34822659 -204.47048044 123.15219792 -200.69140625 121.9296875 C-199.31613941 121.57409682 -197.93974863 121.22283593 -196.5625 120.875 C-155.34088099 109.54505533 -116.82959664 81.06496414 -82.46484375 56.7421875 C-80.27442694 55.19396896 -78.07674906 53.65703215 -75.875 52.125 C-70.50403892 48.36847318 -65.31436921 44.49609227 -60.3125 40.25 C-53.01045753 34.05197986 -45.26735143 28.47966271 -37.52734375 22.84521484 C-34.14037069 20.37238425 -30.76983547 17.877644 -27.39941406 15.38232422 C-24.27475862 13.07260767 -21.14025701 10.77644913 -18.00585938 8.47998047 C-16.25767088 7.19011695 -14.52455149 5.88350683 -12.796875 4.56640625 C-11.50523437 3.60541016 -11.50523437 3.60541016 -10.1875 2.625 C-9.50042969 2.10164063 -8.81335938 1.57828125 -8.10546875 1.0390625 C-5.01174157 -0.48771195 -3.43807677 -0.59347754 0 0 Z " fill="#FEFEFE" id="left_path_2" transform="translate(446,46)"/>
<path d="M0 0 C4.27530967 3.42900264 8.30721038 7.07252554 12.2890625 10.8359375 C13.09085938 11.56167969 13.89265625 12.28742188 14.71875 13.03515625 C39.28367051 36.14815654 52.01719769 70.42188546 58.2890625 102.8359375 C58.53245361 104.05482666 58.53245361 104.05482666 58.78076172 105.29833984 C65.90064178 142.24970913 58.49250771 177.95785754 50.19140625 213.94140625 C50.01293655 214.71668671 49.83446686 215.49196716 49.65058899 216.29074097 C48.77657389 220.08601108 47.89730332 223.87985435 47.00512695 227.67089844 C45.0578369 236.01267848 43.43727055 244.34084873 42.2890625 252.8359375 C36.77596752 251.84177283 31.40287251 250.61273945 26.01049805 249.109375 C-26.87411511 234.49471133 -84.40575119 236.64969518 -136.96459961 251.31201172 C-139.97558559 252.15047993 -142.56788719 252.8359375 -145.7109375 252.8359375 C-145.84628906 251.81242187 -145.98164063 250.78890625 -146.12109375 249.734375 C-148.48103822 233.00354003 -152.61846769 216.67874134 -156.56982422 200.26904297 C-169.8276609 145.01628251 -168.61137354 88.96319815 -138.671875 38.90625 C-133.09489256 30.17416196 -126.83318926 22.35193976 -119.7109375 14.8359375 C-118.44443359 13.47275391 -118.44443359 13.47275391 -117.15234375 12.08203125 C-85.42405294 -21.02775263 -37.17322142 -27.47585931 0 0 Z " fill="#FEFEFE" id="left_path_3" transform="translate(482.7109375,173.1640625)"/>
<path d="M0 0 C3.13469617 1.85611566 5.88408585 4.11962136 8.6875 6.4375 C9.48623535 7.07985596 10.2849707 7.72221191 11.10791016 8.3840332 C12.69772541 9.66563868 14.28250557 10.953519 15.86181641 12.24804688 C17.62955882 13.69647341 19.40786371 15.12791002 21.19921875 16.546875 C27.05827763 21.23412211 32.60390985 26.21265352 38.09765625 31.31640625 C40.70297872 33.72536525 43.34269014 36.08631223 46 38.4375 C54.51493704 46.10504363 62.54765042 54.067714 69.65600586 63.07299805 C71.95683131 65.94609421 74.32959756 68.74315055 76.71875 71.54296875 C81.87434558 77.67790602 86.44722029 84.13160314 90.875 90.8125 C91.25952332 91.3913797 91.64404663 91.9702594 92.04022217 92.56668091 C119.63904762 134.2722525 132.83434004 181.41254544 137.77996826 230.81896973 C137.9996829 232.99685675 138.22789757 235.17372333 138.45751953 237.35058594 C140.3921699 255.92605298 141.26986531 274.38513575 141.25 293.0625 C141.24931519 293.95666626 141.24863037 294.85083252 141.2479248 295.77209473 C141.23166326 302.1829857 141.13496292 308.59058197 141 315 C140.98162079 315.95108643 140.96324158 316.90217285 140.94430542 317.88208008 C140.43042307 341.80974232 138.52230497 365.66621409 136.80297852 389.53015137 C136.40389394 395.08107336 136.00967027 400.63233983 135.61523438 406.18359375 C135.53820471 407.26623127 135.46117504 408.34886879 135.38181114 409.46431351 C134.99877949 414.84857775 134.61676693 420.23291172 134.23648071 425.61737061 C134.09014549 427.68729918 133.94377384 429.75722519 133.79736328 431.82714844 C133.69228927 433.31387621 133.69228927 433.31387621 133.58509254 434.83063889 C133.20785108 440.14669933 132.81467743 445.4610046 132.40185547 450.77441406 C128.75816703 498.84207393 128.58907272 547.13346844 128.62380028 595.31422138 C128.62501368 597.52491903 128.62509854 599.73561402 128.62483215 601.94631195 C128.6207851 646.83170372 129.27965468 691.54215423 132.72143555 736.31469727 C133.0925501 741.22440292 133.43039019 746.13616623 133.76811218 751.04826355 C135.38636344 774.53530349 137.38336536 797.9858119 139.57470703 821.42578125 C140.68332918 833.30401016 141.6519784 845.18600158 142.53973389 857.08255005 C143.38247542 868.26815325 144.41259642 879.43147435 145.51953125 890.59375 C145.65695142 891.98454698 145.79436186 893.37534491 145.9317627 894.7661438 C146.54954837 901.0070928 147.17311916 907.24733082 147.81471634 913.4858799 C150.52528122 939.93930395 150.52528122 939.93930395 150 953 C104.05270431 977.39886693 50.46410079 986.42539427 -0.89923096 990.81707764 C-3.09619461 991.00837605 -5.29195373 991.2107708 -7.48779297 991.41455078 C-55.30634517 995.79117452 -104.12399121 995.56713211 -152 992 C-153.06154297 991.92523437 -154.12308594 991.85046875 -155.21679688 991.7734375 C-161.49583798 991.32044055 -167.74544755 990.71255741 -174 990 C-175.70567139 989.81099121 -175.70567139 989.81099121 -177.44580078 989.61816406 C-208.76552163 986.08239581 -239.69604195 980.30487255 -269.1875 968.875 C-270.00742432 968.56256348 -270.82734863 968.25012695 -271.67211914 967.92822266 C-272.43387451 967.61933105 -273.19562988 967.31043945 -273.98046875 966.9921875 C-274.96889771 966.59555908 -274.96889771 966.59555908 -275.97729492 966.19091797 C-279.00530448 964.40810196 -280.79675406 962.78775187 -283 960 C-283.74090913 956.65935183 -283.66749536 953.37801267 -283.62361908 949.96761227 C-283.63028709 948.94370055 -283.6369551 947.91978883 -283.64382517 946.86484948 C-283.66015235 943.41122145 -283.6406342 939.95871211 -283.62145996 936.50511169 C-283.6257862 934.01286859 -283.63229968 931.52062848 -283.64082003 929.02839619 C-283.65430834 923.59766181 -283.6521757 918.16727532 -283.63640213 912.73655319 C-283.61300812 904.65984651 -283.61817589 896.58333511 -283.62911103 888.50661103 C-283.64772097 874.07646086 -283.63796282 859.64643396 -283.61663339 845.21629383 C-283.59807922 832.57393071 -283.58965441 819.931609 -283.59120178 807.28923225 C-283.59129346 806.4507406 -283.59138513 805.61224895 -283.59147959 804.74834846 C-283.59187276 801.34441574 -283.59232239 797.94048304 -283.59285098 794.53655034 C-283.59772616 762.57650489 -283.57504045 730.61653276 -283.53889475 698.65651012 C-283.50696693 670.30541535 -283.49484009 641.95438334 -283.50097656 613.60327148 C-283.50136341 611.78615188 -283.50174987 609.96903228 -283.50213593 608.15191268 C-283.50232728 607.25354044 -283.50251862 606.35516819 -283.50271577 605.42957254 C-283.50367022 600.90661047 -283.50458457 596.38364839 -283.50545502 591.8606863 C-283.50562881 590.96824824 -283.5058026 590.07581018 -283.50598167 589.15632854 C-283.51034813 565.43860284 -283.50029697 541.72088384 -283.48561716 518.00316292 C-283.48509702 517.15804604 -283.48457688 516.31292915 -283.48404097 515.44220266 C-283.48352163 514.5986731 -283.48300229 513.75514354 -283.4824672 512.88605248 C-283.48194946 512.04411868 -283.48143172 511.20218489 -283.48089829 510.33473795 C-283.47985019 508.6391989 -283.47878997 506.94365985 -283.47771757 505.24812082 C-283.47036115 493.46772734 -283.46824439 481.68734345 -283.46971158 469.90694796 C-283.47156594 454.7010191 -283.46334524 439.49514923 -283.43807012 424.28923952 C-283.42500376 416.26332026 -283.41983586 408.23749494 -283.42670866 400.21156742 C-283.43091075 394.18747858 -283.41915848 388.16352418 -283.40163308 382.13945509 C-283.39694991 379.72526414 -283.39711936 377.31105698 -283.40304345 374.89686876 C-283.45139073 353.05873623 -282.08330286 331.06832036 -277.375 309.6875 C-276.99758667 307.92539185 -276.99758667 307.92539185 -276.61254883 306.12768555 C-264.30831595 250.6101951 -240.71150437 198.41050335 -217 147 C-216.47647949 145.86353027 -215.95295898 144.72706055 -215.41357422 143.55615234 C-214.03495226 140.574672 -212.64574426 137.59849631 -211.25 134.625 C-210.85594971 133.77542725 -210.46189941 132.92585449 -210.0559082 132.05053711 C-209.69198975 131.28362549 -209.32807129 130.51671387 -208.953125 129.7265625 C-208.49147949 128.74550537 -208.49147949 128.74550537 -208.02050781 127.74462891 C-206.03380732 124.34822659 -204.47048044 123.15219792 -200.69140625 121.9296875 C-199.31613941 121.57409682 -197.93974863 121.22283593 -196.5625 120.875 C-155.34088099 109.54505533 -116.82959664 81.06496414 -82.46484375 56.7421875 C-80.27442694 55.19396896 -78.07674906 53.65703215 -75.875 52.125 C-70.50403892 48.36847318 -65.31436921 44.49609227 -60.3125 40.25 C-53.01045753 34.05197986 -45.26735143 28.47966271 -37.52734375 22.84521484 C-34.14037069 20.37238425 -30.76983547 17.877644 -27.39941406 15.38232422 C-24.27475862 13.07260767 -21.14025701 10.77644913 -18.00585938 8.47998047 C-16.25767088 7.19011695 -14.52455149 5.88350683 -12.796875 4.56640625 C-11.50523437 3.60541016 -11.50523437 3.60541016 -10.1875 2.625 C-9.50042969 2.10164063 -8.81335938 1.57828125 -8.10546875 1.0390625 C-5.01174157 -0.48771195 -3.43807677 -0.59347754 0 0 Z M14.15234375 28.1875 C5.12221148 34.70776816 -4.1568744 40.84440119 -13.4375 47 C-15.12579799 48.12217478 -16.81394963 49.24456978 -18.50195312 50.3671875 C-21.79309679 52.55568442 -25.0852735 54.74261408 -28.37817383 56.9284668 C-31.95394774 59.30304142 -35.52412929 61.68582429 -39.09204102 64.07218933 C-45.99321661 68.68576916 -52.93870866 73.22282371 -59.9375 77.6875 C-61.52630981 78.70215332 -61.52630981 78.70215332 -63.1472168 79.73730469 C-80.94223334 91.0816442 -98.82119497 102.27950594 -117 113 C-117.96566895 113.57186035 -118.93133789 114.1437207 -119.92626953 114.73291016 C-140.87000061 127.10376702 -162.1693995 139.05396304 -184.5625 148.625 C-185.86018311 149.19118042 -185.86018311 149.19118042 -187.18408203 149.76879883 C-191.72756848 151.63768794 -195.9466547 153.0452339 -200.81860352 153.71606445 C-210.02165661 154.95599679 -210.02165661 154.95599679 -217.71200562 159.70458984 C-221.44356739 164.95364546 -223.57276239 170.94569975 -225.8125 176.9375 C-226.58676556 178.83892124 -227.36764415 180.73766172 -228.15478516 182.63378906 C-230.14177949 187.46862522 -232.03792566 192.33387772 -233.91473389 197.21234131 C-235.5704661 201.46532244 -237.31933984 205.67846167 -239.06640625 209.89453125 C-251.504051 240.13068291 -262.70907583 271.09409369 -270 303 C-270.31420898 304.36970947 -270.31420898 304.36970947 -270.63476562 305.76708984 C-278.50883802 340.57844086 -278.15829594 375.77307744 -278.13422441 411.26912069 C-278.13227737 415.28821128 -278.13395332 419.30729762 -278.13556135 423.32638812 C-278.13997473 434.47582692 -278.13692408 445.62525302 -278.13056505 456.77469039 C-278.12587015 465.10149267 -278.12350549 473.42829297 -278.12231445 481.75509644 C-278.10727179 570.42656453 -277.86722033 659.09745561 -277 931 C-272.95578759 932.36845956 -268.90985677 933.7316862 -264.86239624 935.09049988 C-263.49145298 935.55151663 -262.12095337 936.0138552 -260.75094604 936.47764587 C-237.60778556 944.30914216 -214.14254909 948.68902184 -190 952 C-188.30351318 952.23396484 -188.30351318 952.23396484 -186.57275391 952.47265625 C-146.61386287 957.81897164 -106.22645282 957.42217016 -66 957 C-65.07455383 956.99033203 -64.14910767 956.98066406 -63.19561768 956.97070312 C6.5317977 956.17828985 78.31633863 947.98865662 142 918 C141.31716553 903.34364089 139.96487134 888.74682293 138.64562988 874.13729858 C137.96462307 866.59350062 137.29404691 859.04877309 136.625 851.50390625 C136.55681313 850.73545191 136.48862625 849.96699757 136.41837311 849.17525673 C134.73775645 830.21179201 133.18344639 811.23851705 131.64941406 792.26269531 C131.55281494 791.06922989 131.45621582 789.87576447 131.35668945 788.64613342 C131.18222803 786.48737396 131.00845291 784.3285588 130.83569336 782.16966248 C130.43570631 777.20713615 130.02607424 772.24665157 129.56141663 767.28973389 C127.91893352 749.54883328 126.8527175 731.78121988 125.90234375 713.9921875 C125.85805323 713.16576295 125.81376272 712.33933841 125.76813006 711.48787069 C123.80016166 674.49696539 123.40976475 637.57222557 123.54226625 600.53645205 C123.56152619 594.74869119 123.56277518 588.96112233 123.55395508 583.17333984 C123.48987544 539.6879498 124.35087684 496.41340487 127 453 C127.09850565 451.38087582 127.09850565 451.38087582 127.19900131 449.72904205 C128.00818189 436.53047979 128.91319745 423.33972803 129.87078857 410.15118408 C130.19802107 405.62587429 130.51772577 401.10003313 130.83789062 396.57421875 C130.9013137 395.67929403 130.96473677 394.78436932 131.03008175 393.86232567 C131.3426994 389.45064905 131.65451967 385.03891741 131.96522522 380.62710571 C132.02462752 379.78421179 132.08402983 378.94131786 132.1452322 378.0728817 C132.26259554 376.40737402 132.37984381 374.74185823 132.49697208 373.076334 C132.76266332 369.30968202 133.03220791 365.54343145 133.31491089 361.77801514 C134.89331044 340.70802114 135.44074935 319.7437441 135.4375 298.625 C135.43864618 297.41038589 135.43864618 297.41038589 135.43981552 296.17123413 C135.46205729 267.53159005 134.17156753 239.37768604 130 211 C129.89625061 210.28183105 129.79250122 209.56366211 129.68560791 208.82373047 C121.67685165 153.84144611 98.69762712 103.13600231 61.03515625 62.21875 C59.2045558 60.22300901 57.44163517 58.18769389 55.6875 56.125 C48.44690325 47.82357163 40.46752782 40.04041639 32 33 C31.04351562 32.20078125 30.08703125 31.4015625 29.1015625 30.578125 C21.79283935 23.74226037 21.79283935 23.74226037 14.15234375 28.1875 Z " fill="#090909" id="left_path_4" transform="translate(446,46)"/>
<path d="M0 0 C35.56398095 31.53375952 53.22726133 78.58848059 56.38964844 125.359375 C56.67237478 130.4518762 56.81088304 135.53689268 56.86328125 140.63671875 C56.88092529 141.55437012 56.89856934 142.47202148 56.91674805 143.41748047 C56.89801572 163.42020039 52.3040963 182.94006209 47.61328125 202.26171875 C42.02379843 225.43987376 37.76767224 248.56802539 34.61816406 272.19433594 C34.31730283 274.43893155 34.00868792 276.68235877 33.69921875 278.92578125 C33.52567871 280.2195166 33.35213867 281.51325195 33.17333984 282.84619141 C31.81865235 290.27837887 31.81865235 290.27837887 28.375 292.94921875 C25.10418615 294.46926502 21.86354598 295.45710861 18.36328125 296.26171875 C17.63262451 296.42978027 16.90196777 296.5978418 16.14916992 296.77099609 C-28.27134164 306.36877976 -76.28803323 305.03982612 -121.19921875 299.38671875 C-122.41601318 299.23750977 -123.63280762 299.08830078 -124.88647461 298.93457031 C-149.46740498 295.6253061 -149.46740498 295.6253061 -154.44921875 289.26171875 C-155.27660225 286.45474362 -155.85049096 283.88160143 -156.32421875 281.01171875 C-156.48583496 280.11606201 -156.64745117 279.22040527 -156.81396484 278.29760742 C-157.90867555 272.03478477 -158.81263203 265.74991219 -159.68359375 259.453125 C-160.14312992 256.15958256 -160.60689435 252.8666651 -161.07421875 249.57421875 C-161.19455475 248.72501862 -161.31489075 247.87581848 -161.43887329 247.00088501 C-163.40135249 233.36195019 -166.19581377 220.06898061 -169.51171875 206.69921875 C-178.69023099 169.38729171 -184.78093676 131.26084722 -175.44921875 93.26171875 C-175.2078418 92.27606934 -174.96646484 91.29041992 -174.71777344 90.27490234 C-164.51926788 50.02608324 -143.65879481 11.17745602 -107.19384766 -10.71728516 C-71.38875939 -31.6712285 -31.20865273 -25.99869761 0 0 Z M-111.44921875 -2.73828125 C-112.23167969 -2.17882812 -113.01414062 -1.619375 -113.8203125 -1.04296875 C-125.52699323 7.83796146 -136.57091749 18.839501 -144.44921875 31.26171875 C-144.82852539 31.85082031 -145.20783203 32.43992188 -145.59863281 33.046875 C-174.99141949 79.12582799 -180.62764706 133.57248487 -169.44921875 186.26171875 C-167.65588987 194.28086021 -165.68776008 202.26011676 -163.66015625 210.22290039 C-160.21271977 223.79408353 -157.67517783 237.43458468 -155.44921875 251.26171875 C-150.16916924 250.25564737 -144.92355852 249.16023991 -139.69921875 247.89453125 C-114.87873056 241.88531866 -90.37379634 238.03930215 -64.82421875 238.07421875 C-63.59984604 238.07512512 -63.59984604 238.07512512 -62.35073853 238.0760498 C-31.50452561 238.13780474 -2.44383625 242.05976682 27.2043457 250.68261719 C29.63340898 251.38152424 29.63340898 251.38152424 32.55078125 251.26171875 C32.68884438 250.40317291 32.68884438 250.40317291 32.82969666 249.52728271 C35.46527663 233.32763806 38.95884351 217.4517595 42.84448242 201.51220703 C46.00694077 188.49106856 48.7846441 175.55081351 50.55078125 162.26171875 C50.67936523 161.30297852 50.80794922 160.34423828 50.94042969 159.35644531 C56.04024521 115.24751456 45.51949875 63.93697923 18.98828125 27.69921875 C14.73947962 22.33976547 10.24818621 17.23074236 5.55078125 12.26171875 C4.7928125 11.43929687 4.03484375 10.616875 3.25390625 9.76953125 C-12.90285736 -7.17923058 -34.01463314 -18.52500129 -57.70068359 -19.15795898 C-77.46022326 -19.28051178 -95.29096342 -14.37622095 -111.44921875 -2.73828125 Z " fill="#0A0A0A" id="left_path_5" transform="translate(492.44921875,174.73828125)"/>
<path d="M0 0 C0.66 8.58 1.32 17.16 2 26 C-43.51807516 49.58663895 -95.61924451 58.06330318 -146.25 62.75 C-147.49587891 62.86569336 -148.74175781 62.98138672 -150.02539062 63.10058594 C-154.0145338 63.44325646 -158.00475999 63.74015982 -162 64 C-162.73243927 64.04805786 -163.46487854 64.09611572 -164.21951294 64.14562988 C-183.78127337 65.35521931 -203.39927835 65.22175365 -222.98999023 65.24023438 C-226.92465643 65.24458858 -230.85909959 65.25838827 -234.79370117 65.28125 C-255.49006224 65.39886706 -276.07791026 65.21845187 -296.72265625 63.6328125 C-297.52272535 63.57166512 -298.32279446 63.51051773 -299.14710808 63.4475174 C-389.45929685 56.36046877 -389.45929685 56.36046877 -420 36 C-420.34057617 33.66162109 -420.34057617 33.66162109 -420.29296875 30.7734375 C-420.28330078 29.7421875 -420.27363281 28.7109375 -420.26367188 27.6484375 C-420.23853516 26.56820312 -420.21339844 25.48796875 -420.1875 24.375 C-420.17396484 23.28703125 -420.16042969 22.1990625 -420.14648438 21.078125 C-420.11104754 18.38492591 -420.06164331 15.69270626 -420 13 C-414.256033 14.52380741 -408.54289105 16.11754041 -402.86328125 17.8671875 C-356.7246531 32.06882234 -308.47867525 37.15150054 -260.328125 37.16796875 C-258.07159404 37.17119526 -255.81506328 37.17456028 -253.55853271 37.17805481 C-248.84874997 37.18400274 -244.13898545 37.18589937 -239.42919922 37.18530273 C-234.66451195 37.18522174 -229.89992136 37.19212816 -225.13525391 37.20581055 C-187.02212211 37.33373832 -187.02212211 37.33373832 -149 35 C-148.14402222 34.92429779 -147.28804443 34.84859558 -146.40612793 34.77059937 C-141.51121449 34.33699776 -136.63089349 33.82334139 -131.75 33.25 C-130.68709747 33.12644638 -130.68709747 33.12644638 -129.60272217 33.00039673 C-87.12734705 28.01396431 -43.420038 19.53195595 -4.53515625 1.14453125 C-2 0 -2 0 0 0 Z " fill="#FDFDFD" id="left_path_6" transform="translate(589,969)"/>
<path d="M0 0 C-0.4740227 4.10477797 -0.95509587 8.20869928 -1.4375 12.3125 C-1.63956055 14.06336914 -1.63956055 14.06336914 -1.84570312 15.84960938 C-1.97783203 16.96787109 -2.10996094 18.08613281 -2.24609375 19.23828125 C-2.36654053 20.26993408 -2.4869873 21.30158691 -2.61108398 22.36450195 C-3 25 -3 25 -4 28 C-4.58990723 27.81824219 -5.17981445 27.63648438 -5.78759766 27.44921875 C-25.99804636 21.29495368 -45.93637973 17.65088796 -67 16 C-67.89928223 15.92942383 -68.79856445 15.85884766 -69.72509766 15.78613281 C-74.81590073 15.40755253 -79.89767486 15.16023003 -85 15 C-86.22074219 14.95875 -87.44148438 14.9175 -88.69921875 14.875 C-101.83616802 14.65536448 -114.92395382 15.85837355 -128 17 C-128.7734375 17.06413086 -129.546875 17.12826172 -130.34375 17.19433594 C-147.80180003 18.70316155 -165.17631499 23.24911145 -182 28 C-184.05805771 18.6416621 -185.53079589 9.59441508 -186 0 C-169.212251 -5.030528 -152.53565109 -9.14341878 -135.1875 -11.6875 C-133.97126953 -11.86671997 -133.97126953 -11.86671997 -132.73046875 -12.04956055 C-89.39435393 -18.0438689 -41.23717994 -14.67653963 0 0 Z " fill="#FDFDFD" id="left_path_7" transform="translate(524,431)"/>
<path d="M0 0 C2.32923967 1.24809323 4.37395577 2.54792688 6.47143555 4.15087891 C7.17719727 4.68583984 7.88295898 5.22080078 8.61010742 5.77197266 C9.33133789 6.32755859 10.05256836 6.88314453 10.7956543 7.45556641 C11.90650391 8.30054688 11.90650391 8.30054688 13.03979492 9.16259766 C14.85817039 10.5469093 16.67240104 11.93630867 18.4831543 13.33056641 C7.04724772 25.28336494 -8.57537466 33.74314797 -22.3293457 42.76806641 C-24.24161065 44.02629355 -26.15372079 45.28475598 -28.06567383 46.54345703 C-37.95148363 53.0469483 -47.85911219 59.5153132 -57.80297852 65.9296875 C-61.10774198 68.06240766 -64.40085782 70.2126076 -67.69219971 72.3659668 C-94.92097248 90.16827066 -123.02003831 106.6528923 -151.5168457 122.33056641 C-152.42289551 122.83362305 -153.32894531 123.33667969 -154.26245117 123.85498047 C-172.01278417 133.67262792 -191.21647425 143.49795644 -211.5168457 146.33056641 C-204.88584741 124.97944623 -204.88584741 124.97944623 -197.77026367 120.14355469 C-194.43443812 118.74182161 -190.9843114 118.1421617 -187.4465332 117.45166016 C-152.60179175 110.51254226 -117.37090362 81.96764643 -88.5168457 62.33056641 C-87.56358398 61.68442383 -86.61032227 61.03828125 -85.62817383 60.37255859 C-75.23343616 53.30946761 -65.02468583 46.16711446 -55.36450195 38.12109375 C-48.14842198 32.12679371 -40.5684446 26.64728437 -32.98413086 21.13183594 C-30.44881655 19.28090095 -27.92475181 17.41553485 -25.40356445 15.54541016 C-24.14443237 14.61233032 -24.14443237 14.61233032 -22.85986328 13.66040039 C-21.2715303 12.48278087 -19.68405755 11.30399974 -18.09765625 10.1237793 C-16.64275629 9.04788824 -15.18202606 7.97982881 -13.71508789 6.92041016 C-12.17551992 5.80694207 -10.65122212 4.67219479 -9.13891602 3.52197266 C-8.35871094 2.95349609 -7.57850586 2.38501953 -6.7746582 1.79931641 C-6.07743652 1.27789062 -5.38021484 0.75646484 -4.66186523 0.21923828 C-2.5168457 -0.66943359 -2.5168457 -0.66943359 0 0 Z " fill="#FCFCFC" id="left_path_8" transform="translate(444.516845703125,52.66943359375)"/>
<path d="M0 0 C-3.13648947 3.13648947 -6.97561494 3.18074212 -11.25 3.9375 C-12.2085791 4.10934814 -13.1671582 4.28119629 -14.15478516 4.45825195 C-64.11899362 12.97263352 -124.02927787 15.59962551 -173 1 C-172 -1 -172 -1 -169.16796875 -2.11328125 C-155.40032773 -6.41880459 -141.23409711 -8.81176681 -127 -11 C-126.13020508 -11.13567383 -125.26041016 -11.27134766 -124.36425781 -11.41113281 C-85.32292987 -17.15488392 -36.5881514 -15.66813182 0 0 Z " fill="#FBFBFB" id="left_path_9" transform="translate(518,463)"/>
<path d="M0 0 C3.37498158 -0.02922646 6.74993021 -0.04687468 10.125 -0.0625 C11.55199219 -0.07506836 11.55199219 -0.07506836 13.0078125 -0.08789062 C17.79018487 -0.10449608 22.29771569 -0.00537055 27 1 C26.01 2.485 26.01 2.485 25 4 C22.38623047 4.34057617 22.38623047 4.34057617 19.1171875 4.29296875 C17.95058594 4.28330078 16.78398437 4.27363281 15.58203125 4.26367188 C14.35871094 4.23853516 13.13539063 4.21339844 11.875 4.1875 C10.64394531 4.17396484 9.41289062 4.16042969 8.14453125 4.14648438 C5.09592157 4.11103543 2.048175 4.06162079 -1 4 C-0.67 2.68 -0.34 1.36 0 0 Z " fill="#010101" id="left_path_10" transform="translate(294,1002)"/>
<path d="M0 0 C3.96 0 7.92 0 12 0 C12.33 1.32 12.66 2.64 13 4 C11.41705218 4.05437607 9.83355744 4.09296271 8.25 4.125 C7.36828125 4.14820313 6.4865625 4.17140625 5.578125 4.1953125 C2.8864142 3.99139502 1.30095026 3.36551721 -1 2 C-0.67 1.34 -0.34 0.68 0 0 Z " fill="#040404" id="left_path_11" transform="translate(451,447)"/>
</svg>